<svg width="152" height="169" viewBox="0 0 152 169" fill="none" xmlns="http://www.w3.org/2000/svg">
<path d="M76 0C119.328 0 152 21.7968 152 50.7C152 88.2898 100.151 169 76 169C50.4302 169 0 90.5037 0 50.7C0 21.7968 32.6716 0 76 0ZM76 160.55C93.8009 160.55 143.556 85.2859 143.556 50.7C143.556 26.6133 114.511 8.45 76 8.45C37.4891 8.45 8.44444 26.6133 8.44444 50.7C8.44444 89.9418 58.7438 160.55 76 160.55ZM33.3471 82.7128L25.6964 86.2787C30.1678 95.899 53.4111 143.899 71.7778 143.899V135.449C65.0856 135.449 48.4922 115.288 33.3471 82.7128ZM16.8889 54.925H25.3333C25.3333 37.7884 46.6429 25.35 76 25.35V16.9C41.1962 16.9 16.8889 32.5367 16.8889 54.925Z" fill="#313113"/>
</svg>
