<svg width="133" height="148" viewBox="0 0 133 148" fill="none" xmlns="http://www.w3.org/2000/svg">
<path d="M66.5 0C104.405 0 133 19.092 133 44.4C133 77.33 87.6322 148 66.5 148C44.1117 148 0 79.254 0 44.4C0 19.092 28.595 0 66.5 0ZM66.5 14.8C36.0578 14.8 14.7778 28.49 14.7778 48.1H22.1667C22.1667 33.078 40.8236 22.2 66.5 22.2V14.8ZM62.8056 118.622C56.9683 118.622 42.4492 100.973 29.1861 72.4497L22.4955 75.5577C26.3783 83.99 46.7347 126.022 62.8056 126.022V118.622Z" fill="#A27C67"/>
<path d="M66.7227 15C36.2804 15 15.0004 28.69 15.0004 48.3H22.3893C22.3893 33.278 41.0463 22.4 66.7227 22.4V15ZM63.0282 118.822C57.191 118.822 42.6718 101.173 29.4088 72.6497L22.7181 75.7577C26.601 84.19 46.9574 126.222 63.0282 126.222V118.822Z" fill="white"/>
</svg>
