<svg width="139" height="148" viewBox="0 0 139 148" fill="none" xmlns="http://www.w3.org/2000/svg">
<path d="M69.108 0C108.499 0 138.216 19.092 138.216 44.4C138.216 77.33 91.0689 148 69.108 148C45.8417 148 0.000137329 79.254 0.000137329 44.4C0.000137329 19.092 29.7165 0 69.108 0ZM69.108 14.8C37.4719 14.8 15.3574 28.49 15.3574 48.1H23.0361C23.0361 33.078 42.4247 22.2 69.108 22.2V14.8ZM65.2687 118.622C59.2025 118.622 44.114 100.973 30.3308 72.4497L23.3778 75.5577C27.4129 83.99 48.5676 126.022 65.2687 126.022V118.622Z" fill="#A27C67"/>
</svg>
