<svg width="28" height="28" viewBox="0 0 28 28" fill="none" xmlns="http://www.w3.org/2000/svg">
<path d="M1.4 15.4H1.638C3.1122 15.4 4.3792 16.3366 4.9378 17.7016L4.9672 17.7702C5.5384 19.138 5.3158 20.706 4.2672 21.7546L4.1006 21.9212C3.97062 22.0512 3.86751 22.2055 3.79716 22.3753C3.72682 22.5452 3.69061 22.7272 3.69061 22.911C3.69061 23.0948 3.72682 23.2768 3.79716 23.4467C3.86751 23.6165 3.97062 23.7708 4.1006 23.9008C4.23058 24.0308 4.38489 24.1339 4.55472 24.2042C4.72455 24.2746 4.90658 24.3108 5.0904 24.3108C5.27422 24.3108 5.45625 24.2746 5.62608 24.2042C5.79591 24.1339 5.95022 24.0308 6.0802 23.9008L6.2468 23.7342C7.2954 22.6856 8.8634 22.463 10.2312 23.0342L10.2998 23.0636C11.6634 23.6208 12.6 24.8948 12.6 26.369V26.4824C12.6 27.3742 13.2258 28 14 28C14.7742 28 15.4 27.3742 15.4 26.6V26.5496C15.4 25.0152 16.324 23.632 17.7422 23.0454L17.7506 23.0412C18.4439 22.7542 19.2067 22.6793 19.9425 22.8258C20.6784 22.9723 21.3543 23.3338 21.8848 23.8644L21.9198 23.8994C22.0498 24.0294 22.2041 24.1325 22.3739 24.2028C22.5438 24.2732 22.7258 24.3094 22.9096 24.3094C23.0934 24.3094 23.2754 24.2732 23.4453 24.2028C23.6151 24.1325 23.7694 24.0294 23.8994 23.8994C24.0294 23.7694 24.1325 23.6151 24.2028 23.4453C24.2732 23.2754 24.3094 23.0934 24.3094 22.9096C24.3094 22.7258 24.2732 22.5438 24.2028 22.3739C24.1325 22.2041 24.0294 22.0498 23.8994 21.9198L23.849 21.8694C23.3231 21.343 22.9648 20.6726 22.8196 19.9428C22.6743 19.213 22.7485 18.4565 23.0328 17.7688L23.0706 17.6792C23.3501 17.0047 23.8233 16.4283 24.4303 16.0226C25.0373 15.6169 25.7509 15.4003 26.481 15.4H26.4824C27.3742 15.4 28 14.7742 28 14C28 13.2258 27.3742 12.6 26.6 12.6H26.5048C25.7676 12.6002 25.0469 12.3816 24.4341 11.9718C23.8212 11.5621 23.3438 10.9797 23.0622 10.2984L23.0328 10.2298C22.7485 9.54212 22.6743 8.78564 22.8196 8.05583C22.9648 7.32602 23.3231 6.6556 23.849 6.1292L23.8994 6.0788C24.1619 5.81629 24.3094 5.46025 24.3094 5.089C24.3094 4.71775 24.1619 4.36171 23.8994 4.0992C23.6369 3.83669 23.2808 3.68921 22.9096 3.68921C22.5384 3.68921 22.1823 3.83669 21.9198 4.0992L21.8694 4.1496C21.3431 4.67571 20.6727 5.03403 19.9428 5.1793C19.213 5.32457 18.4564 5.25028 17.7688 4.9658L17.5686 4.8818C16.9265 4.61669 16.3776 4.16685 15.9915 3.58934C15.6054 3.01184 15.3996 2.33268 15.4 1.638V1.519C15.4 0.625799 14.7742 4.76837e-07 14 4.76837e-07C13.2258 4.76837e-07 12.6 0.6272 12.6 1.4V1.638C12.6 3.059 11.7446 4.34 10.43 4.8832L10.0772 5.0288C9.43493 5.29517 8.72804 5.36486 8.04612 5.22903C7.36421 5.09319 6.73797 4.75795 6.2468 4.2658L6.0802 4.0992C5.95022 3.96922 5.79591 3.86611 5.62608 3.79576C5.45625 3.72542 5.27422 3.68921 5.0904 3.68921C4.90658 3.68921 4.72455 3.72542 4.55472 3.79576C4.38489 3.86611 4.23058 3.96922 4.1006 4.0992C3.97062 4.22918 3.86751 4.38349 3.79716 4.55332C3.72682 4.72316 3.69061 4.90518 3.69061 5.089C3.69061 5.27282 3.72682 5.45485 3.79716 5.62468C3.86751 5.79451 3.97062 5.94882 4.1006 6.0788L4.2672 6.2454C5.3158 7.294 5.5384 8.862 4.9672 10.2298L4.9378 10.2984C4.3792 11.6634 3.1052 12.6 1.631 12.6H1.519C0.625799 12.6 4.76837e-07 13.2258 4.76837e-07 14C4.76837e-07 14.7742 0.625801 15.4 1.4 15.4V15.4ZM19.6 12.6C19.9713 12.6 20.3274 12.7475 20.5899 13.0101C20.8525 13.2726 21 13.6287 21 14C21 14.3713 20.8525 14.7274 20.5899 14.9899C20.3274 15.2525 19.9713 15.4 19.6 15.4C19.2287 15.4 18.8726 15.2525 18.6101 14.9899C18.3475 14.7274 18.2 14.3713 18.2 14C18.2 13.6287 18.3475 13.2726 18.6101 13.0101C18.8726 12.7475 19.2287 12.6 19.6 12.6V12.6ZM12.6 7.7C12.9713 7.7 13.3274 7.8475 13.5899 8.11005C13.8525 8.3726 14 8.7287 14 9.1C14 9.4713 13.8525 9.8274 13.5899 10.0899C13.3274 10.3525 12.9713 10.5 12.6 10.5C12.2287 10.5 11.8726 10.3525 11.6101 10.0899C11.3475 9.8274 11.2 9.4713 11.2 9.1C11.2 8.7287 11.3475 8.3726 11.6101 8.11005C11.8726 7.8475 12.2287 7.7 12.6 7.7ZM11.2 14C11.5678 14.0001 11.932 14.0726 12.2717 14.2135C12.6115 14.3543 12.9202 14.5607 13.1802 14.8208C13.4402 15.0809 13.6464 15.3897 13.7871 15.7296C13.9277 16.0694 14.0001 16.4336 14 16.8014C13.9999 17.1692 13.9274 17.5334 13.7865 17.8731C13.6457 18.2129 13.4393 18.5216 13.1792 18.7816C12.9191 19.0416 12.6103 19.2478 12.2704 19.3885C11.9306 19.5291 11.5664 19.6015 11.1986 19.6014C10.4558 19.6012 9.74351 19.306 9.21841 18.7806C8.69331 18.2552 8.39842 17.5428 8.3986 16.8C8.39879 16.0572 8.69404 15.3449 9.2194 14.8198C9.74477 14.2947 10.4572 13.9998 11.2 14V14Z" fill="#CCCCCC"/>
</svg>
