<svg width="46" height="46" viewBox="0 0 46 46" fill="none" xmlns="http://www.w3.org/2000/svg">
<path d="M43.7 20.7H43.309C40.8871 20.7 38.8056 19.1613 37.8879 16.9188L37.8396 16.8061C36.9012 14.559 37.2669 11.983 38.9896 10.2603L39.2633 9.9866C39.4768 9.77306 39.6462 9.51955 39.7618 9.24054C39.8774 8.96153 39.9369 8.6625 39.9369 8.3605C39.9369 8.05851 39.8774 7.75947 39.7618 7.48046C39.6462 7.20145 39.4768 6.94794 39.2633 6.7344C39.0498 6.52086 38.7962 6.35147 38.5172 6.2359C38.2382 6.12033 37.9392 6.06085 37.6372 6.06085C37.3352 6.06085 37.0362 6.12033 36.7572 6.2359C36.4782 6.35147 36.2246 6.52086 36.0111 6.7344L35.7374 7.0081C34.0147 8.7308 31.4387 9.0965 29.1916 8.1581L29.0789 8.1098C26.8387 7.1944 25.3 5.1014 25.3 2.6795V2.4932C25.3 1.0281 24.2719 0 23 0C21.7281 0 20.7 1.0281 20.7 2.3V2.3828C20.7 4.9036 19.182 7.176 16.8521 8.1397L16.8383 8.1466C15.6993 8.61804 14.4462 8.74118 13.2372 8.50046C12.0283 8.25974 10.9179 7.66596 10.0464 6.7942L9.9889 6.7367C9.77536 6.52316 9.52185 6.35377 9.24284 6.2382C8.96383 6.12263 8.6648 6.06315 8.3628 6.06315C8.06081 6.06315 7.76177 6.12263 7.48276 6.2382C7.20375 6.35377 6.95024 6.52316 6.7367 6.7367C6.52316 6.95024 6.35377 7.20375 6.2382 7.48276C6.12263 7.76177 6.06315 8.06081 6.06315 8.3628C6.06315 8.6648 6.12263 8.96383 6.2382 9.24284C6.35377 9.52185 6.52316 9.77536 6.7367 9.9889L6.8195 10.0717C7.68356 10.9365 8.27205 12.0379 8.5107 13.2369C8.74934 14.4358 8.62745 15.6786 8.1604 16.8084L8.0983 16.9556C7.63908 18.0636 6.86176 19.0107 5.86453 19.6772C4.86731 20.3436 3.69492 20.6995 2.4955 20.7H2.4932C1.0281 20.7 0 21.7281 0 23C0 24.2719 1.0281 25.3 2.3 25.3H2.4564C3.66751 25.2997 4.85147 25.6588 5.8583 26.332C6.86512 27.0051 7.64951 27.9619 8.1121 29.0812L8.1604 29.1939C8.62745 30.3237 8.74934 31.5665 8.5107 32.7654C8.27205 33.9644 7.68356 35.0658 6.8195 35.9306L6.7367 36.0134C6.30543 36.4447 6.06315 37.0296 6.06315 37.6395C6.06315 38.2494 6.30543 38.8343 6.7367 39.2656C7.16797 39.6969 7.75289 39.9392 8.3628 39.9392C8.97271 39.9392 9.55763 39.6969 9.9889 39.2656L10.0717 39.1828C10.9363 38.3185 12.0377 37.7298 13.2368 37.4911C14.4358 37.2525 15.6787 37.3745 16.8084 37.8419L17.1373 37.9799C18.1922 38.4154 19.0939 39.1545 19.7282 40.1032C20.3625 41.052 20.7007 42.1677 20.7 43.309V43.5045C20.7 44.9719 21.7281 46 23 46C24.2719 46 25.3 44.9696 25.3 43.7V43.309C25.3 40.9745 26.7053 38.87 28.865 37.9776L29.4446 37.7384C30.4998 37.3008 31.6611 37.1863 32.7814 37.4095C33.9017 37.6326 34.9305 38.1834 35.7374 38.9919L36.0111 39.2656C36.2246 39.4791 36.4782 39.6485 36.7572 39.7641C37.0362 39.8797 37.3352 39.9392 37.6372 39.9392C37.9392 39.9392 38.2382 39.8797 38.5172 39.7641C38.7962 39.6485 39.0498 39.4791 39.2633 39.2656C39.4768 39.0521 39.6462 38.7985 39.7618 38.5195C39.8774 38.2405 39.9369 37.9415 39.9369 37.6395C39.9369 37.3375 39.8774 37.0385 39.7618 36.7595C39.6462 36.4805 39.4768 36.2269 39.2633 36.0134L38.9896 35.7397C37.2669 34.017 36.9012 31.441 37.8396 29.1939L37.8879 29.0812C38.8056 26.8387 40.8986 25.3 43.3205 25.3H43.5045C44.9719 25.3 46 24.2719 46 23C46 21.7281 44.9719 20.7 43.7 20.7ZM13.8 25.3C13.19 25.3 12.605 25.0577 12.1737 24.6263C11.7423 24.195 11.5 23.61 11.5 23C11.5 22.39 11.7423 21.805 12.1737 21.3737C12.605 20.9423 13.19 20.7 13.8 20.7C14.41 20.7 14.995 20.9423 15.4263 21.3737C15.8577 21.805 16.1 22.39 16.1 23C16.1 23.61 15.8577 24.195 15.4263 24.6263C14.995 25.0577 14.41 25.3 13.8 25.3ZM25.3 33.35C24.69 33.35 24.105 33.1077 23.6737 32.6763C23.2423 32.245 23 31.66 23 31.05C23 30.44 23.2423 29.855 23.6737 29.4237C24.105 28.9923 24.69 28.75 25.3 28.75C25.91 28.75 26.495 28.9923 26.9263 29.4237C27.3577 29.855 27.6 30.44 27.6 31.05C27.6 31.66 27.3577 32.245 26.9263 32.6763C26.495 33.1077 25.91 33.35 25.3 33.35ZM27.6 23C26.9958 22.9998 26.3975 22.8807 25.8393 22.6493C25.2811 22.4179 24.774 22.0789 24.3468 21.6515C23.9197 21.2242 23.5809 20.7169 23.3498 20.1586C23.1187 19.6003 22.9998 19.0019 23 18.3977C23.0002 17.7935 23.1193 17.1952 23.3507 16.637C23.5821 16.0788 23.9211 15.5717 24.3485 15.1445C24.7758 14.7174 25.2831 14.3786 25.8414 14.1475C26.3997 13.9164 26.9981 13.7975 27.6023 13.7977C28.8226 13.798 29.9928 14.2831 30.8555 15.1462C31.7181 16.0093 32.2026 17.1797 32.2023 18.4C32.202 19.6203 31.7169 20.7905 30.8538 21.6532C29.9907 22.5158 28.8203 23.0003 27.6 23Z" fill="#E5D6CC"/>
</svg>
