<svg width="466" height="519" viewBox="0 0 466 519" fill="none" xmlns="http://www.w3.org/2000/svg">
<path d="M232.885 0C100.141 0 0 66.8608 0 155.49C0 270.812 158.879 518.301 232.885 518.301C311.29 518.301 465.77 277.55 465.77 155.49C465.77 66.8608 365.63 0 232.885 0ZM232.885 51.8301C339.495 51.8301 414.018 99.7729 414.018 168.448H388.142C388.142 115.84 322.805 77.7451 232.885 77.7451V51.8301ZM245.823 415.418C266.265 415.418 317.112 353.611 363.56 253.721L386.99 264.605C373.392 294.136 302.104 441.333 245.823 441.333V415.418Z" fill="#313131"/>
<path d="M229.999 45C335.997 33.1953 420.387 87.5288 421 168.552C408.096 174.773 400.86 178.278 387.957 168.552C383.795 122.331 318.357 84.3903 232.7 77.8495C226.292 66.4974 221.373 53.4622 229.999 45ZM240 411C243.455 399.811 285.946 329.218 361.5 248.5C373.771 244.848 386.234 251.908 392.5 263.5C395.451 305.121 314.117 455.515 245.5 446.5C239.243 435.997 233.249 420.708 240 411Z" fill="#313131"/>
</svg>
