<svg width="466" height="519" viewBox="0 0 466 519" fill="none" xmlns="http://www.w3.org/2000/svg">
<path d="M232.885 0C100.141 0 0 66.8608 0 155.49C0 270.812 158.879 518.301 232.885 518.301C311.29 518.301 465.77 277.55 465.77 155.49C465.77 66.8608 365.63 0 232.885 0ZM232.885 51.8301C339.495 51.8301 414.018 99.7729 414.018 168.448H388.142C388.142 115.84 322.805 77.7451 232.885 77.7451V51.8301ZM245.823 415.418C266.265 415.418 317.112 353.611 363.56 253.721L386.99 264.605C373.392 294.136 302.104 441.333 245.823 441.333V415.418Z" fill="#313131"/>
<path d="M232.7 51.9345C339.31 51.9345 413.833 99.8773 413.833 168.552H387.957C387.957 115.945 322.62 77.8495 232.7 77.8495V51.9345ZM245.638 415.522C266.08 415.522 316.927 353.715 363.375 253.826L386.805 264.71C373.208 294.24 301.919 441.437 245.638 441.437V415.522Z" fill="#313131"/>
</svg>
