<svg width="116" height="116" viewBox="0 0 116 116" fill="none" xmlns="http://www.w3.org/2000/svg">
<path d="M33.2802 116C25.3685 116 16.8523 112.537 10.1567 105.843C-1.73021 93.9522 -3.43135 76.3061 6.36777 66.5074C9.8298 63.0407 14.3955 60.889 19.5657 60.2878C25.6427 59.5811 29.414 54.8311 31.1222 52.0642C31.8005 50.9672 32.6054 49.9476 33.5227 49.03C39.4873 43.0635 49.3813 42.3287 57.9784 47.0716L84.6659 20.3721C85.3512 19.6865 86.4654 19.6865 87.1508 20.3721C87.8362 21.0577 87.8362 22.1722 87.1508 22.8578L59.5003 50.5172C58.9274 51.1008 58.0241 51.1957 57.3281 50.7668C49.8558 46.1188 41.0865 46.4282 36.0077 51.5122C35.2836 52.2364 34.6475 53.0451 34.1132 53.91C30.5914 59.6233 25.5689 63.1286 19.9734 63.779C15.5975 64.2888 11.7524 66.0925 8.8527 68.9896C0.427843 77.4171 2.12547 92.8342 12.6416 103.354C23.1577 113.873 38.5664 115.568 46.9948 107.144C49.8944 104.243 51.694 100.4 52.2036 96.0231C52.8539 90.4258 56.3581 85.4016 62.0731 81.8752C62.9412 81.3408 63.7496 80.7009 64.4701 79.9802C69.5524 74.8962 69.8582 66.1241 65.2117 58.6529C64.7794 57.9568 64.8849 57.0567 65.4613 56.4801L93.1118 28.8243C93.7972 28.1387 94.9114 28.1387 95.5967 28.8243C96.2821 29.5099 96.2821 30.6244 95.5967 31.31L68.9057 58.006C73.6506 66.6093 72.9161 76.503 66.9515 82.4659C66.0377 83.38 65.0184 84.1887 63.9183 84.8672C61.1487 86.5759 56.4002 90.3485 55.6938 96.4274C55.0928 101.599 52.9417 106.166 49.4797 109.629C45.2022 113.912 39.424 116 33.2802 116Z" fill="black" fill-opacity="0.1"/>
<path d="M100.481 28.7607C100.031 28.7607 99.5815 28.5884 99.2371 28.2474C98.5517 27.5618 98.5517 26.4473 99.2371 25.7617L111.757 13.2381L102.762 4.24102L90.2429 16.7645C89.5575 17.4501 88.4433 17.4501 87.7579 16.7645C87.0726 16.079 87.0726 14.9644 87.7579 14.2788L101.522 0.514196C102.207 -0.171399 103.321 -0.171399 104.007 0.514196L115.486 11.997C116.171 12.6826 116.171 13.7972 115.486 14.4827L101.726 28.2474C101.381 28.5884 100.931 28.7607 100.481 28.7607Z" fill="black" fill-opacity="0.1"/>
<ellipse cx="109.276" cy="23.5435" rx="1.68117" ry="1.68171" fill="black" fill-opacity="0.1"/>
<ellipse cx="112.638" cy="20.1802" rx="1.68117" ry="1.68171" fill="black" fill-opacity="0.1"/>
<ellipse cx="91.6238" cy="7.56794" rx="1.68117" ry="1.68171" fill="black" fill-opacity="0.1"/>
<ellipse cx="94.9863" cy="4.20465" rx="1.68117" ry="1.68171" fill="black" fill-opacity="0.1"/>
<path d="M37.2031 89.2549C34.5214 89.2549 31.8396 88.2318 29.801 86.1926C27.8258 84.2131 26.7327 81.5833 26.7327 78.7881C26.7327 75.993 27.8222 73.3596 29.801 71.3837C33.8817 67.3018 40.5281 67.3018 44.6087 71.3837C46.5875 73.3631 47.6771 75.993 47.6771 78.7881C47.6771 81.5868 46.5875 84.2166 44.6087 86.1926C42.5666 88.2353 39.8849 89.2549 37.2031 89.2549ZM37.2031 71.8337C35.4211 71.8337 33.6392 72.5088 32.286 73.8659C30.9715 75.1808 30.2474 76.9282 30.2474 78.7846C30.2474 80.6445 30.9715 82.3919 32.286 83.7033C34.9958 86.4141 39.4104 86.4141 42.1238 83.7033C43.4383 82.3884 44.1623 80.641 44.1623 78.7846C44.1623 76.9282 43.4383 75.1808 42.1238 73.8659C40.7671 72.5088 38.9851 71.8337 37.2031 71.8337Z" fill="black" fill-opacity="0.1"/>
</svg>
