<svg width="50" height="50" viewBox="0 0 50 50" fill="none" xmlns="http://www.w3.org/2000/svg">
<circle cx="25" cy="25" r="25" fill="#A27C67"/>
<path fill-rule="evenodd" clip-rule="evenodd" d="M24.687 9.99951C20.6982 9.99951 20.198 10.0164 18.6314 10.0879C17.0681 10.1592 16.0004 10.4075 15.0661 10.7706C14.1003 11.146 13.2812 11.6482 12.4646 12.4647C11.6481 13.2812 11.1459 14.1003 10.7705 15.0662C10.4074 16.0004 10.1592 17.0681 10.0878 18.6314C10.0164 20.198 9.99951 20.6982 9.99951 24.687C9.99951 28.6758 10.0164 29.1761 10.0878 30.7427C10.1592 32.306 10.4074 33.3737 10.7705 34.3079C11.1459 35.2737 11.6481 36.0928 12.4646 36.9094C13.2812 37.7259 14.1003 38.2282 15.0661 38.6035C16.0004 38.9665 17.0681 39.2148 18.6314 39.2861C20.198 39.3576 20.6982 39.3745 24.687 39.3745C28.6758 39.3745 29.1761 39.3576 30.7427 39.2861C32.306 39.2148 33.3737 38.9665 34.3079 38.6035C35.2737 38.2282 36.0928 37.7259 36.9094 36.9094C37.7259 36.0928 38.2282 35.2737 38.6035 34.3079C38.9665 33.3737 39.2148 32.306 39.2861 30.7427C39.3576 29.1761 39.3745 28.6758 39.3745 24.687C39.3745 20.6982 39.3576 20.198 39.2861 18.6314C39.2148 17.0681 38.9665 16.0004 38.6035 15.0662C38.2282 14.1003 37.7259 13.2812 36.9094 12.4647C36.0928 11.6482 35.2737 11.146 34.3079 10.7706C33.3737 10.4075 32.306 10.1592 30.7427 10.0879C29.1761 10.0164 28.6758 9.99951 24.687 9.99951ZM24.687 12.6459C28.6087 12.6459 29.0732 12.6609 30.6221 12.7316C32.0541 12.7969 32.8317 13.0361 33.3492 13.2373C34.0349 13.5037 34.5242 13.822 35.038 14.336C35.5521 14.8499 35.8704 15.3393 36.1368 16.0248C36.3379 16.5423 36.5772 17.3199 36.6425 18.752C36.7131 20.3008 36.7281 20.7653 36.7281 24.687C36.7281 28.6087 36.7131 29.0732 36.6425 30.6221C36.5772 32.0541 36.3379 32.8317 36.1368 33.3492C35.8704 34.0349 35.5521 34.5242 35.038 35.038C34.5242 35.5521 34.0349 35.8704 33.3492 36.1368C32.8317 36.3379 32.0541 36.5772 30.6221 36.6425C29.0735 36.7131 28.609 36.7281 24.687 36.7281C20.765 36.7281 20.3006 36.7131 18.752 36.6425C17.3199 36.5772 16.5423 36.3379 16.0248 36.1368C15.3391 35.8704 14.8499 35.5521 14.3359 35.038C13.8219 34.5242 13.5037 34.0349 13.2373 33.3492C13.0361 32.8317 12.7969 32.0541 12.7315 30.6221C12.6608 29.0732 12.6459 28.6087 12.6459 24.687C12.6459 20.7653 12.6608 20.3008 12.7315 18.752C12.7969 17.3199 13.0361 16.5423 13.2373 16.0248C13.5037 15.3393 13.8219 14.8499 14.3359 14.336C14.8499 13.822 15.3391 13.5037 16.0248 13.2373C16.5423 13.0361 17.3199 12.7969 18.752 12.7316C20.3008 12.6609 20.7653 12.6459 24.687 12.6459ZM24.687 17.1448C20.5216 17.1448 17.1448 20.5216 17.1448 24.687C17.1448 28.8525 20.5216 32.2292 24.687 32.2292C28.8525 32.2292 32.2292 28.8525 32.2292 24.687C32.2292 20.5216 28.8525 17.1448 24.687 17.1448ZM24.687 29.5828C21.9831 29.5828 19.7912 27.3909 19.7912 24.687C19.7912 21.9831 21.9831 19.7912 24.687 19.7912C27.3909 19.7912 29.5828 21.9831 29.5828 24.687C29.5828 27.3909 27.3909 29.5828 24.687 29.5828ZM34.2898 16.8468C34.2898 17.8202 33.5006 18.6092 32.5272 18.6092C31.5539 18.6092 30.7648 17.8202 30.7648 16.8468C30.7648 15.8734 31.5539 15.0843 32.5272 15.0843C33.5006 15.0843 34.2898 15.8734 34.2898 16.8468Z" fill="#FAFAFA"/>
</svg>
