<svg width="20" height="28" viewBox="0 0 20 28" fill="none" xmlns="http://www.w3.org/2000/svg">
<path d="M5.45795 24.8468C5.45852 25.1908 5.5642 25.5276 5.7625 25.8142L6.73352 27.2191C6.8994 27.4592 7.12439 27.6562 7.38847 27.7925C7.65255 27.9287 7.94753 28 8.24716 28H11.7534C12.053 28 12.348 27.9287 12.6121 27.7925C12.8762 27.6562 13.1012 27.4592 13.267 27.2191L14.2381 25.8142C14.4363 25.5276 14.5422 25.1911 14.5426 24.8468L14.5449 22.7496H5.45511L5.45795 24.8468ZM0 9.62484C0 12.0513 0.934659 14.265 2.475 15.9564C3.41364 16.9873 4.88182 19.1408 5.44148 20.9575C5.44375 20.9717 5.44545 20.9859 5.44773 21.0001H14.5523C14.5545 20.9859 14.5563 20.9723 14.5585 20.9575C15.1182 19.1408 16.5864 16.9873 17.525 15.9564C19.0653 14.265 20 12.0513 20 9.62484C20 4.29894 15.5062 -0.0163593 9.96875 4.66244e-05C4.17273 0.0169994 0 4.53737 0 9.62484ZM10 5.24994C7.49375 5.24994 5.45455 7.21263 5.45455 9.62484C5.45455 10.1083 5.04773 10.4998 4.54545 10.4998C4.04318 10.4998 3.63636 10.1083 3.63636 9.62484C3.63636 6.24741 6.49091 3.49997 10 3.49997C10.5023 3.49997 10.9091 3.89153 10.9091 4.37495C10.9091 4.85838 10.5023 5.24994 10 5.24994Z" fill="#A27C67"/>
</svg>
