<svg width="30" height="36" viewBox="0 0 30 36" fill="none" xmlns="http://www.w3.org/2000/svg">
<path d="M15 36C12.2934 33.8457 9.78468 31.4839 7.49998 28.9394C4.07142 25.1181 1.88334e-06 19.4272 1.88334e-06 14.0043C-0.00148504 11.2348 0.877517 8.52705 2.52577 6.22386C4.17402 3.92067 6.51742 2.12552 9.25941 1.06561C12.0014 0.00569233 15.0187 -0.271347 17.9295 0.269551C20.8403 0.810448 23.5137 2.14497 25.6114 4.10422C27.008 5.40168 28.115 6.94474 28.8683 8.64408C29.6216 10.3434 30.0062 12.1653 29.9999 14.0043C29.9999 19.4272 25.9285 25.1181 22.4999 28.9394C20.2152 31.4839 17.7065 33.8457 15 36ZM15 8.00546C13.295 8.00546 11.6599 8.63748 10.4543 9.76248C9.2487 10.8875 8.57141 12.4133 8.57141 14.0043C8.57141 15.5953 9.2487 17.1211 10.4543 18.2461C11.6599 19.3711 13.295 20.0031 15 20.0031C16.7049 20.0031 18.3401 19.3711 19.5456 18.2461C20.7512 17.1211 21.4285 15.5953 21.4285 14.0043C21.4285 12.4133 20.7512 10.8875 19.5456 9.76248C18.3401 8.63748 16.7049 8.00546 15 8.00546Z" fill="#313131"/>
</svg>
