<svg width="64" height="64" viewBox="0 0 64 64" fill="none" xmlns="http://www.w3.org/2000/svg">
<path d="M64 24.6154V39.3846C64 40.6903 63.4813 41.9425 62.5581 42.8658C61.6348 43.789 60.3826 44.3077 59.0769 44.3077H44.3077V59.0769C44.3077 60.3826 43.789 61.6348 42.8658 62.5581C41.9425 63.4813 40.6903 64 39.3846 64H24.6154C23.3097 64 22.0575 63.4813 21.1342 62.5581C20.211 61.6348 19.6923 60.3826 19.6923 59.0769V44.3077H4.92308C3.6174 44.3077 2.36519 43.789 1.44194 42.8658C0.51868 41.9425 0 40.6903 0 39.3846V24.6154C0 23.3097 0.51868 22.0575 1.44194 21.1342C2.36519 20.211 3.6174 19.6923 4.92308 19.6923H19.6923V4.92308C19.6923 3.6174 20.211 2.36519 21.1342 1.44194C22.0575 0.51868 23.3097 0 24.6154 0H39.3846C40.6903 0 41.9425 0.51868 42.8658 1.44194C43.789 2.36519 44.3077 3.6174 44.3077 4.92308V19.6923H59.0769C60.3826 19.6923 61.6348 20.211 62.5581 21.1342C63.4813 22.0575 64 23.3097 64 24.6154Z" fill="#E5D6CC"/>
</svg>
