<svg width="54" height="54" viewBox="0 0 54 54" fill="none" xmlns="http://www.w3.org/2000/svg">
<path d="M47.1505 0H54V6.02342H49.481L34.4463 21.9554L30.4389 17.7691L47.1505 0ZM25.5789 18.0703C26.3179 18.0703 27 18.3714 27.5968 18.9738L33.2811 24.9972C33.7926 25.5996 34.1053 26.2922 34.1053 27.1054L33.8211 28.3101L22.4526 52.4038C21.9126 53.4579 20.9179 54 19.8947 54C18.9 54 17.8768 53.4579 17.3653 52.4038L12.0789 41.2605L1.56316 35.8394C0.511579 35.237 0 34.1829 0 33.1288C0 32.0747 0.511579 31.0206 1.56316 30.4183L24.3 18.3714C24.6979 18.0703 25.1242 18.0703 25.5789 18.0703ZM18.0474 26.5633L16.0579 28.6113L24.1579 37.1946L26.0905 35.0864L18.0474 26.5633ZM14.04 30.8098L12.0221 32.9481L20.0653 41.4713L22.0832 39.333L14.04 30.8098Z" fill="#A27C67"/>
</svg>
