<svg width="11" height="13" viewBox="0 0 11 13" fill="none" xmlns="http://www.w3.org/2000/svg">
<path d="M5.5 0C8.635 0 11 1.57904 11 3.67218C11 6.39571 7.24778 12.2406 5.5 12.2406C3.64833 12.2406 0 6.55484 0 3.67218C0 1.57904 2.365 0 5.5 0ZM5.5 1.22406C2.98222 1.22406 1.22222 2.35632 1.22222 3.9782H1.83333C1.83333 2.73577 3.37639 1.83609 5.5 1.83609V1.22406ZM5.19444 9.81084C4.71167 9.81084 3.51083 8.35115 2.41389 5.99208L1.86053 6.24913C2.18167 6.94654 3.86528 10.4229 5.19444 10.4229V9.81084Z" fill="#313131"/>
<path d="M5.51855 1.2406C3.00078 1.2406 1.24078 2.37286 1.24078 3.99474H1.85189C1.85189 2.75232 3.39494 1.85263 5.51855 1.85263V1.2406ZM5.213 9.82738C4.73022 9.82738 3.52939 8.36769 2.43244 6.00862L1.87908 6.26567C2.20022 6.96308 3.88383 10.4394 5.213 10.4394V9.82738Z" fill="white"/>
</svg>
