<svg width="144" height="33" viewBox="0 0 144 33" fill="none" xmlns="http://www.w3.org/2000/svg">
<path d="M38.7257 13.1963V13.8027C38.1691 14.3242 37.6945 14.7461 37.3019 15.0684C36.9152 15.3848 36.5284 15.6719 36.1417 15.9297C35.755 16.1816 35.4327 16.3604 35.1749 16.4658C34.923 16.5771 34.7062 16.6328 34.5245 16.6328C34.0909 16.6328 33.7365 16.4717 33.4611 16.1494C33.1857 15.8271 33.048 15.4111 33.048 14.9014C33.048 14.3154 33.1652 13.7354 33.3995 13.1611C33.6398 12.5869 33.9796 11.9951 34.4191 11.3857C34.8585 10.7705 35.4093 10.082 36.0714 9.32031C36.5636 8.75781 36.8097 8.44141 36.8097 8.37109C36.8097 8.33008 36.795 8.29492 36.7657 8.26562C36.7365 8.23633 36.7042 8.22168 36.6691 8.22168C36.5577 8.22168 36.215 8.46777 35.6407 8.95996C35.0665 9.45215 34.3282 10.1758 33.4259 11.1309C32.5294 12.0859 31.5597 13.2227 30.5167 14.541C30.4581 14.6113 30.2706 14.8516 29.9542 15.2617C29.6437 15.666 29.424 15.9297 29.295 16.0527C29.1661 16.1758 29.0548 16.2373 28.9611 16.2373C28.797 16.2373 28.6534 16.0732 28.5304 15.7451C28.4132 15.4111 28.3546 15.0566 28.3546 14.6816C28.3546 14.4531 28.4279 14.207 28.5743 13.9434C28.7267 13.6797 29.0519 13.208 29.5499 12.5283C30.0538 11.8428 30.4698 11.2656 30.798 10.7969C31.1261 10.3281 31.4865 9.75977 31.879 9.0918C32.1544 8.62891 32.3566 8.25977 32.4855 7.98438C32.6202 7.70898 32.6876 7.46582 32.6876 7.25488C32.6876 7.07324 32.6349 6.98242 32.5294 6.98242C32.3068 6.98242 31.8878 7.28125 31.2726 7.87891C30.6573 8.4707 29.8956 9.35254 28.9874 10.5244C28.0851 11.6963 27.1417 13.0527 26.1573 14.5938C25.8351 15.1211 25.6066 15.4756 25.4718 15.6572C25.337 15.8389 25.1876 15.9297 25.0236 15.9297C24.8185 15.9297 24.6251 15.7129 24.4435 15.2793C24.2677 14.8398 24.1798 14.4854 24.1798 14.2158C24.1798 14.1279 24.215 14.0312 24.2853 13.9258C25.0587 12.8945 25.6945 12.0186 26.1925 11.2979C26.6906 10.5771 27.1329 9.89453 27.5197 9.25C27.9064 8.59961 28.1876 8.06641 28.3634 7.65039C28.5392 7.22852 28.6271 6.89746 28.6271 6.65723C28.6271 6.40527 28.5128 6.2793 28.2843 6.2793C28.0968 6.2793 27.7775 6.39941 27.3263 6.63965C26.8751 6.87988 26.3038 7.20801 25.6124 7.62402C24.9269 8.04004 24.3761 8.35938 23.9601 8.58203C23.5441 8.79883 23.2335 8.90723 23.0284 8.90723C22.8351 8.90723 22.7384 8.79883 22.7384 8.58203C22.7384 8.45898 22.7794 8.17773 22.8615 7.73828C22.9435 7.29297 23.0284 6.97949 23.1163 6.79785C23.2394 6.56348 23.5529 6.25293 24.0568 5.86621C24.5665 5.47949 24.8478 5.28613 24.9005 5.28613C24.9474 5.28613 24.9708 5.30664 24.9708 5.34766C24.9708 5.37109 24.9474 5.40625 24.9005 5.45312C24.6603 5.64648 24.4816 5.80469 24.3644 5.92773C24.2472 6.05078 24.174 6.18555 24.1447 6.33203C25.2169 5.6875 26.1749 5.19824 27.0187 4.86426C27.8683 4.52441 28.4572 4.35449 28.7853 4.35449C28.9493 4.35449 29.1046 4.46582 29.2511 4.68848C29.3976 4.90527 29.5206 5.16016 29.6202 5.45312C29.7257 5.74023 29.7784 5.9248 29.7784 6.00684C29.7784 6.30566 29.7023 6.66016 29.5499 7.07031C29.3976 7.47461 29.1896 7.94629 28.9259 8.48535C28.6681 9.02441 28.3458 9.69824 27.9591 10.5068C28.2638 10.1143 28.5538 9.75098 28.8292 9.41699C29.1046 9.08301 29.3771 8.75781 29.6466 8.44141C29.922 8.125 30.2003 7.80566 30.4816 7.4834C30.8624 7.04395 31.2902 6.625 31.7648 6.22656C32.2394 5.82227 32.6818 5.49414 33.0919 5.24219C33.5079 4.98438 33.7892 4.85547 33.9357 4.85547C34.1407 4.85547 34.3224 4.96973 34.4806 5.19824C34.6447 5.4209 34.7267 5.66113 34.7267 5.91895C34.7267 6.08887 34.6154 6.41406 34.3927 6.89453C34.17 7.375 33.8448 7.99023 33.4171 8.74023C32.9894 9.49023 32.424 10.457 31.7208 11.6406C32.3888 10.9316 33.0831 10.2021 33.8038 9.45215C34.5245 8.70215 35.0607 8.1543 35.4122 7.80859C35.7638 7.46289 36.0568 7.19922 36.2911 7.01758C36.6134 6.77148 36.9357 6.50781 37.2579 6.22656C37.5861 5.93945 37.8439 5.71387 38.0314 5.5498C38.2189 5.38574 38.3859 5.25977 38.5323 5.17188C38.6788 5.08398 38.8136 5.04004 38.9366 5.04004C39.089 5.04004 39.2794 5.21582 39.5079 5.56738C39.7423 5.91895 39.8595 6.14453 39.8595 6.24414C39.8595 6.36719 39.7892 6.51367 39.6486 6.68359C39.5138 6.85352 39.2296 7.16992 38.796 7.63281C37.9991 8.48828 37.3077 9.35254 36.7218 10.2256C36.1359 11.0928 35.6906 11.8867 35.3859 12.6074C35.087 13.3223 34.9376 13.8877 34.9376 14.3037C34.9376 14.5615 34.9845 14.749 35.0782 14.8662C35.1779 14.9834 35.3302 15.042 35.5353 15.042C35.7228 15.042 35.8956 15.0068 36.0538 14.9365C36.2179 14.8662 36.3966 14.7666 36.59 14.6377C36.7892 14.5088 36.9767 14.3857 37.1525 14.2686C37.3986 14.1221 37.6388 13.9668 37.8732 13.8027C38.1134 13.6328 38.298 13.501 38.4269 13.4072C38.5616 13.3076 38.6613 13.2373 38.7257 13.1963ZM39.6925 11.6582C40.5831 10.8496 41.4474 10.249 42.2853 9.85645C43.1232 9.46387 43.7706 9.26758 44.2277 9.26758C44.3507 9.26758 44.465 9.32031 44.5704 9.42578C44.6759 9.52539 44.7579 9.64258 44.8165 9.77734C44.881 9.91211 44.9132 10.0117 44.9132 10.0762C44.9132 10.1816 44.8722 10.2607 44.7902 10.3135C44.7081 10.3604 44.5646 10.4189 44.3595 10.4893C44.4005 10.583 44.4532 10.7031 44.5177 10.8496C44.5822 10.9961 44.632 11.1162 44.6671 11.21C44.7023 11.2979 44.7198 11.377 44.7198 11.4473C44.7198 11.5879 44.5763 11.8516 44.2892 12.2383C44.0079 12.6191 43.8087 12.9004 43.6915 13.082C43.5802 13.2637 43.5245 13.4863 43.5245 13.75C43.5245 14.1836 43.7238 14.4004 44.1222 14.4004C44.5323 14.4004 45.174 14.0166 46.047 13.249V13.7852C44.5646 15.4316 43.504 16.2549 42.8654 16.2549C42.6368 16.2549 42.4728 16.1787 42.3732 16.0264C42.2794 15.8799 42.2325 15.6602 42.2325 15.3672C42.2325 14.9043 42.3995 14.2334 42.7335 13.3545C41.8781 14.3037 41.2423 14.9805 40.8263 15.3848C40.4103 15.7832 40.0675 15.9824 39.798 15.9824C39.6691 15.9824 39.5079 15.8711 39.3146 15.6484C39.1212 15.4258 38.9484 15.1387 38.796 14.7871C38.6495 14.4297 38.5763 14.0605 38.5763 13.6797C38.5763 13.4043 38.6027 13.1758 38.6554 12.9941C38.7081 12.8066 38.8107 12.6162 38.963 12.4229C39.1154 12.2295 39.3585 11.9746 39.6925 11.6582ZM43.9025 10.6914C42.379 11.3887 41.2921 11.9805 40.6417 12.4668C39.9972 12.9531 39.6749 13.4541 39.6749 13.9697C39.6749 14.1572 39.7072 14.3125 39.7716 14.4355C39.8361 14.5527 39.924 14.6113 40.0353 14.6113C40.0997 14.6113 40.214 14.5703 40.3781 14.4883C40.9933 14.125 41.5558 13.6533 42.0656 13.0732C42.5753 12.4873 43.1876 11.6934 43.9025 10.6914ZM45.8888 13.9082V13.3369C46.2052 12.9619 46.4454 12.6426 46.6095 12.3789C46.422 12.3145 46.2843 12.2354 46.1964 12.1416C46.1144 12.0479 46.0734 11.9072 46.0734 11.7197C46.0734 11.5088 46.1613 11.2422 46.337 10.9199C46.5128 10.5977 46.7296 10.2959 46.9874 10.0146C47.2452 9.7334 47.4796 9.55176 47.6906 9.46973C47.7726 9.42871 47.8517 9.4082 47.9279 9.4082C48.045 9.4082 48.1036 9.46387 48.1036 9.5752C48.1036 9.6748 48.0128 9.87695 47.8312 10.1816C49.0382 9.99414 49.7999 9.90039 50.1163 9.90039C50.2394 9.90039 50.3243 9.91211 50.3712 9.93555C50.4708 9.98828 50.5529 10.1113 50.6173 10.3047C50.6818 10.498 50.714 10.6914 50.714 10.8848C50.714 11.0078 50.6583 11.1426 50.547 11.2891C50.4415 11.4297 50.257 11.6377 49.9933 11.9131C49.6827 12.2471 49.422 12.6104 49.2111 13.0029C49.0001 13.3955 48.8947 13.6914 48.8947 13.8906C48.8947 14.166 49.0646 14.3037 49.4044 14.3037C49.7618 14.3037 50.3829 13.9404 51.2677 13.2139V13.8027C50.7814 14.3125 50.38 14.7139 50.0636 15.0068C49.7472 15.2998 49.4542 15.5342 49.1847 15.71C48.9152 15.8799 48.6749 15.9648 48.464 15.9648C48.2179 15.9648 48.0128 15.8535 47.8488 15.6309C47.6847 15.4023 47.6027 15.0742 47.6027 14.6465C47.6027 14.3945 47.6671 14.1074 47.796 13.7852C47.9249 13.4629 48.1124 13.1143 48.3585 12.7393C48.6105 12.3584 48.8917 11.9805 49.2023 11.6055C49.0382 11.6406 48.8536 11.6787 48.6486 11.7197C48.4435 11.7549 48.2267 11.793 47.9982 11.834C47.7697 11.875 47.5939 11.9072 47.4708 11.9307C47.1075 12.6572 46.5802 13.3164 45.8888 13.9082ZM57.8595 13.2314V13.8203C57.2032 14.5879 56.6525 15.1709 56.2072 15.5693C55.7618 15.9619 55.3898 16.1582 55.0909 16.1582C54.8038 16.1582 54.5431 16.0732 54.3087 15.9033C54.0802 15.7334 53.8722 15.499 53.6847 15.2002C53.5031 14.9014 53.2863 14.4854 53.0343 13.9521C52.7355 14.3213 52.4659 14.667 52.2257 14.9893C51.9855 15.3057 51.8185 15.5166 51.7247 15.6221C51.631 15.7275 51.546 15.7803 51.4698 15.7803C51.3116 15.7803 51.1974 15.6807 51.1271 15.4814C51.0568 15.2764 51.0216 14.9805 51.0216 14.5938C51.0216 14.0664 51.0831 13.5596 51.2062 13.0732C51.3351 12.5811 51.5167 12.1035 51.7511 11.6406C51.9913 11.1777 52.296 10.6797 52.6652 10.1465C53.0402 9.60742 53.4591 9.04492 53.922 8.45898C54.5607 7.65039 55.1115 6.99121 55.5743 6.48145C56.0372 5.96582 56.4386 5.5791 56.7784 5.32129C57.1241 5.05762 57.4113 4.92578 57.6398 4.92578C57.921 4.92578 58.0616 5.05176 58.0616 5.30371C58.0616 5.52051 57.5431 6.30273 56.506 7.65039C55.4689 8.99219 53.9572 10.8262 51.9708 13.1523V13.9082C53.3009 12.4844 54.3702 11.4268 55.1788 10.7354C55.9933 10.0439 56.6232 9.69824 57.0685 9.69824C57.2501 9.69824 57.3907 9.80664 57.4904 10.0234C57.59 10.2344 57.6398 10.4805 57.6398 10.7617C57.6398 11.3359 57.3937 11.8691 56.9015 12.3613C56.4093 12.8477 55.6534 13.4072 54.6339 14.04C54.8097 14.3037 54.965 14.4971 55.0997 14.6201C55.2345 14.7373 55.4044 14.7959 55.6095 14.7959C55.7911 14.7959 55.9874 14.7344 56.1984 14.6113C56.4093 14.4883 56.6232 14.333 56.84 14.1455C57.0626 13.958 57.4025 13.6533 57.8595 13.2314ZM54.3878 13.6797C54.6105 13.5332 54.8859 13.3076 55.214 13.0029C55.548 12.6924 55.8322 12.373 56.0665 12.0449C56.3009 11.7109 56.4181 11.4326 56.4181 11.21C56.4181 11.1162 56.3771 11.0693 56.295 11.0693C56.0724 11.0693 55.6886 11.2832 55.1437 11.7109C54.6046 12.1387 54.0773 12.6865 53.5616 13.3545C53.7843 13.3545 54.0597 13.4629 54.3878 13.6797ZM69.0831 6.06836C69.0831 6.12109 69.0157 6.25586 68.881 6.47266C68.7462 6.68359 68.547 6.99707 68.2833 7.41309C68.0197 7.82324 67.7003 8.35059 67.3253 8.99512C66.9503 9.63379 66.5636 10.3428 66.1652 11.1221C65.7081 12.0186 65.3771 12.7246 65.172 13.2402C64.9728 13.75 64.8732 14.1895 64.8732 14.5586C64.8732 14.8516 65.0284 15.1094 65.339 15.332C65.714 15.0391 66.0831 14.6904 66.4464 14.2861C66.8097 13.8818 67.1671 13.4307 67.5187 12.9326C67.8761 12.4346 68.2863 11.8047 68.7491 11.043C69.2179 10.2812 69.6339 9.58105 69.9972 8.94238C69.9796 8.88965 69.9591 8.83691 69.9357 8.78418C69.9181 8.73145 69.9093 8.6875 69.9093 8.65234C69.9093 8.37695 69.965 8.11914 70.0763 7.87891C70.1876 7.63867 70.3253 7.4043 70.4894 7.17578C70.6593 6.94727 70.9113 6.625 71.2452 6.20898C71.3331 6.09766 71.4415 6.04199 71.5704 6.04199C71.7814 6.04199 71.8868 6.17676 71.8868 6.44629C71.8868 6.71582 71.7755 7.14062 71.5529 7.7207C71.3361 8.29492 71.0138 8.97168 70.5861 9.75098C70.1583 10.5303 69.6251 11.4033 68.9865 12.3701C68.3536 13.3311 67.6359 14.3359 66.8331 15.3848C66.0187 16.4453 65.4357 16.9756 65.0841 16.9756C64.8849 16.9756 64.6593 16.8643 64.4073 16.6416C64.1554 16.4248 63.9386 16.126 63.757 15.7451C63.5753 15.3643 63.4845 14.957 63.4845 14.5234C63.4845 14.2656 63.5372 13.9346 63.6427 13.5303C63.754 13.126 63.924 12.6426 64.1525 12.0801C64.3868 11.5117 64.6505 10.9521 64.9435 10.4014C65.2482 9.82129 65.5148 9.34082 65.7433 8.95996C65.9777 8.5791 66.2413 8.15723 66.5343 7.69434C66.8273 7.22559 66.9738 6.9707 66.9738 6.92969C66.9738 6.8418 66.9152 6.79785 66.798 6.79785C66.4581 6.79785 66.004 6.9707 65.4357 7.31641C64.8732 7.66211 64.1378 8.18652 63.2296 8.88965C62.8839 9.15918 62.6671 9.33496 62.5792 9.41699C62.4855 9.49316 62.4386 9.55762 62.4386 9.61035C62.4386 9.68066 62.4943 9.71582 62.6056 9.71582C62.6525 9.71582 62.8107 9.69824 63.0802 9.66309C63.3497 9.62793 63.5636 9.61035 63.7218 9.61035C63.9855 9.61035 64.1173 9.65723 64.1173 9.75098C64.1173 9.83301 64.0616 9.89746 63.9503 9.94434C63.8448 9.99121 63.6954 10.0381 63.5021 10.085C63.3146 10.1318 63.0568 10.1963 62.7286 10.2783C62.3771 10.3721 62.005 10.5068 61.6124 10.6826C61.214 10.8584 60.9855 10.9463 60.9269 10.9463C60.8156 10.9463 60.7482 10.9053 60.7247 10.8232C60.6954 10.7412 60.6808 10.6064 60.6808 10.4189C60.6808 9.58691 60.8185 8.94531 61.0939 8.49414C61.3693 8.03711 61.8615 7.5625 62.5704 7.07031C63.379 6.50781 64.1525 6.04199 64.8907 5.67285C65.629 5.29785 66.2648 5.02539 66.798 4.85547C67.337 4.67969 67.7325 4.5918 67.9845 4.5918C68.2306 4.5918 68.4738 4.75 68.714 5.06641C68.9601 5.38281 69.0831 5.7168 69.0831 6.06836ZM71.7111 13.5479V13.7676C71.7111 14.1133 71.796 14.3828 71.9659 14.5762C72.1359 14.7695 72.3585 14.8662 72.6339 14.8662C72.921 14.8662 73.2169 14.7988 73.5216 14.6641C73.8322 14.5293 74.1398 14.3506 74.4445 14.1279C74.7491 13.9053 75.1212 13.6064 75.5607 13.2314V13.7676C74.8986 14.5645 74.2775 15.1768 73.6974 15.6045C73.1173 16.0264 72.5284 16.2373 71.9308 16.2373C71.4093 16.2373 70.9962 16.0352 70.6915 15.6309C70.3868 15.2266 70.2345 14.6729 70.2345 13.9697C70.2345 13.3545 70.3781 12.7979 70.6652 12.2998C70.9523 11.7959 71.421 11.2656 72.0714 10.709C72.5167 10.3281 72.9591 10.041 73.3986 9.84766C73.838 9.6543 74.2306 9.55762 74.5763 9.55762C74.8517 9.55762 75.0685 9.62207 75.2267 9.75098C75.3907 9.87402 75.4728 10.0615 75.4728 10.3135C75.4728 10.6826 75.3351 11.0518 75.0597 11.4209C74.7843 11.7842 74.3624 12.1475 73.7941 12.5107C73.2316 12.8682 72.5372 13.2139 71.7111 13.5479ZM71.799 12.9766C72.3263 12.7715 72.7775 12.5166 73.1525 12.2119C73.5275 11.9072 73.8029 11.6172 73.9786 11.3418C74.1603 11.0605 74.2511 10.8555 74.2511 10.7266C74.2511 10.5918 74.1896 10.5244 74.0665 10.5244C73.9611 10.5244 73.7882 10.5918 73.548 10.7266C73.3136 10.8613 73.0734 11.0371 72.8273 11.2539C72.587 11.4707 72.3702 11.7256 72.1769 12.0186C71.9835 12.3115 71.8575 12.6309 71.799 12.9766ZM79.7618 13.1348V13.7852C78.5372 15.4082 77.5411 16.2197 76.7736 16.2197C76.3575 16.2197 76.0294 15.9941 75.7892 15.543C75.5548 15.0859 75.4376 14.4883 75.4376 13.75C75.4376 13.1523 75.5782 12.4434 75.8595 11.623C76.1407 10.7969 76.5157 9.96191 76.9845 9.11816C77.4591 8.26855 77.9484 7.53027 78.4523 6.90332C78.962 6.27051 79.4337 5.82813 79.8673 5.57617C80.0431 5.4707 80.1808 5.41797 80.2804 5.41797C80.4034 5.41797 80.4855 5.47363 80.5265 5.58496C80.5675 5.69043 80.588 5.875 80.588 6.13867C80.588 6.95313 80.257 7.95508 79.5948 9.14453C78.9327 10.3281 78.0099 11.5381 76.8263 12.7744C76.7677 13.0791 76.7384 13.3135 76.7384 13.4775C76.7384 13.8525 76.8175 14.1572 76.9757 14.3916C77.1398 14.626 77.3654 14.7432 77.6525 14.7432C77.799 14.7432 77.9572 14.6875 78.1271 14.5762C78.297 14.459 78.4757 14.3154 78.6632 14.1455C78.8507 13.9756 79.2169 13.6387 79.7618 13.1348ZM77.1339 11.5527C77.4386 11.2539 77.7316 10.9141 78.0128 10.5332C78.2999 10.1523 78.5695 9.74512 78.8214 9.31152C79.0734 8.87793 79.2697 8.48828 79.4103 8.14258C79.5568 7.79688 79.63 7.53613 79.63 7.36035C79.63 7.22559 79.5831 7.1582 79.4894 7.1582C79.4542 7.1582 79.3868 7.19043 79.2872 7.25488C78.9298 7.54785 78.5284 8.12207 78.0831 8.97754C77.6378 9.82715 77.3214 10.6855 77.1339 11.5527ZM83.7081 13.249C83.1925 13.835 82.7296 14.333 82.3195 14.7432C81.9152 15.1533 81.5841 15.4609 81.3263 15.666C81.0743 15.8652 80.9015 15.9648 80.8077 15.9648C80.6554 15.9648 80.4825 15.8418 80.2892 15.5957C80.1017 15.3496 79.9406 15.0361 79.8058 14.6553C79.671 14.2744 79.6036 13.8877 79.6036 13.4951C79.6036 12.9268 79.879 12.3555 80.4298 11.7812C80.9806 11.2012 81.6075 10.7207 82.3107 10.3398C83.0138 9.95898 83.5411 9.76855 83.8927 9.76855C84.1798 9.76855 84.4611 9.9502 84.7365 10.3135C85.1876 9.37012 85.6154 8.53223 86.0197 7.7998C86.4298 7.06738 86.7726 6.52246 87.048 6.16504C87.3234 5.80762 87.5197 5.62891 87.6368 5.62891C87.7657 5.62891 87.8829 5.69336 87.9884 5.82227C88.0997 5.94531 88.1554 6.08594 88.1554 6.24414C88.1554 6.54883 87.9327 7.07324 87.4874 7.81738C87.0421 8.55566 86.6027 9.27637 86.1691 9.97949C85.7355 10.6826 85.3634 11.377 85.0529 12.0625C84.7423 12.7422 84.587 13.3721 84.587 13.9521C84.587 14.4795 84.757 14.7432 85.0968 14.7432C85.3019 14.7432 85.5597 14.6289 85.8702 14.4004C86.1808 14.166 86.6232 13.7764 87.1974 13.2314V13.873C85.9318 15.5078 84.9562 16.3252 84.2706 16.3252C83.9952 16.3252 83.796 16.2197 83.673 16.0088C83.5558 15.7979 83.4972 15.4844 83.4972 15.0684C83.4972 14.5059 83.5675 13.8994 83.7081 13.249ZM84.3585 11.1045C83.837 11.2803 83.2247 11.5645 82.5216 11.957C81.8185 12.3438 81.3937 12.6104 81.2472 12.7568C81.1183 12.874 81.004 13.0938 80.9044 13.416C80.8048 13.7383 80.755 13.9814 80.755 14.1455C80.755 14.2451 80.7843 14.3271 80.8429 14.3916C80.9015 14.4561 80.9747 14.4883 81.0626 14.4883C81.1447 14.4883 81.2384 14.4531 81.3439 14.3828C81.4493 14.3125 81.6163 14.1748 81.8448 13.9697C82.0792 13.7646 82.2316 13.6328 82.3019 13.5742C82.4015 13.4863 82.6212 13.2988 82.9611 13.0117C83.3068 12.7188 83.5587 12.4902 83.7169 12.3262C83.8751 12.1621 84.0099 11.9805 84.1212 11.7812C84.2325 11.5762 84.3116 11.3506 84.3585 11.1045ZM88.6036 13.5479V13.7676C88.6036 14.1133 88.6886 14.3828 88.8585 14.5762C89.0284 14.7695 89.2511 14.8662 89.5265 14.8662C89.8136 14.8662 90.1095 14.7988 90.4142 14.6641C90.7247 14.5293 91.0323 14.3506 91.337 14.1279C91.6417 13.9053 92.0138 13.6064 92.4532 13.2314V13.7676C91.7911 14.5645 91.17 15.1768 90.59 15.6045C90.0099 16.0264 89.421 16.2373 88.8234 16.2373C88.3019 16.2373 87.8888 16.0352 87.5841 15.6309C87.2794 15.2266 87.1271 14.6729 87.1271 13.9697C87.1271 13.3545 87.2706 12.7979 87.5577 12.2998C87.8448 11.7959 88.3136 11.2656 88.964 10.709C89.4093 10.3281 89.8517 10.041 90.2911 9.84766C90.7306 9.6543 91.1232 9.55762 91.4689 9.55762C91.7443 9.55762 91.9611 9.62207 92.1193 9.75098C92.2833 9.87402 92.3654 10.0615 92.3654 10.3135C92.3654 10.6826 92.2277 11.0518 91.9523 11.4209C91.6769 11.7842 91.255 12.1475 90.6866 12.5107C90.1241 12.8682 89.4298 13.2139 88.6036 13.5479ZM88.6915 12.9766C89.2189 12.7715 89.67 12.5166 90.045 12.2119C90.42 11.9072 90.6954 11.6172 90.8712 11.3418C91.0529 11.0605 91.1437 10.8555 91.1437 10.7266C91.1437 10.5918 91.0822 10.5244 90.9591 10.5244C90.8536 10.5244 90.6808 10.5918 90.4406 10.7266C90.2062 10.8613 89.9659 11.0371 89.7198 11.2539C89.4796 11.4707 89.2628 11.7256 89.0695 12.0186C88.8761 12.3115 88.7501 12.6309 88.6915 12.9766ZM93.3585 13.249L93.2003 13.9873C93.1769 14.0811 93.1652 14.1865 93.1652 14.3037C93.1652 14.6201 93.297 14.7783 93.5607 14.7783C93.8126 14.7783 94.4249 14.2861 95.3976 13.3018C95.4034 12.9209 95.5441 12.4814 95.8195 11.9834C96.1007 11.4854 96.4083 11.0488 96.7423 10.6738C97.0822 10.2988 97.3341 10.1113 97.4982 10.1113C97.756 10.1113 97.8849 10.2812 97.8849 10.6211C97.8849 10.8262 97.8351 11.0781 97.7355 11.377C97.6359 11.6699 97.4894 11.9893 97.296 12.335C97.1027 12.6748 96.8654 13.0264 96.5841 13.3896C96.7306 13.6533 96.88 13.7852 97.0323 13.7852C97.1613 13.7852 97.3019 13.7412 97.4542 13.6533C97.6124 13.5596 97.8087 13.4189 98.0431 13.2314V13.8203C97.715 14.0781 97.4542 14.2539 97.2609 14.3477C97.0734 14.4414 96.8302 14.4883 96.5314 14.4883C96.4142 14.4883 96.2032 14.4092 95.8986 14.251C95.3009 14.8838 94.8146 15.3584 94.4396 15.6748C94.0646 15.9854 93.7599 16.1406 93.5255 16.1406C93.1212 16.1406 92.7755 15.9004 92.4884 15.4199C92.2072 14.9336 92.0665 14.4004 92.0665 13.8203C92.0665 13.041 92.506 12.1064 93.3849 11.0166C93.6486 10.6885 93.8595 10.4658 94.0177 10.3486C94.1818 10.2256 94.3663 10.1641 94.5714 10.1641C94.7472 10.1641 94.9142 10.1963 95.0724 10.2607C95.2306 10.3252 95.3097 10.4014 95.3097 10.4893C95.3097 10.7822 95.1134 11.2129 94.7208 11.7812C94.3282 12.3438 93.8741 12.833 93.3585 13.249ZM99.4318 13.5479V13.7676C99.4318 14.1133 99.5167 14.3828 99.6866 14.5762C99.8566 14.7695 100.079 14.8662 100.355 14.8662C100.642 14.8662 100.938 14.7988 101.242 14.6641C101.553 14.5293 101.86 14.3506 102.165 14.1279C102.47 13.9053 102.842 13.6064 103.281 13.2314V13.7676C102.619 14.5645 101.998 15.1768 101.418 15.6045C100.838 16.0264 100.249 16.2373 99.6515 16.2373C99.13 16.2373 98.7169 16.0352 98.4122 15.6309C98.1075 15.2266 97.9552 14.6729 97.9552 13.9697C97.9552 13.3545 98.0988 12.7979 98.3859 12.2998C98.673 11.7959 99.1417 11.2656 99.7921 10.709C100.237 10.3281 100.68 10.041 101.119 9.84766C101.559 9.6543 101.951 9.55762 102.297 9.55762C102.572 9.55762 102.789 9.62207 102.947 9.75098C103.111 9.87402 103.193 10.0615 103.193 10.3135C103.193 10.6826 103.056 11.0518 102.78 11.4209C102.505 11.7842 102.083 12.1475 101.515 12.5107C100.952 12.8682 100.258 13.2139 99.4318 13.5479ZM99.5197 12.9766C100.047 12.7715 100.498 12.5166 100.873 12.2119C101.248 11.9072 101.524 11.6172 101.699 11.3418C101.881 11.0605 101.972 10.8555 101.972 10.7266C101.972 10.5918 101.91 10.5244 101.787 10.5244C101.682 10.5244 101.509 10.5918 101.269 10.7266C101.034 10.8613 100.794 11.0371 100.548 11.2539C100.308 11.4707 100.091 11.7256 99.8976 12.0186C99.7042 12.3115 99.5782 12.6309 99.5197 12.9766ZM103.193 13.9082V13.3369C103.51 12.9619 103.75 12.6426 103.914 12.3789C103.727 12.3145 103.589 12.2354 103.501 12.1416C103.419 12.0479 103.378 11.9072 103.378 11.7197C103.378 11.5088 103.466 11.2422 103.642 10.9199C103.818 10.5977 104.034 10.2959 104.292 10.0146C104.55 9.7334 104.784 9.55176 104.995 9.46973C105.077 9.42871 105.156 9.4082 105.233 9.4082C105.35 9.4082 105.408 9.46387 105.408 9.5752C105.408 9.6748 105.318 9.87695 105.136 10.1816C106.343 9.99414 107.105 9.90039 107.421 9.90039C107.544 9.90039 107.629 9.91211 107.676 9.93555C107.776 9.98828 107.858 10.1113 107.922 10.3047C107.986 10.498 108.019 10.6914 108.019 10.8848C108.019 11.0078 107.963 11.1426 107.852 11.2891C107.746 11.4297 107.562 11.6377 107.298 11.9131C106.987 12.2471 106.727 12.6104 106.516 13.0029C106.305 13.3955 106.199 13.6914 106.199 13.8906C106.199 14.166 106.369 14.3037 106.709 14.3037C107.067 14.3037 107.688 13.9404 108.572 13.2139V13.8027C108.086 14.3125 107.685 14.7139 107.368 15.0068C107.052 15.2998 106.759 15.5342 106.489 15.71C106.22 15.8799 105.98 15.9648 105.769 15.9648C105.523 15.9648 105.318 15.8535 105.153 15.6309C104.989 15.4023 104.907 15.0742 104.907 14.6465C104.907 14.3945 104.972 14.1074 105.101 13.7852C105.23 13.4629 105.417 13.1143 105.663 12.7393C105.915 12.3584 106.196 11.9805 106.507 11.6055C106.343 11.6406 106.158 11.6787 105.953 11.7197C105.748 11.7549 105.531 11.793 105.303 11.834C105.074 11.875 104.899 11.9072 104.776 11.9307C104.412 12.6572 103.885 13.3164 103.193 13.9082ZM109.943 13.5479V13.7676C109.943 14.1133 110.028 14.3828 110.198 14.5762C110.368 14.7695 110.591 14.8662 110.866 14.8662C111.153 14.8662 111.449 14.7988 111.754 14.6641C112.065 14.5293 112.372 14.3506 112.677 14.1279C112.982 13.9053 113.354 13.6064 113.793 13.2314V13.7676C113.131 14.5645 112.51 15.1768 111.93 15.6045C111.35 16.0264 110.761 16.2373 110.163 16.2373C109.642 16.2373 109.229 16.0352 108.924 15.6309C108.619 15.2266 108.467 14.6729 108.467 13.9697C108.467 13.3545 108.61 12.7979 108.898 12.2998C109.185 11.7959 109.653 11.2656 110.304 10.709C110.749 10.3281 111.192 10.041 111.631 9.84766C112.07 9.6543 112.463 9.55762 112.809 9.55762C113.084 9.55762 113.301 9.62207 113.459 9.75098C113.623 9.87402 113.705 10.0615 113.705 10.3135C113.705 10.6826 113.568 11.0518 113.292 11.4209C113.017 11.7842 112.595 12.1475 112.026 12.5107C111.464 12.8682 110.77 13.2139 109.943 13.5479ZM110.031 12.9766C110.559 12.7715 111.01 12.5166 111.385 12.2119C111.76 11.9072 112.035 11.6172 112.211 11.3418C112.393 11.0605 112.484 10.8555 112.484 10.7266C112.484 10.5918 112.422 10.5244 112.299 10.5244C112.193 10.5244 112.021 10.5918 111.78 10.7266C111.546 10.8613 111.306 11.0371 111.06 11.2539C110.819 11.4707 110.603 11.7256 110.409 12.0186C110.216 12.3115 110.09 12.6309 110.031 12.9766Z" fill="#313131"/>
<path d="M13.6595 3.86995C13.286 4.24347 13.1106 4.6571 13.0255 5.0443L12.9702 5.40232C12.9617 5.49411 12.9553 5.58194 12.9525 5.66613L12.9471 6.0442C12.9474 6.11684 12.9474 6.19282 12.9474 6.27184L12.9471 6.65205C12.9474 6.71861 12.9471 6.78638 12.9468 6.85355L12.9465 7.24409C12.9462 7.31794 12.9459 7.38997 12.9459 7.45987C12.9419 7.45987 12.9446 7.85193 12.9446 7.85193C12.9443 7.93065 12.9443 8.00238 12.9443 8.06741L12.9425 8.46008L12.9419 8.58894L13.0686 8.71568C13.454 9.10105 13.5306 9.46637 13.5458 9.5849L13.5501 19.601C13.3185 19.6174 12.9997 19.5879 12.7647 19.353C12.5416 19.1299 12.5043 18.6099 12.4793 18.2652C12.452 17.8877 12.4286 17.5616 12.1286 17.4209C12.0493 17.3835 11.839 17.3149 11.6031 17.4832C9.95983 18.6561 10.5759 20.0854 11.0254 21.1282C11.264 21.681 11.4892 22.2022 11.4275 22.6353C11.3323 23.3018 11.0685 23.9552 10.8135 24.5865C10.2829 25.9025 9.73371 27.2631 10.9412 28.4706C12.597 30.1264 16.6416 30.0644 17.9314 28.7745C19.4085 27.2975 18.8204 25.9222 18.3478 24.8169C18.0016 24.0075 17.7025 23.3085 18.0229 22.5615C18.8508 20.6303 18.3171 19.6043 17.8715 19.3028C17.5852 19.1089 17.243 19.1296 17.0196 19.353C16.7972 19.5754 16.7564 19.8113 16.727 19.9836C16.6972 20.158 16.6713 20.3091 16.4118 20.5686C16.3039 20.6765 16.1468 20.8002 16.0106 20.7796C15.8587 20.7559 15.7085 20.5778 15.6258 20.4495L15.6216 9.63839L15.6258 9.62745C15.6258 9.24633 15.7812 9.06975 16.3194 8.51631L16.4212 8.41145C16.7777 8.0434 16.472 7.54801 16.0845 6.92102C15.89 6.60676 15.4344 5.86854 15.5049 5.68132C16.0076 5.17864 16.0085 4.36139 15.5073 3.86022C15.0004 3.35328 14.1792 3.35024 13.6595 3.86995Z" fill="#313131"/>
<path d="M27.0414 20.3361C27.5614 20.3361 27.9814 20.4161 28.3014 20.5761C28.6214 20.7281 28.9214 20.9081 29.2014 21.1161C29.3054 21.1961 29.3854 21.2361 29.4414 21.2361C29.5934 21.2361 29.6934 20.9921 29.7414 20.5041H30.0174C30.0014 20.8001 29.9894 21.1601 29.9814 21.5841C29.9734 22.0081 29.9694 22.5681 29.9694 23.2641H29.6934C29.6374 22.9281 29.5694 22.6041 29.4894 22.2921C29.4094 21.9801 29.2774 21.7121 29.0934 21.4881C28.8614 21.1921 28.5574 20.9641 28.1814 20.8041C27.8054 20.6361 27.4174 20.5521 27.0174 20.5521C26.6174 20.5521 26.2534 20.6521 25.9254 20.8521C25.6054 21.0441 25.3294 21.3241 25.0974 21.6921C24.8654 22.0601 24.6854 22.5041 24.5574 23.0241C24.4374 23.5361 24.3774 24.1161 24.3774 24.7641C24.3774 26.2041 24.6094 27.2601 25.0734 27.9321C25.5374 28.5961 26.2574 28.9281 27.2334 28.9281C27.5214 28.9281 27.7694 28.8881 27.9774 28.8081C28.1934 28.7201 28.3614 28.6361 28.4814 28.5561C28.6334 28.4521 28.7294 28.3561 28.7694 28.2681C28.8094 28.1721 28.8294 28.0481 28.8294 27.8961V26.7441C28.8294 26.4161 28.7974 26.1721 28.7334 26.0121C28.6694 25.8521 28.5494 25.7441 28.3734 25.6881C28.2054 25.6321 27.9534 25.6001 27.6174 25.5921V25.3521C27.7614 25.3601 27.9294 25.3681 28.1214 25.3761C28.3134 25.3761 28.5134 25.3801 28.7214 25.3881C28.9374 25.3881 29.1334 25.3881 29.3094 25.3881C29.5734 25.3881 29.8094 25.3841 30.0174 25.3761C30.2334 25.3681 30.4134 25.3601 30.5574 25.3521V25.5921C30.3814 25.6001 30.2494 25.6281 30.1614 25.6761C30.0734 25.7241 30.0134 25.8201 29.9814 25.9641C29.9574 26.1081 29.9454 26.3281 29.9454 26.6241V29.0001H29.7054C29.6974 28.8641 29.6654 28.7161 29.6094 28.5561C29.5614 28.3961 29.4854 28.3161 29.3814 28.3161C29.3334 28.3161 29.2854 28.3281 29.2374 28.3521C29.1894 28.3761 29.1054 28.4321 28.9854 28.5201C28.7214 28.7201 28.4414 28.8801 28.1454 29.0001C27.8494 29.1121 27.5054 29.1681 27.1134 29.1681C26.2894 29.1681 25.5814 29.0001 24.9894 28.6641C24.4054 28.3201 23.9574 27.8281 23.6454 27.1881C23.3334 26.5481 23.1774 25.7841 23.1774 24.8961C23.1774 23.9601 23.3454 23.1521 23.6814 22.4721C24.0174 21.7921 24.4734 21.2681 25.0494 20.9001C25.6334 20.5241 26.2974 20.3361 27.0414 20.3361ZM38.8269 20.5041V20.7441C38.5549 20.7521 38.3469 20.7921 38.2029 20.8641C38.0669 20.9361 37.9749 21.0521 37.9269 21.2121C37.8789 21.3721 37.8549 21.6001 37.8549 21.8961V25.5081C37.8549 26.0681 37.8189 26.5561 37.7469 26.9721C37.6749 27.3881 37.5469 27.7481 37.3629 28.0521C37.1629 28.3881 36.8709 28.6601 36.4869 28.8681C36.1029 29.0681 35.6629 29.1681 35.1669 29.1681C34.7829 29.1681 34.4149 29.1201 34.0629 29.0241C33.7189 28.9361 33.4149 28.7681 33.1509 28.5201C32.9189 28.2961 32.7349 28.0601 32.5989 27.8121C32.4709 27.5641 32.3829 27.2601 32.3349 26.9001C32.2869 26.5401 32.2629 26.0881 32.2629 25.5441V21.7761C32.2629 21.4801 32.2389 21.2641 32.1909 21.1281C32.1429 20.9841 32.0469 20.8881 31.9029 20.8401C31.7669 20.7841 31.5629 20.7521 31.2909 20.7441V20.5041C31.4589 20.5121 31.6789 20.5201 31.9509 20.5281C32.2229 20.5361 32.5149 20.5401 32.8269 20.5401C33.1069 20.5401 33.3829 20.5361 33.6549 20.5281C33.9349 20.5201 34.1669 20.5121 34.3509 20.5041V20.7441C34.0789 20.7521 33.8709 20.7841 33.7269 20.8401C33.5909 20.8881 33.4989 20.9841 33.4509 21.1281C33.4029 21.2641 33.3789 21.4801 33.3789 21.7761V25.7481C33.3789 26.1561 33.3989 26.5441 33.4389 26.9121C33.4789 27.2721 33.5589 27.5921 33.6789 27.8721C33.8069 28.1441 33.9989 28.3601 34.2549 28.5201C34.5109 28.6721 34.8509 28.7481 35.2749 28.7481C35.8829 28.7481 36.3509 28.6161 36.6789 28.3521C37.0149 28.0801 37.2469 27.7081 37.3749 27.2361C37.5109 26.7641 37.5789 26.2321 37.5789 25.6401V21.8961C37.5789 21.6001 37.5429 21.3721 37.4709 21.2121C37.4069 21.0521 37.2949 20.9361 37.1349 20.8641C36.9749 20.7921 36.7589 20.7521 36.4869 20.7441V20.5041C36.6309 20.5121 36.8189 20.5201 37.0509 20.5281C37.2909 20.5361 37.5109 20.5401 37.7109 20.5401C37.9189 20.5401 38.1229 20.5361 38.3229 20.5281C38.5309 20.5201 38.6989 20.5121 38.8269 20.5041ZM42.7106 20.5041V20.7441C42.4386 20.7521 42.2306 20.7841 42.0866 20.8401C41.9506 20.8881 41.8586 20.9841 41.8106 21.1281C41.7626 21.2641 41.7386 21.4801 41.7386 21.7761V27.7281C41.7386 28.0161 41.7626 28.2321 41.8106 28.3761C41.8586 28.5201 41.9506 28.6161 42.0866 28.6641C42.2306 28.7121 42.4386 28.7441 42.7106 28.7601V29.0001C42.5266 28.9841 42.2946 28.9761 42.0146 28.9761C41.7426 28.9681 41.4666 28.9641 41.1866 28.9641C40.8746 28.9641 40.5826 28.9681 40.3106 28.9761C40.0386 28.9761 39.8186 28.9841 39.6506 29.0001V28.7601C39.9226 28.7441 40.1266 28.7121 40.2626 28.6641C40.4066 28.6161 40.5026 28.5201 40.5506 28.3761C40.5986 28.2321 40.6226 28.0161 40.6226 27.7281V21.7761C40.6226 21.4801 40.5986 21.2641 40.5506 21.1281C40.5026 20.9841 40.4066 20.8881 40.2626 20.8401C40.1266 20.7841 39.9226 20.7521 39.6506 20.7441V20.5041C39.8186 20.5121 40.0386 20.5201 40.3106 20.5281C40.5826 20.5361 40.8746 20.5401 41.1866 20.5401C41.4666 20.5401 41.7426 20.5361 42.0146 20.5281C42.2946 20.5201 42.5266 20.5121 42.7106 20.5041ZM50.317 20.5041C50.285 20.8081 50.261 21.1041 50.245 21.3921C50.237 21.6721 50.233 21.8881 50.233 22.0401C50.233 22.2321 50.237 22.4121 50.245 22.5801C50.253 22.7481 50.261 22.8961 50.269 23.0241H49.993C49.937 22.4641 49.861 22.0241 49.765 21.7041C49.669 21.3761 49.501 21.1401 49.261 20.9961C49.021 20.8521 48.649 20.7801 48.145 20.7801H47.497V27.6081C47.497 27.9281 47.525 28.1681 47.581 28.3281C47.645 28.4881 47.765 28.5961 47.941 28.6521C48.117 28.7081 48.373 28.7441 48.709 28.7601V29.0001C48.501 28.9841 48.237 28.9761 47.917 28.9761C47.597 28.9681 47.273 28.9641 46.945 28.9641C46.585 28.9641 46.245 28.9681 45.925 28.9761C45.613 28.9761 45.361 28.9841 45.169 29.0001V28.7601C45.505 28.7441 45.761 28.7081 45.937 28.6521C46.113 28.5961 46.229 28.4881 46.285 28.3281C46.349 28.1681 46.381 27.9281 46.381 27.6081V20.7801H45.733C45.237 20.7801 44.865 20.8521 44.617 20.9961C44.377 21.1401 44.209 21.3761 44.113 21.7041C44.017 22.0241 43.941 22.4641 43.885 23.0241H43.609C43.625 22.8961 43.633 22.7481 43.633 22.5801C43.641 22.4121 43.645 22.2321 43.645 22.0401C43.645 21.8881 43.637 21.6721 43.621 21.3921C43.613 21.1041 43.593 20.8081 43.561 20.5041C43.897 20.5121 44.261 20.5201 44.653 20.5281C45.053 20.5361 45.453 20.5401 45.853 20.5401C46.253 20.5401 46.617 20.5401 46.945 20.5401C47.273 20.5401 47.633 20.5401 48.025 20.5401C48.425 20.5401 48.825 20.5361 49.225 20.5281C49.625 20.5201 49.989 20.5121 50.317 20.5041ZM53.9796 20.4441L56.9076 27.9921C57.0276 28.2961 57.1636 28.5001 57.3156 28.6041C57.4676 28.7001 57.6076 28.7521 57.7356 28.7601V29.0001C57.5756 28.9841 57.3796 28.9761 57.1476 28.9761C56.9156 28.9681 56.6836 28.9641 56.4516 28.9641C56.1396 28.9641 55.8476 28.9681 55.5756 28.9761C55.3036 28.9761 55.0836 28.9841 54.9156 29.0001V28.7601C55.3236 28.7441 55.5836 28.6761 55.6956 28.5561C55.8076 28.4281 55.7836 28.1601 55.6236 27.7521L53.3916 21.7881L53.5836 21.6321L51.4956 27.0561C51.3676 27.3761 51.2916 27.6481 51.2676 27.8721C51.2436 28.0881 51.2636 28.2601 51.3276 28.3881C51.3996 28.5161 51.5156 28.6081 51.6756 28.6641C51.8436 28.7201 52.0516 28.7521 52.2996 28.7601V29.0001C52.0756 28.9841 51.8396 28.9761 51.5916 28.9761C51.3516 28.9681 51.1276 28.9641 50.9196 28.9641C50.7196 28.9641 50.5476 28.9681 50.4036 28.9761C50.2676 28.9761 50.1396 28.9841 50.0196 29.0001V28.7601C50.1796 28.7201 50.3436 28.6281 50.5116 28.4841C50.6796 28.3321 50.8316 28.0761 50.9676 27.7161L53.7876 20.4441C53.8196 20.4441 53.8516 20.4441 53.8836 20.4441C53.9156 20.4441 53.9476 20.4441 53.9796 20.4441ZM55.4436 25.5441V25.7841H51.8676L51.9876 25.5441H55.4436ZM57.9319 20.5041C58.0999 20.5121 58.3199 20.5201 58.5919 20.5281C58.8639 20.5361 59.1319 20.5401 59.3959 20.5401C59.7719 20.5401 60.1319 20.5361 60.4759 20.5281C60.8199 20.5201 61.0639 20.5161 61.2079 20.5161C61.8559 20.5161 62.3919 20.6081 62.8159 20.7921C63.2479 20.9761 63.5679 21.2281 63.7759 21.5481C63.9919 21.8601 64.0999 22.2121 64.0999 22.6041C64.0999 22.8441 64.0519 23.1001 63.9559 23.3721C63.8599 23.6441 63.6919 23.9001 63.4519 24.1401C63.2199 24.3801 62.8999 24.5801 62.4919 24.7401C62.0839 24.8921 61.5679 24.9681 60.9439 24.9681H59.7919V24.7281H60.8239C61.3919 24.7281 61.8239 24.6401 62.1199 24.4641C62.4239 24.2801 62.6279 24.0401 62.7319 23.7441C62.8439 23.4401 62.8999 23.1041 62.8999 22.7361C62.8999 22.1041 62.7479 21.6161 62.4439 21.2721C62.1479 20.9201 61.6359 20.7441 60.9079 20.7441C60.5399 20.7441 60.2999 20.8121 60.1879 20.9481C60.0759 21.0841 60.0199 21.3601 60.0199 21.7761V27.7281C60.0199 28.0161 60.0439 28.2321 60.0919 28.3761C60.1399 28.5201 60.2319 28.6161 60.3679 28.6641C60.5119 28.7121 60.7199 28.7441 60.9919 28.7601V29.0001C60.8079 28.9841 60.5759 28.9761 60.2959 28.9761C60.0239 28.9681 59.7479 28.9641 59.4679 28.9641C59.1559 28.9641 58.8639 28.9681 58.5919 28.9761C58.3199 28.9761 58.0999 28.9841 57.9319 29.0001V28.7601C58.2039 28.7441 58.4079 28.7121 58.5439 28.6641C58.6879 28.6161 58.7839 28.5201 58.8319 28.3761C58.8799 28.2321 58.9039 28.0161 58.9039 27.7281V21.7761C58.9039 21.4801 58.8799 21.2641 58.8319 21.1281C58.7839 20.9841 58.6879 20.8881 58.5439 20.8401C58.4079 20.7841 58.2039 20.7521 57.9319 20.7441V20.5041ZM59.8399 24.7641C60.2719 24.7801 60.6119 24.8001 60.8599 24.8241C61.1079 24.8401 61.3079 24.8561 61.4599 24.8721C61.6199 24.8881 61.7719 24.9081 61.9159 24.9321C62.4519 25.0201 62.8359 25.1841 63.0679 25.4241C63.3079 25.6561 63.4839 26.0201 63.5959 26.5161L63.8959 27.7401C63.9759 28.0921 64.0559 28.3481 64.1359 28.5081C64.2239 28.6601 64.3559 28.7321 64.5319 28.7241C64.6679 28.7161 64.7799 28.6721 64.8679 28.5921C64.9639 28.5121 65.0639 28.4041 65.1679 28.2681L65.3479 28.4001C65.1799 28.6481 65.0039 28.8401 64.8199 28.9761C64.6439 29.1041 64.3919 29.1681 64.0639 29.1681C63.7679 29.1681 63.5079 29.0801 63.2839 28.9041C63.0599 28.7281 62.8919 28.3841 62.7799 27.8721L62.5159 26.6721C62.4439 26.3281 62.3599 26.0321 62.2639 25.7841C62.1759 25.5281 62.0479 25.3281 61.8799 25.1841C61.7199 25.0401 61.4799 24.9681 61.1599 24.9681H59.8639L59.8399 24.7641ZM71.1288 20.3721C71.5288 20.3721 71.8328 20.4201 72.0408 20.5161C72.2488 20.6041 72.4328 20.7041 72.5928 20.8161C72.6888 20.8721 72.7648 20.9161 72.8208 20.9481C72.8848 20.9721 72.9448 20.9841 73.0008 20.9841C73.0808 20.9841 73.1368 20.9401 73.1688 20.8521C73.2088 20.7641 73.2408 20.6321 73.2648 20.4561H73.5408C73.5328 20.5921 73.5208 20.7561 73.5048 20.9481C73.4968 21.1321 73.4888 21.3801 73.4808 21.6921C73.4808 21.9961 73.4808 22.4001 73.4808 22.9041H73.2048C73.1808 22.5201 73.0968 22.1521 72.9528 21.8001C72.8088 21.4481 72.5968 21.1601 72.3168 20.9361C72.0448 20.7121 71.6848 20.6001 71.2368 20.6001C70.8128 20.6001 70.4608 20.7281 70.1808 20.9841C69.9088 21.2401 69.7728 21.5761 69.7728 21.9921C69.7728 22.3521 69.8648 22.6561 70.0488 22.9041C70.2328 23.1441 70.4768 23.3641 70.7808 23.5641C71.0928 23.7561 71.4288 23.9641 71.7888 24.1881C72.2048 24.4441 72.5728 24.7001 72.8928 24.9561C73.2208 25.2041 73.4768 25.4801 73.6608 25.7841C73.8528 26.0881 73.9488 26.4561 73.9488 26.8881C73.9488 27.4001 73.8328 27.8241 73.6008 28.1601C73.3688 28.4961 73.0608 28.7481 72.6768 28.9161C72.2928 29.0841 71.8688 29.1681 71.4048 29.1681C70.9808 29.1681 70.6448 29.1201 70.3968 29.0241C70.1488 28.9281 69.9368 28.8281 69.7608 28.7241C69.5848 28.6121 69.4488 28.5561 69.3528 28.5561C69.2728 28.5561 69.2128 28.6001 69.1728 28.6881C69.1408 28.7761 69.1128 28.9081 69.0888 29.0841H68.8128C68.8288 28.9161 68.8368 28.7201 68.8368 28.4961C68.8448 28.2641 68.8488 27.9641 68.8488 27.5961C68.8568 27.2281 68.8608 26.7641 68.8608 26.2041H69.1368C69.1688 26.6841 69.2568 27.1321 69.4008 27.5481C69.5528 27.9641 69.7808 28.3001 70.0848 28.5561C70.3968 28.8041 70.8088 28.9281 71.3208 28.9281C71.5848 28.9281 71.8328 28.8761 72.0648 28.7721C72.3048 28.6601 72.5008 28.4881 72.6528 28.2561C72.8048 28.0161 72.8808 27.7081 72.8808 27.3321C72.8808 27.0041 72.8008 26.7201 72.6408 26.4801C72.4888 26.2321 72.2728 26.0041 71.9928 25.7961C71.7128 25.5801 71.3848 25.3601 71.0088 25.1361C70.6328 24.9041 70.2808 24.6681 69.9528 24.4281C69.6248 24.1881 69.3608 23.9121 69.1608 23.6001C68.9688 23.2801 68.8728 22.8961 68.8728 22.4481C68.8728 21.9761 68.9768 21.5881 69.1848 21.2841C69.4008 20.9721 69.6808 20.7441 70.0248 20.6001C70.3688 20.4481 70.7368 20.3721 71.1288 20.3721ZM81.6412 20.5041C81.6092 20.8081 81.5852 21.1041 81.5692 21.3921C81.5612 21.6721 81.5572 21.8881 81.5572 22.0401C81.5572 22.2321 81.5612 22.4121 81.5692 22.5801C81.5772 22.7481 81.5852 22.8961 81.5932 23.0241H81.3172C81.2612 22.4641 81.1852 22.0241 81.0892 21.7041C80.9932 21.3761 80.8252 21.1401 80.5852 20.9961C80.3452 20.8521 79.9732 20.7801 79.4692 20.7801H78.8212V27.6081C78.8212 27.9281 78.8492 28.1681 78.9052 28.3281C78.9692 28.4881 79.0892 28.5961 79.2652 28.6521C79.4412 28.7081 79.6972 28.7441 80.0332 28.7601V29.0001C79.8252 28.9841 79.5612 28.9761 79.2412 28.9761C78.9212 28.9681 78.5972 28.9641 78.2692 28.9641C77.9092 28.9641 77.5692 28.9681 77.2492 28.9761C76.9372 28.9761 76.6852 28.9841 76.4932 29.0001V28.7601C76.8292 28.7441 77.0852 28.7081 77.2612 28.6521C77.4372 28.5961 77.5532 28.4881 77.6092 28.3281C77.6732 28.1681 77.7052 27.9281 77.7052 27.6081V20.7801H77.0572C76.5612 20.7801 76.1892 20.8521 75.9412 20.9961C75.7012 21.1401 75.5332 21.3761 75.4372 21.7041C75.3412 22.0241 75.2652 22.4641 75.2092 23.0241H74.9332C74.9492 22.8961 74.9572 22.7481 74.9572 22.5801C74.9652 22.4121 74.9692 22.2321 74.9692 22.0401C74.9692 21.8881 74.9612 21.6721 74.9452 21.3921C74.9372 21.1041 74.9172 20.8081 74.8852 20.5041C75.2212 20.5121 75.5852 20.5201 75.9772 20.5281C76.3772 20.5361 76.7772 20.5401 77.1772 20.5401C77.5772 20.5401 77.9412 20.5401 78.2692 20.5401C78.5972 20.5401 78.9572 20.5401 79.3492 20.5401C79.7492 20.5401 80.1492 20.5361 80.5492 20.5281C80.9492 20.5201 81.3132 20.5121 81.6412 20.5041ZM89.8504 20.5041V20.7441C89.5784 20.7521 89.3704 20.7921 89.2264 20.8641C89.0904 20.9361 88.9984 21.0521 88.9504 21.2121C88.9024 21.3721 88.8784 21.6001 88.8784 21.8961V25.5081C88.8784 26.0681 88.8424 26.5561 88.7704 26.9721C88.6984 27.3881 88.5704 27.7481 88.3864 28.0521C88.1864 28.3881 87.8944 28.6601 87.5104 28.8681C87.1264 29.0681 86.6864 29.1681 86.1904 29.1681C85.8064 29.1681 85.4384 29.1201 85.0864 29.0241C84.7424 28.9361 84.4384 28.7681 84.1744 28.5201C83.9424 28.2961 83.7584 28.0601 83.6224 27.8121C83.4944 27.5641 83.4064 27.2601 83.3584 26.9001C83.3104 26.5401 83.2864 26.0881 83.2864 25.5441V21.7761C83.2864 21.4801 83.2624 21.2641 83.2144 21.1281C83.1664 20.9841 83.0704 20.8881 82.9264 20.8401C82.7904 20.7841 82.5864 20.7521 82.3144 20.7441V20.5041C82.4824 20.5121 82.7024 20.5201 82.9744 20.5281C83.2464 20.5361 83.5384 20.5401 83.8504 20.5401C84.1304 20.5401 84.4064 20.5361 84.6784 20.5281C84.9584 20.5201 85.1904 20.5121 85.3744 20.5041V20.7441C85.1024 20.7521 84.8944 20.7841 84.7504 20.8401C84.6144 20.8881 84.5224 20.9841 84.4744 21.1281C84.4264 21.2641 84.4024 21.4801 84.4024 21.7761V25.7481C84.4024 26.1561 84.4224 26.5441 84.4624 26.9121C84.5024 27.2721 84.5824 27.5921 84.7024 27.8721C84.8304 28.1441 85.0224 28.3601 85.2784 28.5201C85.5344 28.6721 85.8744 28.7481 86.2984 28.7481C86.9064 28.7481 87.3744 28.6161 87.7024 28.3521C88.0384 28.0801 88.2704 27.7081 88.3984 27.2361C88.5344 26.7641 88.6024 26.2321 88.6024 25.6401V21.8961C88.6024 21.6001 88.5664 21.3721 88.4944 21.2121C88.4304 21.0521 88.3184 20.9361 88.1584 20.8641C87.9984 20.7921 87.7824 20.7521 87.5104 20.7441V20.5041C87.6544 20.5121 87.8424 20.5201 88.0744 20.5281C88.3144 20.5361 88.5344 20.5401 88.7344 20.5401C88.9424 20.5401 89.1464 20.5361 89.3464 20.5281C89.5544 20.5201 89.7224 20.5121 89.8504 20.5041ZM93.95 20.5041C95.382 20.5041 96.446 20.8641 97.142 21.5841C97.838 22.2961 98.186 23.3201 98.186 24.6561C98.186 25.5281 98.014 26.2921 97.67 26.9481C97.334 27.5961 96.842 28.1001 96.194 28.4601C95.546 28.8201 94.762 29.0001 93.842 29.0001C93.722 29.0001 93.562 28.9961 93.362 28.9881C93.162 28.9801 92.954 28.9761 92.738 28.9761C92.53 28.9681 92.338 28.9641 92.162 28.9641C91.882 28.9641 91.606 28.9681 91.334 28.9761C91.062 28.9761 90.842 28.9841 90.674 29.0001V28.7601C90.946 28.7441 91.15 28.7121 91.286 28.6641C91.43 28.6161 91.526 28.5201 91.574 28.3761C91.622 28.2321 91.646 28.0161 91.646 27.7281V21.7761C91.646 21.4801 91.622 21.2641 91.574 21.1281C91.526 20.9841 91.43 20.8881 91.286 20.8401C91.15 20.7841 90.946 20.7521 90.674 20.7441V20.5041C90.842 20.5121 91.062 20.5241 91.334 20.5401C91.606 20.5481 91.874 20.5481 92.138 20.5401C92.418 20.5321 92.734 20.5241 93.086 20.5161C93.438 20.5081 93.726 20.5041 93.95 20.5041ZM93.65 20.7201C93.282 20.7201 93.042 20.7881 92.93 20.9241C92.818 21.0601 92.762 21.3361 92.762 21.7521V27.7521C92.762 28.1681 92.818 28.4441 92.93 28.5801C93.05 28.7161 93.294 28.7841 93.662 28.7841C94.534 28.7841 95.21 28.6281 95.69 28.3161C96.17 27.9961 96.506 27.5321 96.698 26.9241C96.89 26.3161 96.986 25.5761 96.986 24.7041C96.986 23.8081 96.878 23.0681 96.662 22.4841C96.454 21.8921 96.106 21.4521 95.618 21.1641C95.138 20.8681 94.482 20.7201 93.65 20.7201ZM102.3 20.5041V20.7441C102.028 20.7521 101.82 20.7841 101.676 20.8401C101.54 20.8881 101.448 20.9841 101.4 21.1281C101.352 21.2641 101.328 21.4801 101.328 21.7761V27.7281C101.328 28.0161 101.352 28.2321 101.4 28.3761C101.448 28.5201 101.54 28.6161 101.676 28.6641C101.82 28.7121 102.028 28.7441 102.3 28.7601V29.0001C102.116 28.9841 101.884 28.9761 101.604 28.9761C101.332 28.9681 101.056 28.9641 100.776 28.9641C100.464 28.9641 100.172 28.9681 99.9005 28.9761C99.6285 28.9761 99.4085 28.9841 99.2405 29.0001V28.7601C99.5125 28.7441 99.7165 28.7121 99.8525 28.6641C99.9965 28.6161 100.092 28.5201 100.14 28.3761C100.188 28.2321 100.212 28.0161 100.212 27.7281V21.7761C100.212 21.4801 100.188 21.2641 100.14 21.1281C100.092 20.9841 99.9965 20.8881 99.8525 20.8401C99.7165 20.7841 99.5125 20.7521 99.2405 20.7441V20.5041C99.4085 20.5121 99.6285 20.5201 99.9005 20.5281C100.172 20.5361 100.464 20.5401 100.776 20.5401C101.056 20.5401 101.332 20.5361 101.604 20.5281C101.884 20.5201 102.116 20.5121 102.3 20.5041ZM107.161 20.3361C107.921 20.3361 108.585 20.5081 109.153 20.8521C109.729 21.1961 110.173 21.6921 110.485 22.3401C110.805 22.9801 110.965 23.7601 110.965 24.6801C110.965 25.5761 110.801 26.3601 110.473 27.0321C110.153 27.7041 109.705 28.2281 109.129 28.6041C108.553 28.9801 107.893 29.1681 107.149 29.1681C106.389 29.1681 105.721 28.9961 105.145 28.6521C104.577 28.3081 104.133 27.8121 103.813 27.1641C103.501 26.5161 103.345 25.7361 103.345 24.8241C103.345 23.9281 103.509 23.1441 103.837 22.4721C104.165 21.8001 104.613 21.2761 105.181 20.9001C105.757 20.5241 106.417 20.3361 107.161 20.3361ZM107.113 20.5521C106.593 20.5521 106.141 20.7321 105.757 21.0921C105.373 21.4521 105.073 21.9481 104.857 22.5801C104.649 23.2121 104.545 23.9441 104.545 24.7761C104.545 25.6241 104.661 26.3641 104.893 26.9961C105.133 27.6201 105.453 28.1041 105.853 28.4481C106.261 28.7841 106.709 28.9521 107.197 28.9521C107.717 28.9521 108.169 28.7721 108.553 28.4121C108.937 28.0521 109.233 27.5561 109.441 26.9241C109.657 26.2841 109.765 25.5521 109.765 24.7281C109.765 23.8721 109.645 23.1321 109.405 22.5081C109.173 21.8841 108.857 21.4041 108.457 21.0681C108.057 20.7241 107.609 20.5521 107.113 20.5521ZM114.676 20.3721C115.076 20.3721 115.38 20.4201 115.588 20.5161C115.796 20.6041 115.98 20.7041 116.14 20.8161C116.236 20.8721 116.312 20.9161 116.368 20.9481C116.432 20.9721 116.492 20.9841 116.548 20.9841C116.628 20.9841 116.684 20.9401 116.716 20.8521C116.756 20.7641 116.788 20.6321 116.812 20.4561H117.088C117.08 20.5921 117.068 20.7561 117.052 20.9481C117.044 21.1321 117.036 21.3801 117.028 21.6921C117.028 21.9961 117.028 22.4001 117.028 22.9041H116.752C116.728 22.5201 116.644 22.1521 116.5 21.8001C116.356 21.4481 116.144 21.1601 115.864 20.9361C115.592 20.7121 115.232 20.6001 114.784 20.6001C114.36 20.6001 114.008 20.7281 113.728 20.9841C113.456 21.2401 113.32 21.5761 113.32 21.9921C113.32 22.3521 113.412 22.6561 113.596 22.9041C113.78 23.1441 114.024 23.3641 114.328 23.5641C114.64 23.7561 114.976 23.9641 115.336 24.1881C115.752 24.4441 116.12 24.7001 116.44 24.9561C116.768 25.2041 117.024 25.4801 117.208 25.7841C117.4 26.0881 117.496 26.4561 117.496 26.8881C117.496 27.4001 117.38 27.8241 117.148 28.1601C116.916 28.4961 116.608 28.7481 116.224 28.9161C115.84 29.0841 115.416 29.1681 114.952 29.1681C114.528 29.1681 114.192 29.1201 113.944 29.0241C113.696 28.9281 113.484 28.8281 113.308 28.7241C113.132 28.6121 112.996 28.5561 112.9 28.5561C112.82 28.5561 112.76 28.6001 112.72 28.6881C112.688 28.7761 112.66 28.9081 112.636 29.0841H112.36C112.376 28.9161 112.384 28.7201 112.384 28.4961C112.392 28.2641 112.396 27.9641 112.396 27.5961C112.404 27.2281 112.408 26.7641 112.408 26.2041H112.684C112.716 26.6841 112.804 27.1321 112.948 27.5481C113.1 27.9641 113.328 28.3001 113.632 28.5561C113.944 28.8041 114.356 28.9281 114.868 28.9281C115.132 28.9281 115.38 28.8761 115.612 28.7721C115.852 28.6601 116.048 28.4881 116.2 28.2561C116.352 28.0161 116.428 27.7081 116.428 27.3321C116.428 27.0041 116.348 26.7201 116.188 26.4801C116.036 26.2321 115.82 26.0041 115.54 25.7961C115.26 25.5801 114.932 25.3601 114.556 25.1361C114.18 24.9041 113.828 24.6681 113.5 24.4281C113.172 24.1881 112.908 23.9121 112.708 23.6001C112.516 23.2801 112.42 22.8961 112.42 22.4481C112.42 21.9761 112.524 21.5881 112.732 21.2841C112.948 20.9721 113.228 20.7441 113.572 20.6001C113.916 20.4481 114.284 20.3721 114.676 20.3721Z" fill="#313131"/>
</svg>
