<svg viewBox="0 0 98 40" stroke-width="8" fill="none" xmlns="http://www.w3.org/2000/svg">
<path d="M92.6683 1.47961C87.0782 7.47426 80.3191 12.26 72.808 15.5415C65.2969 18.823 57.1931 20.5307 48.9965 20.5593C40.7999 20.588 32.6843 18.9368 25.1505 15.7078C17.6167 12.4788 10.8243 7.74041 5.19254 1.78493L6.76886 0.294279C12.197 6.03442 18.7438 10.6015 26.0052 13.7137C33.2666 16.826 41.0887 18.4174 48.9889 18.3898C56.8891 18.3623 64.6999 16.7163 71.9394 13.5534C79.1789 10.3905 85.6936 5.77789 91.0816 0L92.6683 1.47961Z" stroke-width="8" fill="#EFA0A0"/>
<path d="M47.787 20.5597C47.787 20.0074 48.2348 19.5597 48.787 19.5597C49.3393 19.5597 49.787 20.0074 49.787 20.5597V38.5597C49.787 39.112 49.3393 39.5597 48.787 39.5597C48.2348 39.5597 47.787 39.112 47.787 38.5597V20.5597Z" stroke-width="8" fill="#EFA0A0"/>
<path d="M33.4651 18.5291C33.5799 17.9889 34.1109 17.6441 34.6512 17.7589C35.1914 17.8737 35.5362 18.4047 35.4214 18.9449L31.8877 35.5696C31.7729 36.1098 31.2419 36.4546 30.7017 36.3398C30.1614 36.225 29.8166 35.694 29.9314 35.1538L33.4651 18.5291Z" stroke-width="8" fill="#EFA0A0"/>
<path d="M63.9513 18.5379C63.8364 17.9976 63.3054 17.6528 62.7652 17.7676C62.225 17.8824 61.8801 18.4135 61.995 18.9537L65.5286 35.5783C65.6435 36.1185 66.1745 36.4634 66.7147 36.3486C67.2549 36.2337 67.5998 35.7027 67.4849 35.1625L63.9513 18.5379Z" stroke-width="8" fill="#EFA0A0"/>
<path d="M20.8377 13.7896C21.0711 13.2891 21.6661 13.0725 22.1666 13.3059C22.6672 13.5393 22.8837 14.1343 22.6503 14.6349L15.8874 29.138C15.654 29.6385 15.059 29.8551 14.5585 29.6217C14.0579 29.3883 13.8414 28.7933 14.0748 28.2927L20.8377 13.7896Z" stroke-width="8" fill="#EFA0A0"/>
<path d="M77.0223 13.7896C76.7889 13.2891 76.1939 13.0725 75.6934 13.3059C75.1928 13.5393 74.9763 14.1343 75.2097 14.6349L81.9726 29.138C82.206 29.6385 82.801 29.8551 83.3015 29.6216C83.802 29.3882 84.0186 28.7933 83.7852 28.2927L77.0223 13.7896Z" stroke-width="8" fill="#EFA0A0"/>
<path d="M9.87519 6.31982C10.2302 5.89674 10.8609 5.84156 11.284 6.19656C11.7071 6.55156 11.7623 7.18232 11.4073 7.60539L1.76607 19.0953C1.41107 19.5184 0.78031 19.5736 0.357236 19.2186C-0.065839 18.8636 -0.121023 18.2328 0.233979 17.8098L9.87519 6.31982Z" stroke-width="8" fill="#EFA0A0"/>
<path d="M87.9619 6.31983C87.6069 5.89676 86.9762 5.84157 86.5531 6.19658C86.13 6.55158 86.0748 7.18233 86.4298 7.60541L96.0711 19.0954C96.4261 19.5184 97.0568 19.5736 97.4799 19.2186C97.903 18.8636 97.9582 18.2329 97.6031 17.8098L87.9619 6.31983Z" stroke-width="8" fill="#EFA0A0"/>
</svg>
