<svg width="98" height="40" viewBox="0 0 98 40" fill="none" xmlns="http://www.w3.org/2000/svg">
<path d="M92.6683 1.47961C87.0782 7.47426 80.3191 12.26 72.808 15.5415C65.2969 18.823 57.1931 20.5307 48.9965 20.5593C40.7999 20.588 32.6843 18.9368 25.1505 15.7078C17.6167 12.4788 10.8243 7.74041 5.19254 1.78493L6.76886 0.294279C12.197 6.03442 18.7438 10.6015 26.0052 13.7137C33.2666 16.826 41.0887 18.4174 48.9889 18.3898C56.8891 18.3623 64.6999 16.7163 71.9394 13.5534C79.1789 10.3905 85.6936 5.77789 91.0816 0L92.6683 1.47961Z" fill="#EFA0A0"/>
<path d="M47.787 20.5597C47.787 20.0074 48.2348 19.5597 48.787 19.5597C49.3393 19.5597 49.787 20.0074 49.787 20.5597V38.5597C49.787 39.112 49.3393 39.5597 48.787 39.5597C48.2348 39.5597 47.787 39.112 47.787 38.5597V20.5597Z" fill="#EFA0A0"/>
<path d="M48.2128 21.7446C47.9882 21.24 48.2151 20.6489 48.7196 20.4243C49.2242 20.1996 49.8153 20.4265 50.0399 20.9311L57.3612 37.3749C57.5858 37.8794 57.3589 38.4705 56.8544 38.6952C56.3498 38.9198 55.7587 38.6929 55.5341 38.1884L48.2128 21.7446Z" fill="#EFA0A0"/>
<path d="M47.5341 20.9311C47.7588 20.4265 48.3499 20.1996 48.8544 20.4243C49.3589 20.6489 49.5858 21.24 49.3612 21.7446L42.04 38.1884C41.8153 38.6929 41.2242 38.9198 40.7197 38.6952C40.2151 38.4705 39.9882 37.8794 40.2129 37.3749L47.5341 20.9311Z" fill="#EFA0A0"/>
<path d="M74.5606 14.1513C74.2949 13.6672 74.4719 13.0593 74.9561 12.7935C75.4402 12.5278 76.0481 12.7048 76.3139 13.1889L84.9752 28.9681C85.241 29.4522 85.0639 30.0601 84.5798 30.3259C84.0956 30.5916 83.4877 30.4146 83.222 29.9304L74.5606 14.1513Z" fill="#EFA0A0"/>
<path d="M75.504 14.9851C75.0643 14.6509 74.9788 14.0235 75.313 13.5838C75.6472 13.1441 76.2745 13.0586 76.7142 13.3928L91.0447 24.2849C91.4844 24.6191 91.5699 25.2464 91.2357 25.6861C90.9016 26.1258 90.2742 26.2113 89.8345 25.8771L75.504 14.9851Z" fill="#EFA0A0"/>
<path d="M74.5176 14.5986C74.4717 14.0482 74.8807 13.5648 75.4311 13.519C75.9815 13.4731 76.4648 13.8821 76.5107 14.4325L78.0053 32.3703C78.0511 32.9207 77.6422 33.4041 77.0918 33.4499C76.5414 33.4958 76.0581 33.0868 76.0122 32.5364L74.5176 14.5986Z" fill="#EFA0A0"/>
<path d="M22.679 14.239C22.9448 13.7548 22.7677 13.1469 22.2836 12.8812C21.7994 12.6154 21.1915 12.7924 20.9258 13.2766L12.2644 29.0557C11.9987 29.5399 12.1757 30.1478 12.6599 30.4135C13.144 30.6793 13.7519 30.5022 14.0177 30.0181L22.679 14.239Z" fill="#EFA0A0"/>
<path d="M21.7356 15.0727C22.1753 14.7385 22.2609 14.1112 21.9267 13.6715C21.5925 13.2318 20.9651 13.1463 20.5254 13.4805L6.19492 24.3725C5.75522 24.7067 5.6697 25.3341 6.00389 25.7738C6.33809 26.2135 6.96545 26.299 7.40515 25.9648L21.7356 15.0727Z" fill="#EFA0A0"/>
<path d="M22.722 14.6862C22.7679 14.1358 22.3589 13.6525 21.8085 13.6066C21.2582 13.5608 20.7748 13.9698 20.729 14.5201L19.2344 32.458C19.1885 33.0084 19.5975 33.4917 20.1479 33.5376C20.6982 33.5834 21.1816 33.1744 21.2274 32.6241L22.722 14.6862Z" fill="#EFA0A0"/>
<path d="M33.4651 18.5291C33.5799 17.9889 34.1109 17.6441 34.6512 17.7589C35.1914 17.8737 35.5362 18.4047 35.4214 18.9449L31.8877 35.5696C31.7729 36.1098 31.2419 36.4546 30.7017 36.3398C30.1614 36.225 29.8166 35.694 29.9314 35.1538L33.4651 18.5291Z" fill="#EFA0A0"/>
<path d="M63.9513 18.5379C63.8364 17.9976 63.3054 17.6528 62.7652 17.7676C62.225 17.8824 61.8801 18.4135 61.995 18.9537L65.5286 35.5783C65.6435 36.1185 66.1745 36.4634 66.7147 36.3486C67.2549 36.2337 67.5998 35.7027 67.4849 35.1625L63.9513 18.5379Z" fill="#EFA0A0"/>
<path d="M9.87519 6.31982C10.2302 5.89674 10.8609 5.84156 11.284 6.19656C11.7071 6.55156 11.7623 7.18232 11.4073 7.60539L1.76607 19.0953C1.41107 19.5184 0.78031 19.5736 0.357236 19.2186C-0.065839 18.8636 -0.121023 18.2328 0.233979 17.8098L9.87519 6.31982Z" fill="#EFA0A0"/>
<path d="M87.9619 6.31983C87.6069 5.89676 86.9762 5.84157 86.5531 6.19658C86.13 6.55158 86.0748 7.18233 86.4298 7.60541L96.0711 19.0954C96.4261 19.5184 97.0568 19.5736 97.4799 19.2186C97.903 18.8636 97.9582 18.2329 97.6031 17.8098L87.9619 6.31983Z" fill="#EFA0A0"/>
</svg>
