<svg width="57" height="72" viewBox="0 0 57 72" fill="none" xmlns="http://www.w3.org/2000/svg">
<path d="M28.7638 0.0551758C13.3475 0.0551758 0.818909 12.5826 0.818909 27.9975C0.818909 37.4047 6.26816 45.2751 12.6023 50.7704C14.6051 52.4936 18.0982 55.2412 21.2187 59.2928C24.6652 63.8102 27.7857 68.6535 28.7638 71.9134C29.7419 68.6535 32.8624 63.8102 36.3089 59.2928C39.4294 55.2412 42.9225 52.4936 44.9252 50.7704C51.2594 45.2751 56.7087 37.4047 56.7087 27.9975C56.7087 12.5826 44.18 0.0551758 28.7638 0.0551758ZM28.7638 11.9772C30.8678 11.9772 32.9512 12.3916 34.895 13.1967C36.8389 14.0018 38.6051 15.1818 40.0929 16.6694C41.5806 18.1571 42.7608 19.9231 43.5659 21.8668C44.3711 23.8105 44.7855 25.8937 44.7855 27.9975C44.7855 30.1013 44.3711 32.1845 43.5659 34.1282C42.7608 36.0718 41.5806 37.8379 40.0929 39.3255C38.6051 40.8131 36.8389 41.9932 34.895 42.7983C32.9512 43.6033 30.8678 44.0177 28.7638 44.0177C24.5146 44.0177 20.4394 42.3299 17.4347 39.3255C14.4301 36.3211 12.7421 32.2463 12.7421 27.9975C12.7421 23.7486 14.4301 19.6738 17.4347 16.6694C20.4394 13.6651 24.5146 11.9772 28.7638 11.9772V11.9772Z" fill="#EFA0A0"/>
</svg>
