<svg width="113" height="40" viewBox="0 0 113 40" fill="none" xmlns="http://www.w3.org/2000/svg">
<path d="M100.352 1.47961C94.7624 7.47426 88.0033 12.26 80.4922 15.5415C72.9811 18.823 64.8772 20.5307 56.6806 20.5593C48.4841 20.588 40.3685 18.9368 32.8347 15.7078C25.3009 12.4788 18.5085 7.74041 12.8767 1.78493L14.453 0.294279C19.8812 6.03442 26.4279 10.6015 33.6894 13.7137C40.9508 16.826 48.7729 18.4174 56.6731 18.3898C64.5733 18.3623 72.3841 16.7163 79.6236 13.5534C86.8631 10.3905 93.3778 5.77789 98.7658 0L100.352 1.47961Z" fill="#EFA0A0"/>
<path d="M55.4712 20.5597C55.4712 20.0074 55.9189 19.5597 56.4712 19.5597C57.0235 19.5597 57.4712 20.0074 57.4712 20.5597V38.5597C57.4712 39.112 57.0235 39.5597 56.4712 39.5597C55.9189 39.5597 55.4712 39.112 55.4712 38.5597V20.5597Z" fill="#EFA0A0"/>
<path d="M55.897 21.7446C55.6724 21.24 55.8993 20.6489 56.4038 20.4243C56.9084 20.1996 57.4995 20.4265 57.7241 20.9311L65.0454 37.3749C65.27 37.8794 65.0431 38.4705 64.5386 38.6952C64.034 38.9198 63.4429 38.6929 63.2183 38.1884L55.897 21.7446Z" fill="#EFA0A0"/>
<path d="M55.2183 20.9311C55.4429 20.4265 56.034 20.1996 56.5386 20.4243C57.0431 20.6489 57.27 21.24 57.0454 21.7446L49.7241 38.1884C49.4995 38.6929 48.9084 38.9198 48.4039 38.6952C47.8993 38.4705 47.6724 37.8794 47.897 37.3749L55.2183 20.9311Z" fill="#EFA0A0"/>
<path d="M41.413 18.5554C41.5319 18.0161 42.0655 17.6753 42.6048 17.7941C43.1441 17.913 43.485 18.4466 43.3661 18.986L39.4913 36.564C39.3724 37.1033 38.8388 37.4441 38.2994 37.3252C37.7601 37.2064 37.4193 36.6728 37.5382 36.1334L41.413 18.5554Z" fill="#EFA0A0"/>
<path d="M41.5737 19.8042C41.463 19.2631 41.8118 18.7347 42.3529 18.6239C42.8939 18.5132 43.4223 18.862 43.5331 19.4031L47.1429 37.0374C47.2536 37.5785 46.9048 38.1069 46.3637 38.2176C45.8227 38.3284 45.2943 37.9795 45.1835 37.4385L41.5737 19.8042Z" fill="#EFA0A0"/>
<path d="M41.086 18.8636C41.414 18.4193 42.0401 18.325 42.4845 18.6529C42.9288 18.9809 43.0231 19.607 42.6952 20.0514L32.0057 34.5336C31.6778 34.978 31.0517 35.0723 30.6073 34.7443C30.163 34.4164 30.0686 33.7903 30.3966 33.3459L41.086 18.8636Z" fill="#EFA0A0"/>
<path d="M71.4333 18.2543C71.3144 17.715 70.7808 17.3741 70.2415 17.493C69.7022 17.6119 69.3613 18.1455 69.4802 18.6848L73.355 36.2628C73.4739 36.8022 74.0075 37.143 74.5469 37.0241C75.0862 36.9052 75.427 36.3716 75.3082 35.8323L71.4333 18.2543Z" fill="#EFA0A0"/>
<path d="M71.2726 19.503C71.3834 18.962 71.0345 18.4336 70.4935 18.3228C69.9524 18.212 69.424 18.5609 69.3132 19.1019L65.7034 36.7363C65.5927 37.2773 65.9415 37.8057 66.4826 37.9165C67.0236 38.0272 67.5521 37.6784 67.6628 37.1374L71.2726 19.503Z" fill="#EFA0A0"/>
<path d="M71.7603 18.5625C71.4323 18.1182 70.8062 18.0238 70.3618 18.3518C69.9175 18.6798 69.8232 19.3059 70.1511 19.7502L80.8406 34.2325C81.1686 34.6768 81.7947 34.7712 82.239 34.4432C82.6834 34.1152 82.7777 33.4891 82.4497 33.0448L71.7603 18.5625Z" fill="#EFA0A0"/>
<path d="M82.2448 14.1513C81.9791 13.6672 82.1561 13.0593 82.6402 12.7935C83.1244 12.5278 83.7323 12.7048 83.998 13.1889L92.6594 28.9681C92.9252 29.4522 92.7481 30.0601 92.264 30.3259C91.7798 30.5916 91.1719 30.4146 90.9062 29.9304L82.2448 14.1513Z" fill="#EFA0A0"/>
<path d="M83.1882 14.9851C82.7485 14.6509 82.663 14.0235 82.9972 13.5838C83.3313 13.1441 83.9587 13.0586 84.3984 13.3928L98.7289 24.2849C99.1686 24.6191 99.2541 25.2464 98.9199 25.6861C98.5857 26.1258 97.9584 26.2113 97.5187 25.8771L83.1882 14.9851Z" fill="#EFA0A0"/>
<path d="M82.2018 14.5986C82.1559 14.0482 82.5649 13.5648 83.1153 13.519C83.6657 13.4731 84.149 13.8821 84.1949 14.4325L85.6895 32.3703C85.7353 32.9207 85.3263 33.4041 84.776 33.4499C84.2256 33.4958 83.7422 33.0868 83.6964 32.5364L82.2018 14.5986Z" fill="#EFA0A0"/>
<path d="M30.3632 14.239C30.629 13.7548 30.4519 13.1469 29.9678 12.8812C29.4836 12.6154 28.8757 12.7924 28.61 13.2766L19.9486 29.0557C19.6829 29.5399 19.8599 30.1478 20.344 30.4135C20.8282 30.6793 21.4361 30.5022 21.7018 30.0181L30.3632 14.239Z" fill="#EFA0A0"/>
<path d="M29.4198 15.0727C29.8595 14.7385 29.945 14.1112 29.6108 13.6715C29.2767 13.2318 28.6493 13.1463 28.2096 13.4805L13.8791 24.3725C13.4394 24.7067 13.3539 25.3341 13.6881 25.7738C14.0223 26.2135 14.6496 26.299 15.0893 25.9648L29.4198 15.0727Z" fill="#EFA0A0"/>
<path d="M30.4062 14.6862C30.4521 14.1358 30.0431 13.6525 29.4927 13.6066C28.9423 13.5608 28.459 13.9698 28.4131 14.5201L26.9185 32.458C26.8727 33.0084 27.2817 33.4917 27.832 33.5376C28.3824 33.5834 28.8658 33.1744 28.9116 32.6241L30.4062 14.6862Z" fill="#EFA0A0"/>
<path d="M18.7179 6.4071C19.0737 5.98465 19.0196 5.35379 18.5971 4.99806C18.1747 4.64232 17.5438 4.6964 17.1881 5.11886L5.5939 18.8875C5.23816 19.3099 5.29224 19.9408 5.7147 20.2965C6.13716 20.6523 6.76801 20.5982 7.12374 20.1757L18.7179 6.4071Z" fill="#EFA0A0"/>
<path d="M17.629 7.03917C18.1259 6.79792 18.333 6.19962 18.0918 5.7028C17.8506 5.20599 17.2522 4.99881 16.7554 5.24005L0.563422 13.1026C0.0666114 13.3438 -0.140569 13.9421 0.100672 14.4389C0.341913 14.9357 0.940222 15.1429 1.43703 14.9017L17.629 7.03917Z" fill="#EFA0A0"/>
<path d="M18.6722 6.85409C18.8253 6.32346 18.5193 5.76915 17.9887 5.616C17.4581 5.46284 16.9038 5.76884 16.7506 6.29947L11.759 23.5935C11.6059 24.1241 11.9119 24.6784 12.4425 24.8316C12.9731 24.9848 13.5274 24.6788 13.6806 24.1481L18.6722 6.85409Z" fill="#EFA0A0"/>
<path d="M94.2202 5.75354C93.8644 5.33108 93.9185 4.70023 94.341 4.34449C94.7634 3.98875 95.3943 4.04284 95.75 4.4653L107.344 18.2339C107.7 18.6564 107.646 19.2872 107.223 19.643C106.801 19.9987 106.17 19.9446 105.814 19.5222L94.2202 5.75354Z" fill="#EFA0A0"/>
<path d="M95.309 6.3856C94.8122 6.14436 94.605 5.54605 94.8463 5.04924C95.0875 4.55243 95.6858 4.34525 96.1826 4.58649L112.375 12.449C112.871 12.6902 113.079 13.2885 112.837 13.7853C112.596 14.2822 111.998 14.4893 111.501 14.2481L95.309 6.3856Z" fill="#EFA0A0"/>
<path d="M94.2659 6.20052C94.1127 5.6699 94.4187 5.11559 94.9494 4.96243C95.48 4.80928 96.0343 5.11528 96.1874 5.6459L101.179 22.9399C101.332 23.4706 101.026 24.0249 100.496 24.178C99.9649 24.3312 99.4106 24.0252 99.2575 23.4946L94.2659 6.20052Z" fill="#EFA0A0"/>
</svg>
