<svg width="89" height="99" viewBox="0 0 89 99" fill="none" xmlns="http://www.w3.org/2000/svg">
<path d="M44.5 0C19.1301 0 0 12.7685 0 29.7C0 51.7201 30.3589 99 44.5 99C59.4718 99 89 53.017 89 29.7C89 12.7685 69.8699 0 44.5 0ZM44.5 94.05C34.0771 94.05 4.94444 49.9604 4.94444 29.7C4.94444 15.59 21.9509 4.95 44.5 4.95C67.0491 4.95 84.0556 15.59 84.0556 29.7C84.0556 52.6878 54.604 94.05 44.5 94.05ZM69.4744 48.4531L73.9541 50.542C71.336 56.1775 57.7264 84.296 46.9722 84.296V79.346C50.8907 79.346 60.6065 67.5353 69.4744 48.4531ZM79.1111 32.175H74.1667C74.1667 22.1364 61.6894 14.85 44.5 14.85V9.9C64.8785 9.9 79.1111 19.06 79.1111 32.175Z" fill="#E5D6CC"/>
</svg>
