<svg width="679" height="146" viewBox="0 0 679 146" fill="none" xmlns="http://www.w3.org/2000/svg">
<circle cx="39.5" cy="95.5" r="39.5" fill="white"/>
<path d="M70.5 134.999C107 102.999 87 51.4988 45 45.9988C68 19.9999 114.5 28.5 119 70.4988C158 73.9988 160.5 129.499 119 134.999H70.5Z" fill="white"/>
<path d="M187.505 100.209C194.666 100.209 200.897 96.954 202.85 92.211L203.687 99H213.638V71.1C213.638 58.359 206.012 51.663 193.643 51.663C181.181 51.663 172.997 58.173 172.997 68.124H182.669C182.669 63.288 186.389 60.498 193.085 60.498C198.851 60.498 202.571 63.009 202.571 69.24V70.263L188.807 71.286C177.926 72.123 171.788 77.424 171.788 85.887C171.788 94.536 177.74 100.209 187.505 100.209ZM191.225 91.653C186.11 91.653 183.32 89.607 183.32 85.422C183.32 81.702 186.017 79.377 193.085 78.726L202.664 77.982V80.4C202.664 87.468 198.2 91.653 191.225 91.653ZM236.223 99V29.808H224.97V99H236.223ZM259.564 99V29.808H248.311V99H259.564ZM292.998 85.05C292.998 94.071 300.252 100.209 311.691 100.209C323.037 100.209 330.942 94.443 330.942 85.143C330.942 78.075 327.036 74.541 319.317 72.774L311.04 70.821C307.134 69.891 305.088 68.217 305.088 65.613C305.088 62.172 307.692 60.126 312.156 60.126C316.527 60.126 319.131 62.637 319.224 66.543H330.012C329.919 57.615 322.944 51.663 312.621 51.663C302.019 51.663 294.393 57.057 294.393 66.078C294.393 73.425 298.392 77.331 306.669 79.191L314.946 81.144C319.038 82.074 320.247 83.748 320.247 86.073C320.247 89.421 317.364 91.56 312.063 91.56C306.855 91.56 303.879 89.049 303.786 85.05H292.998ZM336.884 75.936C336.884 90.258 347.207 100.116 361.436 100.116C375.665 100.116 385.988 90.258 385.988 75.936C385.988 61.614 375.665 51.756 361.436 51.756C347.207 51.756 336.884 61.614 336.884 75.936ZM348.23 75.936C348.23 67.566 353.624 61.893 361.436 61.893C369.248 61.893 374.642 67.566 374.642 75.936C374.642 84.306 369.248 89.979 361.436 89.979C353.624 89.979 348.23 84.306 348.23 75.936ZM406.42 99V29.808H395.167V99H406.42ZM449.477 53.058V77.145C449.477 85.887 446.036 90.072 438.875 90.072C432.551 90.072 429.11 86.538 429.11 77.796V53.058H417.764V81.795C417.764 93.048 423.995 100.209 434.597 100.209C440.735 100.209 446.687 97.233 449.477 92.862L450.314 99H460.823V53.058H449.477ZM488.166 99V62.544H497.094V53.058H488.166V38.736H476.82V53.058H467.985V62.544H476.82V99H488.166ZM509.82 43.851C513.54 43.851 516.609 40.782 516.609 36.969C516.609 33.156 513.54 30.18 509.82 30.18C505.914 30.18 502.845 33.156 502.845 36.969C502.845 40.782 505.914 43.851 509.82 43.851ZM504.147 99H515.493V53.058H504.147V99ZM524.518 75.936C524.518 90.258 534.841 100.116 549.07 100.116C563.299 100.116 573.622 90.258 573.622 75.936C573.622 61.614 563.299 51.756 549.07 51.756C534.841 51.756 524.518 61.614 524.518 75.936ZM535.864 75.936C535.864 67.566 541.258 61.893 549.07 61.893C556.882 61.893 562.276 67.566 562.276 75.936C562.276 84.306 556.882 89.979 549.07 89.979C541.258 89.979 535.864 84.306 535.864 75.936ZM593.962 99V74.262C593.962 66.822 598.24 61.986 605.215 61.986C611.074 61.986 614.887 65.706 614.887 73.425V99H626.233V70.728C626.233 58.824 620.281 51.663 608.749 51.663C602.518 51.663 596.938 54.36 594.055 59.01L593.125 53.058H582.616V99H593.962ZM633.302 85.05C633.302 94.071 640.556 100.209 651.995 100.209C663.341 100.209 671.246 94.443 671.246 85.143C671.246 78.075 667.34 74.541 659.621 72.774L651.344 70.821C647.438 69.891 645.392 68.217 645.392 65.613C645.392 62.172 647.996 60.126 652.46 60.126C656.831 60.126 659.435 62.637 659.528 66.543H670.316C670.223 57.615 663.248 51.663 652.925 51.663C642.323 51.663 634.697 57.057 634.697 66.078C634.697 73.425 638.696 77.331 646.973 79.191L655.25 81.144C659.342 82.074 660.551 83.748 660.551 86.073C660.551 89.421 657.668 91.56 652.367 91.56C647.159 91.56 644.183 89.049 644.09 85.05H633.302Z" fill="white"/>
<path d="M177.065 133V126.58H184.225V133H186.185V118.54H184.225V124.76H177.065V118.54H175.105V133H177.065ZM205.159 133V131.18H198.299V126.6H204.479V124.86H198.299V120.34H205.159V118.54H196.339V133H205.159ZM215.399 133L216.679 129.4H222.759L224.059 133H226.119L220.819 118.54H218.639L213.359 133H215.399ZM219.479 121.66C219.579 121.36 219.679 121.02 219.719 120.82C219.759 121.04 219.859 121.38 219.959 121.66L222.179 127.7H217.279L219.479 121.66ZM232.132 120.34H236.492V133H238.452V120.34H242.792V118.54H232.132V120.34ZM253.523 118.54H251.563V133H253.523V118.54ZM265.655 133V121.82L273.055 133H275.015V118.54H273.055V129.72L265.655 118.54H263.695V133H265.655ZM291.382 120.14C293.302 120.14 294.902 121.06 295.442 122.9H297.522C297.042 120.12 294.582 118.3 291.422 118.3C287.162 118.3 284.322 121.42 284.322 125.82C284.322 130.28 287.142 133.24 291.242 133.24C293.362 133.24 295.122 132.32 295.902 131.06L296.042 133.02H297.682V125.04H291.002V126.78H295.842V127.2C295.842 130.12 293.862 131.38 291.402 131.38C288.422 131.38 286.382 129.36 286.382 125.86C286.382 122.44 288.262 120.14 291.382 120.14ZM328.533 125.46V127.06H332.733V131.28H334.333V127.06H338.533V125.46H334.333V121.26H332.733V125.46H328.533ZM371.353 133L372.633 129.4H378.713L380.013 133H382.073L376.773 118.54H374.593L369.313 133H371.353ZM375.433 121.66C375.533 121.36 375.633 121.02 375.673 120.82C375.713 121.04 375.813 121.38 375.913 121.66L378.133 127.7H373.233L375.433 121.66ZM392.756 118.54H390.796V133H392.756V118.54ZM404.888 133V127.28H408.588L411.288 133H413.468L410.528 126.9C412.328 126.32 413.328 124.88 413.328 122.88C413.328 120.18 411.488 118.54 408.388 118.54H402.928V133H404.888ZM404.888 120.3H408.388C410.188 120.3 411.268 121.22 411.268 122.9C411.268 124.56 410.228 125.54 408.408 125.54H404.888V120.3ZM453.482 133.22C456.742 133.22 459.322 131.3 459.942 128.42H457.862C457.322 130.2 455.642 131.34 453.522 131.34C450.602 131.34 448.682 129.14 448.682 125.76C448.682 122.38 450.602 120.18 453.522 120.18C455.622 120.18 457.242 121.32 457.782 123.2H459.882C459.342 120.24 456.842 118.3 453.582 118.3C449.442 118.3 446.622 121.32 446.622 125.78C446.622 130.26 449.362 133.22 453.482 133.22ZM482.186 125.76C482.186 121.36 479.326 118.28 475.226 118.28C471.146 118.28 468.286 121.38 468.286 125.76C468.286 130.16 471.126 133.24 475.206 133.24C479.306 133.24 482.186 130.16 482.186 125.76ZM480.126 125.76C480.126 129.1 478.166 131.36 475.226 131.36C472.286 131.36 470.346 129.12 470.346 125.76C470.346 122.4 472.286 120.18 475.226 120.18C478.166 120.18 480.126 122.4 480.126 125.76ZM493.453 133V121.82L500.853 133H502.813V118.54H500.853V129.72L493.453 118.54H491.493V133H493.453ZM517.76 133C522.04 133 524.92 130.08 524.92 125.78C524.92 121.46 522 118.54 517.68 118.54H512.98V133H517.76ZM517.54 120.34C520.84 120.34 522.88 122.42 522.88 125.78C522.88 129.1 520.84 131.18 517.62 131.18H514.94V120.34H517.54ZM536.174 118.54H534.214V133H536.174V118.54ZM544.946 120.34H549.306V133H551.266V120.34H555.606V118.54H544.946V120.34ZM566.336 118.54H564.376V133H566.336V118.54ZM589.548 125.76C589.548 121.36 586.688 118.28 582.588 118.28C578.508 118.28 575.648 121.38 575.648 125.76C575.648 130.16 578.488 133.24 582.568 133.24C586.668 133.24 589.548 130.16 589.548 125.76ZM587.488 125.76C587.488 129.1 585.528 131.36 582.588 131.36C579.648 131.36 577.708 129.12 577.708 125.76C577.708 122.4 579.648 120.18 582.588 120.18C585.528 120.18 587.488 122.4 587.488 125.76ZM600.815 133V121.82L608.215 133H610.175V118.54H608.215V129.72L600.815 118.54H598.855V133H600.815ZM622.303 118.54H620.343V133H622.303V118.54ZM634.435 133V121.82L641.835 133H643.795V118.54H641.835V129.72L634.435 118.54H632.475V133H634.435ZM660.162 120.14C662.082 120.14 663.682 121.06 664.222 122.9H666.302C665.822 120.12 663.362 118.3 660.202 118.3C655.942 118.3 653.102 121.42 653.102 125.82C653.102 130.28 655.922 133.24 660.022 133.24C662.142 133.24 663.902 132.32 664.682 131.06L664.822 133.02H666.462V125.04H659.782V126.78H664.622V127.2C664.622 130.12 662.642 131.38 660.182 131.38C657.202 131.38 655.162 129.36 655.162 125.86C655.162 122.44 657.042 120.14 660.162 120.14Z" fill="white"/>
</svg>
