<svg width="60" height="60" viewBox="0 0 60 60" fill="none" xmlns="http://www.w3.org/2000/svg">
<path d="M23.2174 29.2251C25.2314 32.2126 28.4348 36.4504 30 36.4509C31.5652 36.4515 35.2173 31.289 36.7826 29.2251C38.3478 27.1612 35.2174 20.4516 30 25.6122C25.8261 20.9676 21.2033 26.2377 23.2174 29.2251Z" stroke="#EB007A" stroke-width="1" stroke-linecap="round"/>
<path d="M30 6V14.2581" stroke="#EB007A" stroke-width="1" stroke-linecap="round"/>
<path d="M30 46.7742V54" stroke="#EB007A" stroke-width="1" stroke-linecap="round"/>
<path d="M46.6957 30.2581H54" stroke="#EB007A" stroke-width="1" stroke-linecap="round"/>
<path d="M13.3043 30.2581H6" stroke="#EB007A" stroke-width="1" stroke-linecap="round"/>
<path d="M18 18.3871L12.7826 13.2258" stroke="#EB007A" stroke-width="1" stroke-linecap="round"/>
<path d="M41.4783 41.6129L47.2174 47.2903" stroke="#EB007A" stroke-width="1" stroke-linecap="round"/>
<path d="M41.4783 18.9032L47.2174 13.2258" stroke="#EB007A" stroke-width="1" stroke-linecap="round"/>
<path d="M18 42.129L12.7826 47.2903" stroke="#EB007A" stroke-width="1" stroke-linecap="round"/>
<path d="M14.8696 24.5807L11.2174 22.5162" stroke="#EB007A" stroke-width="1" stroke-linecap="round"/>
<path d="M23.7391 15.2903L22.1739 11.6774" stroke="#EB007A" stroke-width="1" stroke-linecap="round"/>
<path d="M36.2609 15.2903L37.8261 11.6774" stroke="#EB007A" stroke-width="1" stroke-linecap="round"/>
<path d="M45.1304 24.5807L48.7826 22.5162" stroke="#EB007A" stroke-width="1" stroke-linecap="round"/>
<path d="M45.1304 36.4516L48.7826 38.5161" stroke="#EB007A" stroke-width="1" stroke-linecap="round"/>
<path d="M36.2609 45.2258L37.8261 49.3549" stroke="#EB007A" stroke-width="1" stroke-linecap="round"/>
<path d="M23.7391 45.2258L22.1739 48.8387" stroke="#EB007A" stroke-width="1" stroke-linecap="round"/>
<path d="M14.8696 36.4516L11.2174 38" stroke="#EB007A" stroke-width="1" stroke-linecap="round"/>
</svg>
