<svg width="60" height="60" viewBox="0 0 60 60" fill="none" xmlns="http://www.w3.org/2000/svg">
<path d="M37.7421 49.2528C36.8352 39.7302 49.0786 41.544 44.0905 25.2195" stroke="#EB007A" stroke-width="1" stroke-linecap="round"/>
<path d="M49.0786 28.3937C50.8796 32.3631 50.8336 34.4363 49.0786 37.9164" stroke="#EB007A" stroke-width="1" stroke-linecap="round"/>
<path d="M52.7062 26.1265C55.3933 31.772 55.378 34.9102 52.7062 40.6371" stroke="#EB007A" stroke-width="1" stroke-linecap="round"/>
<path d="M11.6373 28.3937C9.83624 32.3631 9.88222 34.4363 11.6373 37.9164" stroke="#EB007A" stroke-width="1" stroke-linecap="round"/>
<path d="M8.00955 26.1265C5.32248 31.772 5.33775 34.9102 8.00955 40.6371" stroke="#EB007A" stroke-width="1" stroke-linecap="round"/>
<path d="M31.8471 17.0572C24.5918 17.0572 19.6038 21.1383 19.6038 25.6729V29.3006L16.4295 33.8352C14.6157 37.4628 20.0572 35.1955 19.1503 37.9163C18.2434 47.8924 26.8591 37.4628 24.5918 49.2528" stroke="#EB007A" stroke-width="1" stroke-linecap="round"/>
<path d="M36.8352 18.8711V17.9642L35.0214 15.2434C31.3936 5.26723 48.1716 5.26727 44.0905 15.2434L42.2767 17.9642V18.8711M36.8352 18.8711V21.1384L39.556 23.8591L42.2767 21.1384V18.8711M36.8352 18.8711H42.2767" stroke="#EB007A" stroke-width="1" stroke-linecap="round"/>
</svg>
