<svg width="60" height="60" viewBox="0 0 60 60" fill="none" xmlns="http://www.w3.org/2000/svg">
<circle cx="30.4236" cy="13.2198" r="5.21978" stroke="#EB007A" stroke-width="1"/>
<path d="M27.0743 21.8318C22.7068 21.7631 21.0249 22.6985 19.4192 26.1378C19.4192 26.1378 17.5054 31.8791 17.027 32.836C16.5485 33.7929 10.3288 38.0989 10.3288 38.0989C7.93668 40.0127 8.89357 42.4049 12.2425 40.9696C12.2425 40.9696 18.9409 38.0989 19.8978 37.142C20.8547 36.1851 21.8116 28.53 23.2469 28.53C24.6822 28.53 24.2038 39.5343 24.2038 39.5343C24.0077 40.3875 22.8749 41.448 22.29 41.448C21.7051 41.4481 17.0271 40.0127 17.0271 40.0127C14.6349 39.5343 11.7643 42.8834 14.1565 45.754C15.0421 46.7687 16.078 47.4935 18.9409 49.1031M18.9409 49.1031C20.8854 48.3922 23.0537 48.2791 28.9883 48.6247C29.4934 48.2838 29.9697 47.9706 30.4236 47.6824M18.9409 49.1031C16.5487 50.5385 17.984 52.9307 20.3763 53.4091C20.3763 53.4091 24.7503 53.4091 27.5529 53.4091C29.0849 53.4091 31.6582 52.6129 34.6237 51.4954M39.0356 44.3187C35.7709 44.8365 33.6724 45.6196 30.4236 47.6824M30.4236 47.6824C27.3026 45.7161 25.5204 44.994 22.29 44.3187M34.6237 51.4954C36.0223 53.6185 37.6182 53.8264 41.9063 52.4523C45.2554 51.379 41.6542 48.6513 38.5571 49.937M34.6237 51.4954C35.8809 51.0216 37.2085 50.4901 38.5571 49.937M38.5571 49.937C39.9885 49.35 41.4436 48.7386 42.8631 48.1463C49.4217 45.4094 48.126 39.5343 41.4278 40.4911C40.3044 40.858 39.0356 41.448 38.5571 41.448C38.0787 41.4481 36.6678 40.9094 36.1649 39.0558C36.1649 39.0558 36.6434 29.0085 37.6003 28.53C38.5571 28.0516 39.9925 36.1851 40.9494 37.142C41.9063 38.0989 49.0829 41.448 49.0829 41.448C50.9967 42.4049 53.3889 40.0127 50.9967 38.0989C50.9967 38.0989 45.2554 34.7498 43.82 33.3145C42.3847 31.8791 40.9494 26.1378 40.9494 26.1378C40.0679 22.5944 38.4269 21.6123 33.2943 21.8318" stroke="#EB007A" stroke-width="1" stroke-linecap="round"/>
</svg>
