<svg width="140" height="140" viewBox="0 0 140 140" fill="none" xmlns="http://www.w3.org/2000/svg">
<circle cx="70" cy="70" r="70" fill="#E46F9F"/>
<path d="M35.2279 118.535L35.3844 118.256C35.7059 118.424 35.9687 118.522 36.1727 118.551C36.3622 118.584 36.5318 118.532 36.6815 118.396C36.826 118.269 36.9947 118.033 37.1877 117.689L41.068 110.766C41.2558 110.431 41.3687 110.165 41.4067 109.966C41.4448 109.767 41.4003 109.595 41.2735 109.451C41.1373 109.301 40.9162 109.128 40.6103 108.932L40.7667 108.653C40.9703 108.792 41.2349 108.952 41.5606 109.135C41.8717 109.322 42.1901 109.506 42.5158 109.689C42.8787 109.892 43.2209 110.078 43.5425 110.246C43.8588 110.423 44.1199 110.557 44.3258 110.648L44.1693 110.927C43.8425 110.769 43.5844 110.673 43.3949 110.64C43.1961 110.602 43.0219 110.651 42.8722 110.787C42.7225 110.923 42.5538 111.159 42.366 111.494L38.0632 119.17L38.0309 119.097L46.598 111.83L46.8213 111.955L45.2612 122.985L49.3919 115.616C49.5796 115.281 49.7003 115 49.754 114.773C49.7932 114.55 49.7479 114.348 49.618 114.165C49.4737 113.986 49.2253 113.786 48.8728 113.564L49.0293 113.285C49.1863 113.397 49.3998 113.529 49.6696 113.68C49.9342 113.841 50.1875 113.989 50.4294 114.124C50.662 114.255 50.9019 114.383 51.149 114.509C51.3817 114.64 51.5823 114.74 51.7509 114.81L51.5944 115.089C51.2676 114.931 51.0043 114.844 50.8044 114.83C50.59 114.82 50.4027 114.892 50.2425 115.047C50.0772 115.211 49.9006 115.461 49.7129 115.795L45.9108 122.579C45.7178 122.923 45.6049 123.19 45.5721 123.379C45.534 123.578 45.5831 123.752 45.7193 123.902C45.841 124.056 46.0574 124.226 46.3685 124.413L46.212 124.692C46.0591 124.594 45.8689 124.475 45.6415 124.335C45.4048 124.19 45.1701 124.053 44.9375 123.922C44.7328 123.808 44.5208 123.695 44.3016 123.584C44.0731 123.468 43.8818 123.373 43.7277 123.299L45.2378 113.177L45.5376 113.198L37.6799 119.854C37.5682 119.792 37.4612 119.732 37.3589 119.674C37.2472 119.612 37.1356 119.549 37.0239 119.486C36.6982 119.304 36.3746 119.129 36.0531 118.961C35.7222 118.787 35.4471 118.645 35.2279 118.535Z" fill="#FAFAFA"/>
<path d="M25.8437 109.265C26.1396 109.034 26.4205 108.802 26.6862 108.57C26.9445 108.331 27.1383 108.148 27.2675 108.02C27.4043 107.886 27.5335 107.751 27.6552 107.616C27.7693 107.489 27.8645 107.38 27.9406 107.29L28.1988 107.552C27.7953 108.04 27.5055 108.452 27.3295 108.79C27.1458 109.136 27.1018 109.464 27.1975 109.774C27.2781 110.083 27.5167 110.44 27.9134 110.843L28.8452 111.789C29.0997 112.047 29.3171 112.222 29.4974 112.314C29.6627 112.406 29.8361 112.407 30.0179 112.318C30.192 112.237 30.4196 112.057 30.7008 111.78L36.3552 106.212C36.6287 105.942 36.8115 105.718 36.9034 105.537C36.9953 105.357 37.0004 105.18 36.9188 105.006C36.822 104.831 36.6464 104.615 36.392 104.357L35.5724 103.524C35.1009 103.046 34.6808 102.748 34.3121 102.632C33.9359 102.509 33.551 102.536 33.1574 102.714C32.7487 102.892 32.2674 103.201 31.7134 103.642L31.4552 103.38C31.6829 103.201 31.9677 102.942 32.3097 102.606C32.4541 102.463 32.6593 102.254 32.9254 101.977C33.1765 101.7 33.4314 101.404 33.6903 101.089C34.0568 101.491 34.4795 101.936 34.9586 102.422C35.43 102.916 35.8528 103.353 36.227 103.733C36.3917 103.9 36.605 104.117 36.867 104.383C37.1214 104.641 37.4022 104.919 37.7091 105.215C38.0085 105.519 38.3155 105.823 38.6299 106.127C38.9368 106.439 39.2325 106.732 39.517 107.005L39.289 107.23C39.0193 106.986 38.7981 106.823 38.6252 106.738C38.4449 106.646 38.2639 106.645 38.0822 106.734C37.9005 106.823 37.6728 107.003 37.3993 107.272L31.7449 112.841C31.4637 113.117 31.281 113.342 31.1967 113.515C31.1048 113.696 31.1034 113.877 31.1925 114.058C31.2666 114.24 31.427 114.464 31.6739 114.729L31.4459 114.954C31.1766 114.665 30.8923 114.361 30.593 114.042C30.2861 113.731 29.9868 113.419 29.695 113.108C29.3956 112.804 29.1187 112.523 28.8642 112.264C28.6023 111.998 28.389 111.782 28.2243 111.614C27.88 111.265 27.4908 110.87 27.0567 110.429C26.6075 109.988 26.2032 109.6 25.8437 109.265ZM31.6735 107.387C31.6735 107.387 31.7115 107.349 31.7875 107.274C31.8635 107.2 31.9015 107.162 31.9015 107.162L33.956 109.248C33.956 109.248 33.918 109.286 33.842 109.361C33.766 109.435 33.728 109.473 33.728 109.473L31.6735 107.387ZM29.8431 108.538C30.3062 108.142 30.6518 107.831 30.8798 107.607C31.1003 107.375 31.3056 107.165 31.4956 106.978C31.6856 106.791 31.8908 106.581 32.1113 106.349C32.3319 106.117 32.6437 105.772 33.047 105.315L33.3052 105.578C33.092 105.847 32.8938 106.117 32.7107 106.388C32.5125 106.658 32.4123 106.936 32.4101 107.223C32.3929 107.509 32.5489 107.82 32.8782 108.154L32.6502 108.378C32.4032 108.128 32.1667 107.986 31.9407 107.954C31.6995 107.922 31.4692 107.955 31.2498 108.051C31.0303 108.147 30.8257 108.266 30.6361 108.408C30.4388 108.558 30.2606 108.688 30.1013 108.8L29.8431 108.538Z" fill="#FAFAFA"/>
<path d="M18.1445 97.3743C18.4884 97.2228 18.8177 97.0674 19.1324 96.9083C19.4417 96.7399 19.6746 96.61 19.8312 96.5185C19.997 96.4216 20.1554 96.3229 20.3066 96.2222C20.4486 96.1269 20.5675 96.045 20.6635 95.9766L20.8491 96.2943C20.338 96.6671 19.9555 96.9956 19.7016 97.2799C19.4384 97.5695 19.315 97.8763 19.3314 98.2003C19.3331 98.5205 19.4766 98.9247 19.7618 99.4128L20.4318 100.559C20.6148 100.873 20.7823 101.096 20.9344 101.229C21.0719 101.359 21.2397 101.403 21.4378 101.361C21.6267 101.325 21.8915 101.208 22.2322 101.008L29.0843 97.0048C29.4159 96.8111 29.6484 96.6382 29.7819 96.486C29.9154 96.3339 29.964 96.1634 29.9278 95.9746C29.877 95.7819 29.7601 95.529 29.5771 95.2159L28.9879 94.2074C28.6489 93.6272 28.315 93.2354 27.9862 93.0322C27.6521 92.8198 27.2723 92.7513 26.847 92.8269C26.4071 92.8986 25.8644 93.0798 25.2189 93.3705L25.0333 93.0528C25.2981 92.9351 25.6377 92.7552 26.0521 92.513C26.2271 92.4108 26.4777 92.2582 26.8039 92.0553C27.1154 91.8485 27.4355 91.6245 27.7639 91.3831C28.0199 91.8636 28.3201 92.3985 28.6645 92.988C28.9997 93.5828 29.3019 94.1104 29.5709 94.5709C29.6893 94.7735 29.8427 95.036 30.031 95.3584C30.214 95.6715 30.4177 96.0096 30.6421 96.3726C30.8574 96.741 31.0799 97.1113 31.3098 97.4835C31.5304 97.8611 31.7449 98.2176 31.9532 98.553L31.6769 98.7144C31.4755 98.412 31.3014 98.1987 31.1547 98.0744C31.0026 97.9409 30.8275 97.895 30.6294 97.9366C30.4314 97.9782 30.1666 98.0959 29.835 98.2896L22.9829 102.293C22.6421 102.492 22.4096 102.665 22.2853 102.812C22.1519 102.964 22.1059 103.139 22.1475 103.337C22.1745 103.531 22.2749 103.788 22.4487 104.106L22.1724 104.268C21.9825 103.922 21.7818 103.557 21.5704 103.174C21.3498 102.797 21.1364 102.421 20.9304 102.047C20.7151 101.679 20.516 101.338 20.3331 101.025C20.1447 100.702 19.9914 100.44 19.873 100.237C19.6255 99.8137 19.3456 99.3348 19.0335 98.8006C18.7068 98.2626 18.4105 97.7872 18.1445 97.3743ZM24.2575 96.9898C24.2575 96.9898 24.3036 96.9629 24.3957 96.9091C24.4878 96.8553 24.5338 96.8284 24.5338 96.8284L26.011 99.3565C26.011 99.3565 25.9649 99.3834 25.8728 99.4372C25.7807 99.491 25.7347 99.5179 25.7347 99.5179L24.2575 96.9898ZM22.1999 97.6547C22.7464 97.3848 23.1578 97.1691 23.4341 97.0077C23.705 96.8371 23.9556 96.6845 24.1858 96.5499C24.416 96.4154 24.6666 96.2628 24.9375 96.0922C25.2084 95.9215 25.5956 95.6644 26.0991 95.3208L26.2847 95.6386C26.0115 95.8476 25.7529 96.0605 25.5089 96.2772C25.2503 96.4901 25.0846 96.7351 25.0119 97.0123C24.9246 97.2857 24.9993 97.625 25.2361 98.0303L24.9598 98.1917C24.7822 97.8878 24.5878 97.6925 24.3766 97.6059C24.1508 97.5155 23.9197 97.4899 23.6832 97.5292C23.4467 97.5686 23.2191 97.6336 23.0004 97.7244C22.7724 97.8205 22.5675 97.9032 22.3855 97.9724L22.1999 97.6547Z" fill="#FAFAFA"/>
<path d="M13.3873 83.1684C13.7887 83.0974 14.1768 83.0192 14.5518 82.9336C14.9135 82.8408 15.1918 82.7664 15.3866 82.7104C15.6326 82.6397 15.8618 82.5683 16.0742 82.4962C16.2865 82.424 16.4732 82.3593 16.6343 82.3019L16.7359 82.6556C16.0389 82.9336 15.5031 83.193 15.1284 83.4339C14.7434 83.6777 14.5028 83.9799 14.4067 84.3404C14.3105 84.701 14.3553 85.2042 14.5409 85.8501L14.7795 86.6805L23.5294 84.1661C23.9394 84.0482 24.2367 83.924 24.4211 83.7933C24.6026 83.6524 24.6968 83.4588 24.7037 83.2127C24.7107 82.9665 24.6625 82.6252 24.5593 82.1887L24.8669 82.1003C24.9229 82.3728 25.0099 82.714 25.1278 83.1241C25.2353 83.5371 25.3495 83.9538 25.4703 84.3741C25.6029 84.8354 25.7332 85.2697 25.8613 85.6768C25.9762 86.0766 26.0793 86.3966 26.1705 86.6367L25.8629 86.7251C25.7187 86.3004 25.5783 85.9856 25.4417 85.7807C25.3051 85.5758 25.124 85.4669 24.8983 85.4541C24.6697 85.431 24.3504 85.4784 23.9403 85.5962L15.1904 88.1106L15.4291 88.941C15.6117 89.5766 15.841 90.0268 16.1168 90.2916C16.3898 90.5461 16.754 90.6745 17.2097 90.6767C17.6551 90.6819 18.247 90.6173 18.9852 90.4828L19.0869 90.8365C18.9169 90.8631 18.7243 90.9074 18.509 90.9693C18.2908 91.0209 18.0587 91.082 17.8126 91.1527C17.6179 91.2087 17.344 91.2985 16.9911 91.4221C16.625 91.5384 16.253 91.6731 15.8752 91.826C15.7617 91.3925 15.638 90.9231 15.5039 90.4178C15.3668 89.9023 15.2246 89.3882 15.0773 88.8756C14.93 88.363 14.796 87.8966 14.6752 87.4763C14.5544 87.0559 14.4218 86.5946 14.2775 86.0923C14.1302 85.5797 13.9778 85.0686 13.8202 84.5589C13.6627 84.0493 13.5184 83.5858 13.3873 83.1684Z" fill="#FAFAFA"/>
<path d="M19.6404 44.7203L19.933 44.85C19.8898 45.0526 19.9296 45.2919 20.0522 45.568C20.1651 45.8397 20.3864 46.1828 20.716 46.5973L25.2571 52.1457L25.1469 52.3944L17.3106 53.0159C16.8633 53.051 16.5656 53.1174 16.4173 53.215C16.2636 53.2985 16.1629 53.3939 16.1154 53.5012L15.8082 53.365C15.9044 53.1743 16.0028 52.9787 16.1033 52.7783C16.2082 52.5681 16.3146 52.3411 16.4227 52.0973C16.5654 51.7755 16.7167 51.4342 16.8766 51.0734C17.0311 50.6985 17.1678 50.3507 17.2866 50.03L17.5938 50.1662C17.4857 50.41 17.4199 50.6375 17.3963 50.8487C17.3726 51.0599 17.4259 51.2293 17.5559 51.357C17.686 51.4847 17.9249 51.5381 18.2725 51.5172L24.1076 51.1461L24.1435 51.302L21.1297 47.6382C20.7144 47.1274 20.3583 46.8121 20.0614 46.6922C19.7689 46.5625 19.5193 46.586 19.3126 46.7627C19.0961 46.9351 18.8923 47.224 18.7009 47.6292L18.4084 47.4995C18.5435 47.221 18.6808 46.9377 18.8202 46.6495C18.9597 46.3613 19.0856 46.0904 19.198 45.8368C19.3104 45.5833 19.3984 45.3715 19.4622 45.2014C19.5259 45.0313 19.5853 44.8709 19.6404 44.7203ZM24.013 50.8066L26.9092 52.0905C27.2603 52.2461 27.5365 52.3336 27.738 52.3529C27.9394 52.3722 28.1062 52.3119 28.2382 52.1721C28.3745 52.0225 28.5259 51.7863 28.6924 51.4633L28.9849 51.593C28.866 51.8087 28.7309 52.0871 28.5796 52.4284C28.4228 52.7557 28.2688 53.0899 28.1175 53.4312C27.9489 53.8115 27.796 54.1696 27.6588 54.5055C27.5118 54.8371 27.4027 55.1095 27.3314 55.323L27.0389 55.1933C27.1664 54.8531 27.2376 54.5871 27.2526 54.3954C27.2719 54.194 27.2067 54.0251 27.0571 53.8887C26.9075 53.7524 26.6572 53.6065 26.3062 53.4508L23.3076 52.1216L24.5646 51.7337L24.013 50.8066Z" fill="#FAFAFA"/>
<path d="M25.8025 35.8075C26.4419 35.0214 27.1785 34.4793 28.0122 34.1811C28.8526 33.8747 29.7392 33.8328 30.672 34.0552C31.6032 34.2627 32.5446 34.7534 33.4963 35.5274C34.4231 36.2812 35.0961 37.1105 35.5152 38.0151C35.9411 38.9115 36.1062 39.8157 36.0105 40.7279C35.9149 41.64 35.5541 42.4809 34.9281 43.2505C34.2887 44.0366 33.5488 44.5829 32.7084 44.8893C31.8747 45.1874 30.9881 45.2294 30.0486 45.0152C29.1158 44.7927 28.1777 44.2979 27.2344 43.5306C26.3075 42.7768 25.6346 41.9475 25.2154 41.0429C24.7963 40.1382 24.6311 39.234 24.7201 38.3301C24.8158 37.418 25.1766 36.5771 25.8025 35.8075ZM25.9856 36.0389C25.5481 36.5768 25.354 37.1958 25.4033 37.8958C25.4526 38.5959 25.7133 39.3235 26.1853 40.0787C26.664 40.8255 27.3337 41.549 28.1943 42.2489C29.0715 42.9624 29.9345 43.465 30.7834 43.7567C31.6308 44.0334 32.4007 44.1096 33.093 43.9853C33.7838 43.8459 34.3345 43.5239 34.7451 43.0191C35.1826 42.4812 35.3767 41.8622 35.3273 41.1622C35.278 40.4621 35.014 39.7386 34.5353 38.9917C34.055 38.2299 33.3887 37.5023 32.5363 36.8091C31.6509 36.0889 30.7845 35.5904 29.9371 35.3137C29.0965 35.0287 28.3341 34.9517 27.65 35.0828C26.9577 35.2071 26.4029 35.5258 25.9856 36.0389Z" fill="#FAFAFA"/>
<path d="M41.5535 22.6805L41.7379 22.942C41.4476 23.1597 41.2517 23.3631 41.1501 23.5522C41.0572 23.7352 41.0461 23.9323 41.1167 24.1435C41.1873 24.3547 41.3363 24.6216 41.5637 24.9442L44.3389 28.8802C44.7691 29.4905 45.1048 30.0499 45.346 30.5586C45.5871 31.0672 45.7242 31.5579 45.7573 32.0305C45.7975 32.5503 45.6883 33.0711 45.4296 33.5927C45.1648 34.1057 44.7622 34.5527 44.2217 34.9338C43.8032 35.2288 43.3654 35.4593 42.908 35.6251C42.4655 35.7935 42.0052 35.844 41.527 35.7766C41.1021 35.7107 40.7202 35.5949 40.3815 35.4292C40.0515 35.2573 39.722 34.9936 39.3931 34.6382C39.0642 34.2828 38.6908 33.8087 38.2728 33.2158L35.3778 29.1098C35.1504 28.7872 34.9583 28.5703 34.8015 28.459C34.6386 28.3389 34.4602 28.3081 34.2664 28.3664C34.0752 28.4099 33.8283 28.5317 33.5257 28.732L33.3414 28.4705C33.5306 28.3501 33.7765 28.1898 34.079 27.9895C34.3816 27.7893 34.7028 27.5693 35.0428 27.3296C35.3479 27.1145 35.6456 26.898 35.9359 26.6803C36.2349 26.4565 36.4815 26.2695 36.6759 26.1194L36.8603 26.381C36.57 26.5987 36.3679 26.7934 36.2541 26.965C36.1427 27.1218 36.1162 27.2971 36.1746 27.4909C36.2267 27.676 36.3665 27.9298 36.594 28.2524L39.6457 32.5807C39.9591 33.0253 40.279 33.4328 40.6054 33.8031C40.9255 34.1646 41.2586 34.4519 41.6045 34.6648C41.9529 34.8628 42.3281 34.9507 42.73 34.9284C43.1258 34.8973 43.5547 34.7189 44.0167 34.3932C44.6793 33.926 45.0878 33.4226 45.2424 32.8829C45.3996 32.3284 45.3666 31.7448 45.1434 31.1321C44.929 30.5132 44.5944 29.8813 44.1395 29.2361L41.263 25.1562C41.0356 24.8337 40.8212 24.6129 40.6198 24.4939C40.4271 24.3687 40.2159 24.3283 39.9862 24.3728C39.7566 24.4173 39.4905 24.5396 39.1879 24.7399L39.0035 24.4783C39.1666 24.3764 39.3776 24.2407 39.6366 24.0712C39.9042 23.8955 40.1471 23.7308 40.365 23.5772C40.5917 23.4174 40.8109 23.2563 41.0227 23.0939C41.2432 22.9254 41.4201 22.7876 41.5535 22.6805Z" fill="#FAFAFA"/>
<path d="M46.4047 20.4413C46.6189 20.3748 46.8982 20.2846 47.2427 20.1708C47.5872 20.057 47.9249 19.9399 48.2557 19.8197C48.7269 19.6485 49.1762 19.4795 49.6037 19.3129C50.0311 19.1462 50.3351 19.0301 50.5155 18.9645C51.3276 18.6694 52.0412 18.5406 52.6563 18.5781C53.2814 18.612 53.7972 18.7821 54.2036 19.0883C54.6163 19.381 54.912 19.7729 55.0905 20.2641C55.1998 20.5649 55.2562 20.9076 55.2598 21.2921C55.2633 21.6767 55.1694 22.074 54.9779 22.4841C54.7965 22.8905 54.4865 23.2868 54.0481 23.6731C53.606 24.0494 52.994 24.3796 52.212 24.6638L50.7684 25.1884L50.6591 24.8876L51.9524 24.4177C52.6642 24.159 53.1654 23.852 53.4562 23.4967C53.7534 23.1276 53.8998 22.734 53.8953 22.3157C53.8972 21.8837 53.8144 21.4372 53.6468 20.976C53.359 20.184 52.9463 19.6417 52.4087 19.349C51.8775 19.0427 51.1557 19.0553 50.2434 19.3868C49.7822 19.5544 49.5124 19.7489 49.434 19.9703C49.3556 20.1918 49.4111 20.5631 49.6005 21.0845L52.311 28.5433C52.4421 28.9042 52.5705 29.1639 52.6963 29.3225C52.822 29.4811 52.981 29.5595 53.1733 29.5578C53.3756 29.5523 53.6508 29.4977 53.999 29.3939L54.1083 29.6947C53.8704 29.7584 53.576 29.854 53.2251 29.9815C52.8806 30.0954 52.5329 30.216 52.1821 30.3435C51.7911 30.4856 51.427 30.6236 51.0898 30.7575C50.7489 30.8814 50.4768 30.9916 50.2736 31.0881L50.1643 30.7874C50.4979 30.6434 50.7389 30.5104 50.8875 30.3884C51.0461 30.2626 51.1227 30.0986 51.1173 29.8963C51.1119 29.694 51.0436 29.4124 50.9124 29.0515L48.202 21.5927C48.0672 21.2217 47.9388 20.962 47.8167 20.8134C47.691 20.6548 47.527 20.5782 47.3246 20.5836C47.1287 20.5754 46.8585 20.6282 46.514 20.742L46.4047 20.4413ZM50.7356 24.9109C51.2843 24.7342 51.7195 24.6044 52.0412 24.5216C52.3593 24.4287 52.6172 24.3577 52.8149 24.3085C53.0227 24.2557 53.2223 24.2115 53.4137 24.176C54.1255 24.0422 54.6814 24.0729 55.0814 24.268C55.4878 24.4494 55.8741 24.8254 56.2403 25.396L57.1737 26.7933C57.4342 27.1979 57.651 27.4823 57.8242 27.6464C58.0036 27.7968 58.2019 27.8269 58.4188 27.7368C58.5856 27.6648 58.7059 27.5587 58.7797 27.4183C58.8636 27.2744 58.9397 27.0935 59.0081 26.8757L59.2938 26.9591C59.1962 27.3464 59.0631 27.6672 58.8944 27.9214C58.7322 28.162 58.4455 28.3569 58.0345 28.5063C57.6635 28.6411 57.2976 28.6492 56.9368 28.5306C56.5759 28.4121 56.2088 28.0575 55.8352 27.4669L54.958 26.0833C54.7111 25.685 54.471 25.3523 54.2378 25.0853C54.0109 24.8045 53.7595 24.6122 53.4833 24.5082C53.2173 24.4006 52.8837 24.4197 52.4827 24.5654L50.8586 25.1556L50.7356 24.9109Z" fill="#FAFAFA"/>
<path d="M89.7288 19.3516L89.627 19.6549C89.2798 19.5497 89.0033 19.502 88.7975 19.5117C88.6052 19.5147 88.4482 19.5971 88.3265 19.7587C88.2081 19.9103 88.0862 20.1732 87.9607 20.5473L85.4368 28.0713C85.3146 28.4354 85.2534 28.7186 85.253 28.921C85.2526 29.1234 85.3282 29.2837 85.4798 29.4021C85.6415 29.5238 85.8908 29.6525 86.2279 29.788L86.1261 30.0914C85.9003 29.9932 85.6104 29.8847 85.2565 29.7659C84.916 29.6405 84.5688 29.5184 84.2149 29.3997C83.8205 29.2674 83.4497 29.1486 83.1024 29.0434C82.7586 28.928 82.4771 28.8449 82.2579 28.7939L82.3597 28.4905C82.7103 28.5856 82.9818 28.6316 83.174 28.6286C83.3764 28.629 83.5385 28.5484 83.6602 28.3867C83.782 28.225 83.9039 27.9621 84.026 27.5981L86.5499 20.0741C86.6754 19.6999 86.7367 19.4167 86.7337 19.2244C86.7341 19.0221 86.6534 18.86 86.4917 18.7383C86.3436 18.6098 86.0993 18.4828 85.7588 18.3574L85.8606 18.054C86.0696 18.1353 86.3443 18.2388 86.6847 18.3642C87.0252 18.4897 87.3926 18.6185 87.787 18.7508C88.1409 18.8696 88.4915 18.9815 88.8388 19.0868C89.1961 19.1954 89.4928 19.2837 89.7288 19.3516Z" fill="#FAFAFA"/>
<path d="M104.38 27.266L104.211 27.5378C103.897 27.3554 103.633 27.2543 103.42 27.2345C103.215 27.2204 103.029 27.287 102.862 27.4344C102.695 27.5818 102.508 27.8231 102.299 28.1584L97.2577 36.2715C97.2033 36.2377 97.1489 36.2039 97.0946 36.1701C97.0493 36.142 96.9994 36.111 96.9451 36.0772L96.7181 23.7106L92.2592 30.886C92.0565 31.2122 91.9232 31.4873 91.8594 31.7113C91.8102 31.9319 91.8463 32.1365 91.9678 32.325C92.104 32.5101 92.3431 32.7214 92.6852 32.9591L92.5163 33.2309C92.3644 33.1115 92.1572 32.9701 91.8944 32.8068C91.6373 32.6345 91.391 32.4751 91.1554 32.3288C90.9289 32.188 90.6951 32.049 90.4539 31.9117C90.2274 31.7709 90.0315 31.6618 89.8662 31.5842L90.0351 31.3124C90.3544 31.4857 90.6136 31.5839 90.8127 31.6072C91.0264 31.627 91.2168 31.5631 91.3837 31.4157C91.5563 31.2593 91.7439 31.0179 91.9466 30.6918L96.0509 24.0871C96.2592 23.7519 96.384 23.4904 96.4253 23.3026C96.4723 23.1057 96.4312 22.9295 96.3019 22.7738C96.1873 22.6146 95.9787 22.4348 95.6763 22.2344L95.8452 21.9626C95.9936 22.0673 96.1783 22.1946 96.3991 22.3444C96.6291 22.4999 96.8573 22.648 97.0838 22.7887C97.2831 22.9126 97.4761 23.0263 97.663 23.1298C97.8498 23.2333 98.0185 23.3256 98.1691 23.4066L98.3723 33.7806L101.987 27.9641C102.195 27.6289 102.324 27.351 102.373 27.1304C102.431 26.9154 102.395 26.7108 102.264 26.5167C102.143 26.3282 101.908 26.1196 101.561 25.891L101.73 25.6192C101.887 25.7296 102.094 25.871 102.351 26.0433C102.618 26.2213 102.864 26.3806 103.09 26.5214C103.326 26.6677 103.56 26.8068 103.792 26.9385C104.033 27.0758 104.229 27.185 104.38 27.266Z" fill="#FAFAFA"/>
<path d="M111.192 33.6043C111.558 33.9918 111.79 34.3302 111.888 34.6197C111.993 34.9018 112.065 35.1716 112.103 35.4293C112.136 35.5736 112.163 35.6875 112.184 35.7711C112.219 35.855 112.262 35.9242 112.314 35.9784C112.387 36.0559 112.481 36.0698 112.596 36.0202C112.717 35.9783 112.875 35.8884 113.067 35.7504L113.32 36.0178C113.181 36.1346 113.011 36.2733 112.81 36.4337C112.625 36.5945 112.377 36.8139 112.068 37.092C111.773 37.3706 111.382 37.7407 110.894 38.2024L110.641 37.9351C110.991 37.56 111.27 37.1415 111.479 36.6795C111.688 36.2175 111.773 35.7483 111.734 35.2718C111.701 34.8031 111.48 34.3518 111.07 33.9178C110.681 33.507 110.235 33.2833 109.73 33.2466C109.233 33.2176 108.783 33.3937 108.38 33.7749C108.031 34.1047 107.821 34.4723 107.749 34.8778C107.685 35.2759 107.696 35.7138 107.781 36.1915C107.88 36.6697 107.987 37.1857 108.1 37.7397C108.233 38.3772 108.322 38.9682 108.367 39.5128C108.427 40.0577 108.395 40.5586 108.269 41.0153C108.15 41.4798 107.881 41.91 107.463 42.3058C106.967 42.7748 106.45 43.0509 105.912 43.134C105.374 43.2171 104.848 43.1496 104.333 42.9315C103.818 42.7135 103.349 42.3797 102.924 41.9302C102.535 41.5194 102.274 41.15 102.14 40.8218C102.005 40.4936 101.908 40.1966 101.848 39.9308C101.795 39.6577 101.724 39.4747 101.636 39.3817C101.563 39.3042 101.466 39.2864 101.344 39.3282C101.229 39.3779 101.076 39.4717 100.883 39.6097L100.63 39.3423C100.808 39.2039 101.005 39.0321 101.222 38.8268C101.454 38.622 101.748 38.3511 102.105 38.0139C102.469 37.6845 102.922 37.2633 103.464 36.7502L103.717 37.0176C103.281 37.4884 102.928 37.9841 102.657 38.5047C102.393 39.033 102.277 39.5617 102.307 40.0908C102.353 40.6202 102.61 41.1329 103.079 41.6289C103.321 41.8847 103.599 42.0773 103.912 42.2067C104.24 42.3366 104.586 42.3689 104.95 42.3036C105.322 42.231 105.69 42.0224 106.054 41.6779C106.372 41.3774 106.574 41.0398 106.66 40.6649C106.761 40.2904 106.784 39.8723 106.729 39.4105C106.682 38.9414 106.594 38.4221 106.467 37.8526C106.347 37.2758 106.253 36.7186 106.185 36.181C106.117 35.6434 106.143 35.1348 106.262 34.6552C106.396 34.176 106.68 33.7312 107.114 33.3208C107.571 32.8883 108.042 32.6336 108.527 32.5566C109.027 32.48 109.505 32.5424 109.959 32.7437C110.422 32.9377 110.832 33.2245 111.192 33.6043Z" fill="#FAFAFA"/>
<path d="M121.571 49.0594C121.198 49.2226 120.839 49.3898 120.495 49.561C120.165 49.7362 119.912 49.8739 119.736 49.974C119.513 50.1006 119.307 50.2238 119.117 50.3437C118.928 50.4637 118.762 50.5705 118.619 50.6641L118.437 50.3442C119.049 49.9103 119.509 49.5323 119.817 49.2102C120.134 48.8828 120.296 48.5326 120.305 48.1595C120.314 47.7864 120.152 47.3078 119.82 46.7235L119.393 45.9724L111.479 50.4711C111.108 50.6819 110.848 50.8725 110.699 51.0429C110.556 51.2225 110.51 51.4327 110.561 51.6736C110.612 51.9145 110.739 52.235 110.942 52.635L110.664 52.7932C110.545 52.5415 110.38 52.2302 110.17 51.8593C109.968 51.4831 109.759 51.1049 109.543 50.7247C109.306 50.3074 109.077 49.9159 108.857 49.5502C108.652 49.1886 108.476 48.9017 108.331 48.6897L108.609 48.5316C108.849 48.9105 109.06 49.1835 109.241 49.3507C109.421 49.5178 109.623 49.5811 109.845 49.5406C110.073 49.5093 110.372 49.3883 110.743 49.1775L118.658 44.6788L118.231 43.9276C117.904 43.3527 117.576 42.9689 117.246 42.7763C116.92 42.593 116.536 42.5537 116.093 42.6585C115.659 42.7581 115.098 42.9599 114.412 43.264L114.231 42.944C114.39 42.8782 114.566 42.79 114.761 42.6793C114.961 42.5779 115.172 42.4639 115.395 42.3374C115.571 42.2373 115.816 42.0857 116.13 41.8827C116.459 41.6836 116.789 41.4654 117.12 41.228C117.332 41.6228 117.563 42.05 117.812 42.5097C118.066 42.9786 118.325 43.4449 118.588 43.9086C118.852 44.3723 119.092 44.7942 119.308 45.1744C119.524 45.5546 119.761 45.9719 120.02 46.4263C120.283 46.89 120.551 47.351 120.824 47.8094C121.097 48.2678 121.346 48.6845 121.571 49.0594Z" fill="#FAFAFA"/>
<path d="M123.47 54.1704C123.517 54.3896 123.582 54.6758 123.665 55.0291C123.748 55.3823 123.834 55.7291 123.925 56.0693C124.053 56.5538 124.182 57.0164 124.31 57.4569C124.438 57.8975 124.527 58.2105 124.576 58.3961C124.798 59.2312 124.862 59.9534 124.77 60.5627C124.681 61.1824 124.466 61.681 124.125 62.0586C123.797 62.4437 123.38 62.7034 122.875 62.8375C122.566 62.9197 122.219 62.9454 121.836 62.9148C121.453 62.8842 121.065 62.7553 120.674 62.5282C120.285 62.3113 119.918 61.9674 119.572 61.4964C119.236 61.0227 118.962 60.3837 118.748 59.5796L118.354 58.0951L118.663 58.0129L119.017 59.3428C119.211 60.0748 119.472 60.6014 119.8 60.9226C120.141 61.2513 120.521 61.4321 120.938 61.4648C121.368 61.5051 121.82 61.4623 122.294 61.3363C123.109 61.12 123.685 60.7571 124.025 60.2476C124.377 59.7457 124.428 59.0257 124.179 58.0875C124.053 57.6133 123.884 57.3273 123.67 57.2295C123.456 57.1317 123.082 57.154 122.546 57.2964L114.875 59.3335C114.504 59.4321 114.234 59.5369 114.065 59.648C113.896 59.7592 113.804 59.9106 113.788 60.1023C113.776 60.3043 113.806 60.5833 113.878 60.9393L113.569 61.0214C113.527 60.7788 113.457 60.4771 113.362 60.1163C113.279 59.763 113.19 59.406 113.094 59.0452C112.987 58.6431 112.882 58.2682 112.778 57.9204C112.685 57.5699 112.6 57.2891 112.522 57.0781L112.831 56.996C112.945 57.341 113.056 57.5929 113.164 57.7518C113.275 57.9209 113.432 58.0118 113.634 58.0243C113.836 58.0369 114.122 57.9939 114.493 57.8953L122.164 55.8583C122.545 55.757 122.815 55.6521 122.974 55.5437C123.143 55.4326 123.234 55.276 123.247 55.074C123.272 54.8796 123.244 54.6057 123.161 54.2525L123.47 54.1704ZM118.633 58.0871C118.761 58.6493 118.851 59.0943 118.905 59.4221C118.969 59.7471 119.017 60.0103 119.049 60.2117C119.083 60.4234 119.109 60.6261 119.127 60.8199C119.197 61.5407 119.118 62.0917 118.888 62.4728C118.671 62.8615 118.262 63.2128 117.661 63.5269L116.187 64.3324C115.76 64.556 115.458 64.7467 115.279 64.9046C115.113 65.07 115.066 65.2647 115.136 65.4888C115.193 65.6613 115.288 65.7906 115.421 65.8766C115.557 65.9729 115.731 66.0648 115.941 66.1523L115.833 66.4295C115.456 66.2978 115.148 66.1367 114.91 65.9462C114.685 65.7632 114.516 65.4603 114.404 65.0377C114.303 64.6562 114.327 64.2911 114.477 63.9422C114.627 63.5933 115.013 63.259 115.634 62.9395L117.09 62.1886C117.509 61.978 117.862 61.7685 118.149 61.5599C118.448 61.3589 118.662 61.1255 118.79 60.8597C118.921 60.6042 118.932 60.2703 118.822 59.858L118.379 58.1878L118.633 58.0871Z" fill="#FAFAFA"/>
<path d="M126.345 78.7845L126.025 78.7826C126.017 78.4198 125.965 78.1422 125.87 77.9496C125.775 77.7677 125.621 77.6441 125.408 77.5789C125.195 77.5136 124.891 77.4798 124.497 77.4774L119.681 77.4487C118.934 77.4442 118.284 77.3923 117.73 77.293C117.176 77.1937 116.697 77.0202 116.293 76.7725C115.846 76.5031 115.486 76.1116 115.212 75.598C114.948 75.0844 114.818 74.4969 114.822 73.8356C114.825 73.3236 114.892 72.8334 115.023 72.3648C115.143 71.9068 115.37 71.5028 115.702 71.1528C116.003 70.8453 116.319 70.6018 116.651 70.4225C116.982 70.2538 117.388 70.1389 117.869 70.0777C118.349 70.0166 118.952 69.9882 119.677 69.9925L124.701 70.0225C125.096 70.0249 125.384 69.9946 125.566 69.9317C125.758 69.8688 125.887 69.7416 125.952 69.55C126.028 69.3691 126.072 69.0973 126.085 68.7347L126.405 68.7366C126.393 68.9606 126.381 69.2538 126.368 69.6164C126.355 69.979 126.347 70.3683 126.345 70.7843C126.343 71.1577 126.346 71.5257 126.354 71.8884C126.363 72.2618 126.371 72.5712 126.381 72.8166L126.061 72.8147C126.052 72.4519 126.011 72.1744 125.938 71.9819C125.875 71.8002 125.747 71.6768 125.556 71.6116C125.375 71.5466 125.087 71.5128 124.692 71.5105L119.397 71.4789C118.853 71.4756 118.335 71.4992 117.844 71.5496C117.364 71.6001 116.936 71.7042 116.562 71.862C116.198 72.0305 115.909 72.2847 115.694 72.6248C115.489 72.9649 115.385 73.4176 115.381 73.983C115.377 74.7936 115.549 75.4187 115.898 75.8581C116.258 76.3082 116.752 76.6205 117.381 76.7949C118.009 76.98 118.718 77.0749 119.507 77.0796L124.499 77.1094C124.894 77.1118 125.198 77.0656 125.412 76.9709C125.626 76.8868 125.781 76.7384 125.879 76.5256C125.976 76.3129 126.031 76.0252 126.044 75.6626L126.364 75.6645C126.352 75.8565 126.34 76.1071 126.327 76.4163C126.315 76.7363 126.308 77.0295 126.306 77.2962C126.304 77.5735 126.308 77.8456 126.317 78.1123C126.326 78.3897 126.335 78.6137 126.345 78.7845Z" fill="#FAFAFA"/>
<path d="M124.128 89.2168C123.933 89.8934 123.672 90.4175 123.343 90.7892C123.021 91.1741 122.679 91.4973 122.315 91.759C122.102 91.9199 122.038 92.0678 122.121 92.2027C122.212 92.3508 122.471 92.5087 122.901 92.6764L122.799 93.0301C122.425 92.9006 121.969 92.7526 121.428 92.5863C120.888 92.4199 120.172 92.2085 119.28 91.9522L119.381 91.5985C119.843 91.6534 120.21 91.687 120.484 91.6991C120.769 91.7142 121.016 91.7021 121.227 91.6629C121.435 91.6339 121.652 91.5742 121.878 91.4837C122.39 91.2866 122.807 90.9737 123.13 90.5449C123.463 90.1191 123.707 89.6396 123.86 89.1065C124.004 88.6042 124.007 88.1111 123.869 87.6274C123.737 87.1569 123.479 86.7052 123.093 86.2724C122.704 85.8498 122.199 85.4608 121.58 85.1053C120.958 84.76 120.232 84.4681 119.401 84.2294C118.54 83.982 117.751 83.8496 117.035 83.8324C116.329 83.8182 115.706 83.9 115.166 84.0779C114.624 84.2661 114.175 84.5365 113.818 84.889C113.469 85.2548 113.223 85.6837 113.082 86.1758C112.949 86.6371 112.903 87.1455 112.943 87.7008C112.984 88.2562 113.167 88.7363 113.495 89.1412C113.728 89.4522 114.006 89.6988 114.331 89.881C114.653 90.0734 115.117 90.2953 115.721 90.5468L115.62 90.9005C114.687 90.6324 113.932 90.421 113.355 90.2663C112.788 90.1145 112.307 89.9929 111.911 89.9014L112.013 89.5477C112.466 89.6334 112.763 89.6412 112.905 89.5711C113.045 89.5112 113.075 89.3479 112.996 89.0811C112.839 88.6252 112.719 88.1525 112.638 87.663C112.564 87.1867 112.623 86.6154 112.814 85.949C113.094 84.9751 113.56 84.1824 114.213 83.571C114.863 82.9698 115.663 82.5835 116.611 82.412C117.556 82.2508 118.613 82.3381 119.782 82.674C120.93 83.0039 121.874 83.5028 122.615 84.1706C123.355 84.8384 123.861 85.6054 124.134 86.4718C124.404 87.3484 124.402 88.2634 124.128 89.2168Z" fill="#FAFAFA"/>
<path d="M115.382 106.587C115.057 106.341 114.736 106.108 114.419 105.891C114.105 105.688 113.862 105.534 113.689 105.429C113.47 105.296 113.262 105.176 113.065 105.069C112.868 104.962 112.694 104.869 112.542 104.79L112.733 104.475C113.41 104.798 113.964 105.016 114.395 105.128C114.836 105.246 115.221 105.217 115.551 105.043C115.881 104.869 116.221 104.495 116.569 103.921L117.017 103.182L109.234 98.4592C108.869 98.2378 108.576 98.1038 108.355 98.0569C108.129 98.0192 107.923 98.0813 107.737 98.2432C107.551 98.4051 107.333 98.672 107.083 99.0439L106.809 98.8779C106.971 98.6519 107.163 98.3565 107.384 97.9917C107.615 97.6325 107.843 97.2659 108.07 96.8921C108.319 96.4817 108.55 96.0914 108.762 95.7211C108.978 95.3654 109.143 95.0726 109.258 94.8427L109.531 95.0087C109.317 95.4028 109.181 95.7195 109.123 95.9588C109.065 96.1982 109.108 96.4051 109.252 96.5796C109.39 96.7632 109.641 96.9657 110.006 97.187L117.789 101.91L118.238 101.171C118.581 100.606 118.756 100.132 118.763 99.7495C118.765 99.3764 118.612 99.0216 118.305 98.6853C118.006 98.3546 117.557 97.9636 116.958 97.5124L117.149 97.1978C117.284 97.3046 117.447 97.4161 117.638 97.5323C117.824 97.6576 118.027 97.7867 118.245 97.9195C118.419 98.0246 118.67 98.1649 119.001 98.3403C119.335 98.5304 119.686 98.7123 120.054 98.8861C119.813 99.2636 119.552 99.673 119.272 100.114C118.986 100.565 118.705 101.018 118.428 101.474C118.151 101.93 117.9 102.345 117.673 102.719C117.446 103.093 117.197 103.503 116.926 103.95C116.649 104.406 116.377 104.864 116.109 105.326C115.842 105.787 115.599 106.208 115.382 106.587Z" fill="#FAFAFA"/>
<path d="M108.164 114.585C107.43 115.283 106.63 115.727 105.765 115.916C104.892 116.113 104.008 116.041 103.111 115.701C102.214 115.376 101.343 114.769 100.498 113.88C99.6749 113.014 99.1134 112.106 98.8133 111.155C98.5054 110.211 98.4572 109.294 98.6686 108.401C98.88 107.509 99.3453 106.721 100.064 106.037C100.799 105.339 101.603 104.892 102.475 104.696C103.34 104.507 104.225 104.578 105.13 104.911C106.026 105.25 106.893 105.861 107.731 106.743C108.554 107.609 109.115 108.517 109.416 109.468C109.716 110.419 109.764 111.337 109.56 112.222C109.349 113.114 108.883 113.902 108.164 114.585ZM108.012 114.333C108.515 113.855 108.787 113.266 108.827 112.565C108.868 111.865 108.702 111.11 108.33 110.3C107.951 109.498 107.379 108.695 106.615 107.891C105.836 107.071 105.045 106.463 104.24 106.065C103.435 105.682 102.681 105.508 101.978 105.543C101.275 105.593 100.688 105.842 100.216 106.29C99.7138 106.768 99.4422 107.357 99.4017 108.058C99.3612 108.758 99.5306 109.51 99.91 110.311C100.289 111.128 100.857 111.935 101.614 112.732C102.4 113.559 103.195 114.164 104.001 114.547C104.798 114.937 105.544 115.111 106.239 115.068C106.942 115.033 107.533 114.788 108.012 114.333Z" fill="#FAFAFA"/>
<path d="M99.5376 121.011C99.3346 121.106 99.0702 121.234 98.7446 121.394C98.4189 121.554 98.1005 121.716 97.7892 121.88C97.3459 122.115 96.924 122.344 96.5234 122.567C96.1229 122.791 95.8377 122.948 95.6679 123.037C94.904 123.441 94.2147 123.666 93.6003 123.713C92.9764 123.765 92.4422 123.668 91.9977 123.42C91.5487 123.187 91.2022 122.839 90.958 122.377C90.8086 122.094 90.7057 121.762 90.6495 121.382C90.5933 121.001 90.6319 120.595 90.7654 120.162C90.8894 119.735 91.1422 119.3 91.5235 118.857C91.9099 118.424 92.4709 118.013 93.2065 117.624L94.5647 116.907L94.7142 117.19L93.4975 117.832C92.8278 118.186 92.3733 118.559 92.134 118.951C91.8902 119.357 91.7991 119.767 91.8609 120.181C91.9181 120.609 92.0614 121.04 92.2906 121.474C92.6842 122.219 93.1673 122.699 93.7399 122.916C94.3081 123.146 95.0213 123.035 95.8796 122.582C96.3135 122.352 96.5541 122.123 96.6014 121.893C96.6488 121.663 96.5429 121.302 96.2838 120.812L92.577 113.795C92.3977 113.455 92.2348 113.216 92.0886 113.076C91.9423 112.936 91.7741 112.88 91.5838 112.908C91.3842 112.941 91.119 113.033 90.7884 113.183L90.6389 112.9C90.8658 112.805 91.1443 112.67 91.4744 112.495C91.8001 112.335 92.1279 112.168 92.458 111.994C92.8259 111.8 93.1676 111.613 93.4833 111.434C93.804 111.265 94.0584 111.118 94.2465 110.995L94.396 111.278C94.0853 111.466 93.8647 111.631 93.7342 111.772C93.5944 111.918 93.541 112.091 93.5741 112.291C93.6071 112.491 93.7134 112.76 93.8927 113.1L97.5995 120.117C97.7839 120.466 97.9467 120.706 98.088 120.836C98.2342 120.976 98.4072 121.029 98.6069 120.996C98.8021 120.977 99.0625 120.888 99.3882 120.728L99.5376 121.011ZM94.6352 117.177C94.1159 117.427 93.7026 117.615 93.3953 117.742C93.0929 117.877 92.8472 117.983 92.658 118.059C92.4594 118.139 92.2677 118.211 92.083 118.272C91.3963 118.502 90.8415 118.548 90.4185 118.409C89.991 118.285 89.5568 117.966 89.1159 117.451L87.9999 116.195C87.6864 115.829 87.4327 115.577 87.2387 115.439C87.0403 115.314 86.8398 115.311 86.6373 115.431C86.482 115.525 86.3773 115.646 86.3234 115.795C86.26 115.95 86.2094 116.139 86.1715 116.364L85.8771 116.321C85.9207 115.924 86.0086 115.588 86.1408 115.313C86.2686 115.052 86.5259 114.82 86.9125 114.616C87.2615 114.431 87.6228 114.373 87.9965 114.441C88.3702 114.509 88.7825 114.81 89.2334 115.344L90.292 116.594C90.5911 116.955 90.8745 117.252 91.1421 117.484C91.4053 117.731 91.6808 117.887 91.9685 117.952C92.2468 118.023 92.5746 117.958 92.9519 117.759L94.4798 116.952L94.6352 117.177Z" fill="#FAFAFA"/>
</svg>
