<svg width="42" height="53" viewBox="0 0 42 53" fill="none" xmlns="http://www.w3.org/2000/svg">
<path d="M21 0.0222521C18.2104 -0.109912 15.4243 0.347751 12.8198 1.36594C10.2154 2.38414 7.85019 3.94042 5.87549 5.93519C3.90079 7.92995 2.36016 10.3192 1.35221 12.9501C0.344253 15.581 -0.108806 18.3954 0.0220283 21.2134C0.0220283 27.8885 5.26652 34.4578 7.88877 37.1067C10.511 39.7556 21 53 21 53C21 53 31.489 39.7556 34.1112 37.1067C36.7335 34.4578 41.978 27.8885 41.978 21.2134C42.1088 18.3954 41.6557 15.581 40.6478 12.9501C39.6398 10.3192 38.0992 7.92995 36.1245 5.93519C34.1498 3.94042 31.7846 2.38414 29.1801 1.36594C26.5757 0.347751 23.7896 -0.109912 21 0.0222521ZM21 29.8222C19.3144 29.8222 17.6667 29.3173 16.2653 28.3714C14.8638 27.4254 13.7715 26.0809 13.1264 24.5078C12.4814 22.9348 12.3126 21.2038 12.6415 19.5338C12.9703 17.8639 13.782 16.3299 14.9738 15.126C16.1657 13.922 17.6842 13.1021 19.3374 12.7699C20.9905 12.4377 22.7041 12.6082 24.2613 13.2598C25.8186 13.9114 27.1496 15.0148 28.086 16.4305C29.0225 17.8462 29.5223 19.5107 29.5223 21.2134C29.5223 22.3439 29.3019 23.4634 28.8736 24.5078C28.4453 25.5523 27.8175 26.5013 27.0262 27.3008C26.2348 28.1002 25.2953 28.7343 24.2613 29.1669C23.2274 29.5996 22.1192 29.8222 21 29.8222Z" fill="#B6666F"/>
</svg>
