<svg width="332" height="418" viewBox="0 0 332 418" fill="none" xmlns="http://www.w3.org/2000/svg">
<path d="M22.3629 359.752L22.3332 359.258L23.3634 358.933C24.4927 358.578 25.3985 358.125 26.0807 357.574C26.7581 357.009 27.2445 356.369 27.5398 355.656C27.8351 354.942 27.9742 354.185 27.9572 353.385C27.9354 352.57 27.7899 351.735 27.5208 350.881C27.2373 349.98 26.7993 349.389 26.207 349.106C25.625 348.802 24.8152 348.814 23.7774 349.141C23.3348 349.28 22.9954 349.454 22.7591 349.663C22.5333 349.851 22.3821 350.117 22.3056 350.46C22.2395 350.783 22.2194 351.225 22.2455 351.787L22.799 364.093C22.8259 364.605 22.8773 365.008 22.9534 365.302C23.0246 365.582 23.1887 365.757 23.4456 365.827C23.713 365.877 24.1543 365.813 24.7695 365.636L24.8221 366.123C24.4615 366.203 24.0294 366.322 23.5258 366.481C23.0173 366.624 22.496 366.78 21.9619 366.948C21.3667 367.136 20.8044 367.321 20.2751 367.505C19.7409 367.673 19.3184 367.823 19.0076 367.954L18.955 367.467C19.4642 367.273 19.8494 367.085 20.1106 366.902C20.3717 366.719 20.543 366.464 20.6243 366.136C20.7057 365.809 20.7286 365.349 20.6929 364.756L20.1394 352.45C20.123 351.919 20.0639 351.518 19.9621 351.248C19.8708 350.958 19.6915 350.788 19.4241 350.738C19.152 350.673 18.7335 350.729 18.1689 350.907L18.1392 350.413C18.4492 350.332 18.8737 350.215 19.4126 350.062C19.9516 349.909 20.4729 349.754 20.9765 349.595C21.5259 349.422 22.0729 349.241 22.6175 349.053C23.1774 348.86 23.7396 348.675 24.3043 348.497C25.8457 348.012 27.0912 347.972 28.0408 348.377C28.9857 348.767 29.6215 349.481 29.9482 350.519C30.3231 351.709 30.2932 352.893 29.8586 354.07C29.4344 355.227 28.6603 356.284 27.536 357.242C26.407 358.185 24.9879 358.925 23.2786 359.463L22.3629 359.752Z" fill="#D1A080"/>
<path d="M44.944 350.337C44.9746 352.038 44.9394 353.497 44.8385 354.717C44.7376 355.937 44.5599 356.954 44.3053 357.77C44.0658 358.58 43.7458 359.224 43.3455 359.702C42.9601 360.174 42.4982 360.512 41.9598 360.717C41.3019 360.967 40.7664 361 40.3535 360.814C39.9407 360.629 39.6375 360.282 39.4441 359.774C39.2506 359.265 39.1363 358.65 39.101 357.927L38.7848 350.549C38.7637 350.044 38.6851 349.68 38.5492 349.458C38.4133 349.236 38.1959 349.181 37.8968 349.295C37.6126 349.403 37.3882 349.668 37.2236 350.09C37.0739 350.507 37.0127 351.224 37.0401 352.24L37.0642 353.181L36.638 353.343L36.5758 351.492C36.5612 350.779 36.6408 350.201 36.8147 349.758C37.0036 349.31 37.2397 348.963 37.5232 348.718C37.816 348.453 38.1119 348.263 38.411 348.149C39.0689 347.899 39.5624 347.891 39.8912 348.125C40.2293 348.339 40.4595 348.697 40.5817 349.198C40.7189 349.694 40.7974 350.237 40.8171 350.829L41.1269 358.055C41.1861 359.471 41.5895 360.036 42.3373 359.752C42.6962 359.615 43.0177 359.313 43.302 358.845C43.5806 358.363 43.8155 357.743 44.0066 356.985C44.1921 356.213 44.3274 355.331 44.4125 354.34C44.5069 353.328 44.5448 352.235 44.5261 351.061C44.5166 349.866 44.4413 348.611 44.3002 347.295L44.944 350.337ZM47.1041 356.217C47.1531 356.661 47.2287 357.017 47.3311 357.287C47.4428 357.535 47.6482 357.603 47.9473 357.489C48.2763 357.364 48.5099 357.078 48.6482 356.631C48.7958 356.164 48.8552 355.466 48.8264 354.535L48.8023 353.594L49.2285 353.432L49.2907 355.283C49.3203 355.991 49.2407 356.569 49.0518 357.017C48.8779 357.46 48.6417 357.807 48.3433 358.057C48.0655 358.317 47.7696 358.506 47.4555 358.626C47.2163 358.717 46.972 358.75 46.7228 358.725C46.4737 358.7 46.2597 358.61 46.0811 358.456C45.8647 358.247 45.6976 357.942 45.5795 357.542C45.4765 357.136 45.382 356.573 45.2962 355.853L44.1831 346.313C44.5513 346.156 44.8988 345.989 45.2257 345.813C45.5675 345.632 45.8606 345.435 46.1049 345.222L47.1041 356.217Z" fill="#D1A080"/>
<path d="M59.5197 353.325L57.6098 354.169L56.083 343.588C56.0095 343.025 55.8982 342.655 55.7491 342.476C55.6147 342.29 55.4231 342.252 55.1743 342.362C54.8523 342.505 54.6339 342.802 54.5192 343.255C54.4045 343.708 54.3819 344.409 54.4513 345.358L54.5248 346.296L54.1077 346.481L53.9485 344.636C53.8964 343.924 53.9456 343.343 54.096 342.891C54.2611 342.434 54.4788 342.075 54.749 341.816C55.0274 341.535 55.313 341.33 55.6057 341.201C56.0447 341.007 56.3941 340.966 56.6538 341.079C56.9281 341.185 57.1405 341.389 57.2909 341.69C57.456 341.984 57.5827 342.33 57.6712 342.728C57.7679 343.106 57.8467 343.482 57.9076 343.857L59.5197 353.325ZM60.2826 339.79C59.946 339.939 59.6659 340.255 59.4422 340.739C59.2268 341.202 59.0614 341.817 58.946 342.585C58.8388 343.332 58.7792 344.207 58.7673 345.209C58.7635 346.19 58.8018 347.267 58.8821 348.438C58.977 349.603 59.1149 350.845 59.2956 352.165L58.6028 349.113C58.4521 347.465 58.365 346.06 58.3415 344.899C58.3327 343.731 58.4006 342.756 58.5452 341.975C58.6834 341.179 58.9065 340.556 59.2146 340.105C59.5308 339.633 59.9303 339.29 60.4133 339.077C60.8231 338.896 61.1895 338.874 61.5124 339.011C61.8501 339.142 62.0997 339.39 62.2614 339.756C62.3907 340.048 62.4371 340.352 62.4007 340.665C62.3578 340.964 62.2516 341.238 62.0821 341.488C61.9208 341.717 61.7011 341.892 61.4231 342.015C61.1743 342.125 60.933 342.153 60.6991 342.099C60.4735 342.024 60.3057 341.862 60.1958 341.613C60.0923 341.379 60.0457 341.155 60.0559 340.94C60.0596 340.711 60.1056 340.498 60.1937 340.302C60.2819 340.106 60.4049 339.929 60.5629 339.772C60.5207 339.755 60.4744 339.749 60.424 339.754C60.3883 339.752 60.3411 339.765 60.2826 339.79Z" fill="#D1A080"/>
<path d="M72.7047 346.89C72.8478 346.89 72.9945 346.88 73.1448 346.859C73.3023 346.816 73.517 346.727 73.7891 346.591C74.4191 346.277 74.8418 345.834 75.057 345.261C75.2795 344.668 75.2123 344.013 74.8553 343.297C74.6339 342.853 74.3303 342.459 73.9442 342.115C73.5654 341.75 73.0256 341.385 72.3247 341.019C71.7669 340.725 71.2199 340.417 70.6836 340.094C70.1401 339.757 69.7042 339.259 69.3758 338.601C69.0688 337.985 68.955 337.38 69.0343 336.786C69.1065 336.178 69.329 335.62 69.7016 335.113C70.0886 334.598 70.5827 334.191 71.1841 333.891C71.5994 333.684 72.0324 333.53 72.4833 333.431C72.9342 333.331 73.3564 333.353 73.7498 333.497C74.1503 333.619 74.4791 333.937 74.7362 334.453C74.8004 334.582 74.8432 334.757 74.8644 334.979C74.8928 335.179 74.8675 335.38 74.7886 335.58C74.7097 335.78 74.5485 335.941 74.3051 336.062C74.076 336.177 73.8362 336.198 73.5859 336.126C73.3284 336.04 73.1318 335.861 72.9962 335.589C72.8676 335.331 72.7964 335.063 72.7824 334.783C72.7755 334.483 72.8081 334.172 72.88 333.85C72.5223 333.814 72.1215 333.906 71.6776 334.128C71.1478 334.392 70.7932 334.792 70.6137 335.328C70.4342 335.865 70.5051 336.455 70.8264 337.1C70.9906 337.429 71.1871 337.698 71.4158 337.905C71.6375 338.099 71.9092 338.285 72.2309 338.464C72.5671 338.636 72.9747 338.862 73.4538 339.142C74.0831 339.507 74.6444 339.88 75.1377 340.26C75.631 340.64 76.0168 341.109 76.2953 341.667C76.6237 342.326 76.7446 342.999 76.658 343.685C76.5786 344.351 76.331 344.966 75.9154 345.531C75.4998 346.096 74.9555 346.546 74.2825 346.881C73.7956 347.124 73.2946 347.285 72.7793 347.363C72.264 347.441 71.7882 347.401 71.3519 347.243C70.9228 347.064 70.5797 346.716 70.3227 346.201C70.2227 346 70.1837 345.761 70.2054 345.482C70.2057 345.195 70.3634 344.974 70.6784 344.817C71.0221 344.645 71.3369 344.667 71.6229 344.882C71.9017 345.083 72.1268 345.355 72.2982 345.699C72.4124 345.928 72.4944 346.146 72.5443 346.354C72.6013 346.54 72.6548 346.719 72.7047 346.89Z" fill="#D1A080"/>
<path d="M80.9949 324.153C80.8638 323.75 80.8719 323.334 81.019 322.906C81.1802 322.47 81.4359 322.155 81.786 321.961C82.1502 321.76 82.5038 321.739 82.8468 321.896C83.2039 322.047 83.448 322.323 83.579 322.726C83.7101 323.129 83.695 323.548 83.5339 323.985C83.3867 324.413 83.131 324.728 82.7669 324.929C82.4167 325.122 82.0631 325.144 81.706 324.994C81.363 324.836 81.1259 324.556 80.9949 324.153ZM83.4413 330.122C83.2559 329.091 82.9181 328.711 82.4278 328.982C82.1057 329.16 81.9153 329.493 81.8565 329.983C81.7978 330.472 81.8294 331.158 81.9515 332.041L82.0866 332.981L81.6875 333.202L81.3868 331.366C81.272 330.662 81.2766 330.075 81.4006 329.604C81.5246 329.134 81.7167 328.753 81.9769 328.463C82.2435 328.152 82.5168 327.918 82.7969 327.764C83.2451 327.516 83.6246 327.425 83.9352 327.492C84.2458 327.558 84.5034 327.726 84.7078 327.997C84.9123 328.268 85.0762 328.598 85.1995 328.987C85.3151 329.362 85.4058 329.741 85.4717 330.125L86.7391 337.732C86.8233 338.216 86.9522 338.565 87.1257 338.78C87.3055 338.973 87.5284 338.996 87.7945 338.849C88.0747 338.694 88.2557 338.393 88.3376 337.946C88.4196 337.499 88.3903 336.784 88.2499 335.801L88.1147 334.861L88.5139 334.641L88.8146 336.476C88.9202 337.131 88.9218 337.697 88.8196 338.173C88.7096 338.636 88.5284 339.02 88.2759 339.324C88.0311 339.642 87.7476 339.889 87.4255 340.067C86.8232 340.4 86.3397 340.484 85.9749 340.32C85.6101 340.156 85.3319 339.834 85.1405 339.355C84.949 338.876 84.8051 338.334 84.7087 337.729L83.4413 330.122Z" fill="#D1A080"/>
<path d="M99.0986 333.017L97.3213 334.113L94.3688 323.837C94.3225 323.64 94.2542 323.438 94.1638 323.231C94.0787 323.001 93.967 322.835 93.8285 322.732C93.6817 322.616 93.4993 322.625 93.2814 322.76C92.9818 322.944 92.8086 323.258 92.7618 323.7C92.7066 324.129 92.7838 324.833 92.9932 325.813L93.1937 326.733L92.8056 326.972L92.3968 325.166C92.1673 324.123 92.1865 323.331 92.4544 322.79C92.7358 322.241 93.0945 321.832 93.5303 321.563C93.9389 321.311 94.2863 321.219 94.5725 321.287C94.8723 321.346 95.1172 321.515 95.3072 321.792C95.5024 322.048 95.6709 322.367 95.8128 322.749C95.9598 323.11 96.0933 323.479 96.2131 323.856L99.0986 333.017ZM97.4182 328.188C97.1391 326.669 96.9681 325.355 96.9053 324.247C96.8424 323.139 96.8736 322.199 96.9986 321.426C97.1153 320.64 97.3312 319.999 97.6463 319.504C97.9666 318.987 98.3719 318.577 98.8621 318.275C99.5022 317.88 100.035 317.768 100.459 317.939C100.889 318.087 101.237 318.408 101.504 318.902C101.762 319.382 101.965 319.924 102.113 320.528L103.809 327.715C103.913 328.159 104.048 328.499 104.213 328.736C104.383 328.95 104.617 328.965 104.917 328.781C105.176 328.621 105.34 328.323 105.408 327.885C105.491 327.44 105.423 326.72 105.205 325.727L105.005 324.807L105.393 324.568L105.802 326.374C105.964 327.064 105.994 327.646 105.893 328.122C105.805 328.59 105.638 328.975 105.392 329.277C105.168 329.584 104.913 329.826 104.627 330.002C104.3 330.204 103.994 330.317 103.709 330.343C103.438 330.36 103.193 330.313 102.975 330.204C102.674 330.051 102.429 329.76 102.24 329.332C102.051 328.903 101.891 328.4 101.761 327.823L100.099 320.783C100.049 320.551 99.9651 320.292 99.8464 320.009C99.7329 319.703 99.5791 319.468 99.3851 319.306C99.1826 319.13 98.9179 319.143 98.5911 319.345C98.2642 319.546 98.0051 319.903 97.8138 320.416C97.6224 320.929 97.493 321.572 97.4256 322.347C97.3497 323.108 97.3479 323.974 97.42 324.945C97.4838 325.901 97.6115 326.932 97.8033 328.035C98.0003 329.117 98.2623 330.243 98.5893 331.413L97.4182 328.188Z" fill="#D1A080"/>
<path d="M114.04 316.943L114.547 316.621C114.255 317.212 113.983 317.761 113.729 318.266C113.48 318.75 113.294 319.17 113.172 319.528C113.049 319.885 113.047 320.149 113.165 320.32C113.256 320.451 113.435 320.513 113.701 320.504C113.958 320.482 114.333 320.378 114.827 320.192L116.528 319.57C117.022 319.384 117.483 319.25 117.912 319.167C118.345 319.062 118.733 319.047 119.076 319.121C119.419 319.195 119.709 319.403 119.946 319.745C120.173 320.074 120.316 320.52 120.375 321.082C120.455 321.649 120.398 322.283 120.201 322.983C120.017 323.674 119.65 324.395 119.099 325.145C118.548 325.896 117.76 326.626 116.733 327.336C116.049 327.809 115.431 328.139 114.88 328.326C114.324 328.535 113.857 328.605 113.478 328.536C113.087 328.477 112.791 328.302 112.591 328.012C112.445 327.802 112.35 327.537 112.304 327.218C112.268 326.913 112.291 326.566 112.373 326.179C112.451 325.813 112.6 325.409 112.818 324.966C113.033 324.545 113.332 324.105 113.715 323.646L114.058 323.846C113.744 324.433 113.604 324.948 113.638 325.391C113.672 325.835 113.798 326.214 114.017 326.53C114.381 327.056 114.824 327.304 115.348 327.273C115.88 327.255 116.416 327.059 116.955 326.686C117.39 326.386 117.787 326.004 118.147 325.541C118.517 325.091 118.817 324.611 119.048 324.101C119.288 323.604 119.422 323.122 119.45 322.656C119.477 322.19 119.377 321.792 119.15 321.463C119.013 321.265 118.856 321.179 118.679 321.205C118.515 321.221 118.266 321.296 117.931 321.43L114.378 322.749C114.008 322.889 113.66 322.934 113.335 322.887C113.002 322.826 112.721 322.631 112.493 322.302C112.311 322.039 112.217 321.705 112.21 321.302C112.203 320.898 112.342 320.354 112.628 319.67C112.905 318.973 113.375 318.064 114.04 316.943ZM111.156 310.621C110.735 310.912 110.466 311.283 110.349 311.733C110.224 312.17 110.194 312.648 110.26 313.166C110.331 313.662 110.455 314.15 110.632 314.631C110.822 315.103 111.015 315.523 111.212 315.893C111.4 316.249 111.549 316.506 111.658 316.664C111.949 317.085 112.251 317.324 112.563 317.381C112.887 317.429 113.208 317.343 113.523 317.125C114.024 316.779 114.32 316.35 114.414 315.838C114.52 315.317 114.504 314.774 114.366 314.208C114.227 313.642 114.03 313.117 113.773 312.634C113.529 312.141 113.303 311.743 113.094 311.44C112.784 310.993 112.479 310.678 112.179 310.497C111.878 310.316 111.537 310.357 111.156 310.621ZM110.989 310.211C111.765 309.674 112.513 309.42 113.233 309.447C113.956 309.453 114.587 309.844 115.124 310.62C115.56 311.252 115.815 312 115.887 312.864C115.96 313.728 115.815 314.587 115.452 315.441C115.08 316.282 114.454 317.007 113.572 317.617C112.848 318.117 112.118 318.369 111.381 318.373C110.648 318.355 110.027 317.977 109.518 317.24C109.272 316.885 109.062 316.427 108.888 315.866C108.719 315.283 108.653 314.667 108.691 314.018C108.719 313.357 108.908 312.701 109.256 312.052C109.609 311.38 110.186 310.766 110.989 310.211ZM113.1 310.268L112.649 310.376C112.524 309.801 112.567 309.188 112.778 308.536C112.989 307.885 113.338 307.391 113.824 307.054C114.167 306.817 114.511 306.725 114.858 306.777C115.196 306.815 115.506 307.038 115.788 307.446C116.043 307.815 116.138 308.148 116.072 308.447C116.006 308.745 115.868 308.967 115.657 309.113C115.446 309.259 115.197 309.334 114.909 309.339C114.624 309.321 114.358 309.175 114.109 308.9C113.86 308.624 113.677 308.177 113.56 307.558L113.858 307.439C113.451 308.032 113.21 308.529 113.137 308.93C113.055 309.317 113.043 309.763 113.1 310.268Z" fill="#D1A080"/>
<path d="M136.269 300.181L136.747 299.818C136.506 300.431 136.281 301 136.071 301.526C135.863 302.028 135.713 302.463 135.621 302.829C135.528 303.195 135.548 303.459 135.681 303.619C135.782 303.743 135.966 303.789 136.23 303.758C136.484 303.714 136.85 303.579 137.326 303.352L138.968 302.59C139.445 302.363 139.894 302.191 140.314 302.072C140.737 301.931 141.123 301.883 141.471 301.928C141.819 301.973 142.125 302.156 142.389 302.477C142.644 302.786 142.823 303.218 142.929 303.774C143.057 304.332 143.052 304.968 142.915 305.682C142.79 306.386 142.485 307.135 141.999 307.93C141.513 308.724 140.788 309.518 139.825 310.311C139.183 310.84 138.595 311.221 138.061 311.453C137.525 311.708 137.065 311.818 136.682 311.781C136.287 311.754 135.977 311.604 135.754 311.333C135.591 311.135 135.474 310.879 135.402 310.566C135.34 310.264 135.334 309.917 135.383 309.524C135.43 309.153 135.544 308.738 135.725 308.278C135.904 307.841 136.164 307.377 136.507 306.887L136.866 307.058C136.602 307.669 136.506 308.194 136.577 308.633C136.648 309.072 136.806 309.44 137.05 309.736C137.457 310.23 137.92 310.44 138.439 310.365C138.968 310.302 139.485 310.062 139.992 309.645C140.399 309.309 140.763 308.896 141.083 308.404C141.414 307.924 141.673 307.421 141.86 306.893C142.058 306.378 142.151 305.887 142.139 305.42C142.127 304.953 141.994 304.565 141.74 304.256C141.587 304.071 141.424 303.998 141.25 304.038C141.088 304.068 140.845 304.164 140.523 304.326L137.093 305.938C136.736 306.108 136.393 306.183 136.066 306.163C135.728 306.13 135.432 305.959 135.178 305.651C134.974 305.404 134.852 305.079 134.811 304.678C134.77 304.276 134.864 303.722 135.091 303.017C135.308 302.299 135.701 301.354 136.269 300.181ZM132.865 294.123C132.469 294.449 132.233 294.841 132.154 295.299C132.066 295.745 132.076 296.224 132.186 296.734C132.298 297.223 132.462 297.699 132.679 298.163C132.908 298.617 133.136 299.02 133.363 299.372C133.581 299.711 133.75 299.955 133.872 300.103C134.198 300.498 134.518 300.711 134.834 300.741C135.161 300.762 135.473 300.65 135.77 300.405C136.239 300.019 136.499 299.567 136.549 299.049C136.611 298.52 136.55 297.98 136.364 297.428C136.179 296.876 135.938 296.37 135.642 295.909C135.357 295.438 135.098 295.061 134.864 294.777C134.519 294.357 134.188 294.069 133.874 293.914C133.559 293.758 133.223 293.828 132.865 294.123ZM132.664 293.729C133.393 293.129 134.117 292.812 134.836 292.779C135.557 292.724 136.218 293.061 136.818 293.789C137.307 294.382 137.623 295.106 137.768 295.961C137.912 296.816 137.84 297.684 137.55 298.566C137.25 299.435 136.687 300.21 135.859 300.891C135.18 301.451 134.473 301.763 133.74 301.829C133.008 301.872 132.357 301.548 131.788 300.856C131.513 300.523 131.266 300.084 131.045 299.54C130.827 298.973 130.71 298.365 130.693 297.715C130.666 297.054 130.799 296.384 131.092 295.708C131.387 295.009 131.911 294.349 132.664 293.729ZM134.773 293.609L134.333 293.754C134.16 293.191 134.151 292.577 134.306 291.91C134.462 291.243 134.768 290.721 135.225 290.345C135.546 290.08 135.881 289.959 136.232 289.982C136.572 289.992 136.899 290.188 137.215 290.571C137.499 290.917 137.622 291.241 137.581 291.544C137.54 291.847 137.421 292.08 137.224 292.243C137.026 292.406 136.784 292.501 136.497 292.531C136.212 292.537 135.934 292.414 135.663 292.16C135.392 291.907 135.172 291.476 135.003 290.869L135.29 290.726C134.934 291.351 134.737 291.866 134.697 292.271C134.648 292.665 134.673 293.11 134.773 293.609Z" fill="#D1A080"/>
<path d="M150.255 295.314L148.709 296.718L143.921 287.158C143.674 286.648 143.452 286.331 143.254 286.209C143.068 286.075 142.874 286.1 142.672 286.282C142.412 286.519 142.299 286.87 142.333 287.336C142.367 287.802 142.566 288.475 142.932 289.353L143.297 290.22L142.96 290.527L142.227 288.826C141.953 288.168 141.816 287.6 141.816 287.125C141.828 286.638 141.922 286.229 142.096 285.898C142.272 285.544 142.478 285.259 142.715 285.044C143.071 284.722 143.39 284.573 143.671 284.598C143.965 284.612 144.231 284.738 144.469 284.976C144.718 285.203 144.948 285.492 145.157 285.842C145.368 286.169 145.562 286.502 145.738 286.839L150.255 295.314ZM146.708 282.23C146.436 282.477 146.27 282.866 146.21 283.395C146.152 283.902 146.189 284.538 146.322 285.304C146.456 286.046 146.675 286.895 146.98 287.85C147.286 288.782 147.662 289.792 148.108 290.878C148.566 291.954 149.088 293.089 149.676 294.284L148.056 291.606C147.393 290.09 146.867 288.785 146.478 287.69C146.101 286.584 145.858 285.638 145.749 284.851C145.629 284.053 145.644 283.391 145.794 282.865C145.945 282.318 146.216 281.866 146.607 281.512C146.939 281.211 147.28 281.074 147.629 281.102C147.991 281.12 148.306 281.277 148.575 281.573C148.79 281.81 148.93 282.083 148.994 282.392C149.048 282.689 149.034 282.983 148.952 283.273C148.871 283.541 148.718 283.777 148.493 283.982C148.291 284.164 148.071 284.267 147.832 284.289C147.594 284.289 147.384 284.188 147.201 283.987C147.029 283.797 146.914 283.599 146.856 283.393C146.787 283.174 146.764 282.958 146.785 282.744C146.807 282.529 146.868 282.323 146.968 282.124C146.923 282.122 146.877 282.131 146.831 282.151C146.797 282.161 146.756 282.187 146.708 282.23Z" fill="#D1A080"/>
<path d="M156.529 272.53C156.167 272.893 155.964 273.391 155.919 274.024C155.875 274.635 155.961 275.331 156.176 276.111C156.392 276.869 156.699 277.661 157.096 278.486C157.504 279.3 157.98 280.092 158.524 280.86C159.068 281.629 159.64 282.313 160.24 282.912C160.75 283.42 161.203 283.714 161.599 283.793C162.006 283.86 162.368 283.735 162.685 283.418C163.046 283.056 163.249 282.569 163.294 281.958C163.338 281.324 163.258 280.623 163.054 279.854C162.838 279.074 162.526 278.276 162.118 277.462C161.709 276.648 161.239 275.862 160.706 275.105C160.162 274.336 159.585 273.647 158.973 273.037C158.452 272.517 157.999 272.223 157.614 272.156C157.218 272.077 156.856 272.202 156.529 272.53ZM157.933 283.526C157.435 283.028 156.959 282.418 156.505 281.694C156.052 280.971 155.672 280.185 155.366 279.337C155.059 278.489 154.86 277.635 154.769 276.775C154.688 275.904 154.767 275.067 155.003 274.263C155.229 273.448 155.658 272.724 156.291 272.089C156.991 271.387 157.771 271.047 158.631 271.068C159.491 271.067 160.374 271.519 161.28 272.423C161.779 272.92 162.255 273.531 162.708 274.254C163.161 274.978 163.541 275.764 163.848 276.612C164.154 277.46 164.347 278.32 164.428 279.191C164.519 280.05 164.452 280.888 164.227 281.702C163.99 282.506 163.556 283.225 162.923 283.859C162.222 284.561 161.436 284.907 160.565 284.897C159.705 284.876 158.828 284.418 157.933 283.526Z" fill="#D1A080"/>
<path d="M175.6 267.633C175.681 268.411 175.647 269.172 175.499 269.918C175.349 270.641 175.03 271.277 174.542 271.828C174.053 272.378 173.57 272.73 173.092 272.883C172.614 273.037 172.155 273.047 171.717 272.915C171.266 272.772 170.867 272.546 170.52 272.238C169.934 271.718 169.478 271.014 169.153 270.127C168.828 269.239 168.599 268.256 168.467 267.175C168.333 266.073 168.271 264.949 168.282 263.803C168.293 262.658 168.348 261.584 168.447 260.58L168.648 260.245C168.55 260.5 168.471 260.794 168.411 261.126C168.34 261.448 168.28 261.769 168.231 262.089C168.17 262.399 168.103 262.692 168.028 262.968C167.942 263.234 167.825 263.451 167.676 263.618C167.474 263.846 167.227 263.98 166.935 264.02C166.642 264.037 166.404 264.148 166.224 264.351C166.054 264.543 165.994 264.779 166.045 265.059C166.084 265.329 166.254 265.715 166.556 266.218L167.03 267.023L166.727 267.364L165.783 265.789C165.289 264.923 165.039 264.241 165.032 263.742C165.023 263.222 165.157 262.806 165.433 262.494C165.635 262.267 165.865 262.129 166.122 262.079C166.391 262.018 166.654 261.962 166.911 261.913C167.168 261.841 167.397 261.691 167.599 261.464C167.853 261.177 168.04 260.882 168.158 260.581C168.264 260.268 168.317 259.919 168.316 259.534L168.198 258.98L168.712 258.762C168.675 259.841 168.689 260.934 168.755 262.041C168.832 263.136 168.986 264.203 169.218 265.243C169.449 266.261 169.789 267.215 170.239 268.107C170.677 268.987 171.255 269.746 171.973 270.383C172.572 270.914 173.07 271.196 173.469 271.229C173.868 271.262 174.2 271.129 174.465 270.829C174.784 270.47 175.011 269.998 175.146 269.412C175.269 268.815 175.285 268.145 175.196 267.403L175.6 267.633ZM178.338 266.501C178.858 265.914 179.142 265.257 179.189 264.529C179.247 263.789 179.14 263.041 178.868 262.287C178.585 261.522 178.201 260.797 177.718 260.112C177.234 259.404 176.721 258.788 176.18 258.265C175.627 257.732 175.105 257.344 174.614 257.101C174.365 257.286 174.063 257.457 173.71 257.614C173.345 257.76 172.969 257.834 172.584 257.834C172.187 257.824 171.827 257.675 171.503 257.389C171.192 257.113 171.045 256.832 171.062 256.548C171.079 256.264 171.162 256.038 171.311 255.87C171.47 255.691 171.662 255.583 171.886 255.547C172.122 255.499 172.383 255.506 172.67 255.568C172.957 255.63 173.269 255.736 173.607 255.886C173.932 256.025 174.266 256.204 174.608 256.421C175.252 256.779 175.899 257.268 176.548 257.886C177.197 258.505 177.783 259.207 178.306 259.991C178.817 260.766 179.2 261.587 179.456 262.456C179.712 263.325 179.77 264.188 179.628 265.047C179.497 265.893 179.097 266.694 178.428 267.448C178.089 267.83 177.704 268.12 177.273 268.316C176.843 268.511 176.358 268.552 175.818 268.436C175.289 268.309 174.708 267.964 174.073 267.402C173.547 266.934 173.107 266.394 172.753 265.78C172.409 265.155 172.156 264.524 171.994 263.888C171.831 263.251 171.763 262.677 171.789 262.166C171.815 261.654 171.939 261.273 172.162 261.021C172.322 260.842 172.504 260.769 172.71 260.802C172.927 260.823 173.148 260.912 173.372 261.068C173.596 261.202 173.797 261.349 173.977 261.508C174.623 262.082 175.122 262.845 175.473 263.799C175.836 264.741 175.969 265.832 175.873 267.073L175.47 266.876C175.526 265.921 175.386 264.994 175.049 264.096C174.712 263.198 174.227 262.468 173.592 261.905C173.353 261.693 173.134 261.541 172.936 261.451C172.726 261.35 172.563 261.366 172.446 261.498C172.276 261.689 172.24 262.042 172.339 262.558C172.426 263.063 172.629 263.617 172.949 264.222C173.267 264.803 173.689 265.328 174.216 265.795C174.646 266.177 175.108 266.501 175.6 266.766C176.102 267.02 176.591 267.144 177.067 267.138C177.553 267.12 177.977 266.908 178.338 266.501Z" fill="#D1A080"/>
<path d="M182.596 242.578L182.927 242.933L178.282 248.775L177.981 248.383L182.596 242.578ZM186.861 253.757C187.185 254.199 187.506 254.412 187.823 254.399C188.138 254.363 188.405 254.207 188.624 253.932C188.843 253.656 188.943 253.286 188.924 252.821C188.915 252.344 188.632 251.659 188.074 250.766L187.551 249.921L187.835 249.564L188.705 250.899C189.3 251.822 189.573 252.622 189.525 253.299C189.487 253.964 189.239 254.585 188.781 255.161C188.373 255.674 187.953 255.984 187.521 256.09C187.086 256.174 186.649 256.082 186.208 255.813C185.767 255.545 185.35 255.131 184.956 254.573L177.127 243.595C177.353 243.285 177.562 242.97 177.754 242.652C177.955 242.322 178.107 242.003 178.208 241.695L186.861 253.757Z" fill="#D1A080"/>
<path d="M196.506 244.638L195.287 246.333L185.068 233.126C184.72 232.678 184.382 232.464 184.052 232.483C183.732 232.49 183.343 232.811 182.886 233.447L182.561 233.036C183.062 232.313 183.453 231.618 183.734 230.953C184.002 230.279 184.186 229.613 184.285 228.955L196.506 244.638ZM194.015 242.018C193.007 240.543 192.188 239.244 191.557 238.12C190.936 236.983 190.499 235.989 190.245 235.136C189.978 234.274 189.883 233.516 189.96 232.861C190.037 232.207 190.257 231.626 190.622 231.12C191.061 230.509 191.51 230.201 191.967 230.195C192.421 230.167 192.866 230.33 193.302 230.683C193.738 231.036 194.133 231.458 194.489 231.951L198.817 237.934C199.08 238.28 199.333 238.532 199.576 238.687C199.819 238.842 200.044 238.777 200.249 238.491C200.427 238.244 200.463 237.906 200.359 237.476C200.264 237.033 199.925 236.395 199.342 235.561L198.803 234.789L199.07 234.419L200.141 235.929C200.556 236.504 200.808 237.03 200.897 237.508C200.996 237.974 200.99 238.393 200.879 238.767C200.79 239.136 200.648 239.458 200.452 239.73C200.078 240.25 199.699 240.529 199.316 240.569C198.933 240.609 198.542 240.466 198.146 240.141C197.758 239.803 197.365 239.363 196.967 238.82L192.727 232.96C192.579 232.755 192.394 232.533 192.172 232.294C191.949 232.055 191.719 231.909 191.481 231.857C191.24 231.781 191.007 231.899 190.783 232.211C190.549 232.536 190.446 232.994 190.474 233.586C190.498 234.155 190.642 234.83 190.908 235.613C191.173 236.395 191.553 237.25 192.048 238.178C192.543 239.106 193.139 240.086 193.834 241.119C194.527 242.13 195.311 243.177 196.187 244.26L194.015 242.018Z" fill="#D1A080"/>
<path d="M206.486 207.042L206.861 207.351L203.025 213.753L202.675 213.404L206.486 207.042ZM212.186 217.563C212.565 217.958 212.911 218.128 213.223 218.072C213.531 217.995 213.775 217.806 213.956 217.504C214.137 217.202 214.187 216.822 214.107 216.364C214.036 215.892 213.665 215.25 212.995 214.438L212.364 213.669L212.599 213.278L213.637 214.487C214.348 215.324 214.724 216.081 214.766 216.758C214.816 217.422 214.652 218.07 214.273 218.701C213.936 219.264 213.561 219.627 213.146 219.789C212.727 219.929 212.281 219.895 211.809 219.687C211.337 219.479 210.868 219.124 210.404 218.622L201.199 208.77C201.382 208.433 201.548 208.094 201.696 207.753C201.852 207.399 201.96 207.063 202.02 206.745L212.186 217.563Z" fill="#D1A080"/>
<path d="M220.547 207.254L219.561 209.094L207.694 197.347C207.29 196.949 206.926 196.781 206.602 196.844C206.286 196.892 205.943 197.262 205.572 197.953L205.196 197.588C205.597 196.805 205.894 196.065 206.085 195.369C206.262 194.665 206.357 193.981 206.368 193.315L220.547 207.254ZM217.733 204.984C216.54 203.655 215.556 202.475 214.784 201.444C214.018 200.399 213.454 199.47 213.09 198.658C212.712 197.839 212.518 197.1 212.508 196.441C212.498 195.782 212.64 195.178 212.935 194.627C213.29 193.965 213.694 193.6 214.147 193.534C214.593 193.446 215.056 193.549 215.534 193.842C216.013 194.134 216.46 194.501 216.878 194.942L221.956 200.303C222.262 200.613 222.546 200.828 222.808 200.95C223.069 201.072 223.283 200.978 223.449 200.667C223.592 200.399 223.584 200.059 223.424 199.647C223.271 199.22 222.851 198.632 222.164 197.883L221.528 197.188L221.743 196.786L223.005 198.142C223.491 198.657 223.81 199.146 223.962 199.608C224.121 200.056 224.17 200.473 224.109 200.858C224.07 201.236 223.971 201.573 223.812 201.87C223.51 202.434 223.172 202.761 222.797 202.85C222.422 202.94 222.017 202.85 221.581 202.58C221.152 202.296 220.705 201.911 220.239 201.425L215.265 196.175C215.091 195.991 214.878 195.795 214.626 195.588C214.374 195.38 214.127 195.266 213.884 195.245C213.635 195.202 213.419 195.35 213.238 195.688C213.049 196.041 213.007 196.509 213.113 197.091C213.212 197.652 213.444 198.303 213.809 199.044C214.175 199.784 214.665 200.582 215.278 201.436C215.891 202.291 216.61 203.185 217.436 204.117C218.255 205.028 219.17 205.962 220.181 206.921L217.733 204.984Z" fill="#D1A080"/>
<path d="M229.349 190.174L228.458 192.062L220.375 185.065C219.951 184.689 219.624 184.481 219.394 184.444C219.171 184.391 219.002 184.488 218.886 184.734C218.735 185.053 218.765 185.421 218.975 185.838C219.185 186.256 219.627 186.8 220.301 187.472L220.971 188.133L220.777 188.545L219.448 187.255C218.943 186.751 218.599 186.28 218.417 185.84C218.242 185.386 218.172 184.973 218.206 184.6C218.233 184.205 218.315 183.864 218.451 183.574C218.656 183.14 218.893 182.88 219.163 182.796C219.44 182.696 219.734 182.711 220.045 182.84C220.362 182.954 220.685 183.133 221.012 183.376C221.332 183.598 221.638 183.83 221.93 184.074L229.349 190.174ZM221.062 179.445C220.905 179.778 220.9 180.201 221.048 180.713C221.188 181.203 221.466 181.777 221.882 182.433C222.29 183.067 222.818 183.768 223.465 184.533C224.105 185.277 224.839 186.065 225.667 186.898C226.501 187.716 227.419 188.565 228.42 189.444L225.897 187.591C224.704 186.444 223.719 185.44 222.94 184.577C222.169 183.7 221.582 182.919 221.179 182.234C220.763 181.542 220.523 180.925 220.461 180.382C220.391 179.819 220.468 179.298 220.693 178.82C220.884 178.415 221.147 178.159 221.481 178.051C221.822 177.929 222.173 177.953 222.535 178.123C222.824 178.26 223.058 178.459 223.235 178.719C223.399 178.973 223.498 179.25 223.534 179.55C223.561 179.828 223.511 180.105 223.381 180.38C223.265 180.626 223.101 180.805 222.889 180.917C222.669 181.008 222.436 180.996 222.19 180.88C221.958 180.77 221.776 180.631 221.643 180.463C221.496 180.287 221.392 180.096 221.33 179.89C221.268 179.684 221.245 179.47 221.261 179.248C221.219 179.263 221.18 179.289 221.145 179.325C221.117 179.348 221.089 179.388 221.062 179.445Z" fill="#D1A080"/>
<path d="M226.418 166.725C226.223 167.198 226.226 167.736 226.427 168.338C226.62 168.92 226.966 169.53 227.464 170.168C227.954 170.785 228.54 171.399 229.223 172.01C229.911 172.605 230.654 173.154 231.451 173.656C232.248 174.158 233.038 174.57 233.822 174.894C234.488 175.168 235.019 175.266 235.415 175.187C235.817 175.093 236.103 174.839 236.274 174.425C236.469 173.952 236.471 173.425 236.278 172.843C236.076 172.241 235.734 171.624 235.25 170.991C234.752 170.353 234.159 169.736 233.47 169.14C232.781 168.545 232.045 167.999 231.263 167.503C230.466 167.002 229.669 166.586 228.87 166.256C228.189 165.976 227.659 165.878 227.277 165.963C226.881 166.042 226.595 166.296 226.418 166.725ZM231.926 176.344C231.275 176.076 230.602 175.694 229.906 175.199C229.21 174.705 228.558 174.124 227.95 173.458C227.342 172.792 226.831 172.079 226.418 171.32C226.01 170.546 225.762 169.743 225.672 168.91C225.569 168.071 225.687 167.237 226.029 166.409C226.407 165.492 226.998 164.878 227.8 164.569C228.594 164.239 229.583 164.318 230.766 164.806C231.417 165.075 232.09 165.456 232.786 165.951C233.482 166.446 234.134 167.026 234.742 167.692C235.35 168.358 235.858 169.078 236.265 169.852C236.679 170.612 236.938 171.411 237.042 172.25C237.131 173.083 237.005 173.913 236.663 174.741C236.285 175.659 235.691 176.279 234.883 176.603C234.08 176.913 233.094 176.826 231.926 176.344Z" fill="#D1A080"/>
<path d="M236.676 150.44C237.995 151.513 239.089 152.481 239.956 153.345C240.823 154.208 241.486 155 241.945 155.721C242.41 156.427 242.696 157.086 242.803 157.7C242.915 158.299 242.876 158.87 242.685 159.414C242.452 160.078 242.132 160.508 241.724 160.704C241.316 160.901 240.856 160.909 240.342 160.729C239.829 160.549 239.285 160.239 238.71 159.8L232.867 155.284C232.467 154.974 232.138 154.8 231.88 154.76C231.623 154.721 231.441 154.852 231.335 155.154C231.235 155.441 231.293 155.784 231.509 156.182C231.731 156.565 232.239 157.073 233.034 157.708L233.769 158.296L233.618 158.727L232.163 157.581C231.608 157.132 231.218 156.698 230.992 156.28C230.771 155.846 230.658 155.442 230.654 155.068C230.639 154.673 230.685 154.324 230.791 154.022C231.024 153.358 231.336 152.976 231.727 152.876C232.109 152.755 232.53 152.81 232.992 153.039C233.46 153.254 233.926 153.545 234.391 153.911L240.114 158.334C241.234 159.202 241.926 159.258 242.191 158.503C242.318 158.141 242.294 157.7 242.12 157.181C241.931 156.657 241.609 156.078 241.153 155.443C240.682 154.803 240.095 154.131 239.393 153.427C238.68 152.703 237.869 151.969 236.96 151.226C236.041 150.463 235.033 149.711 233.936 148.97L236.676 150.44ZM242.563 152.581C242.934 152.829 243.255 153.001 243.527 153.096C243.789 153.171 243.973 153.058 244.079 152.756C244.195 152.424 244.128 152.061 243.876 151.667C243.614 151.253 243.118 150.757 242.388 150.179L241.653 149.591L241.804 149.161L243.259 150.307C243.819 150.74 244.21 151.174 244.431 151.608C244.657 152.026 244.769 152.43 244.769 152.82C244.788 153.199 244.742 153.548 244.631 153.865C244.546 154.107 244.414 154.315 244.234 154.489C244.054 154.663 243.848 154.769 243.614 154.806C243.315 154.836 242.975 154.768 242.593 154.6C242.216 154.417 241.725 154.126 241.119 153.727L233.109 148.426C233.227 148.044 233.324 147.671 233.4 147.307C233.482 146.929 233.52 146.578 233.515 146.254L242.563 152.581Z" fill="#D1A080"/>
<path d="M243.817 137.521L244.008 136.952C244.153 137.595 244.287 138.192 244.409 138.745C244.52 139.277 244.64 139.721 244.769 140.076C244.899 140.43 245.064 140.637 245.263 140.695C245.417 140.74 245.594 140.676 245.795 140.501C245.981 140.322 246.207 140.005 246.474 139.549L247.404 137.996C247.67 137.541 247.944 137.146 248.226 136.811C248.496 136.457 248.788 136.2 249.101 136.042C249.414 135.884 249.77 135.863 250.169 135.98C250.553 136.092 250.945 136.348 251.345 136.749C251.764 137.138 252.118 137.667 252.406 138.335C252.698 138.987 252.867 139.778 252.911 140.708C252.956 141.638 252.803 142.702 252.452 143.9C252.219 144.698 251.946 145.344 251.636 145.836C251.336 146.349 251.017 146.697 250.679 146.882C250.337 147.082 249.998 147.133 249.66 147.034C249.414 146.962 249.173 146.816 248.937 146.597C248.717 146.383 248.516 146.099 248.336 145.746C248.167 145.413 248.028 145.006 247.919 144.524C247.821 144.061 247.776 143.531 247.784 142.934L248.177 142.874C248.302 143.527 248.518 144.015 248.823 144.338C249.129 144.661 249.466 144.876 249.834 144.984C250.449 145.164 250.949 145.077 251.336 144.724C251.738 144.374 252.032 143.885 252.216 143.256C252.364 142.749 252.433 142.202 252.421 141.615C252.425 141.033 252.356 140.471 252.214 139.929C252.088 139.392 251.889 138.934 251.617 138.554C251.344 138.174 251.016 137.928 250.632 137.816C250.402 137.748 250.226 137.78 250.104 137.911C249.987 138.027 249.841 138.242 249.665 138.558L247.735 141.819C247.535 142.161 247.294 142.415 247.011 142.582C246.714 142.745 246.373 142.771 245.989 142.658C245.682 142.568 245.399 142.369 245.139 142.059C244.879 141.75 244.645 141.24 244.437 140.529C244.213 139.813 244.006 138.81 243.817 137.521ZM237.596 134.425C237.452 134.916 237.477 135.374 237.669 135.797C237.847 136.216 238.125 136.605 238.503 136.966C238.87 137.307 239.273 137.608 239.713 137.871C240.158 138.117 240.573 138.322 240.959 138.485C241.329 138.644 241.606 138.75 241.791 138.804C242.282 138.948 242.667 138.943 242.945 138.791C243.227 138.624 243.422 138.356 243.53 137.987C243.701 137.404 243.661 136.884 243.412 136.427C243.166 135.955 242.812 135.543 242.348 135.191C241.884 134.838 241.401 134.555 240.896 134.341C240.397 134.111 239.97 133.945 239.617 133.841C239.095 133.689 238.66 133.636 238.313 133.685C237.965 133.733 237.726 133.98 237.596 134.425ZM237.208 134.212C237.473 133.306 237.894 132.637 238.471 132.205C239.036 131.754 239.772 131.661 240.678 131.926C241.415 132.142 242.084 132.563 242.684 133.189C243.284 133.814 243.713 134.573 243.968 135.465C244.209 136.352 244.178 137.31 243.877 138.339C243.63 139.184 243.221 139.839 242.651 140.306C242.07 140.753 241.35 140.85 240.49 140.599C240.076 140.477 239.624 140.254 239.136 139.927C238.637 139.581 238.198 139.144 237.819 138.617C237.425 138.084 237.159 137.456 237.021 136.732C236.871 135.989 236.934 135.148 237.208 134.212ZM238.885 132.927L238.602 133.294C238.143 132.926 237.79 132.423 237.544 131.784C237.297 131.145 237.257 130.542 237.423 129.973C237.54 129.574 237.75 129.285 238.052 129.107C238.339 128.924 238.72 128.903 239.197 129.042C239.626 129.168 239.91 129.367 240.046 129.641C240.183 129.914 240.216 130.174 240.144 130.419C240.072 130.665 239.925 130.881 239.704 131.066C239.473 131.232 239.173 131.286 238.807 131.228C238.44 131.171 238.016 130.939 237.535 130.531L237.692 130.252C237.749 130.969 237.875 131.506 238.071 131.863C238.251 132.216 238.522 132.571 238.885 132.927Z" fill="#D1A080"/>
<path d="M252.421 126.629L251.937 128.66L237.465 120.33C236.973 120.048 236.578 119.979 236.281 120.122C235.988 120.249 235.75 120.695 235.569 121.457L235.112 121.2C235.3 120.341 235.398 119.55 235.405 118.828C235.397 118.102 235.314 117.416 235.155 116.77L252.421 126.629ZM249.121 125.153C247.628 124.172 246.376 123.282 245.366 122.482C244.359 121.667 243.576 120.913 243.017 120.221C242.443 119.525 242.067 118.86 241.889 118.225C241.711 117.591 241.694 116.97 241.839 116.363C242.013 115.632 242.311 115.176 242.732 114.997C243.141 114.798 243.614 114.779 244.151 114.94C244.689 115.101 245.215 115.341 245.731 115.662L252.01 119.549C252.385 119.77 252.714 119.906 252.998 119.957C253.282 120.009 253.464 119.863 253.546 119.521C253.616 119.225 253.522 118.898 253.261 118.54C253.005 118.166 252.449 117.705 251.593 117.156L250.801 116.647L250.907 116.203L252.472 117.192C253.074 117.566 253.507 117.957 253.772 118.365C254.04 118.758 254.194 119.148 254.233 119.536C254.292 119.912 254.282 120.263 254.204 120.59C254.056 121.213 253.812 121.615 253.473 121.797C253.133 121.98 252.718 121.996 252.227 121.846C251.74 121.681 251.21 121.423 250.635 121.073L244.486 117.265C244.271 117.131 244.015 116.996 243.719 116.86C243.423 116.724 243.154 116.676 242.914 116.718C242.662 116.74 242.492 116.938 242.403 117.311C242.31 117.701 242.389 118.163 242.639 118.7C242.878 119.217 243.269 119.787 243.811 120.41C244.354 121.033 245.031 121.679 245.841 122.349C246.652 123.019 247.576 123.699 248.612 124.39C249.636 125.062 250.76 125.732 251.982 126.401L249.121 125.153Z" fill="#D1A080"/>
<path d="M257.496 89.7249C257.844 89.888 258.178 89.9843 258.497 90.0138C258.803 90.0252 258.98 89.8567 259.03 89.5083C259.076 89.1915 258.943 88.8735 258.633 88.5544C258.308 88.2329 257.715 87.8571 256.855 87.4269L256.017 87.0159L256.082 86.5645L257.738 87.3593C258.344 87.6401 258.807 87.965 259.126 88.3339C259.429 88.7006 259.627 89.0684 259.719 89.4372C259.812 89.8061 259.835 90.1489 259.79 90.4657C259.654 91.416 259.131 91.8502 258.222 91.7684C257.966 91.748 257.675 91.6902 257.349 91.595C257.026 91.4841 256.674 91.3448 256.294 91.1772L243.931 85.9154C243.413 85.6958 243.014 85.6628 242.733 85.8166C242.452 85.9703 242.256 86.4353 242.145 87.2113L241.667 86.9974C241.776 86.124 241.799 85.3433 241.735 84.6554C241.656 83.9653 241.51 83.2977 241.295 82.6528L257.496 89.7249ZM258.326 95.2746C258.382 94.8786 258.216 94.4023 257.827 93.8455C257.425 93.2706 256.864 92.6731 256.144 92.0528C255.411 91.4145 254.569 90.8089 253.616 90.2361C252.65 89.6452 251.639 89.1448 250.582 88.7348L253.097 89.4587C254.64 90.31 255.858 91.1148 256.752 91.8732C257.648 92.6156 258.272 93.3354 258.625 94.0325C258.964 94.7114 259.085 95.3914 258.987 96.0725C258.917 96.5634 258.744 96.9831 258.467 97.3315C258.178 97.6617 257.788 97.8969 257.3 98.0371C256.811 98.1772 256.21 98.1962 255.497 98.0941C254.737 97.9853 253.938 97.7496 253.101 97.3873C252.251 97.0069 251.431 96.5258 250.641 95.944C249.852 95.3622 249.154 94.7046 248.548 93.9713C247.928 93.2198 247.46 92.4254 247.143 91.5881C246.827 90.7508 246.731 89.8966 246.856 89.0254C246.908 88.6612 247.099 88.3411 247.43 88.0651C247.744 87.7869 248.181 87.6717 248.74 87.7194L249.188 87.9775C248.609 87.9592 248.182 88.0597 247.908 88.2791C247.618 88.4962 247.451 88.7632 247.405 89.0799C247.319 89.6818 247.441 90.2973 247.771 90.9265C248.104 91.5398 248.578 92.1249 249.193 92.6817C249.808 93.2386 250.511 93.7513 251.3 94.22C252.074 94.6864 252.883 95.077 253.727 95.3918C254.555 95.7043 255.349 95.9151 256.109 96.0239C256.806 96.1237 257.341 96.1115 257.714 95.9872C258.072 95.8606 258.276 95.623 258.326 95.2746Z" fill="#D1A080"/>
<path d="M260.669 76.5588C260.702 76.1762 260.501 75.7171 260.066 75.1814C259.615 74.6443 258.997 74.0846 258.213 73.5025C257.428 72.9203 256.529 72.3683 255.514 71.8464C254.499 71.3246 253.437 70.8869 252.328 70.5335L254.875 71.1645C256.512 71.9171 257.822 72.6414 258.805 73.3372C259.773 74.0316 260.461 74.7098 260.869 75.3716C261.261 76.0321 261.429 76.6811 261.374 77.3187C261.309 78.0679 260.989 78.6102 260.413 78.9456C259.84 79.2651 259.13 79.3881 258.285 79.3146C257.52 79.2481 256.703 79.0485 255.832 78.7158C254.946 78.3818 254.076 77.9528 253.222 77.4288C252.369 76.889 251.602 76.2923 250.92 75.6387C250.238 74.9852 249.704 74.2963 249.317 73.5721C248.932 72.8319 248.77 72.1032 248.833 71.3859C248.881 70.828 249.197 70.4298 249.78 70.1914C250.348 69.9357 251.119 69.9385 252.092 70.1998L252.212 70.4752C251.377 70.2902 250.695 70.2871 250.166 70.4659C249.62 70.6433 249.325 70.987 249.281 71.4971C249.245 71.9115 249.414 72.3679 249.788 72.8662C250.148 73.3472 250.66 73.8333 251.324 74.3247C251.973 74.7988 252.713 75.2485 253.543 75.6741C254.375 76.0837 255.244 76.4323 256.15 76.7199C257.042 76.9902 257.911 77.1621 258.755 77.2355C259.441 77.2951 259.925 77.265 260.209 77.1451C260.493 77.0093 260.647 76.8138 260.669 76.5588ZM249.334 69.5022C249.351 69.1183 249.353 68.7329 249.338 68.3462C249.324 67.9595 249.274 67.6019 249.19 67.2734L259.499 71.1812C259.639 71.2255 259.826 71.29 260.06 71.3745C260.279 71.4417 260.486 71.4598 260.682 71.4286C260.879 71.3815 260.989 71.2224 261.012 70.9514C261.04 70.6326 260.892 70.3066 260.567 69.9732C260.243 69.6398 259.632 69.2815 258.734 68.8983L257.874 68.5344L257.913 68.0802L259.607 68.8297C260.225 69.1083 260.704 69.4229 261.042 69.7736C261.367 70.107 261.586 70.4472 261.7 70.7945C261.831 71.1431 261.882 71.4768 261.854 71.7955C261.8 72.4172 261.555 72.8375 261.118 73.0565C260.734 73.2319 260.306 73.2509 259.837 73.1137C259.351 72.9751 258.866 72.8205 258.383 72.65L249.334 69.5022Z" fill="#D1A080"/>
<path d="M262.364 58.6816L262.299 60.7686L252.098 57.5684C251.908 57.4984 251.701 57.4439 251.479 57.4049C251.24 57.3495 251.04 57.3512 250.878 57.4102C250.7 57.4687 250.607 57.6258 250.599 57.8817C250.588 58.2335 250.754 58.5509 251.098 58.8337C251.425 59.1161 252.055 59.44 252.988 59.8053L253.866 60.1449L253.852 60.6007L252.119 59.9462C251.123 59.5629 250.473 59.1104 250.169 58.5886C249.866 58.0509 249.722 57.5261 249.738 57.0144C249.753 56.5346 249.868 56.194 250.082 55.9926C250.297 55.7752 250.572 55.6638 250.909 55.6583C251.23 55.6363 251.589 55.6715 251.986 55.764C252.368 55.84 252.749 55.9319 253.13 56.0399L262.364 58.6816ZM257.409 57.4222C255.987 56.8175 254.797 56.236 253.838 55.6778C252.879 55.1196 252.111 54.5753 251.535 54.0451C250.944 53.5143 250.528 52.9811 250.289 52.4454C250.034 51.8931 249.916 51.3292 249.934 50.7534C249.957 50.0018 250.157 49.4958 250.533 49.2354C250.894 48.9586 251.354 48.8449 251.913 48.8944C252.455 48.9433 253.02 49.073 253.605 49.2834L260.537 51.8292C260.964 51.9866 261.322 52.0619 261.611 52.0549C261.883 52.0314 262.025 51.8437 262.036 51.4919C262.046 51.188 261.887 50.8869 261.56 50.5886C261.234 50.2742 260.596 49.9341 259.647 49.5683L258.769 49.2287L258.784 48.773L260.516 49.4274C261.181 49.6723 261.684 49.9681 262.025 50.315C262.367 50.6458 262.596 50.9971 262.713 51.369C262.845 51.7253 262.907 52.0714 262.896 52.4072C262.884 52.791 262.81 53.1089 262.674 53.3607C262.539 53.5966 262.365 53.7753 262.153 53.8967C261.86 54.0636 261.482 54.1079 261.021 54.0294C260.559 53.9509 260.051 53.807 259.497 53.5976L252.708 51.1043C252.487 51.0173 252.225 50.9451 251.922 50.8876C251.604 50.8137 251.324 50.8129 251.082 50.8854C250.824 50.9573 250.688 51.1852 250.676 51.569C250.664 51.9529 250.82 52.3659 251.142 52.8082C251.464 53.2505 251.93 53.7133 252.539 54.1965C253.132 54.6793 253.854 55.1581 254.703 55.6328C255.537 56.1071 256.467 56.5684 257.494 57.0167C258.505 57.4485 259.589 57.8505 260.745 58.2228L257.409 57.4222Z" fill="#D1A080"/>
<path d="M250.342 34.9325C250.355 35.5404 250.616 36.143 251.125 36.7403C251.633 37.3216 252.325 37.8511 253.199 38.3286C254.073 38.8061 255.066 39.1851 256.176 39.4656C257.286 39.73 258.449 39.8494 259.664 39.8235C260.48 39.8062 261.069 39.6416 261.43 39.3299C261.775 39.0025 261.943 38.5908 261.932 38.0949C261.92 37.5191 261.731 36.9309 261.366 36.3306C261.002 35.7302 260.365 35.1356 259.456 34.5468L259.638 34.0628C260.172 34.3555 260.693 34.7445 261.199 35.2299C261.705 35.7152 262.125 36.2664 262.458 36.8835C262.775 37.4849 262.941 38.1295 262.956 38.8173C262.976 39.7771 262.696 40.5512 262.117 41.1397C261.537 41.7281 260.664 42.0348 259.496 42.0596C258.76 42.0752 257.966 41.9881 257.114 41.7982C256.245 41.5926 255.391 41.2987 254.55 40.9165C253.694 40.5186 252.923 40.0308 252.239 39.4533C251.538 38.876 250.972 38.2159 250.54 37.4729C250.108 36.7299 249.883 35.9105 249.864 35.0147C249.849 34.3109 250.02 33.6991 250.377 33.1794C250.718 32.66 251.209 32.3936 251.848 32.38C252.152 32.3735 252.458 32.439 252.765 32.5765C253.055 32.6984 253.299 32.8852 253.497 33.1371C253.694 33.389 253.797 33.6908 253.804 34.0428C253.811 34.3787 253.729 34.6285 253.556 34.7922C253.367 34.9562 253.145 35.041 252.889 35.0464C252.425 35.0563 252.03 34.8807 251.702 34.5196C251.358 34.1588 251.141 33.7473 251.051 33.2851C250.831 33.4498 250.659 33.6615 250.537 33.9202C250.398 34.1792 250.333 34.5166 250.342 34.9325Z" fill="#D1A080"/>
<path d="M256.654 24.6229C256.289 23.7501 255.938 22.9645 255.601 22.2661C255.246 21.5529 254.887 20.9925 254.522 20.5848C254.019 20.0423 253.429 19.6261 252.751 19.3363C252.073 19.0465 251.343 18.9287 250.561 18.983C250.098 19.0151 249.805 19.0675 249.682 19.1402C249.559 19.2129 249.502 19.3131 249.511 19.4408C249.538 19.8398 249.744 20.2586 250.127 20.6972C250.51 21.1357 251.029 21.5568 251.682 21.9606C252.32 22.3654 253.043 22.7323 253.851 23.0611C254.659 23.374 255.518 23.6111 256.427 23.7726C257.32 23.9352 258.206 23.986 259.084 23.9251C259.898 23.8686 260.478 23.676 260.824 23.3473C261.154 23.0197 261.302 22.6084 261.268 22.1136C261.228 21.539 261.01 20.9446 260.615 20.3305C260.219 19.7164 259.554 19.1371 258.618 18.5926L258.783 18.1962C259.33 18.4629 259.869 18.8265 260.398 19.287C260.927 19.7475 261.373 20.2779 261.735 20.8783C262.081 21.4638 262.277 22.0997 262.325 22.7861C262.369 23.4246 262.28 23.9921 262.058 24.4886C261.836 24.9852 261.486 25.3783 261.009 25.668C260.516 25.9589 259.902 26.1297 259.168 26.1807C258.482 26.2283 257.707 26.1537 256.843 25.957C255.963 25.7614 255.085 25.4615 254.206 25.0573C253.311 24.6383 252.482 24.1264 251.718 23.5218C250.955 22.9172 250.33 22.2308 249.843 21.4626C249.357 20.6944 249.082 19.8554 249.019 18.9456C248.985 18.4508 249.092 18.0264 249.34 17.6724C249.571 17.3035 249.95 17.1008 250.476 17.0643C251.115 17.02 251.727 17.17 252.312 17.5143C252.88 17.8438 253.417 18.3037 253.923 18.8941C254.412 19.4697 254.857 20.1044 255.258 20.7983C255.659 21.4922 256.011 22.1735 256.314 22.8421C256.617 23.5108 256.867 24.1029 257.063 24.6186L256.654 24.6229Z" fill="#D1A080"/>
</svg>
