<svg width="224" height="271" viewBox="0 0 224 271" fill="none" xmlns="http://www.w3.org/2000/svg">
<path d="M15.7812 256.443L26.6431 264.158L26.6122 264.541L11.4125 265.215C10.7841 265.245 10.3633 265.388 10.15 265.643C9.93673 265.899 9.81181 266.154 9.77525 266.408L9.30454 266.273C9.34625 265.956 9.39119 265.598 9.43934 265.201C9.48879 264.787 9.53155 264.357 9.56763 263.911C9.61014 263.384 9.64146 262.897 9.66159 262.45C9.68301 261.986 9.69734 261.61 9.70458 261.321L10.1753 261.456C10.1634 262 10.276 262.395 10.5131 262.639C10.7503 262.883 11.2714 262.989 12.0765 262.958L23.8128 262.533L23.8911 262.756L15.1896 256.612L15.7812 256.443ZM14.6351 248.573C13.7475 248.036 13.0664 247.724 12.5918 247.637C12.1186 247.535 11.782 247.628 11.582 247.917C11.3662 248.205 11.2232 248.683 11.1532 249.351L10.6844 249.193C10.7248 248.891 10.7653 248.589 10.8057 248.288C10.8314 247.969 10.8645 247.658 10.905 247.357C10.9307 247.038 10.9546 246.743 10.9765 246.472C11.01 246.057 11.0297 245.713 11.0357 245.441C11.0416 245.169 11.0469 244.904 11.0516 244.648L11.5204 244.806C11.5502 245.033 11.6186 245.279 11.7255 245.545C11.8325 245.81 12.0186 246.09 12.2837 246.384C12.5502 246.663 12.9283 246.95 13.418 247.247L27.3369 255.57L27.306 255.953L12.0677 257.106C11.4539 257.153 11.043 257.272 10.8349 257.464C10.6121 257.638 10.4837 257.837 10.4497 258.059L9.97901 257.924C10.0181 257.639 10.0605 257.313 10.1061 256.947C10.1517 256.582 10.1906 256.2 10.2228 255.801C10.273 255.179 10.3121 254.596 10.3399 254.053C10.3678 253.509 10.3873 253.069 10.3984 252.733L10.8691 252.868C10.834 253.7 10.9257 254.253 11.1443 254.527C11.363 254.802 11.8921 254.909 12.7317 254.848L23.9726 253.998L24.0069 254.17L14.6351 248.573Z" fill="#D1A080"/>
<path d="M28.9103 241.372L28.5676 243.432L13.5565 236.117C13.0462 235.87 12.6476 235.828 12.361 235.991C12.0769 236.138 11.8706 236.599 11.7419 237.372L11.2684 237.147C11.397 236.277 11.4402 235.481 11.3979 234.76C11.3398 234.037 11.2094 233.358 11.0067 232.725L28.9103 241.372ZM25.5167 240.126C23.9593 239.251 22.6491 238.449 21.5862 237.721C20.526 236.976 19.6932 236.278 19.0881 235.626C18.4671 234.971 18.0461 234.334 17.8249 233.713C17.6038 233.092 17.5445 232.474 17.6469 231.859C17.7703 231.117 18.0358 230.642 18.4435 230.434C18.838 230.208 19.3088 230.156 19.8559 230.28C20.4031 230.403 20.945 230.607 21.4817 230.891L28.0126 234.337C28.402 234.532 28.74 234.645 29.0267 234.676C29.3134 234.708 29.4857 234.55 29.5434 234.203C29.5933 233.903 29.4762 233.583 29.192 233.244C28.9105 232.889 28.3238 232.467 27.4319 231.978L26.6072 231.525L26.682 231.075L28.3118 231.954C28.9379 232.285 29.397 232.646 29.6891 233.035C29.9838 233.408 30.1641 233.787 30.23 234.171C30.3142 234.542 30.3288 234.893 30.2737 235.224C30.1686 235.856 29.9531 236.274 29.627 236.479C29.3008 236.685 28.8879 236.729 28.3881 236.614C27.8909 236.482 27.3437 236.262 26.7465 235.951L20.3498 232.576C20.1262 232.458 19.8618 232.341 19.5566 232.225C19.2515 232.109 18.9805 232.08 18.7438 232.138C18.4939 232.178 18.3375 232.387 18.2745 232.766C18.2088 233.16 18.3194 233.617 18.6063 234.135C18.88 234.635 19.3089 235.176 19.893 235.76C20.4771 236.344 21.1967 236.942 22.0518 237.555C22.9068 238.167 23.875 238.783 24.9562 239.4C26.0243 240 27.1911 240.591 28.4565 241.175L25.5167 240.126Z" fill="#D1A080"/>
<path d="M21.4847 215.836C21.3678 216.335 21.4571 216.865 21.7525 217.427C22.0359 217.97 22.4747 218.517 23.0688 219.067C23.6509 219.598 24.3278 220.11 25.0996 220.604C25.875 221.081 26.6961 221.504 27.5631 221.872C28.43 222.239 29.2763 222.52 30.1019 222.714C30.8029 222.878 31.3425 222.89 31.7208 222.748C32.1027 222.591 32.3448 222.295 32.4471 221.859C32.564 221.36 32.4808 220.839 32.1973 220.296C31.9019 219.734 31.465 219.179 30.8865 218.633C30.2924 218.083 29.6077 217.569 28.8323 217.091C28.0569 216.613 27.2435 216.193 26.3921 215.829C25.5252 215.461 24.6711 215.178 23.83 214.981C23.1134 214.813 22.5738 214.801 22.2111 214.946C21.8328 215.088 21.5907 215.384 21.4847 215.836ZM28.4623 224.449C27.7769 224.288 27.0511 224.019 26.2849 223.643C25.5187 223.266 24.7823 222.797 24.0755 222.237C23.3688 221.677 22.7504 221.055 22.2204 220.372C21.694 219.673 21.3202 218.92 21.0988 218.112C20.8619 217.301 20.8457 216.459 21.0503 215.586C21.2768 214.62 21.7615 213.921 22.5042 213.487C23.2349 213.034 24.2234 212.953 25.4696 213.246C26.155 213.406 26.8808 213.675 27.6469 214.052C28.4131 214.429 29.1496 214.898 29.8563 215.458C30.5631 216.018 31.1796 216.647 31.706 217.346C32.236 218.029 32.6195 218.776 32.8564 219.588C33.0778 220.396 33.0862 221.236 32.8816 222.108C32.655 223.074 32.1686 223.782 31.4222 224.231C30.6795 224.665 29.6929 224.738 28.4623 224.449Z" fill="#D1A080"/>
<path d="M34.4488 206.487C34.8581 206.741 35.2001 206.882 35.4746 206.913C35.7338 206.938 35.9061 206.805 35.9915 206.514C36.0813 206.207 35.9956 205.873 35.7341 205.513C35.4618 205.133 34.933 204.662 34.1475 204.099L33.3829 203.55L33.511 203.112L35.0239 204.18C35.5491 204.55 35.9455 204.933 36.2133 205.328C36.4703 205.704 36.6261 206.083 36.6808 206.465C36.7355 206.848 36.7044 207.239 36.5876 207.638C36.4393 208.145 36.2294 208.492 35.9579 208.679C35.7062 208.856 35.4101 208.928 35.0697 208.895C34.7337 208.846 34.3904 208.738 34.0399 208.568C33.6784 208.379 33.3292 208.177 32.9921 207.962L21.6294 200.56C21.1522 200.254 20.7638 200.157 20.4642 200.269C20.1646 200.382 19.9047 200.814 19.6845 201.567L19.248 201.264C19.4798 200.415 19.6133 199.645 19.6484 198.955C19.6683 198.261 19.6199 197.572 19.5034 196.887L34.4488 206.487Z" fill="#D1A080"/>
<path d="M34.6333 194.389C34.6428 193.443 34.6307 192.582 34.5971 191.808C34.5536 191.013 34.4448 190.356 34.2706 189.837C34.0232 189.14 33.6456 188.524 33.1376 187.99C32.6297 187.456 32.0058 187.059 31.2659 186.8C30.828 186.646 30.5381 186.579 30.3961 186.597C30.2542 186.615 30.162 186.684 30.1197 186.805C29.9874 187.183 30.0106 187.649 30.1893 188.203C30.368 188.757 30.6777 189.349 31.1184 189.978C31.544 190.602 32.0633 191.225 32.6761 191.846C33.2943 192.453 33.9891 193.01 34.7606 193.518C35.5169 194.02 36.3104 194.417 37.1408 194.708C37.9109 194.978 38.5199 195.031 38.9677 194.865C39.4004 194.695 39.6988 194.376 39.8629 193.908C40.0534 193.364 40.0884 192.732 39.9679 192.012C39.8474 191.291 39.4649 190.496 38.8205 189.626L39.1287 189.327C39.5264 189.788 39.8773 190.335 40.1813 190.967C40.4853 191.6 40.6851 192.263 40.7807 192.958C40.8665 193.632 40.7956 194.294 40.5681 194.943C40.3564 195.547 40.0504 196.033 39.65 196.402C39.2496 196.77 38.7731 196.993 38.2203 197.07C37.6525 197.143 37.0213 197.057 36.3267 196.813C35.6774 196.586 34.995 196.211 34.2794 195.689C33.5487 195.162 32.8599 194.539 32.2131 193.82C31.5565 193.082 30.997 192.284 30.5345 191.426C30.072 190.569 29.7692 189.692 29.6261 188.794C29.4831 187.896 29.5623 187.017 29.864 186.156C30.0281 185.688 30.294 185.34 30.6618 185.113C31.0198 184.866 31.448 184.829 31.9463 185.004C32.5503 185.216 33.053 185.595 33.4544 186.143C33.8461 186.67 34.1577 187.305 34.3892 188.047C34.6109 188.769 34.7687 189.528 34.8628 190.324C34.9568 191.12 35.0108 191.885 35.0249 192.619C35.0389 193.353 35.0341 193.995 35.0104 194.547L34.6333 194.389Z" fill="#D1A080"/>
<path d="M44.6883 181.797C44.7966 181.703 44.9006 181.599 45.0004 181.485C45.0915 181.35 45.1956 181.142 45.3126 180.861C45.5836 180.211 45.6133 179.6 45.4019 179.026C45.1818 178.432 44.7025 177.98 43.9642 177.672C43.5064 177.481 43.0191 177.382 42.5021 177.375C41.9766 177.346 41.3292 177.423 40.5599 177.605C39.9457 177.747 39.3303 177.872 38.7136 177.979C38.0822 178.079 37.4268 177.988 36.7476 177.705C36.1126 177.44 35.6309 177.057 35.3024 176.556C34.9592 176.049 34.7625 175.481 34.7123 174.854C34.6682 174.211 34.7755 173.58 35.0342 172.96C35.2128 172.531 35.44 172.132 35.7158 171.762C35.9917 171.391 36.3253 171.132 36.7167 170.983C37.0996 170.813 37.5568 170.839 38.0884 171.061C38.2213 171.116 38.3683 171.221 38.5295 171.375C38.6821 171.508 38.794 171.676 38.8653 171.879C38.9366 172.082 38.92 172.309 38.8152 172.56C38.7167 172.797 38.5493 172.969 38.3129 173.079C38.0618 173.182 37.7959 173.175 37.5154 173.058C37.2496 172.947 37.0201 172.791 36.8269 172.589C36.6252 172.366 36.4462 172.11 36.29 171.819C35.9957 172.026 35.7532 172.358 35.5622 172.816C35.3343 173.362 35.328 173.897 35.5432 174.42C35.7584 174.943 36.1983 175.343 36.8628 175.621C37.2024 175.762 37.5267 175.837 37.8356 175.844C38.1298 175.846 38.4572 175.809 38.8178 175.734C39.1846 175.644 39.6406 175.548 40.1859 175.446C40.901 175.311 41.5694 175.226 42.1909 175.19C42.8125 175.155 43.4112 175.257 43.9871 175.498C44.6664 175.781 45.1979 176.211 45.5817 176.787C45.9569 177.342 46.1721 177.969 46.2272 178.668C46.2824 179.367 46.1652 180.064 45.8757 180.758C45.6663 181.26 45.3923 181.709 45.0537 182.105C44.7151 182.502 44.3291 182.783 43.8958 182.949C43.4539 183.094 42.9672 183.055 42.4356 182.834C42.2288 182.747 42.0424 182.592 41.8764 182.366C41.6894 182.15 41.6636 181.879 41.7991 181.554C41.9469 181.2 42.1993 181.01 42.5562 180.986C42.8984 180.955 43.2467 181.014 43.6011 181.161C43.8374 181.26 44.0422 181.371 44.2157 181.496C44.3806 181.599 44.5381 181.7 44.6883 181.797Z" fill="#D1A080"/>
<path d="M42.5275 157.727C42.3025 158.187 42.2713 158.724 42.434 159.338C42.5894 159.931 42.8953 160.561 43.3519 161.23C43.8011 161.877 44.3469 162.528 44.9894 163.18C45.6389 163.819 46.3452 164.414 47.1085 164.965C47.8717 165.517 48.6342 165.979 49.3959 166.352C50.0426 166.668 50.5661 166.8 50.9664 166.746C51.3737 166.678 51.6758 166.443 51.8727 166.041C52.0977 165.581 52.1325 165.055 51.9772 164.462C51.8145 163.848 51.512 163.21 51.0699 162.548C50.6133 161.88 50.0603 161.226 49.4108 160.588C48.7613 159.949 48.0621 159.358 47.3132 158.813C46.55 158.262 45.7804 157.796 45.0043 157.416C44.3432 157.093 43.8197 156.961 43.4338 157.022C43.0335 157.075 42.7314 157.311 42.5275 157.727ZM47.4108 167.678C46.7785 167.369 46.1308 166.945 45.4679 166.407C44.8049 165.869 44.1914 165.248 43.6272 164.544C43.063 163.841 42.5987 163.097 42.2341 162.313C41.8767 161.515 41.68 160.697 41.6442 159.86C41.594 159.016 41.7658 158.192 42.1596 157.387C42.5956 156.496 43.224 155.922 44.0447 155.664C44.858 155.385 45.8396 155.527 46.9893 156.09C47.6217 156.399 48.2693 156.823 48.9323 157.361C49.5952 157.899 50.2088 158.52 50.773 159.224C51.3371 159.927 51.798 160.678 52.1555 161.477C52.52 162.261 52.7273 163.075 52.7775 163.918C52.8133 164.755 52.6343 165.576 52.2405 166.381C51.8045 167.272 51.1727 167.854 50.3449 168.125C49.5242 168.383 48.5462 168.234 47.4108 167.678Z" fill="#D1A080"/>
<path d="M59.1257 152.128L58.0635 153.926L50.6645 146.208C50.5649 146.094 50.4269 145.966 50.2503 145.824C50.0681 145.661 49.8821 145.551 49.6924 145.495C49.5027 145.438 49.3427 145.52 49.2125 145.741C49.0334 146.044 49.029 146.413 49.1993 146.848C49.3697 147.283 49.7591 147.866 50.3677 148.598L50.9735 149.318L50.7415 149.711L49.5384 148.303C49.082 147.754 48.7836 147.253 48.6433 146.798C48.5112 146.33 48.4796 145.912 48.5485 145.543C48.6117 145.153 48.7247 144.821 48.8875 144.545C49.1317 144.132 49.4031 143.893 49.7018 143.828C49.9867 143.754 50.2847 143.8 50.5959 143.966C50.9014 144.109 51.1992 144.313 51.4891 144.577C51.779 144.841 52.051 145.104 52.3052 145.366L59.1257 152.128ZM54.068 141.25C53.8357 140.983 53.5969 140.758 53.3514 140.576C53.1141 140.38 52.8884 140.275 52.6743 140.26C52.4545 140.223 52.2673 140.335 52.1126 140.597C51.8847 140.982 51.8735 141.552 52.0789 142.305C52.2786 143.036 52.663 143.895 53.2322 144.882C53.7957 145.847 54.512 146.884 55.3811 147.992C56.2364 149.092 57.2029 150.193 58.2805 151.294L55.3774 148.659C54.0988 147.048 53.1402 145.683 52.5015 144.562C51.8629 143.441 51.4997 142.483 51.412 141.688C51.3325 140.879 51.4799 140.158 51.8543 139.524C52.1148 139.083 52.4053 138.828 52.7259 138.757C53.0408 138.664 53.3689 138.691 53.7102 138.837C54.0514 138.983 54.3808 139.196 54.6982 139.476C55.0238 139.743 55.3275 140.015 55.6093 140.293L62.1536 147.004L61.0548 148.863L54.068 141.25ZM57.1204 136.085C56.7747 135.695 56.4228 135.394 56.0647 135.182C55.6928 134.962 55.4173 135.004 55.2382 135.307C54.994 135.72 54.9787 136.297 55.1922 137.036C55.4057 137.776 55.8177 138.651 56.4282 139.662C57.0249 140.665 57.7801 141.762 58.6936 142.952C59.6015 144.12 60.6415 145.348 61.8136 146.636L59.4497 144.598C58.3345 143.214 57.4153 142.002 56.6921 140.961C55.9552 139.912 55.407 138.984 55.0476 138.177C54.6882 137.37 54.5091 136.651 54.5103 136.02C54.4978 135.381 54.6543 134.786 54.9799 134.235C55.3218 133.656 55.719 133.361 56.1717 133.35C56.6244 133.339 57.0796 133.496 57.5373 133.822C57.9894 134.127 58.4048 134.493 58.7837 134.921L63.6328 140.49C63.9784 140.88 64.2736 141.12 64.5184 141.209C64.7495 141.29 64.9464 141.192 65.1092 140.917C65.2638 140.655 65.2698 140.315 65.127 139.896C64.9924 139.463 64.5973 138.858 63.9417 138.08L63.3359 137.36L63.5679 136.967L64.771 138.375C65.2356 138.91 65.534 139.412 65.6661 139.88C65.8064 140.334 65.838 140.753 65.761 141.135C65.7059 141.511 65.5929 141.844 65.422 142.133C65.2185 142.477 65.0006 142.72 64.7683 142.862C64.5579 142.998 64.3375 143.072 64.1071 143.084C63.7477 143.095 63.3914 142.959 63.0383 142.676C62.6714 142.385 62.2819 142.006 61.8699 141.54L57.1204 136.085Z" fill="#D1A080"/>
<path d="M67.2208 128.751C67.4853 127.843 67.7059 127.011 67.8827 126.256C68.0555 125.478 68.1281 124.816 68.1004 124.27C68.0504 123.532 67.8529 122.837 67.508 122.186C67.1631 121.535 66.6695 120.984 66.0271 120.535C65.6469 120.269 65.386 120.125 65.2444 120.104C65.1029 120.083 64.9954 120.125 64.922 120.23C64.6927 120.558 64.5893 121.013 64.6117 121.595C64.6342 122.177 64.7726 122.83 65.0271 123.555C65.2685 124.271 65.6003 125.01 66.0226 125.775C66.454 126.525 66.9726 127.25 67.5784 127.947C68.1711 128.635 68.8279 129.231 69.549 129.735C70.2176 130.203 70.7898 130.418 71.2656 130.38C71.7283 130.333 72.1018 130.106 72.3861 129.699C72.7163 129.227 72.9206 128.628 72.9991 127.902C73.0775 127.176 72.9239 126.307 72.5383 125.295L72.9157 125.09C73.1741 125.642 73.3643 126.263 73.4864 126.954C73.6085 127.645 73.6218 128.338 73.5263 129.032C73.4269 129.705 73.18 130.323 72.7856 130.887C72.4187 131.411 71.9928 131.797 71.5079 132.043C71.023 132.29 70.5039 132.376 69.9508 132.301C69.3845 132.217 68.7998 131.965 68.1967 131.543C67.633 131.148 67.0771 130.603 66.529 129.907C65.9678 129.202 65.4728 128.417 65.0439 127.55C64.6111 126.662 64.2878 125.742 64.0739 124.792C63.8599 123.842 63.8053 122.915 63.9099 122.012C64.0145 121.109 64.3283 120.284 64.851 119.536C65.1354 119.13 65.4853 118.867 65.9008 118.748C66.3123 118.606 66.7344 118.686 67.167 118.989C67.6914 119.356 68.073 119.857 68.3117 120.493C68.5465 121.106 68.6752 121.802 68.6977 122.579C68.7162 123.334 68.6633 124.107 68.539 124.899C68.4147 125.691 68.2603 126.442 68.0756 127.152C67.891 127.863 67.7129 128.48 67.5413 129.005L67.2208 128.751Z" fill="#D1A080"/>
<path d="M77.3837 97.0852C77.1203 96.7535 76.9827 96.3611 76.9711 95.9082C76.9698 95.4431 77.0995 95.0588 77.3602 94.7554C77.6312 94.4398 77.9551 94.2961 78.3316 94.3243C78.7186 94.3403 79.0438 94.5142 79.3072 94.846C79.5707 95.1777 79.703 95.5761 79.7043 96.0412C79.7159 96.4942 79.5862 96.8785 79.3152 97.194C79.0545 97.4975 78.7307 97.6412 78.3437 97.6251C77.9672 97.597 77.6472 97.417 77.3837 97.0852ZM81.7598 101.825C81.2263 100.924 80.7771 100.686 80.4122 101.11C80.1724 101.39 80.1104 101.769 80.2261 102.248C80.3419 102.727 80.6111 103.359 81.0337 104.144L81.4884 104.977L81.1912 105.323L80.2688 103.708C79.9155 103.088 79.7147 102.536 79.6667 102.052C79.6186 101.568 79.6659 101.144 79.8086 100.782C79.9496 100.397 80.1243 100.083 80.3328 99.8399C80.6664 99.4515 80.9903 99.2341 81.3045 99.1876C81.6186 99.141 81.9188 99.209 82.205 99.3916C82.4911 99.5741 82.7598 99.826 83.0111 100.147C83.2503 100.458 83.4678 100.782 83.6635 101.119L87.5065 107.805C87.7542 108.229 87.9969 108.511 88.2345 108.652C88.4704 108.77 88.6874 108.714 88.8855 108.484C89.094 108.241 89.1586 107.896 89.0792 107.448C88.9998 107 88.7229 106.34 88.2483 105.469L87.7936 104.635L88.0907 104.289L89.0131 105.904C89.3405 106.481 89.5396 107.01 89.6102 107.493C89.6687 107.965 89.6327 108.387 89.5021 108.76C89.3837 109.144 89.2046 109.475 88.9648 109.754C88.5165 110.276 88.0928 110.524 87.6937 110.497C87.2946 110.471 86.9217 110.267 86.575 109.884C86.2283 109.502 85.9042 109.045 85.6028 108.511L81.7598 101.825Z" fill="#D1A080"/>
<path d="M97.5097 99.6424L96.0568 101.142L90.6663 91.9091C90.573 91.7295 90.457 91.5503 90.3184 91.3715C90.1794 91.17 90.0302 91.0366 89.8708 90.9712C89.6998 90.8947 89.5253 90.9484 89.3472 91.1322C89.1022 91.385 89.0115 91.7316 89.075 92.1719C89.1271 92.601 89.3752 93.2647 89.8194 94.1629L90.24 95.0049L89.9227 95.3324L89.0819 93.6823C88.6029 92.7281 88.4267 91.9558 88.5531 91.3654C88.6907 90.7636 88.9376 90.2788 89.2939 89.911C89.6279 89.5663 89.942 89.3916 90.2361 89.387C90.5414 89.3708 90.8202 89.4739 91.0727 89.6962C91.3247 89.8959 91.5666 90.1637 91.7982 90.4995C92.0294 90.8126 92.2496 91.1373 92.4585 91.4734L97.5097 99.6424ZM94.6927 95.3758C94.0482 93.9716 93.5592 92.7403 93.2256 91.682C92.8921 90.6236 92.6908 89.7046 92.622 88.925C92.5416 88.1342 92.5931 87.4601 92.7767 86.9028C92.9599 86.3228 93.2519 85.826 93.6527 85.4123C94.176 84.8722 94.6644 84.6325 95.118 84.6933C95.5712 84.7314 95.9877 84.9567 96.3676 85.3694C96.7361 85.7709 97.0661 86.2466 97.3576 86.7964L100.771 93.3449C100.981 93.7489 101.195 94.0454 101.413 94.2343C101.63 94.4006 101.862 94.3573 102.107 94.1045C102.318 93.8862 102.404 93.5567 102.363 93.116C102.333 92.6639 102.09 91.9832 101.634 91.0739L101.214 90.2319L101.531 89.9044L102.372 91.5544C102.699 92.1829 102.872 92.7403 102.891 93.2265C102.921 93.7013 102.854 94.1153 102.689 94.4687C102.548 94.8217 102.36 95.1189 102.127 95.3602C101.859 95.636 101.591 95.8212 101.321 95.916C101.062 95.9993 100.813 96.0146 100.575 95.9618C100.245 95.8878 99.9362 95.6663 99.6475 95.2975C99.3588 94.9287 99.0801 94.4805 98.8116 93.9529L95.4684 87.5391C95.3632 87.3258 95.2182 87.0961 95.0332 86.8501C94.8479 86.5815 94.6413 86.3924 94.4133 86.2829C94.1737 86.1622 93.9204 86.2397 93.6532 86.5155C93.386 86.7913 93.2227 87.2012 93.1634 87.7453C93.1041 88.2893 93.1371 88.9451 93.2624 89.7126C93.3762 90.4689 93.5875 91.3085 93.8962 92.2315C94.1935 93.1433 94.5709 94.1104 95.0283 95.1329C95.4854 96.1327 96.0165 97.1596 96.6215 98.2137L94.6927 95.3758Z" fill="#D1A080"/>
<path d="M111.035 74.0357C110.552 74.1685 110.023 74.2025 109.449 74.1377C108.875 74.073 108.391 73.7866 107.999 73.2784C107.777 72.9833 107.701 72.7073 107.772 72.4505C107.843 72.171 107.957 71.9618 108.111 71.8228C108.528 71.4486 109.027 71.43 109.61 71.7671C110.182 72.0923 110.757 72.6612 111.337 73.474C111.884 74.2511 112.367 75.0757 112.785 75.9478C113.203 76.8199 113.524 77.7038 113.748 78.5996C113.984 79.4846 114.095 80.363 114.083 81.2347C114.07 82.1064 113.913 82.9251 113.611 83.6907C113.299 84.4444 112.81 85.1207 112.143 85.7195C111.607 86.2007 111.089 86.4731 110.587 86.5369C110.086 86.5781 109.626 86.4855 109.208 86.2592C108.779 86.0209 108.416 85.7126 108.119 85.3341C107.568 84.6248 107.128 83.7289 106.801 82.6464C106.475 81.5413 106.257 80.3286 106.146 79.0084C106.037 77.6657 106.043 76.2724 106.166 74.8288C106.04 75.0713 105.928 75.3542 105.832 75.6776C105.724 75.9891 105.628 76.3012 105.543 76.6139C105.448 76.9147 105.348 77.1983 105.243 77.4646C105.127 77.719 104.986 77.921 104.82 78.0707C104.594 78.2739 104.333 78.3789 104.038 78.3858C103.744 78.37 103.496 78.4531 103.294 78.6348C103.104 78.8059 103.018 79.0336 103.036 79.3179C103.056 79.5795 103.182 79.9828 103.414 80.5277L103.811 81.3647L103.471 81.6694L102.693 80.0133C102.254 79.1174 102.071 78.4108 102.144 77.8935C102.229 77.3655 102.426 76.9626 102.736 76.6845C102.962 76.4814 103.206 76.3698 103.467 76.3498C103.729 76.3298 103.991 76.3098 104.252 76.2899C104.515 76.2473 104.76 76.1244 104.986 75.9212C105.271 75.6646 105.502 75.3824 105.677 75.0745C105.853 74.744 105.957 74.3927 105.988 74.0205L105.862 73.5209L106.397 73.3626C106.445 74.3735 106.541 75.3417 106.684 76.2671C106.839 77.1817 107.047 78.0596 107.308 78.9007C107.58 79.731 107.906 80.5245 108.285 81.2813C108.675 82.0273 109.124 82.7424 109.631 83.4267C110.204 84.1598 110.695 84.611 111.106 84.7802C111.528 84.9388 111.87 84.9004 112.131 84.6652C112.691 84.1626 113.075 83.5487 113.284 82.8234C113.492 82.0982 113.562 81.3258 113.493 80.5063C113.435 79.6762 113.281 78.8578 113.029 78.0513C112.779 77.2221 112.474 76.4637 112.114 75.776C111.767 75.0775 111.407 74.4975 111.035 74.0357Z" fill="#D1A080"/>
<path d="M120.2 71.1398C120.715 70.346 121.165 69.613 121.552 68.9409C121.941 68.2462 122.202 67.6332 122.332 67.1018C122.497 66.3807 122.508 65.6586 122.365 64.9355C122.222 64.2124 121.908 63.5432 121.422 62.9278C121.135 62.5636 120.926 62.3511 120.797 62.2903C120.667 62.2295 120.552 62.2388 120.452 62.3181C120.138 62.5659 119.908 62.9717 119.762 63.5355C119.616 64.0993 119.56 64.7649 119.595 65.5323C119.62 66.2871 119.725 67.0911 119.909 67.9444C120.106 68.7878 120.394 69.6305 120.774 70.4726C121.143 71.3021 121.601 72.0622 122.146 72.7529C122.652 73.3934 123.138 73.7639 123.604 73.8643C124.061 73.9523 124.484 73.8425 124.873 73.5352C125.325 73.1783 125.694 72.6634 125.978 71.9906C126.262 71.3177 126.365 70.4413 126.287 69.3613L126.708 69.2741C126.796 69.8769 126.799 70.5266 126.717 71.2232C126.635 71.9199 126.449 72.5871 126.157 73.2249C125.868 73.8403 125.454 74.3611 124.914 74.7874C124.412 75.184 123.893 75.4305 123.357 75.527C122.822 75.6235 122.3 75.5564 121.792 75.3257C121.274 75.0824 120.787 74.672 120.331 74.0943C119.904 73.5543 119.529 72.8722 119.204 72.0479C118.87 71.2112 118.622 70.3162 118.461 69.3631C118.302 68.3876 118.257 67.414 118.326 66.4424C118.395 65.4708 118.609 64.5676 118.97 63.7328C119.33 62.898 119.868 62.1981 120.584 61.633C120.973 61.3257 121.384 61.1746 121.816 61.1799C122.251 61.1628 122.632 61.3614 122.959 61.7758C123.356 62.2781 123.577 62.868 123.622 63.5455C123.671 64.2005 123.594 64.9035 123.391 65.6543C123.192 66.3827 122.918 67.1081 122.571 67.8305C122.224 68.5529 121.86 69.2277 121.479 69.8549C121.097 70.4822 120.749 71.0222 120.434 71.4749L120.2 71.1398Z" fill="#D1A080"/>
<path d="M135.437 65.8947C135.578 65.8738 135.722 65.8417 135.867 65.7986C136.017 65.7331 136.216 65.6133 136.465 65.4391C137.042 65.0356 137.395 64.5351 137.524 63.9374C137.656 63.3175 137.493 62.6797 137.035 62.0241C136.751 61.6176 136.392 61.2727 135.96 60.9894C135.532 60.6838 134.944 60.4017 134.197 60.1431C133.602 59.9344 133.015 59.7099 132.437 59.4698C131.85 59.2165 131.346 58.7883 130.924 58.1851C130.53 57.6213 130.328 57.0399 130.319 56.4408C130.301 55.8287 130.439 55.2442 130.733 54.6872C131.04 54.1211 131.469 53.6455 132.02 53.2604C132.4 52.9945 132.806 52.7791 133.237 52.6142C133.668 52.4492 134.089 52.4088 134.499 52.4929C134.914 52.5547 135.286 52.8216 135.616 53.2937C135.698 53.4117 135.766 53.5788 135.82 53.7952C135.878 53.9892 135.882 54.191 135.834 54.4007C135.785 54.6104 135.649 54.7932 135.426 54.9491C135.216 55.0958 134.982 55.152 134.724 55.1178C134.457 55.0705 134.236 54.9223 134.062 54.6732C133.897 54.4371 133.787 54.1821 133.732 53.9082C133.681 53.6119 133.667 53.2993 133.691 52.9703C133.332 52.9871 132.949 53.1377 132.543 53.4219C132.058 53.7612 131.766 54.2093 131.667 54.7663C131.569 55.3234 131.726 55.8969 132.138 56.487C132.349 56.7885 132.583 57.0252 132.84 57.1971C133.087 57.3558 133.383 57.5001 133.728 57.6301C134.086 57.7509 134.522 57.9143 135.037 58.1203C135.714 58.3894 136.324 58.6754 136.867 58.9785C137.411 59.2815 137.862 59.6887 138.22 60.2001C138.641 60.8033 138.86 61.4509 138.875 62.143C138.895 62.8128 138.74 63.4576 138.412 64.0775C138.084 64.6973 137.612 65.2227 136.996 65.6536C136.55 65.9654 136.078 66.1978 135.58 66.3509C135.082 66.504 134.605 66.5346 134.15 66.4426C133.7 66.3283 133.309 66.0352 132.979 65.5632C132.851 65.3796 132.777 65.1482 132.757 64.869C132.715 64.5858 132.839 64.3434 133.127 64.1417C133.442 63.9216 133.757 63.8969 134.071 64.0675C134.376 64.2249 134.639 64.461 134.859 64.7757C135.006 64.9855 135.119 65.1893 135.199 65.3873C135.283 65.563 135.362 65.7321 135.437 65.8947Z" fill="#D1A080"/>
<path d="M147.832 43.4078L148.024 43.8535L141.684 47.7926L141.533 47.3215L147.832 43.4078ZM148.087 55.3704C148.244 55.8949 148.473 56.2042 148.777 56.2983C149.085 56.3703 149.389 56.3135 149.688 56.1277C149.987 55.9419 150.206 55.6271 150.344 55.1831C150.497 54.7307 150.46 53.9903 150.236 52.9619L150.027 51.9895L150.415 51.7489L150.784 53.2992C151.034 54.3683 151.023 55.2137 150.75 55.8354C150.49 56.4487 150.048 56.9495 149.423 57.3379C148.866 57.6841 148.366 57.8346 147.923 57.7893C147.486 57.722 147.105 57.4878 146.78 57.0867C146.456 56.6856 146.202 56.1557 146.019 55.4972L142.339 42.5257C142.657 42.3094 142.959 42.0838 143.247 41.8489C143.547 41.6054 143.797 41.3559 143.996 41.1004L148.087 55.3704Z" fill="#D1A080"/>
<path d="M160.931 50.0091L159.082 50.9786L156.851 40.5227C156.827 40.3729 156.777 40.1913 156.701 39.9781C156.632 39.7432 156.532 39.5519 156.4 39.4042C156.269 39.2564 156.09 39.242 155.863 39.3609C155.551 39.5243 155.353 39.8359 155.269 40.2955C155.185 40.7552 155.209 41.4561 155.342 42.3982L155.478 43.3296L155.074 43.5413L154.792 41.711C154.692 41.0044 154.702 40.421 154.822 39.9606C154.956 39.4928 155.15 39.1205 155.402 38.8437C155.661 38.5453 155.932 38.3218 156.216 38.1732C156.641 37.9503 156.997 37.8898 157.286 37.9916C157.566 38.0792 157.796 38.2752 157.973 38.5795C158.158 38.8622 158.304 39.1922 158.411 39.5694C158.519 39.9466 158.611 40.3134 158.69 40.6697L160.931 50.0091ZM162.355 38.0978C162.298 37.7483 162.213 37.4314 162.1 37.1473C162.002 36.8558 161.865 36.6473 161.691 36.5218C161.524 36.3748 161.305 36.3718 161.036 36.513C160.639 36.721 160.33 37.1993 160.108 37.9479C159.893 38.6749 159.768 39.6077 159.733 40.7463C159.704 41.8633 159.768 43.1216 159.924 44.5214C160.072 45.9069 160.314 47.3515 160.651 48.8551L159.569 45.0864C159.33 43.0442 159.233 41.3785 159.28 40.0894C159.327 38.8003 159.522 37.7946 159.866 37.0723C160.224 36.3426 160.729 35.8068 161.381 35.465C161.834 35.2273 162.216 35.1627 162.526 35.2712C162.842 35.3581 163.107 35.5534 163.321 35.8571C163.534 36.1607 163.702 36.5153 163.824 36.9209C163.961 37.319 164.076 37.7104 164.169 38.0951L166.202 47.2452L164.289 48.2482L162.355 38.0978ZM167.669 35.3117C167.58 34.7981 167.439 34.3571 167.246 33.9886C167.045 33.6061 166.789 33.4965 166.477 33.6599C166.052 33.8828 165.736 34.3648 165.528 35.106C165.321 35.8471 165.21 36.8083 165.197 37.9894C165.177 39.1563 165.242 40.4862 165.392 41.9791C165.55 43.4504 165.788 45.0417 166.107 46.7532L165.169 43.7762C164.949 42.0127 164.806 40.4982 164.738 39.2328C164.664 37.9532 164.686 36.8756 164.805 36.0002C164.924 35.1248 165.15 34.4191 165.483 33.8831C165.809 33.3329 166.255 32.9092 166.822 32.612C167.417 32.2999 167.91 32.2582 168.301 32.4869C168.692 32.7155 168.996 33.089 169.214 33.6072C169.438 34.1039 169.599 34.6339 169.695 35.1975L170.888 42.4851C170.976 42.9987 171.101 43.3577 171.263 43.5621C171.417 43.7524 171.635 43.7732 171.919 43.6246C172.188 43.4834 172.372 43.1972 172.471 42.7659C172.584 42.3272 172.567 41.6047 172.419 40.5984L172.283 39.6671L172.687 39.4553L172.969 41.2856C173.082 41.9848 173.072 42.5682 172.938 43.036C172.818 43.4964 172.625 43.8687 172.358 44.1529C172.114 44.4439 171.842 44.6674 171.545 44.8234C171.19 45.0092 170.877 45.1011 170.605 45.0992C170.355 45.104 170.129 45.0511 169.926 44.9405C169.615 44.7604 169.383 44.4571 169.232 44.0306C169.073 43.59 168.942 43.0629 168.837 42.4495L167.669 35.3117Z" fill="#D1A080"/>
<path d="M180.116 34.3909C180.819 33.7577 181.445 33.1665 181.992 32.6175C182.548 32.0474 182.958 31.5228 183.222 31.0434C183.568 30.3896 183.766 29.695 183.815 28.9596C183.865 28.2242 183.735 27.4964 183.425 26.7762C183.242 26.35 183.095 26.0907 182.986 25.9984C182.877 25.9061 182.763 25.8852 182.646 25.9358C182.278 26.0938 181.951 26.4262 181.664 26.9329C181.376 27.4395 181.15 28.068 180.985 28.8182C180.814 29.5538 180.707 30.3575 180.664 31.2294C180.635 32.095 180.695 32.9836 180.844 33.8952C180.985 34.7922 181.23 35.6448 181.578 36.4532C181.9 37.2028 182.274 37.6866 182.698 37.9046C183.117 38.1078 183.554 38.1115 184.009 37.9155C184.539 37.688 185.028 37.2861 185.476 36.7099C185.925 36.1336 186.252 35.3139 186.457 34.2506L186.885 34.2752C186.814 34.8804 186.649 35.5088 186.39 36.1604C186.13 36.812 185.777 37.408 185.33 37.9485C184.891 38.468 184.356 38.8637 183.724 39.1355C183.136 39.3883 182.571 39.492 182.029 39.4464C181.487 39.4009 181 39.2009 180.569 38.8464C180.132 38.4772 179.768 37.9545 179.477 37.2784C179.205 36.6463 179.019 35.8903 178.919 35.0101C178.813 34.1153 178.806 33.1867 178.897 32.2243C178.997 31.241 179.206 30.289 179.524 29.3684C179.842 28.4478 180.283 27.6311 180.847 26.9181C181.412 26.2052 182.113 25.6686 182.95 25.3083C183.406 25.1123 183.842 25.0729 184.258 25.19C184.683 25.2861 184.999 25.5767 185.208 26.0618C185.461 26.6497 185.521 27.2767 185.39 27.9429C185.267 28.588 185.01 29.247 184.62 29.9198C184.239 30.5715 183.787 31.2013 183.264 31.8091C182.742 32.417 182.215 32.9744 181.684 33.4814C181.154 33.9883 180.677 34.4196 180.255 34.7752L180.116 34.3909Z" fill="#D1A080"/>
<path d="M197.703 33.0836L195.735 33.7811L195.009 23.1145C195.006 22.9122 194.981 22.7001 194.937 22.4783C194.902 22.236 194.827 22.0502 194.714 21.9208C194.595 21.7762 194.414 21.7468 194.173 21.8323C193.841 21.9499 193.606 22.22 193.467 22.6426C193.323 23.0502 193.25 23.755 193.249 24.757L193.252 25.6982L192.822 25.8506L192.802 23.9988C192.797 22.9311 192.982 22.1609 193.358 21.6883C193.749 21.2102 194.186 20.8857 194.668 20.7147C195.121 20.5543 195.48 20.5374 195.745 20.664C196.026 20.7852 196.23 21.0015 196.357 21.3128C196.494 21.6038 196.592 21.9511 196.65 22.3548C196.718 22.7382 196.771 23.1268 196.809 23.5208L197.703 33.0836ZM197.075 28.0095C197.122 26.4652 197.231 25.1449 197.403 24.0485C197.575 22.9522 197.803 22.0396 198.088 21.3105C198.367 20.5664 198.713 19.9855 199.125 19.5678C199.547 19.1297 200.029 18.8144 200.572 18.622C201.281 18.3708 201.825 18.3732 202.204 18.6292C202.593 18.8647 202.866 19.2518 203.023 19.7903C203.175 20.3137 203.259 20.8865 203.276 21.5086L203.423 28.8917C203.431 29.347 203.491 29.7077 203.603 29.9738C203.724 30.2195 203.95 30.2835 204.282 30.1659C204.568 30.0644 204.791 29.8071 204.951 29.3942C205.125 28.976 205.21 28.2583 205.206 27.2412L205.203 26.3L205.633 26.1477L205.653 27.9994C205.666 28.7077 205.573 29.2838 205.374 29.7278C205.19 30.1665 204.946 30.5076 204.642 30.7512C204.358 31.0045 204.058 31.1873 203.742 31.2996C203.38 31.4279 203.057 31.4744 202.773 31.4393C202.504 31.3989 202.274 31.302 202.084 31.1487C201.822 30.936 201.643 30.6003 201.549 30.1416C201.454 29.6829 201.404 29.1576 201.398 28.5656L201.253 21.3343C201.254 21.0964 201.226 20.8262 201.17 20.5236C201.123 20.2006 201.022 19.9394 200.867 19.7399C200.706 19.5253 200.444 19.4822 200.082 19.6105C199.72 19.7388 199.392 20.0334 199.097 20.4944C198.802 20.9554 198.54 21.5575 198.311 22.3007C198.077 23.0288 197.893 23.8748 197.76 24.8389C197.621 25.7878 197.529 26.8219 197.484 27.9411C197.449 29.0399 197.468 30.1959 197.542 31.409L197.075 28.0095Z" fill="#D1A080"/>
<path d="M217.972 13.6641L218.035 14.1453L210.86 16.1997L210.843 15.7052L217.972 13.6641ZM214.946 25.2402C214.953 25.7875 215.089 26.1478 215.355 26.3213C215.632 26.475 215.94 26.5034 216.278 26.4065C216.617 26.3097 216.913 26.0666 217.168 25.6775C217.438 25.284 217.606 24.5619 217.671 23.5113L217.737 22.519L218.175 22.3935L218.107 23.9858C218.054 25.0825 217.812 25.8925 217.379 26.4158C216.962 26.9347 216.4 27.2955 215.692 27.4981C215.061 27.6786 214.539 27.6866 214.126 27.522C213.724 27.3376 213.421 27.0081 213.219 26.5335C213.017 26.0589 212.917 25.4798 212.921 24.7963L212.931 11.313C213.295 11.1919 213.648 11.0576 213.989 10.9102C214.344 10.7584 214.653 10.5868 214.915 10.3954L214.946 25.2402Z" fill="#D1A080"/>
</svg>
