<svg width="243" height="370" viewBox="0 0 243 370" fill="none" xmlns="http://www.w3.org/2000/svg">
<path d="M19.3246 330.718C19.6525 330.55 19.9457 330.527 20.2042 330.646C20.4628 330.766 20.6647 330.968 20.81 331.253C20.9771 331.581 21.0299 331.932 20.9683 332.304C20.9138 332.655 20.7876 332.989 20.5897 333.305C20.3495 333.715 19.977 334.129 19.4722 334.548C18.9744 334.946 18.3406 335.34 17.5708 335.733C16.9721 336.038 16.3588 336.315 15.731 336.563C15.1102 336.789 14.4929 337.005 13.8791 337.21C13.2653 337.415 12.6659 337.631 12.0809 337.857C11.4886 338.069 10.9216 338.314 10.3799 338.59C9.93801 338.815 9.49274 339.069 9.04411 339.351C8.60974 339.627 8.31847 339.901 8.1703 340.174C8.357 340.258 8.54774 340.403 8.74253 340.609C8.93005 340.801 9.07831 341.004 9.18729 341.218C9.3326 341.503 9.38874 341.824 9.35572 342.183C9.3227 342.541 9.12087 342.814 8.75024 343.003C8.43662 343.163 8.15055 343.183 7.89202 343.063C7.6335 342.944 7.42432 342.727 7.26448 342.413C7.11917 342.128 7.04863 341.796 7.05287 341.417C7.04983 341.023 7.21478 340.607 7.54772 340.168C7.79567 339.844 8.0868 339.552 8.42111 339.292C8.76968 339.024 9.10426 338.8 9.42487 338.618C9.75973 338.43 10.0056 338.296 10.1624 338.216C11.0177 337.78 11.8485 337.419 12.6549 337.134C13.4613 336.849 14.2606 336.567 15.0527 336.289C15.8591 336.004 16.6757 335.65 17.5025 335.229C18.1583 334.895 18.6889 334.579 19.0945 334.283C19.5071 333.965 19.8407 333.615 20.0954 333.234L20.1503 333.395C19.9351 333.325 19.7017 333.219 19.4502 333.078C19.2056 332.915 19.0143 332.698 18.8763 332.428C18.731 332.142 18.6821 331.835 18.7296 331.506C18.7699 331.162 18.9683 330.899 19.3246 330.718ZM13.2138 337.226C13.2138 337.226 13.2816 337.201 13.4171 337.149C13.5527 337.098 13.7204 337.04 13.9202 336.974C14.1344 336.901 14.3413 336.831 14.5412 336.765C14.7553 336.692 14.9301 336.63 15.0657 336.579C15.2012 336.527 15.269 336.502 15.269 336.502L18.1973 350.175C18.3308 350.79 18.4881 351.239 18.6692 351.524C18.843 351.795 19.0944 351.918 19.4234 351.894C19.7666 351.863 20.2412 351.702 20.8472 351.411L20.9796 351.882C20.5945 352.042 20.1168 352.268 19.5466 352.558C18.9691 352.835 18.3739 353.129 17.7609 353.442C17.1479 353.754 16.5599 354.063 15.997 354.367C15.441 354.651 14.9993 354.894 14.6717 355.097L14.5392 354.626C15.1234 354.292 15.5504 353.985 15.8201 353.703C16.0969 353.401 16.2553 353.06 16.2953 352.68C16.3423 352.279 16.3134 351.782 16.2086 351.189L13.2138 337.226Z" fill="#D1A080"/>
<path d="M37.7158 342.347C38.046 342.151 38.3018 341.72 38.4832 341.054C38.6565 340.374 38.7509 339.546 38.7664 338.569C38.7819 337.592 38.7059 336.54 38.5382 335.411C38.3706 334.282 38.1069 333.164 37.7471 332.057L38.7195 334.494C39.0625 336.263 39.2381 337.749 39.2462 338.954C39.2462 340.145 39.0963 341.099 38.7966 341.817C38.4888 342.521 38.0597 343.036 37.5094 343.362C36.8627 343.746 36.2355 343.802 35.6276 343.531C35.0334 343.251 34.5199 342.746 34.087 342.017C33.6949 341.357 33.3802 340.576 33.1429 339.675C32.8975 338.76 32.7386 337.803 32.6665 336.804C32.608 335.796 32.6455 334.825 32.7788 333.89C32.9121 332.955 33.1602 332.119 33.523 331.383C33.8997 330.638 34.3976 330.082 35.0167 329.715C35.4982 329.429 36.0057 329.453 36.5393 329.787C37.0784 330.1 37.5255 330.728 37.8806 331.671L37.7271 331.929C37.3905 331.143 36.9952 330.587 36.5412 330.261C36.079 329.921 35.6278 329.882 35.1876 330.143C34.8298 330.356 34.5577 330.759 34.3711 331.354C34.1901 331.927 34.0935 332.626 34.0815 333.452C34.075 334.256 34.1409 335.119 34.2794 336.042C34.4315 336.956 34.655 337.865 34.9499 338.769C35.2504 339.652 35.6171 340.457 36.0501 341.187C36.4013 341.778 36.7082 342.154 36.9709 342.315C37.2474 342.467 37.4956 342.477 37.7158 342.347ZM36.8392 329.023C37.1612 328.814 37.475 328.59 37.7807 328.353C38.0864 328.115 38.3482 327.867 38.5662 327.607L41.4021 338.26C41.4481 338.4 41.5048 338.59 41.5723 338.829C41.6454 339.046 41.7516 339.225 41.8909 339.366C42.0439 339.498 42.2374 339.495 42.4713 339.356C42.7465 339.193 42.9249 338.882 43.0066 338.424C43.0883 337.966 43.023 337.261 42.8106 336.308L42.6049 335.397L42.997 335.164L43.3755 336.977C43.5096 337.642 43.533 338.214 43.4457 338.694C43.364 339.152 43.2155 339.528 43.0001 339.824C42.7929 340.133 42.5517 340.369 42.2765 340.532C41.7399 340.851 41.2554 340.897 40.8229 340.67C40.4562 340.459 40.1916 340.123 40.0291 339.662C39.8584 339.186 39.7015 338.702 39.5584 338.211L36.8392 329.023Z" fill="#D1A080"/>
<path d="M55.4275 317.671C55.0835 317.904 54.8594 318.414 54.7555 319.201C54.6558 319.965 54.6643 320.917 54.7809 322.056C54.9018 323.174 55.1145 324.383 55.419 325.685C55.7367 326.978 56.1409 328.27 56.6317 329.562L55.5321 327.175C54.923 325.055 54.5279 323.292 54.3467 321.887C54.1566 320.469 54.1643 319.341 54.3699 318.505C54.5887 317.66 54.9892 317.04 55.5715 316.644C56.1935 316.221 56.8471 316.116 57.5324 316.327C58.2309 316.529 58.8994 317.1 59.538 318.04C59.9427 318.636 60.3018 319.349 60.6154 320.181C60.9423 321.003 61.1786 321.877 61.3244 322.804C61.4835 323.721 61.5271 324.639 61.4554 325.558C61.388 326.455 61.1713 327.289 60.8054 328.06C60.4305 328.818 59.8725 329.449 59.1314 329.952C58.7344 330.222 58.2962 330.346 57.8167 330.324C57.3505 330.292 56.9115 330.088 56.4999 329.71L56.3889 329.205C56.9069 329.568 57.3525 329.769 57.7256 329.805C58.1119 329.833 58.4705 329.734 58.8013 329.509C59.2512 329.204 59.5644 328.739 59.7408 328.116C59.9082 327.48 59.9661 326.754 59.9145 325.938C59.8628 325.122 59.7244 324.278 59.4992 323.406C59.2782 322.511 58.9956 321.668 58.6513 320.877C58.3112 320.063 57.9388 319.359 57.5341 318.763C57.1384 318.181 56.7601 317.81 56.3992 317.649C56.0425 317.465 55.7187 317.473 55.4275 317.671ZM50.1432 316.3C50.4518 316.071 50.7448 315.833 51.0222 315.586C51.3128 315.331 51.559 315.067 51.7607 314.794L57.7675 333.027C57.9865 333.69 58.3222 334.014 58.7747 333.996C59.2272 333.979 59.7512 333.768 60.3467 333.363L60.5108 333.861C60.2372 334.028 59.8465 334.264 59.3389 334.57C58.8535 334.881 58.3396 335.22 57.797 335.589C57.3868 335.868 56.9744 336.158 56.5599 336.459C56.1545 336.773 55.8503 337.009 55.6476 337.166L55.4834 336.668C55.9598 336.344 56.2409 336.018 56.3268 335.689C56.4216 335.373 56.3778 334.938 56.1953 334.385L50.1432 316.3ZM50.1963 325.259C50.3707 324.405 50.5165 323.581 50.6336 322.786C50.7418 321.977 50.7738 321.085 50.7296 320.109C50.6855 319.133 50.5265 317.974 50.2527 316.632L50.5281 316.909C50.8485 318.006 51.0374 319.039 51.0948 320.006C51.1565 320.95 51.138 321.862 51.0393 322.742C50.9316 323.608 50.7819 324.484 50.5901 325.369L50.1963 325.259Z" fill="#D1A080"/>
<path d="M85.2167 294.556L85.4672 294.972L79.7157 299.729L79.5022 299.283L85.2167 294.556ZM87.0816 306.375C87.3071 306.874 87.5765 307.149 87.8898 307.202C88.2052 307.232 88.4985 307.134 88.7697 306.91C89.041 306.686 89.2153 306.344 89.2928 305.886C89.3826 305.417 89.247 304.688 88.886 303.699L88.5483 302.764L88.8997 302.473L89.475 303.96C89.8666 304.985 89.9691 305.825 89.7823 306.477C89.6078 307.12 89.2371 307.676 88.6699 308.145C88.1644 308.563 87.6894 308.78 87.2448 308.794C86.8023 308.787 86.3932 308.606 86.0176 308.252C85.642 307.898 85.3191 307.408 85.0489 306.78L79.6553 294.422C79.941 294.165 80.2103 293.901 80.4633 293.629C80.7286 293.347 80.9427 293.067 81.1055 292.787L87.0816 306.375Z" fill="#D1A080"/>
<path d="M96.7587 284.589C96.3814 284.935 96.1565 285.424 96.084 286.055C96.0124 286.663 96.0672 287.362 96.2483 288.151C96.4304 288.918 96.7015 289.722 97.0615 290.565C97.4333 291.396 97.8739 292.208 98.3832 293C98.8926 293.792 99.4339 294.5 100.007 295.125C100.494 295.656 100.933 295.969 101.326 296.065C101.729 296.151 102.097 296.042 102.427 295.739C102.804 295.393 103.028 294.916 103.1 294.307C103.173 293.676 103.124 292.972 102.953 292.195C102.772 291.405 102.496 290.595 102.124 289.764C101.752 288.932 101.317 288.127 100.818 287.346C100.309 286.554 99.7623 285.84 99.1783 285.203C98.6808 284.661 98.2413 284.348 97.8599 284.263C97.4677 284.167 97.1007 284.276 96.7587 284.589ZM97.675 295.636C97.1991 295.117 96.7507 294.486 96.3298 293.743C95.9089 293 95.5641 292.199 95.2955 291.338C95.0269 290.477 94.8659 289.615 94.8126 288.752C94.771 287.878 94.8862 287.045 95.1582 286.253C95.4194 285.449 95.8801 284.744 96.5404 284.138C97.2714 283.468 98.066 283.162 98.9241 283.222C99.7831 283.259 100.645 283.749 101.51 284.692C101.986 285.211 102.435 285.842 102.856 286.585C103.277 287.328 103.621 288.13 103.89 288.991C104.159 289.852 104.314 290.719 104.355 291.593C104.409 292.456 104.305 293.289 104.043 294.093C103.771 294.886 103.305 295.584 102.645 296.19C101.914 296.861 101.114 297.172 100.244 297.123C99.3856 297.063 98.5294 296.567 97.675 295.636Z" fill="#D1A080"/>
<path d="M123.078 267.975C123.453 267.107 123.775 266.308 124.043 265.581C124.311 264.831 124.465 264.183 124.505 263.637C124.546 262.899 124.436 262.185 124.174 261.496C123.913 260.807 123.491 260.2 122.909 259.675C122.565 259.364 122.323 259.189 122.185 259.151C122.048 259.112 121.936 259.141 121.85 259.236C121.582 259.533 121.423 259.971 121.373 260.552C121.324 261.132 121.38 261.797 121.543 262.548C121.694 263.288 121.932 264.063 122.257 264.874C122.592 265.672 123.017 266.455 123.532 267.221C124.035 267.977 124.614 268.65 125.267 269.24C125.872 269.787 126.414 270.071 126.891 270.092C127.356 270.102 127.754 269.923 128.087 269.555C128.473 269.127 128.749 268.558 128.917 267.847C129.085 267.136 129.04 266.255 128.782 265.203L129.182 265.047C129.37 265.626 129.482 266.266 129.518 266.967C129.554 267.667 129.481 268.356 129.3 269.034C129.119 269.689 128.797 270.272 128.336 270.782C127.907 271.257 127.437 271.587 126.925 271.772C126.414 271.957 125.888 271.978 125.348 271.836C124.797 271.683 124.248 271.359 123.702 270.866C123.191 270.405 122.707 269.795 122.249 269.037C121.779 268.268 121.385 267.427 121.066 266.515C120.747 265.579 120.539 264.627 120.445 263.658C120.35 262.688 120.41 261.762 120.625 260.879C120.841 259.995 121.254 259.215 121.865 258.538C122.198 258.17 122.577 257.953 123.004 257.885C123.43 257.796 123.839 257.928 124.231 258.282C124.706 258.71 125.023 259.255 125.181 259.915C125.338 260.553 125.38 261.259 125.306 262.033C125.232 262.784 125.083 263.545 124.862 264.316C124.641 265.086 124.395 265.812 124.124 266.494C123.853 267.177 123.6 267.767 123.365 268.267L123.078 267.975Z" fill="#D1A080"/>
<path d="M142.528 250.916C142.892 251.127 143.177 251.233 143.382 251.234C143.597 251.222 143.769 251.135 143.9 250.973C144.05 250.786 144.1 250.508 144.049 250.138C143.985 249.758 143.699 249.157 143.189 248.336L142.694 247.536L142.98 247.181L143.968 248.747C144.325 249.323 144.546 249.84 144.629 250.297C144.723 250.743 144.72 251.141 144.621 251.493C144.533 251.833 144.378 252.139 144.157 252.414C143.846 252.8 143.45 253.036 142.97 253.122C142.49 253.207 141.896 253.027 141.188 252.579L133.895 247.937C133.531 247.725 133.242 247.626 133.027 247.637C132.822 247.637 132.654 247.717 132.524 247.879C132.423 248.004 132.361 248.17 132.338 248.377C132.325 248.572 132.388 248.838 132.527 249.176C132.665 249.514 132.901 249.961 133.234 250.517L133.73 251.317L133.444 251.672L132.456 250.106C132.108 249.517 131.887 249 131.794 248.555C131.701 248.11 131.703 247.712 131.802 247.36C131.901 247.008 132.055 246.701 132.266 246.439C132.617 246.003 133.023 245.755 133.483 245.694C133.931 245.623 134.515 245.816 135.235 246.273L142.528 250.916ZM136.523 243.489C136.561 244.156 136.695 244.819 136.925 245.477C137.155 246.135 137.426 246.754 137.739 247.335C138.04 247.906 138.328 248.415 138.603 248.864C138.603 248.864 138.553 248.926 138.453 249.051C138.34 249.165 138.284 249.222 138.284 249.222C138.105 248.934 137.911 248.614 137.702 248.261C137.481 247.898 137.268 247.5 137.062 247.067C136.856 246.634 136.669 246.164 136.501 245.659C136.33 245.131 136.197 244.582 136.101 244.012C135.981 243.32 135.95 242.76 136.006 242.333C136.062 241.906 136.216 241.536 136.467 241.225C136.658 240.988 136.876 240.845 137.121 240.796C137.376 240.735 137.609 240.789 137.821 240.96C138.058 241.15 138.194 241.415 138.231 241.752C138.265 242.067 138.161 242.374 137.92 242.673C137.699 242.947 137.459 243.144 137.198 243.263C136.926 243.372 136.701 243.447 136.523 243.489ZM139.479 255.887C139.415 254.87 139.202 253.846 138.841 252.815C138.48 251.784 138.089 250.905 137.669 250.176C137.669 250.176 137.722 250.136 137.827 250.057C137.942 249.965 138 249.919 138 249.919C138.236 250.314 138.479 250.777 138.73 251.308C138.991 251.826 139.225 252.415 139.432 253.076C139.64 253.736 139.805 254.475 139.927 255.293C140.012 255.978 140.034 256.55 139.992 257.009C139.938 257.459 139.796 257.827 139.565 258.114C139.344 258.388 139.116 258.543 138.881 258.58C138.636 258.629 138.408 258.568 138.196 258.398C137.959 258.207 137.829 257.948 137.805 257.62C137.769 257.283 137.861 256.977 138.082 256.703C138.313 256.416 138.553 256.22 138.803 256.113C139.054 256.007 139.279 255.931 139.479 255.887Z" fill="#D1A080"/>
<path d="M148.766 226.062C148.525 226.401 148.493 226.958 148.671 227.731C148.844 228.482 149.185 229.371 149.692 230.398C150.195 231.402 150.817 232.461 151.557 233.575C152.307 234.676 153.137 235.745 154.048 236.784L152.184 234.932C150.873 233.158 149.887 231.644 149.226 230.391C148.552 229.128 148.166 228.069 148.066 227.214C147.976 226.345 148.135 225.624 148.542 225.05C148.977 224.437 149.553 224.109 150.269 224.068C150.994 224.014 151.82 224.315 152.746 224.973C153.334 225.389 153.919 225.932 154.504 226.602C155.097 227.258 155.624 227.995 156.084 228.812C156.554 229.616 156.915 230.461 157.169 231.347C157.419 232.212 157.508 233.069 157.434 233.919C157.348 234.76 157.045 235.546 156.527 236.277C156.249 236.668 155.881 236.937 155.424 237.084C154.976 237.217 154.494 237.179 153.976 236.968L153.696 236.534C154.308 236.694 154.795 236.726 155.158 236.63C155.529 236.521 155.831 236.303 156.062 235.977C156.377 235.533 156.508 234.989 156.456 234.343C156.391 233.689 156.192 232.988 155.858 232.242C155.525 231.495 155.1 230.752 154.584 230.014C154.065 229.253 153.506 228.562 152.907 227.941C152.304 227.297 151.709 226.767 151.121 226.35C150.547 225.943 150.063 225.727 149.669 225.702C149.27 225.655 148.97 225.775 148.766 226.062ZM143.336 226.623C143.545 226.301 143.736 225.976 143.91 225.648C144.093 225.307 144.231 224.974 144.325 224.648L156.322 239.634C156.759 240.179 157.187 240.365 157.605 240.19C158.023 240.016 158.44 239.635 158.857 239.048L159.184 239.457C158.986 239.709 158.703 240.067 158.334 240.531C157.988 240.992 157.625 241.489 157.245 242.024C156.958 242.429 156.673 242.845 156.39 243.271C156.12 243.708 155.917 244.035 155.782 244.253L155.454 243.844C155.787 243.374 155.937 242.97 155.902 242.631C155.881 242.302 155.688 241.91 155.324 241.456L143.336 226.623ZM146.515 235C146.38 234.139 146.229 233.316 146.061 232.529C145.88 231.734 145.598 230.887 145.216 229.988C144.833 229.089 144.279 228.058 143.554 226.896L143.909 227.06C144.593 227.976 145.13 228.878 145.522 229.764C145.91 230.627 146.211 231.488 146.426 232.347C146.627 233.196 146.793 234.069 146.922 234.965L146.515 235Z" fill="#D1A080"/>
<path d="M168.152 217.871C168.354 217.545 168.383 217.044 168.237 216.37C168.077 215.687 167.779 214.908 167.343 214.034C166.906 213.16 166.353 212.261 165.684 211.337C165.015 210.413 164.266 209.542 163.436 208.725L165.423 210.44C166.542 211.851 167.383 213.089 167.946 214.155C168.495 215.212 168.802 216.127 168.866 216.902C168.918 217.669 168.774 218.324 168.437 218.867C168.04 219.506 167.509 219.845 166.844 219.884C166.188 219.91 165.5 219.699 164.779 219.251C164.127 218.846 163.488 218.298 162.862 217.608C162.222 216.909 161.64 216.133 161.116 215.279C160.599 214.413 160.185 213.533 159.872 212.642C159.56 211.751 159.394 210.895 159.377 210.074C159.368 209.24 159.554 208.517 159.933 207.905C160.229 207.429 160.691 207.217 161.318 207.268C161.941 207.297 162.627 207.648 163.377 208.321L163.36 208.621C162.698 208.078 162.091 207.767 161.538 207.687C160.971 207.599 160.553 207.772 160.283 208.207C160.063 208.56 160.008 209.044 160.116 209.657C160.22 210.249 160.456 210.914 160.826 211.653C161.191 212.369 161.648 213.105 162.196 213.86C162.752 214.601 163.37 215.305 164.048 215.971C164.722 216.616 165.418 217.162 166.139 217.609C166.723 217.972 167.169 218.164 167.476 218.186C167.791 218.193 168.017 218.088 168.152 217.871ZM161.232 206.451C161.421 206.117 161.597 205.774 161.759 205.422C161.92 205.071 162.038 204.73 162.112 204.399L169.539 212.545C169.645 212.648 169.782 212.79 169.953 212.972C170.117 213.13 170.294 213.24 170.483 213.301C170.679 213.348 170.85 213.256 170.993 213.025C171.162 212.753 171.177 212.395 171.039 211.951C170.9 211.507 170.517 210.911 169.889 210.163L169.287 209.45L169.527 209.062L170.699 210.497C171.124 211.025 171.409 211.522 171.553 211.988C171.691 212.432 171.733 212.834 171.678 213.196C171.637 213.566 171.531 213.887 171.362 214.158C171.033 214.688 170.624 214.952 170.136 214.95C169.713 214.933 169.324 214.757 168.967 214.422C168.596 214.078 168.234 213.721 167.88 213.351L161.232 206.451Z" fill="#D1A080"/>
<path d="M180.03 198.91L179.039 200.748L171.345 193.324C171.207 193.176 171.046 193.035 170.864 192.901C170.676 192.745 170.496 192.657 170.325 192.637C170.14 192.61 169.986 192.709 169.865 192.934C169.698 193.244 169.704 193.602 169.885 194.009C170.051 194.407 170.47 194.979 171.142 195.723L171.775 196.419L171.558 196.82L170.301 195.46C169.581 194.672 169.202 193.977 169.164 193.374C169.133 192.757 169.239 192.224 169.482 191.773C169.71 191.351 169.965 191.097 170.247 191.013C170.536 190.915 170.833 190.938 171.136 191.084C171.433 191.208 171.738 191.4 172.052 191.66C172.36 191.899 172.66 192.151 172.952 192.418L180.03 198.91ZM176.161 195.568C175.16 194.391 174.355 193.339 173.747 192.411C173.139 191.483 172.696 190.653 172.418 189.921C172.126 189.182 171.993 188.519 172.018 187.933C172.037 187.325 172.183 186.767 172.457 186.26C172.814 185.599 173.219 185.235 173.672 185.171C174.118 185.085 174.581 185.188 175.058 185.483C175.522 185.769 175.968 186.137 176.398 186.587L181.46 191.964C181.772 192.296 182.058 192.523 182.319 192.646C182.574 192.747 182.785 192.643 182.952 192.333C183.096 192.065 183.089 191.725 182.93 191.312C182.779 190.885 182.361 190.296 181.675 189.544L181.042 188.848L181.258 188.446L182.515 189.806C183 190.323 183.318 190.812 183.468 191.275C183.626 191.724 183.674 192.141 183.612 192.525C183.571 192.903 183.471 193.24 183.312 193.536C183.129 193.874 182.921 194.125 182.687 194.29C182.46 194.44 182.225 194.522 181.981 194.536C181.644 194.554 181.287 194.425 180.909 194.148C180.531 193.872 180.141 193.516 179.739 193.081L174.781 187.815C174.622 187.638 174.42 187.456 174.176 187.27C173.924 187.062 173.674 186.936 173.425 186.892C173.162 186.841 172.939 186.984 172.757 187.322C172.574 187.66 172.528 188.099 172.619 188.639C172.709 189.178 172.919 189.801 173.248 190.505C173.563 191.202 173.994 191.953 174.541 192.758C175.075 193.555 175.701 194.383 176.418 195.243C177.13 196.081 177.919 196.926 178.788 197.776L176.161 195.568Z" fill="#D1A080"/>
<path d="M191.665 171.483C191.953 171.739 192.245 171.927 192.542 172.046C192.832 172.145 193.05 172.034 193.198 171.714C193.331 171.424 193.296 171.081 193.09 170.687C192.87 170.286 192.409 169.756 191.708 169.098L191.022 168.465L191.213 168.051L192.573 169.286C193.074 169.728 193.424 170.171 193.625 170.616C193.81 171.054 193.895 171.463 193.878 171.843C193.861 172.223 193.786 172.558 193.652 172.849C193.25 173.721 192.625 173.987 191.777 173.649C191.538 173.556 191.275 173.418 190.99 173.234C190.712 173.035 190.415 172.801 190.098 172.532L179.755 163.956C179.321 163.598 178.948 163.452 178.635 163.519C178.322 163.587 178.001 163.976 177.673 164.688L177.276 164.346C177.63 163.54 177.875 162.799 178.011 162.122C178.132 161.438 178.182 160.756 178.161 160.077L191.665 171.483ZM190.875 177.039C191.042 176.675 191.019 176.172 190.805 175.527C190.584 174.861 190.217 174.128 189.705 173.328C189.185 172.507 188.55 171.686 187.801 170.865C187.045 170.022 186.218 169.254 185.323 168.559L187.526 169.971C188.761 171.228 189.699 172.347 190.338 173.329C190.985 174.297 191.377 175.165 191.516 175.934C191.647 176.681 191.569 177.368 191.28 177.992C191.073 178.443 190.787 178.795 190.423 179.05C190.051 179.284 189.61 179.398 189.102 179.393C188.593 179.387 188.012 179.234 187.358 178.932C186.661 178.611 185.963 178.157 185.264 177.57C184.558 176.963 183.909 176.267 183.319 175.484C182.729 174.701 182.248 173.872 181.877 172.996C181.498 172.098 181.276 171.203 181.212 170.31C181.148 169.418 181.3 168.572 181.669 167.773C181.823 167.438 182.098 167.186 182.493 167.016C182.874 166.84 183.326 166.854 183.847 167.059L184.203 167.435C183.653 167.252 183.216 167.226 182.89 167.358C182.551 167.483 182.314 167.691 182.18 167.982C181.925 168.534 181.866 169.159 182.003 169.856C182.146 170.539 182.433 171.235 182.864 171.944C183.294 172.654 183.821 173.346 184.443 174.021C185.052 174.689 185.715 175.294 186.434 175.837C187.138 176.373 187.839 176.802 188.536 177.123C189.175 177.418 189.692 177.559 190.085 177.547C190.464 177.528 190.727 177.358 190.875 177.039Z" fill="#D1A080"/>
<path d="M196.419 131.947L196.848 132.174L194.374 139.216L193.96 138.943L196.419 131.947ZM204.112 141.111C204.562 141.422 204.935 141.519 205.231 141.402C205.516 141.265 205.717 141.031 205.834 140.699C205.951 140.366 205.924 139.984 205.754 139.551C205.589 139.103 205.097 138.549 204.278 137.888L203.506 137.26L203.657 136.83L204.917 137.807C205.781 138.484 206.302 139.15 206.478 139.806C206.66 140.446 206.629 141.114 206.385 141.808C206.168 142.427 205.873 142.857 205.499 143.099C205.116 143.321 204.672 143.377 204.168 143.268C203.664 143.158 203.134 142.904 202.579 142.506L191.585 134.7C191.697 134.332 191.791 133.967 191.868 133.604C191.95 133.226 191.989 132.875 191.984 132.551L204.112 141.111Z" fill="#D1A080"/>
<path d="M211.337 126.111L210.75 128.115L196.724 119.053C196.247 118.747 195.856 118.657 195.552 118.785C195.253 118.897 194.993 119.33 194.772 120.082L194.329 119.802C194.561 118.953 194.699 118.168 194.744 117.448C194.773 116.723 194.725 116.033 194.599 115.38L211.337 126.111ZM208.118 124.467C206.676 123.412 205.472 122.458 204.504 121.608C203.54 120.742 202.797 119.949 202.275 119.229C201.737 118.505 201.395 117.821 201.25 117.178C201.105 116.536 201.12 115.915 201.295 115.316C201.507 114.594 201.827 114.155 202.257 113.997C202.676 113.82 203.149 113.825 203.678 114.013C204.206 114.201 204.72 114.469 205.219 114.815L211.289 119.019C211.653 119.259 211.975 119.412 212.255 119.478C212.536 119.543 212.726 119.407 212.825 119.069C212.911 118.778 212.833 118.446 212.591 118.075C212.354 117.689 211.822 117.2 210.996 116.608L210.231 116.058L210.359 115.621L211.872 116.689C212.454 117.093 212.867 117.506 213.11 117.927C213.358 118.333 213.491 118.731 213.511 119.12C213.55 119.498 213.522 119.849 213.428 120.171C213.248 120.785 212.984 121.175 212.635 121.339C212.287 121.504 211.872 121.499 211.389 121.324C210.911 121.134 210.395 120.85 209.839 120.47L203.893 116.352C203.685 116.208 203.437 116.06 203.148 115.909C202.858 115.757 202.593 115.696 202.351 115.725C202.098 115.735 201.918 115.923 201.81 116.292C201.697 116.676 201.752 117.142 201.975 117.691C202.187 118.22 202.548 118.809 203.058 119.459C203.568 120.108 204.21 120.788 204.986 121.499C205.761 122.21 206.649 122.937 207.648 123.68C208.637 124.403 209.724 125.13 210.91 125.861L208.118 124.467Z" fill="#D1A080"/>
<path d="M212.124 102.934C212.031 101.992 211.926 101.138 211.809 100.372C211.68 99.5858 211.501 98.9444 211.271 98.4475C210.95 97.7812 210.508 97.2101 209.946 96.734C209.383 96.2579 208.72 95.931 207.956 95.7531C207.504 95.6479 207.209 95.6119 207.07 95.6452C206.93 95.6785 206.846 95.7575 206.817 95.8821C206.727 96.2717 206.8 96.7323 207.038 97.2641C207.275 97.7959 207.647 98.3507 208.153 98.9286C208.644 99.5028 209.227 100.066 209.903 100.618C210.584 101.154 211.334 101.633 212.156 102.054C212.963 102.472 213.794 102.781 214.651 102.98C215.446 103.165 216.057 103.152 216.484 102.939C216.896 102.723 217.158 102.373 217.271 101.89C217.402 101.329 217.368 100.697 217.17 99.994C216.973 99.2908 216.507 98.5416 215.772 97.7461L216.046 97.4157C216.491 97.8316 216.899 98.3373 217.27 98.9329C217.64 99.5285 217.911 100.166 218.081 100.847C218.239 101.508 218.24 102.173 218.084 102.844C217.939 103.467 217.687 103.983 217.329 104.393C216.97 104.802 216.521 105.075 215.98 105.212C215.423 105.345 214.786 105.328 214.069 105.161C213.399 105.005 212.68 104.706 211.912 104.265C211.129 103.819 210.377 103.274 209.656 102.63C208.924 101.967 208.281 101.234 207.729 100.432C207.177 99.6293 206.781 98.7896 206.541 97.9125C206.302 97.0353 206.286 96.1527 206.493 95.2644C206.605 94.7814 206.832 94.4071 207.173 94.1415C207.503 93.8568 207.924 93.7743 208.439 93.8941C209.062 94.0393 209.603 94.3624 210.061 94.8634C210.507 95.3452 210.886 95.9426 211.196 96.6556C211.494 97.3494 211.733 98.0868 211.913 98.8679C212.092 99.649 212.229 100.404 212.322 101.132C212.415 101.86 212.48 102.499 212.516 103.05L212.124 102.934Z" fill="#D1A080"/>
<path d="M224.484 68.8291L224.231 70.9017L214.36 66.7953C214.223 66.7302 214.045 66.6682 213.826 66.6093C213.594 66.5326 213.38 66.5064 213.183 66.5308C212.987 66.5552 212.873 66.6944 212.842 66.9485C212.799 67.2979 212.943 67.6379 213.274 67.9683C213.604 68.2988 214.195 68.6771 215.045 69.1034L215.889 69.5207L215.834 69.9733L214.167 69.1654C213.529 68.8458 213.055 68.5058 212.744 68.1455C212.436 67.7693 212.239 67.3988 212.155 67.0339C212.056 66.6511 212.027 66.3009 212.065 65.9833C212.124 65.5068 212.276 65.1789 212.524 64.9996C212.756 64.8183 213.047 64.7411 213.398 64.7679C213.736 64.7768 214.09 64.8443 214.462 64.9702C214.833 65.0961 215.188 65.2281 215.526 65.366L224.484 68.8291ZM215.492 60.8889C215.172 60.7371 214.863 60.6268 214.565 60.5582C214.269 60.4737 214.02 60.4675 213.818 60.5395C213.602 60.5937 213.475 60.7717 213.438 61.0735C213.384 61.5182 213.602 62.0445 214.092 62.6523C214.568 63.2423 215.264 63.8754 216.181 64.5515C217.084 65.2097 218.156 65.8724 219.396 66.5397C220.62 67.2049 221.947 67.8262 223.375 68.4036L219.66 67.1521C217.843 66.1889 216.418 65.3218 215.383 64.5508C214.349 63.7798 213.633 63.0476 213.234 62.3541C212.837 61.6448 212.683 60.9248 212.772 60.1943C212.834 59.686 212.998 59.3353 213.263 59.142C213.515 58.9309 213.826 58.8239 214.197 58.8208C214.568 58.8177 214.955 58.8811 215.358 59.0109C215.764 59.1249 216.151 59.2528 216.521 59.3946L225.205 62.9209L224.944 65.065L215.492 60.8889ZM216.219 54.9332C215.746 54.7142 215.303 54.5796 214.89 54.5292C214.461 54.4768 214.226 54.6253 214.183 54.9748C214.125 55.4512 214.342 55.9854 214.833 56.5774C215.325 57.1694 216.054 57.8063 217.018 58.4882C217.967 59.1681 219.098 59.8704 220.412 60.5949C221.712 61.3017 223.157 62.01 224.746 62.7198L221.764 61.7996C220.188 60.9786 218.86 60.2362 217.78 59.5725C216.685 58.9069 215.811 58.2763 215.158 57.6809C214.506 57.0854 214.053 56.4983 213.802 55.9195C213.534 55.3388 213.439 54.7308 213.517 54.0955C213.598 53.4285 213.844 52.9991 214.254 52.8074C214.664 52.6157 215.144 52.5776 215.695 52.6931C216.231 52.7908 216.758 52.9599 217.277 53.2006L223.951 56.3606C224.424 56.5795 224.79 56.6807 225.05 56.664C225.294 56.6455 225.436 56.4774 225.475 56.1597C225.511 55.858 225.38 55.5438 225.082 55.2172C224.785 54.8747 224.181 54.4786 223.268 54.0287L222.425 53.6114L222.48 53.1588L224.146 53.9666C224.786 54.2704 225.261 54.6104 225.569 54.9866C225.88 55.3469 226.077 55.7174 226.159 56.0982C226.259 56.4651 226.289 56.8153 226.248 57.1488C226.2 57.5458 226.098 57.8557 225.941 58.0784C225.803 58.2872 225.631 58.4435 225.425 58.5473C225.1 58.701 224.719 58.719 224.282 58.6012C223.829 58.4814 223.32 58.2904 222.756 58.0281L216.219 54.9332Z" fill="#D1A080"/>
<path d="M227.297 37.2684C227.317 36.8848 227.099 36.4333 226.645 35.9137C226.174 35.3934 225.537 34.8565 224.731 34.3032C223.926 33.7499 223.007 33.2309 221.974 32.7463C220.942 32.2616 219.864 31.8627 218.743 31.5498L221.311 32.088C222.974 32.7807 224.31 33.4569 225.318 34.1165C226.31 34.7754 227.022 35.4281 227.454 36.0747C227.87 36.7205 228.061 37.363 228.029 38.0022C227.991 38.7532 227.691 39.3068 227.128 39.6629C226.566 40.003 225.862 40.1517 225.015 40.1089C224.248 40.0702 223.424 39.9004 222.542 39.5996C221.644 39.2979 220.759 38.9008 219.886 38.4082C219.015 37.8996 218.227 37.3311 217.521 36.7028C216.816 36.0744 216.257 35.4054 215.844 34.6957C215.432 33.97 215.245 33.2476 215.281 32.5285C215.309 31.9692 215.61 31.5599 216.184 31.3005C216.743 31.0243 217.513 30.9991 218.495 31.2249L218.625 31.4958C217.784 31.3412 217.102 31.3629 216.579 31.5608C216.041 31.7579 215.759 32.1121 215.733 32.6234C215.712 33.0389 215.897 33.4888 216.289 33.9732C216.666 34.4408 217.195 34.9081 217.877 35.375C218.543 35.8252 219.299 36.2478 220.144 36.6429C220.99 37.022 221.871 37.3389 222.787 37.5934C223.688 37.8311 224.562 37.9714 225.409 38.0141C226.096 38.0488 226.579 38.0011 226.858 37.871C227.138 37.7249 227.284 37.524 227.297 37.2684ZM215.713 30.6279C215.717 30.2436 215.704 29.8585 215.676 29.4725C215.647 29.0866 215.585 28.731 215.489 28.4058L225.932 31.9368C226.075 31.976 226.264 32.0336 226.5 32.1096C226.722 32.1689 226.929 32.1793 227.124 32.1411C227.319 32.0868 227.423 31.9239 227.437 31.6522C227.453 31.3326 227.293 31.0122 226.956 30.6908C226.62 30.3695 225.996 30.0336 225.085 29.6832L224.212 29.3508L224.235 28.8953L225.955 29.5829C226.583 29.8389 227.073 30.136 227.424 30.4741C227.76 30.7955 227.992 31.1276 228.119 31.4704C228.261 31.814 228.325 32.1456 228.309 32.4652C228.277 33.0884 228.047 33.5174 227.619 33.7521C227.241 33.9413 226.815 33.9758 226.34 33.8558C225.85 33.7349 225.36 33.598 224.871 33.4452L215.713 30.6279Z" fill="#D1A080"/>
<path d="M216.539 8.86294C216.544 9.27892 216.845 9.74773 217.442 10.2694C218.024 10.7752 218.821 11.2947 219.835 11.8279C220.833 12.3453 221.958 12.8373 223.211 13.3039C224.464 13.7545 225.764 14.1327 227.111 14.4383L224.515 14.034C222.412 13.3684 220.725 12.7224 219.454 12.096C218.167 11.4697 217.232 10.8396 216.65 10.2058C216.067 9.55603 215.771 8.87915 215.764 8.17519C215.756 7.42323 216.029 6.82027 216.585 6.36631C217.14 5.89636 217.985 5.65531 219.121 5.64317C219.841 5.63547 220.634 5.731 221.5 5.92976C222.366 6.11251 223.225 6.39935 224.078 6.79026C224.93 7.16518 225.719 7.63677 226.445 8.20505C227.155 8.75749 227.73 9.39938 228.169 10.1307C228.593 10.8622 228.81 11.676 228.82 12.5719C228.825 13.0519 228.685 13.4854 228.401 13.8725C228.117 14.2435 227.704 14.4959 227.161 14.6298L226.679 14.4429C227.269 14.2126 227.682 13.9522 227.919 13.6616C228.156 13.3551 228.272 13.0018 228.268 12.6018C228.262 12.0578 228.049 11.5401 227.627 11.0486C227.19 10.5572 226.617 10.1073 225.909 9.69886C225.2 9.29041 224.42 8.93872 223.569 8.6438C222.702 8.33305 221.843 8.10221 220.994 7.95129C220.128 7.78453 219.335 7.705 218.615 7.71269C217.911 7.72021 217.392 7.82977 217.058 8.04134C216.709 8.2371 216.535 8.51096 216.539 8.86294ZM212.474 12.5066C212.454 12.1228 212.418 11.7471 212.366 11.3797C212.314 10.9962 212.23 10.6451 212.115 10.3263L230.626 15.4088C231.3 15.5936 231.755 15.4927 231.991 15.1062C232.227 14.7196 232.341 14.1664 232.333 13.4464L232.839 13.585C232.826 13.9052 232.807 14.3614 232.781 14.9537C232.771 15.5299 232.77 16.1459 232.777 16.8019C232.782 17.2978 232.796 17.8017 232.817 18.3135C232.855 18.8252 232.883 19.2089 232.901 19.4647L232.396 19.3261C232.39 18.7501 232.273 18.3353 232.047 18.0817C231.836 17.828 231.45 17.6241 230.888 17.4701L212.474 12.5066ZM219.967 17.4188C219.352 16.8013 218.746 16.2238 218.148 15.6861C217.534 15.1487 216.809 14.6284 215.971 14.1253C215.134 13.6222 214.081 13.1135 212.811 12.599L213.194 12.5229C214.286 12.8632 215.25 13.277 216.088 13.764C216.909 14.2353 217.658 14.7553 218.336 15.3241C218.999 15.8931 219.645 16.5022 220.276 17.1515L219.967 17.4188Z" fill="#D1A080"/>
</svg>
