<svg width="10" height="50" viewBox="0 0 10 50" fill="none" xmlns="http://www.w3.org/2000/svg">
<path d="M9.12 46.556C9.128 47.164 9.032 47.692 8.832 48.14C8.632 48.588 8.332 49.016 7.932 49.424C7.9 49.464 7.86 49.5 7.812 49.532C7.764 49.556 7.708 49.568 7.644 49.568C7.548 49.568 7.46 49.532 7.38 49.46C7.3 49.38 7.26 49.292 7.26 49.196C7.26 49.1 7.3 49.012 7.38 48.932C7.716 48.62 7.972 48.268 8.148 47.876C8.324 47.476 8.412 47.048 8.412 46.592C8.412 46.208 8.352 45.868 8.232 45.572C8.112 45.268 7.94 45.028 7.716 44.852C7.492 44.676 7.232 44.588 6.936 44.588C6.568 44.588 6.272 44.688 6.048 44.888C5.816 45.088 5.628 45.352 5.484 45.68C5.332 46.008 5.196 46.372 5.076 46.772C4.98 47.1 4.872 47.412 4.752 47.708C4.624 48.004 4.472 48.268 4.296 48.5C4.112 48.732 3.888 48.912 3.624 49.04C3.36 49.168 3.04 49.232 2.664 49.232C2.24 49.232 1.864 49.12 1.536 48.896C1.208 48.672 0.951999 48.356 0.767999 47.948C0.575999 47.532 0.48 47.052 0.48 46.508C0.48 46.036 0.559999 45.584 0.719999 45.152C0.88 44.712 1.116 44.364 1.428 44.108C1.556 43.988 1.672 43.928 1.776 43.928C1.856 43.928 1.936 43.968 2.016 44.048C2.096 44.128 2.136 44.216 2.136 44.312C2.136 44.392 2.108 44.46 2.052 44.516C1.884 44.652 1.736 44.824 1.608 45.032C1.472 45.24 1.368 45.472 1.296 45.728C1.224 45.976 1.188 46.236 1.188 46.508C1.188 46.884 1.248 47.224 1.368 47.528C1.48 47.824 1.644 48.06 1.86 48.236C2.076 48.404 2.336 48.488 2.64 48.488C2.976 48.488 3.252 48.392 3.468 48.2C3.684 48.008 3.864 47.756 4.008 47.444C4.144 47.132 4.272 46.8 4.392 46.448C4.488 46.104 4.6 45.776 4.728 45.464C4.848 45.144 5 44.864 5.184 44.624C5.368 44.376 5.6 44.184 5.88 44.048C6.16 43.904 6.512 43.832 6.936 43.832C7.344 43.832 7.712 43.948 8.04 44.18C8.368 44.412 8.628 44.732 8.82 45.14C9.012 45.54 9.112 46.012 9.12 46.556ZM1.224 35.0417C1.288 34.9457 1.372 34.8897 1.476 34.8737C1.572 34.8577 1.668 34.8817 1.764 34.9457C1.836 35.0017 1.876 35.0737 1.884 35.1617C1.892 35.2497 1.876 35.3337 1.836 35.4137C1.636 35.7177 1.48 36.0457 1.368 36.3977C1.256 36.7417 1.2 37.1137 1.2 37.5137C1.2 38.0017 1.288 38.4577 1.464 38.8817C1.632 39.2977 1.88 39.6617 2.208 39.9737C2.528 40.2857 2.908 40.5297 3.348 40.7057C3.788 40.8737 4.272 40.9577 4.8 40.9577C5.344 40.9577 5.84 40.8697 6.288 40.6937C6.728 40.5177 7.108 40.2737 7.428 39.9617C7.748 39.6417 7.992 39.2737 8.16 38.8577C8.328 38.4417 8.412 37.9937 8.412 37.5137C8.412 37.1217 8.356 36.7537 8.244 36.4097C8.132 36.0577 7.98 35.7297 7.788 35.4257C7.74 35.3457 7.724 35.2617 7.74 35.1737C7.748 35.0777 7.792 35.0017 7.872 34.9457C7.96 34.8737 8.056 34.8497 8.16 34.8737C8.256 34.8897 8.332 34.9417 8.388 35.0297C8.516 35.2297 8.636 35.4657 8.748 35.7377C8.86 36.0097 8.948 36.2977 9.012 36.6017C9.084 36.9057 9.12 37.2097 9.12 37.5137C9.12 38.0897 9.016 38.6297 8.808 39.1337C8.6 39.6377 8.308 40.0857 7.932 40.4777C7.548 40.8697 7.092 41.1777 6.564 41.4017C6.036 41.6177 5.448 41.7257 4.8 41.7257C4.176 41.7257 3.604 41.6177 3.084 41.4017C2.556 41.1857 2.1 40.8857 1.716 40.5017C1.332 40.1177 1.032 39.6697 0.816 39.1577C0.599999 38.6457 0.491999 38.0977 0.491999 37.5137C0.491999 37.0577 0.556 36.6177 0.684 36.1937C0.812 35.7697 0.992 35.3857 1.224 35.0417ZM9 31.9659C9 32.0859 8.964 32.1859 8.892 32.2659C8.82 32.3379 8.736 32.3739 8.64 32.3739H0.96C0.864 32.3739 0.779999 32.3379 0.707999 32.2659C0.635999 32.1939 0.599999 32.1099 0.599999 32.0139V28.7739C0.599999 28.3179 0.7 27.9099 0.9 27.5499C1.092 27.1899 1.36 26.9099 1.704 26.7099C2.048 26.5019 2.436 26.3979 2.868 26.3979C3.22 26.3979 3.544 26.4619 3.84 26.5899C4.136 26.7179 4.388 26.8979 4.596 27.1299C4.796 27.3619 4.944 27.6219 5.04 27.9099L4.908 28.3299C4.932 28.0339 5.028 27.7579 5.196 27.5019C5.356 27.2459 5.58 27.0419 5.868 26.8899C6.148 26.7299 6.488 26.6459 6.888 26.6379C7.232 26.6299 7.5 26.6139 7.692 26.5899C7.884 26.5579 8.028 26.5139 8.124 26.4579C8.22 26.4019 8.296 26.3299 8.352 26.2419C8.4 26.1619 8.468 26.1099 8.556 26.0859C8.644 26.0539 8.728 26.0619 8.808 26.1099C8.872 26.1419 8.92 26.1899 8.952 26.2539C8.976 26.3099 8.988 26.3699 8.988 26.4339C8.988 26.4979 8.972 26.5619 8.94 26.6259C8.876 26.7379 8.776 26.8539 8.64 26.9739C8.504 27.0859 8.304 27.1819 8.04 27.2619C7.776 27.3339 7.408 27.3699 6.936 27.3699C6.624 27.3699 6.368 27.4219 6.168 27.5259C5.968 27.6219 5.816 27.7499 5.712 27.9099C5.6 28.0619 5.524 28.2339 5.484 28.4259C5.436 28.6099 5.412 28.7859 5.412 28.9539V31.7499L5.244 31.6179H8.64C8.736 31.6179 8.82 31.6499 8.892 31.7139C8.964 31.7779 9 31.8619 9 31.9659ZM4.752 31.7499V28.7379C4.728 28.4659 4.64 28.2099 4.488 27.9699C4.328 27.7299 4.112 27.5379 3.84 27.3939C3.568 27.2419 3.252 27.1659 2.892 27.1659C2.436 27.1659 2.06 27.3219 1.764 27.6339C1.46 27.9379 1.308 28.3379 1.308 28.8339V31.7019L1.14 31.6179H4.92L4.752 31.7499ZM4.8 16.004C5.432 16.004 6.012 16.104 6.54 16.304C7.06 16.496 7.516 16.772 7.908 17.132C8.292 17.492 8.592 17.92 8.808 18.416C9.016 18.904 9.12 19.44 9.12 20.024C9.12 20.608 9.016 21.148 8.808 21.644C8.592 22.132 8.292 22.556 7.908 22.916C7.516 23.276 7.06 23.556 6.54 23.756C6.012 23.948 5.432 24.044 4.8 24.044C4.168 24.044 3.592 23.948 3.072 23.756C2.544 23.556 2.088 23.276 1.704 22.916C1.312 22.556 1.012 22.132 0.804 21.644C0.588 21.148 0.48 20.608 0.48 20.024C0.48 19.44 0.588 18.904 0.804 18.416C1.012 17.92 1.312 17.492 1.704 17.132C2.088 16.772 2.544 16.496 3.072 16.304C3.592 16.104 4.168 16.004 4.8 16.004ZM4.8 16.772C4.088 16.772 3.464 16.912 2.928 17.192C2.384 17.464 1.96 17.844 1.656 18.332C1.352 18.82 1.2 19.384 1.2 20.024C1.2 20.656 1.352 21.22 1.656 21.716C1.96 22.204 2.384 22.588 2.928 22.868C3.464 23.14 4.088 23.276 4.8 23.276C5.512 23.276 6.14 23.14 6.684 22.868C7.22 22.588 7.64 22.204 7.944 21.716C8.248 21.22 8.4 20.656 8.4 20.024C8.4 19.384 8.248 18.82 7.944 18.332C7.64 17.844 7.22 17.464 6.684 17.192C6.14 16.912 5.512 16.772 4.8 16.772ZM8.292 8.7005C8.292 8.6045 8.328 8.5205 8.4 8.4485C8.464 8.3765 8.544 8.3405 8.64 8.3405C8.744 8.3405 8.832 8.3765 8.904 8.4485C8.968 8.5205 9 8.6045 9 8.7005V12.9845C9 13.0885 8.964 13.1765 8.892 13.2485C8.82 13.3125 8.736 13.3445 8.64 13.3445H0.96C0.864 13.3445 0.779999 13.3085 0.707999 13.2365C0.635999 13.1645 0.599999 13.0725 0.599999 12.9605C0.599999 12.8645 0.635999 12.7805 0.707999 12.7085C0.779999 12.6285 0.864 12.5885 0.96 12.5885H8.496L8.292 12.8165V8.7005ZM8.292 1.35378C8.292 1.25778 8.328 1.17378 8.4 1.10178C8.464 1.02978 8.544 0.993782 8.64 0.993782C8.744 0.993782 8.832 1.02978 8.904 1.10178C8.968 1.17378 9 1.25778 9 1.35378V5.63778C9 5.74178 8.964 5.82978 8.892 5.90178C8.82 5.96578 8.736 5.99778 8.64 5.99778H0.96C0.864 5.99778 0.779999 5.96178 0.707999 5.88978C0.635999 5.81778 0.599999 5.72578 0.599999 5.61378C0.599999 5.51778 0.635999 5.43378 0.707999 5.36178C0.779999 5.28178 0.864 5.24178 0.96 5.24178H8.496L8.292 5.46978V1.35378Z" fill="#D1A080"/>
</svg>
