<svg width="26" height="120" viewBox="0 0 26 120" fill="none" xmlns="http://www.w3.org/2000/svg">
<path d="M18.12 54.556C18.128 55.164 18.032 55.692 17.832 56.14C17.632 56.588 17.332 57.016 16.932 57.424C16.9 57.464 16.86 57.5 16.812 57.532C16.764 57.556 16.708 57.568 16.644 57.568C16.548 57.568 16.46 57.532 16.38 57.46C16.3 57.38 16.26 57.292 16.26 57.196C16.26 57.1 16.3 57.012 16.38 56.932C16.716 56.62 16.972 56.268 17.148 55.876C17.324 55.476 17.412 55.048 17.412 54.592C17.412 54.208 17.352 53.868 17.232 53.572C17.112 53.268 16.94 53.028 16.716 52.852C16.492 52.676 16.232 52.588 15.936 52.588C15.568 52.588 15.272 52.688 15.048 52.888C14.816 53.088 14.628 53.352 14.484 53.68C14.332 54.008 14.196 54.372 14.076 54.772C13.98 55.1 13.872 55.412 13.752 55.708C13.624 56.004 13.472 56.268 13.296 56.5C13.112 56.732 12.888 56.912 12.624 57.04C12.36 57.168 12.04 57.232 11.664 57.232C11.24 57.232 10.864 57.12 10.536 56.896C10.208 56.672 9.952 56.356 9.768 55.948C9.576 55.532 9.48 55.052 9.48 54.508C9.48 54.036 9.56 53.584 9.72 53.152C9.88 52.712 10.116 52.364 10.428 52.108C10.556 51.988 10.672 51.928 10.776 51.928C10.856 51.928 10.936 51.968 11.016 52.048C11.096 52.128 11.136 52.216 11.136 52.312C11.136 52.392 11.108 52.46 11.052 52.516C10.884 52.652 10.736 52.824 10.608 53.032C10.472 53.24 10.368 53.472 10.296 53.728C10.224 53.976 10.188 54.236 10.188 54.508C10.188 54.884 10.248 55.224 10.368 55.528C10.48 55.824 10.644 56.06 10.86 56.236C11.076 56.404 11.336 56.488 11.64 56.488C11.976 56.488 12.252 56.392 12.468 56.2C12.684 56.008 12.864 55.756 13.008 55.444C13.144 55.132 13.272 54.8 13.392 54.448C13.488 54.104 13.6 53.776 13.728 53.464C13.848 53.144 14 52.864 14.184 52.624C14.368 52.376 14.6 52.184 14.88 52.048C15.16 51.904 15.512 51.832 15.936 51.832C16.344 51.832 16.712 51.948 17.04 52.18C17.368 52.412 17.628 52.732 17.82 53.14C18.012 53.54 18.112 54.012 18.12 54.556ZM10.224 43.0417C10.288 42.9457 10.372 42.8897 10.476 42.8737C10.572 42.8577 10.668 42.8817 10.764 42.9457C10.836 43.0017 10.876 43.0737 10.884 43.1617C10.892 43.2497 10.876 43.3337 10.836 43.4137C10.636 43.7177 10.48 44.0457 10.368 44.3977C10.256 44.7417 10.2 45.1137 10.2 45.5137C10.2 46.0017 10.288 46.4577 10.464 46.8817C10.632 47.2977 10.88 47.6617 11.208 47.9737C11.528 48.2857 11.908 48.5297 12.348 48.7057C12.788 48.8737 13.272 48.9577 13.8 48.9577C14.344 48.9577 14.84 48.8697 15.288 48.6937C15.728 48.5177 16.108 48.2737 16.428 47.9617C16.748 47.6417 16.992 47.2737 17.16 46.8577C17.328 46.4417 17.412 45.9937 17.412 45.5137C17.412 45.1217 17.356 44.7537 17.244 44.4097C17.132 44.0577 16.98 43.7297 16.788 43.4257C16.74 43.3457 16.724 43.2617 16.74 43.1737C16.748 43.0777 16.792 43.0017 16.872 42.9457C16.96 42.8737 17.056 42.8497 17.16 42.8737C17.256 42.8897 17.332 42.9417 17.388 43.0297C17.516 43.2297 17.636 43.4657 17.748 43.7377C17.86 44.0097 17.948 44.2977 18.012 44.6017C18.084 44.9057 18.12 45.2097 18.12 45.5137C18.12 46.0897 18.016 46.6297 17.808 47.1337C17.6 47.6377 17.308 48.0857 16.932 48.4777C16.548 48.8697 16.092 49.1777 15.564 49.4017C15.036 49.6177 14.448 49.7257 13.8 49.7257C13.176 49.7257 12.604 49.6177 12.084 49.4017C11.556 49.1857 11.1 48.8857 10.716 48.5017C10.332 48.1177 10.032 47.6697 9.816 47.1577C9.6 46.6457 9.492 46.0977 9.492 45.5137C9.492 45.0577 9.556 44.6177 9.684 44.1937C9.812 43.7697 9.992 43.3857 10.224 43.0417ZM18 39.9659C18 40.0859 17.964 40.1859 17.892 40.2659C17.82 40.3379 17.736 40.3739 17.64 40.3739H9.96C9.864 40.3739 9.78 40.3379 9.708 40.2659C9.636 40.1939 9.6 40.1099 9.6 40.0139V36.7739C9.6 36.3179 9.7 35.9099 9.9 35.5499C10.092 35.1899 10.36 34.9099 10.704 34.7099C11.048 34.5019 11.436 34.3979 11.868 34.3979C12.22 34.3979 12.544 34.4619 12.84 34.5899C13.136 34.7179 13.388 34.8979 13.596 35.1299C13.796 35.3619 13.944 35.6219 14.04 35.9099L13.908 36.3299C13.932 36.0339 14.028 35.7579 14.196 35.5019C14.356 35.2459 14.58 35.0419 14.868 34.8899C15.148 34.7299 15.488 34.6459 15.888 34.6379C16.232 34.6299 16.5 34.6139 16.692 34.5899C16.884 34.5579 17.028 34.5139 17.124 34.4579C17.22 34.4019 17.296 34.3299 17.352 34.2419C17.4 34.1619 17.468 34.1099 17.556 34.0859C17.644 34.0539 17.728 34.0619 17.808 34.1099C17.872 34.1419 17.92 34.1899 17.952 34.2539C17.976 34.3099 17.988 34.3699 17.988 34.4339C17.988 34.4979 17.972 34.5619 17.94 34.6259C17.876 34.7379 17.776 34.8539 17.64 34.9739C17.504 35.0859 17.304 35.1819 17.04 35.2619C16.776 35.3339 16.408 35.3699 15.936 35.3699C15.624 35.3699 15.368 35.4219 15.168 35.5259C14.968 35.6219 14.816 35.7499 14.712 35.9099C14.6 36.0619 14.524 36.2339 14.484 36.4259C14.436 36.6099 14.412 36.7859 14.412 36.9539V39.7499L14.244 39.6179H17.64C17.736 39.6179 17.82 39.6499 17.892 39.7139C17.964 39.7779 18 39.8619 18 39.9659ZM13.752 39.7499V36.7379C13.728 36.4659 13.64 36.2099 13.488 35.9699C13.328 35.7299 13.112 35.5379 12.84 35.3939C12.568 35.2419 12.252 35.1659 11.892 35.1659C11.436 35.1659 11.06 35.3219 10.764 35.6339C10.46 35.9379 10.308 36.3379 10.308 36.8339V39.7019L10.14 39.6179H13.92L13.752 39.7499ZM13.8 24.004C14.432 24.004 15.012 24.104 15.54 24.304C16.06 24.496 16.516 24.772 16.908 25.132C17.292 25.492 17.592 25.92 17.808 26.416C18.016 26.904 18.12 27.44 18.12 28.024C18.12 28.608 18.016 29.148 17.808 29.644C17.592 30.132 17.292 30.556 16.908 30.916C16.516 31.276 16.06 31.556 15.54 31.756C15.012 31.948 14.432 32.044 13.8 32.044C13.168 32.044 12.592 31.948 12.072 31.756C11.544 31.556 11.088 31.276 10.704 30.916C10.312 30.556 10.012 30.132 9.804 29.644C9.588 29.148 9.48 28.608 9.48 28.024C9.48 27.44 9.588 26.904 9.804 26.416C10.012 25.92 10.312 25.492 10.704 25.132C11.088 24.772 11.544 24.496 12.072 24.304C12.592 24.104 13.168 24.004 13.8 24.004ZM13.8 24.772C13.088 24.772 12.464 24.912 11.928 25.192C11.384 25.464 10.96 25.844 10.656 26.332C10.352 26.82 10.2 27.384 10.2 28.024C10.2 28.656 10.352 29.22 10.656 29.716C10.96 30.204 11.384 30.588 11.928 30.868C12.464 31.14 13.088 31.276 13.8 31.276C14.512 31.276 15.14 31.14 15.684 30.868C16.22 30.588 16.64 30.204 16.944 29.716C17.248 29.22 17.4 28.656 17.4 28.024C17.4 27.384 17.248 26.82 16.944 26.332C16.64 25.844 16.22 25.464 15.684 25.192C15.14 24.912 14.512 24.772 13.8 24.772ZM17.292 16.7005C17.292 16.6045 17.328 16.5205 17.4 16.4485C17.464 16.3765 17.544 16.3405 17.64 16.3405C17.744 16.3405 17.832 16.3765 17.904 16.4485C17.968 16.5205 18 16.6045 18 16.7005V20.9845C18 21.0885 17.964 21.1765 17.892 21.2485C17.82 21.3125 17.736 21.3445 17.64 21.3445H9.96C9.864 21.3445 9.78 21.3085 9.708 21.2365C9.636 21.1645 9.6 21.0725 9.6 20.9605C9.6 20.8645 9.636 20.7805 9.708 20.7085C9.78 20.6285 9.864 20.5885 9.96 20.5885H17.496L17.292 20.8165V16.7005ZM17.292 9.35378C17.292 9.25778 17.328 9.17378 17.4 9.10178C17.464 9.02978 17.544 8.99378 17.64 8.99378C17.744 8.99378 17.832 9.02978 17.904 9.10178C17.968 9.17378 18 9.25778 18 9.35378V13.6378C18 13.7418 17.964 13.8298 17.892 13.9018C17.82 13.9658 17.736 13.9978 17.64 13.9978H9.96C9.864 13.9978 9.78 13.9618 9.708 13.8898C9.636 13.8178 9.6 13.7258 9.6 13.6138C9.6 13.5178 9.636 13.4338 9.708 13.3618C9.78 13.2818 9.864 13.2418 9.96 13.2418H17.496L17.292 13.4698V9.35378Z" fill="#D1A080"/>
<path d="M12 114H15L13.5 118L12 114Z" fill="#D1A080" stroke="#D1A080"/>
<rect x="13.25" y="68.25" width="0.5" height="45.5" fill="#D1A080" stroke="#D1A080" stroke-width="0.5"/>
</svg>
