<svg width="192" height="192" viewBox="0 0 192 192" fill="none" xmlns="http://www.w3.org/2000/svg">
<path d="M129.12 120.92C126.86 123.93 122.58 124.54 119.57 122.28L92.29 101.82C90.58 100.53 89.5599 98.5101 89.5599 96.3601V48.63C89.5599 44.86 92.6099 41.8101 96.3799 41.8101C100.15 41.8101 103.2 44.86 103.2 48.63V92.9501L127.75 111.36C129.2 112.44 130.15 114.06 130.41 115.85C130.67 117.64 130.2 119.46 129.11 120.9L129.12 120.92ZM96.39 0.910034C71.07 0.910034 46.7899 10.9701 28.8799 28.8701C10.9799 46.7801 0.919922 71.06 0.919922 96.38C0.919922 121.7 10.9799 145.98 28.8799 163.89C46.7899 181.79 71.07 191.85 96.39 191.85C121.71 191.85 145.99 181.79 163.9 163.89C181.8 145.98 191.86 121.7 191.86 96.38C191.83 71.07 181.77 46.81 163.87 28.91C145.97 11.01 121.7 0.950044 96.4 0.920044L96.39 0.910034Z" fill="#0E9CFE"/>
</svg>
