<svg width="244" height="186" viewBox="0 0 244 186" fill="none" xmlns="http://www.w3.org/2000/svg">
<path d="M216.47 105.891C212.5 103.971 206.87 99.7308 195.5 91.0608C184.81 82.9208 170.19 71.7708 163.15 68.5008C150.24 62.5008 130.77 52.0608 124 48.4108C113.59 48.6008 102.7 48.8208 96.6897 49.0008C96.4697 49.4208 96.2597 49.8508 96.0497 50.2308C91.6897 58.7608 85.0797 71.6408 74.1797 76.0108C70.4397 77.4908 65.9097 78.3208 61.4097 78.3208C54.2597 78.3208 48.8697 76.1808 45.8397 72.1508C43.7497 69.3608 42.9597 65.9108 43.5997 62.5008C44.5597 53.0708 47.1397 34.3608 53.0097 22.0008C47.7897 19.6008 39.4997 15.4109 33.0197 12.0909C27.5997 9.31087 23.9297 12.0708 23.9297 12.0708C21.2797 13.5508 20.0097 16.9808 20.0097 16.9808L1.35967 70.2608C1.35967 70.2608 -0.340334 75.6908 0.0696663 78.4908C0.389666 80.6908 0.889664 82.9808 5.12966 86.0708C10.2297 89.7908 16.7497 95.0009 20.6997 99.9509C23.6997 103.701 24.4397 108.561 25.8797 113.881C29.7397 109.361 35.0597 106.141 41.2597 106.141C42.5497 106.141 43.8397 106.281 45.0897 106.561C51.6497 108.061 56.3097 112.851 58.8597 118.681C61.0897 117.881 63.3997 117.411 65.6997 117.411C68.9597 117.411 72.1597 118.291 74.9397 119.931C78.8397 122.241 81.4297 125.721 82.7797 129.871C84.0697 129.601 85.3897 129.421 86.7397 129.421C90.3597 129.421 93.9697 130.451 97.2197 132.401C103.37 136.141 106.13 142.931 105.45 151.421C108.45 151.561 111.25 152.341 113.59 153.761C121.61 158.661 123.57 171.201 121.34 180.511L121.21 181.061L121.04 181.541C122.36 182.691 123.72 183.821 124.68 184.161C140.94 191.071 149.89 176.771 147.71 169.751C153.4 173.821 164.97 171.801 170.48 166.081C175.99 160.371 173.31 150.341 173.31 150.341C173.31 150.341 188.46 159.011 199.44 148.201C206.57 141.191 200.91 132.481 200.91 132.481C200.91 132.481 215.27 138.261 222.01 128.681C228.38 119.631 224.34 112.581 216.46 105.891H216.47Z" fill="#0E9CFE"/>
<path d="M104.59 185.601C102.77 185.471 100.96 184.891 99.3297 183.831C94.1597 180.471 92.9797 174.471 96.3397 169.281L97.2897 167.511C100.65 162.331 108.6 160.221 112.36 162.491C115.48 164.391 116.98 171.861 115.48 178.111L115.1 179.181C111.67 185.391 108.53 185.891 104.59 185.591V185.601Z" fill="#0E9CFE"/>
<path d="M53.7297 64.1107C53.7297 64.1107 57.2796 28.4107 66.0296 20.6407C74.7896 12.8707 81.6596 10.6108 93.5596 8.6008C105.46 6.5808 131.26 -2.11932 140.16 0.480684C149.05 3.08068 163.82 7.09077 172.64 8.82077C181.46 10.5708 191.91 17.0708 197.15 17.4308C200.11 17.6308 207.38 14.1507 213.26 11.3607C216.25 9.95069 218.91 10.9007 220.78 12.1407C223.7 14.0807 224.55 17.5508 224.55 17.5508L242.43 73.2008C242.43 73.2008 243.36 76.3008 243.04 78.7008C242.79 80.5408 242.22 82.6107 238.7 84.9207C232.4 89.0607 223.44 95.1407 222.49 96.9107C221.02 99.6407 182.89 66.3608 167.5 59.2108C152.11 52.0608 126.54 38.1207 126.54 38.1207C126.54 38.1207 93.7497 38.7208 91.1797 38.9708C88.5997 39.2108 81.5797 62.0307 70.3997 66.5007C63.8097 69.1307 52.4597 68.5707 53.7497 64.1207L53.7297 64.1107Z" fill="#0E9CFE"/>
<path d="M39.2597 144.651C38.6897 144.611 38.1497 144.531 37.5797 144.401C31.5597 143.031 27.7797 137.051 29.1497 131.021L29.7997 128.171C31.1597 122.141 36.8097 115.161 42.8297 116.541C48.8497 117.911 51.8997 126.321 50.5397 132.351L49.9197 136.351C48.6897 141.811 44.6897 145.061 39.2597 144.651Z" fill="#0E9CFE"/>
<path d="M57.9297 159.631C56.2597 159.511 55.0997 159.591 53.5597 158.681C48.2497 155.541 45.9797 148.091 49.1397 142.771L54.3497 135.041C57.4997 129.721 64.4197 125.571 69.7397 128.731C75.0497 131.871 74.0897 139.281 71.7197 144.801L67.5297 153.681C65.2997 157.461 62.0297 159.921 57.9297 159.631Z" fill="#0E9CFE"/>
<path d="M83.4697 172.211C81.7597 172.081 80.0597 171.561 78.4897 170.611C73.2097 167.411 71.5297 160.531 74.7297 155.251L81.6497 145.361C84.8497 140.091 90.7197 137.961 95.9897 141.151C101.26 144.351 99.4997 153.461 97.2497 159.331L93.8397 166.841C91.5997 170.571 87.5197 172.501 83.4697 172.211Z" fill="#0E9CFE"/>
</svg>
