<svg width="233" height="197" viewBox="0 0 233 197" fill="none" xmlns="http://www.w3.org/2000/svg">
<path d="M151.89 22.89V58.52H118.32C97.2301 58.52 80.08 75.6701 80.08 96.8501V105.2H71.1801L39.5 132.93C34.92 138.22 26.21 134.99 26.21 128.08V105.19H22.89C10.32 105.2 0 94.8801 0 82.2201V22.89C0 10.32 10.32 0 22.89 0H128.9C141.55 0 151.88 10.32 151.88 22.89H151.89Z" fill="#0E9CFE"/>
<path d="M98.02 96.8201V149.41C98.02 160.6 107.17 169.75 118.36 169.75H169.58L197.66 194.34C201.73 199.02 209.46 196.17 209.46 190.07V169.75H212.36C223.55 169.75 232.7 160.6 232.7 149.41V96.8201C232.7 85.6301 223.55 76.4801 212.36 76.4801H118.36C107.17 76.4801 98.02 85.6401 98.02 96.8201Z" fill="#0E9CFE"/>
</svg>
