<svg width="480" height="217" viewBox="0 0 480 217" fill="none" xmlns="http://www.w3.org/2000/svg">
<path d="M78.7667 146.19C74.316 146.03 70.0604 145.099 66.124 143.53L71.2041 135.081C73.2344 135.763 75.3622 136.216 77.5609 136.42L78.7667 146.19V146.19Z" fill="#DCDDDD"/>
<path d="M66.3899 132.944L63.4908 142.359C59.581 140.444 56.0524 137.882 53.0469 134.806L61.1325 129.149C62.7283 130.612 64.4926 131.88 66.3811 132.944H66.3899Z" fill="#DCDDDD"/>
<path d="M57.6035 125.248L51.1137 132.669C48.3565 129.389 46.1489 125.638 44.6328 121.56L54.3497 119.663C55.2186 121.658 56.3179 123.528 57.6123 125.248H57.6035Z" fill="#DCDDDD"/>
<path d="M118.06 108.528C118.06 112.083 117.564 115.523 116.642 118.777L107.66 114.627C108.104 112.668 108.334 110.62 108.334 108.519C108.334 108.412 108.334 108.297 108.334 108.191C108.317 106.409 108.13 104.662 107.785 102.969C107.35 100.823 106.667 98.7664 105.763 96.8248C105.027 95.2201 104.141 93.7039 103.112 92.2854C101.853 90.5211 100.39 88.9167 98.7592 87.4893C97.4382 86.3367 96.0196 85.2994 94.4947 84.404C92.6418 83.3135 90.6558 82.4179 88.5635 81.7707C86.9056 81.2564 85.1768 80.8839 83.4036 80.6888C82.3486 80.5647 81.2669 80.5027 80.1764 80.5027C79.0859 80.5027 77.9777 80.5647 76.9138 80.6888C75.1407 80.8927 73.4118 81.2651 71.7539 81.7793C69.6616 82.4354 67.6756 83.3224 65.8316 84.4217C64.3155 85.3172 62.8792 86.3543 61.5671 87.5157C59.9447 88.9431 58.4907 90.5479 57.2228 92.3122C56.2121 93.7396 55.3256 95.2556 54.5808 96.8603C53.6854 98.8019 53.0027 100.859 52.5772 103.013C52.2403 104.706 52.0541 106.444 52.0363 108.226C52.0363 108.324 52.0363 108.413 52.0363 108.51C52.0363 110.62 52.2757 112.677 52.719 114.654L43.7468 118.812C42.807 115.54 42.3105 112.083 42.3105 108.51C42.3105 107.677 42.3371 106.843 42.3992 106.027C42.4613 105.07 42.5588 104.113 42.6918 103.173C43.3124 98.8109 44.6866 94.6971 46.6814 90.9469C47.1336 90.0957 47.6123 89.271 48.1265 88.4642C50.4405 84.8115 53.3662 81.5843 56.7618 78.9157C57.5154 78.3217 58.2956 77.7545 59.0935 77.2226C62.6399 74.8466 66.6206 73.0469 70.8851 71.9741C71.8071 71.7347 72.7469 71.5393 73.7044 71.3797C75.8145 71.0162 77.9777 70.8213 80.1853 70.8213C82.3929 70.8213 84.5296 71.0073 86.613 71.362C87.5705 71.5216 88.5103 71.717 89.4323 71.9564C93.6968 73.0203 97.6775 74.8111 101.233 77.1871C102.031 77.719 102.811 78.2864 103.564 78.8715C106.969 81.5401 109.904 84.7586 112.217 88.4114C112.741 89.2181 113.219 90.0425 113.671 90.8936C115.666 94.635 117.049 98.7574 117.679 103.111C117.821 104.05 117.918 104.999 117.98 105.965C118.033 106.808 118.069 107.65 118.069 108.51L118.06 108.528Z" fill="#DCDDDD"/>
<path d="M115.755 121.498C114.239 125.585 112.04 129.344 109.283 132.625L102.784 125.213C104.07 123.493 105.169 121.613 106.029 119.619L115.755 121.498V121.498Z" fill="#DCDDDD"/>
<path d="M107.35 134.762C104.353 137.838 100.825 140.418 96.9148 142.342L94.0068 132.927C95.9041 131.863 97.6595 130.586 99.2554 129.123L107.35 134.762V134.762Z" fill="#DCDDDD"/>
<path d="M94.29 143.512C90.3625 145.081 86.1069 146.021 81.6562 146.19L82.8443 136.419C85.043 136.215 87.1708 135.754 89.201 135.072L94.2989 143.512H94.29Z" fill="#DCDDDD"/>
<path d="M185.128 118.049C185.128 128.404 173.807 129.734 163.939 129.734C156.288 129.734 150.693 128.857 146.837 127.039C142.413 124.965 140.134 121.658 139.886 116.941L139.851 116.312H147.883V116.915C147.883 119.982 149.789 123.112 163.886 123.112C175.801 123.112 177.176 120.416 177.176 118.395C177.176 115.452 175.899 114.742 162.37 113.918C148.672 113.129 141.251 111.081 141.251 102.525C141.251 93.0301 153.158 91.9219 162.104 91.9219C175.943 91.9219 183.594 96.2748 183.648 104.192V104.795H175.695V104.192C175.695 100.123 171.652 98.5357 161.27 98.5357C150.889 98.5357 149.204 100.167 149.204 102.809C149.204 105.451 150.977 106.435 162.689 107.233C176.2 108.173 185.128 108.793 185.128 118.031V118.049Z" fill="#DCDDDD"/>
<path d="M234.644 92.9146V111.302C234.644 123.874 227.569 129.735 212.364 129.735C197.159 129.735 190.084 123.874 190.084 111.302V92.9146H197.593V111.196C197.593 114.999 197.593 122.917 212.364 122.917C225.423 122.917 227.187 116.994 227.187 111.196V92.9146H234.644V92.9146Z" fill="#DCDDDD"/>
<path d="M285.347 92.9146V128.751H275.48L275.302 128.573L248.545 101.196V128.751H241.036V92.9146H250.904L251.081 93.092L277.847 120.47V92.9146H285.347Z" fill="#DCDDDD"/>
<path d="M387.774 92.9146V99.6349H357.631V107.499H386.79V114.166H357.631V122.083H387.774V128.751H350.112V92.9146H387.774Z" fill="#DCDDDD"/>
<path d="M436.669 127.713L437.75 128.751H427.094L426.916 128.591L411.383 113.767L401.232 121.693V128.751H393.723V92.9146H401.232V112.331L425.879 93.0388L426.039 92.9146H437.999L436.624 93.9873L417.217 109.175L436.669 127.713Z" fill="#DCDDDD"/>
<path d="M343.383 103.793C342.301 101.647 340.812 99.706 338.906 98.119C337 96.4877 334.792 95.2022 332.327 94.3865C329.756 93.4645 327.034 93.0566 324.153 93.0566H292.041V128.857H324.153C327.034 128.857 329.756 128.396 332.327 127.527C334.792 126.658 337.008 125.381 338.906 123.794C340.803 122.163 342.301 120.213 343.383 118.067C344.465 115.824 344.979 113.412 344.979 110.957C344.979 108.501 344.465 106.045 343.383 103.793ZM334.331 118.475C331.813 120.674 328.16 121.853 324.153 121.853H299.24V100.016H324.153C328.16 100.016 331.813 101.24 334.331 103.394C336.698 105.389 337.984 108.049 337.984 110.966C337.984 113.883 336.698 116.489 334.331 118.484V118.475Z" fill="#DCDDDD"/>
</svg>
