<svg width="480" height="217" viewBox="0 0 480 217" fill="none" xmlns="http://www.w3.org/2000/svg">
<path d="M180.877 66.0098H187.477C191.157 66.0098 193.467 69.9897 191.627 73.1797L172.997 105.59C172.147 107.08 170.557 107.99 168.847 107.99H162.617C158.957 107.99 156.647 104.04 158.447 100.85L176.697 68.4399C177.547 66.9299 179.137 66 180.867 66L180.877 66.0098Z" fill="#DCDDDD"/>
<path d="M154.607 85.3999C156.447 88.5899 161.057 88.5899 162.897 85.3999L166.417 79.2998L169.937 73.1997C171.777 70.0097 169.477 66.02 165.787 66.02H151.687C147.997 66.02 145.697 70.0097 147.537 73.1997L151.057 79.2998L154.577 85.3999H154.607Z" fill="#DCDDDD"/>
<path d="M151.718 144.14L148.418 149.86C146.578 153.05 141.978 153.05 140.128 149.86L121.368 117.52C120.508 116.04 120.508 114.21 121.368 112.72L124.478 107.33C126.308 104.16 130.878 104.13 132.748 107.29L151.688 139.3C152.568 140.79 152.578 142.64 151.718 144.13V144.14Z" fill="#DCDDDD"/>
<path d="M148.057 111.7C144.367 111.7 142.067 115.69 143.907 118.88L147.427 124.98L150.947 131.08C152.787 134.27 157.397 134.27 159.237 131.08L162.757 124.98L166.277 118.88C168.117 115.69 165.817 111.7 162.127 111.7H155.077H148.027H148.057Z" fill="#DCDDDD"/>
<path d="M98.9476 78.9897L95.6476 73.27C93.8076 70.08 96.1076 66.0898 99.7876 66.0898L137.168 66.02C138.878 66.02 140.468 66.9297 141.328 68.4097L144.438 73.7998C146.268 76.9698 144.008 80.94 140.348 80.98L103.158 81.3799C101.428 81.3999 99.8276 80.4797 98.9576 78.9897H98.9476Z" fill="#DCDDDD"/>
<path d="M128.868 92.04C130.708 88.85 128.408 84.8599 124.718 84.8599H117.668H110.618C106.928 84.8599 104.628 88.85 106.468 92.04L109.988 98.1396L113.508 104.24C115.348 107.43 119.958 107.43 121.798 104.24L125.318 98.1396L128.838 92.04H128.868Z" fill="#DCDDDD"/>
<path d="M207.248 116.75V98.3696C207.248 92.7296 208.868 88.6697 212.108 86.1997C215.348 83.7297 220.588 82.5 227.838 82.5C234.698 82.5 239.658 83.6901 242.708 86.0601C245.758 88.4301 247.278 92.5399 247.278 98.3799V108.68H216.008V115.7C216.008 118.91 217.128 121.22 219.378 122.63C221.618 124.04 225.088 124.75 229.768 124.75C234.198 124.75 239.418 123.98 245.448 122.44V129.08C239.548 130.36 233.938 131 228.608 131C214.368 131 207.248 126.25 207.248 116.76V116.75ZM238.618 102.99V95.6797C238.618 92.8597 237.768 90.9199 236.068 89.8599C234.368 88.7999 231.468 88.27 227.358 88.27C223.248 88.27 220.498 88.7999 218.698 89.8599C216.898 90.9199 216.008 92.8597 216.008 95.6797V102.99H238.618Z" fill="#DCDDDD"/>
<path d="M254.688 83.46H263.348V89.1396C264.248 84.7096 269.348 82.5 278.648 82.5C284.618 82.5 288.798 83.5797 291.208 85.7197C293.618 87.8697 294.818 91.2496 294.818 95.8696V130.03H286.158V96.3496C286.158 95.1296 286.058 94.1396 285.868 93.3696C285.678 92.5996 285.288 91.8301 284.718 91.0601C283.438 89.4601 280.578 88.6499 276.158 88.6499C272.758 88.6499 270.148 88.8896 268.318 89.3696C266.488 89.8496 265.208 90.64 264.468 91.73C263.728 92.82 263.358 94.3596 263.358 96.3496V130.03H254.698V83.46H254.688Z" fill="#DCDDDD"/>
<path d="M300.388 124.16L326.558 89.3296H301.348V83.46H336.368V89.3296L310.198 124.16H336.948V130.03H300.388V124.16Z" fill="#DCDDDD"/>
<path d="M359.318 130.7L341.328 83.46H350.758L363.748 121.47H363.938L375.678 83.46H384.438L361.058 150.04H352.018L359.328 130.7H359.318Z" fill="#DCDDDD"/>
</svg>
