<svg width="480" height="217" viewBox="0 0 480 217" fill="none" xmlns="http://www.w3.org/2000/svg">
<path d="M202.22 135.175V74.1646H212.22V100.564C214.84 96.0545 220.26 93.3447 226.41 93.3447C237.97 93.3447 245.03 102.365 245.03 115.155C245.03 127.945 237.4 136.225 225.76 136.225C219.69 136.225 214.53 133.515 212.15 128.845L211.49 135.155H202.23L202.22 135.175ZM223.7 127.055C230.75 127.055 234.94 121.975 234.94 114.755C234.94 107.535 230.76 102.375 223.7 102.375C216.64 102.375 212.3 107.455 212.3 114.755C212.3 122.055 216.81 127.055 223.7 127.055Z" fill="#DCDDDD"/>
<path d="M278.39 103.765H274.7C267.48 103.765 262.97 107.615 262.97 115.495V135.175H252.97V94.7446H262.4L262.97 100.645C264.69 96.6245 268.55 93.9248 273.96 93.9248C275.35 93.9248 276.75 94.0846 278.39 94.4946V103.765V103.765Z" fill="#DCDDDD"/>
<path d="M284.05 80.4849C284.05 77.1249 286.75 74.4946 290.2 74.4946C293.65 74.4946 296.19 77.1149 296.19 80.4849C296.19 83.8549 293.48 86.5547 290.2 86.5547C286.76 86.5547 284.05 83.8449 284.05 80.4849ZM285.2 94.6748H295.2V135.185H285.2V94.6748Z" fill="#DCDDDD"/>
<path d="M304.38 80.4849C304.38 77.1249 307.09 74.4946 310.53 74.4946C313.97 74.4946 316.52 77.1149 316.52 80.4849C316.52 83.8549 313.82 86.5547 310.53 86.5547C307.09 86.5547 304.38 83.8449 304.38 80.4849ZM305.53 94.6748H315.53V135.185H305.53V94.6748Z" fill="#DCDDDD"/>
<path d="M323.729 135.175V126.975L343.899 103.035H323.729V94.6748H356.449V102.955L335.949 126.814H356.449V135.175H323.729Z" fill="#DCDDDD"/>
<path d="M361.12 145.584H367.11C371.04 145.584 373.5 144.685 375.23 139.925L376.38 136.895L360.06 94.6646H370.64L381.05 124.185L392.04 94.6646H402.37L382.53 144.195C379.5 151.735 375.23 154.854 368.59 154.854C365.8 154.854 363.34 154.525 361.13 153.955V145.595L361.12 145.584Z" fill="#DCDDDD"/>
<path d="M134.86 109.775C134.86 125.475 122.13 138.205 106.43 138.205C90.73 138.205 78 125.475 78 109.775C78 109.535 78 109.295 78 109.055C78 108.785 78.02 108.525 78.03 108.255C78.03 108.065 78.05 107.875 78.07 107.685C78.11 107.135 78.16 106.594 78.24 106.064C78.26 105.854 78.29 105.645 78.33 105.445C78.36 105.215 78.4 104.995 78.44 104.785C78.51 104.375 78.59 103.975 78.68 103.575C78.72 103.395 78.76 103.215 78.81 103.035C78.85 102.865 78.89 102.695 78.94 102.525C78.94 102.495 78.96 102.455 78.97 102.425C79.01 102.275 79.05 102.115 79.1 101.965C79.25 101.435 79.42 100.905 79.6 100.385C79.66 100.215 79.72 100.045 79.79 99.8745C79.98 99.3645 80.19 98.8547 80.41 98.3447C80.48 98.1747 80.56 98.0147 80.64 97.8447C80.72 97.6847 80.79 97.5145 80.87 97.3545C81.03 97.0245 81.2 96.6947 81.37 96.3647C81.45 96.2147 81.53 96.0648 81.61 95.9248C81.72 95.7348 81.83 95.5445 81.94 95.3545C82.01 95.2245 82.08 95.1046 82.17 94.9746C82.45 94.5146 82.74 94.0647 83.05 93.6147C83.15 93.4647 83.26 93.3148 83.36 93.1748C83.46 93.0348 83.57 92.8846 83.68 92.7446C84.01 92.3046 84.35 91.8746 84.7 91.4546C84.81 91.3246 84.93 91.1945 85.04 91.0645C85.51 90.5245 86.01 89.9946 86.52 89.4946C86.78 89.2446 87.04 88.9949 87.3 88.7549C87.3 88.7549 87.31 88.7549 87.32 88.7349C87.58 88.5049 87.85 88.2749 88.11 88.0449C88.25 87.9249 88.39 87.8146 88.53 87.7046C88.81 87.4746 89.09 87.2549 89.38 87.0449C89.52 86.9349 89.67 86.8246 89.82 86.7246C89.96 86.6146 90.11 86.5146 90.26 86.4146C90.43 86.2946 90.6 86.1747 90.78 86.0547C90.9 85.9747 91.03 85.8945 91.15 85.8145C91.61 85.5245 92.07 85.2449 92.54 84.9849C92.7 84.8949 92.86 84.8046 93.01 84.7246C93.49 84.4646 93.98 84.2246 94.47 83.9946C94.62 83.9246 94.77 83.8547 94.93 83.7847C94.97 83.7747 95.01 83.7549 95.04 83.7349C95.18 83.6749 95.33 83.6147 95.47 83.5547C95.97 83.3447 96.49 83.1448 97 82.9648C97.16 82.9048 97.33 82.8549 97.49 82.7949C98.63 82.4149 99.79 82.1148 100.99 81.8848C101.26 81.8348 101.52 81.7846 101.79 81.7446C101.91 81.7246 102.02 81.7046 102.14 81.6846C102.35 81.6546 102.56 81.6247 102.76 81.5947C102.78 81.5947 102.81 81.5947 102.84 81.5947C103.06 81.5647 103.29 81.5446 103.51 81.5146C103.68 81.4946 103.84 81.4748 104.02 81.4648C104.35 81.4348 104.69 81.4145 105.03 81.3945C105.21 81.3945 105.4 81.3845 105.58 81.3745C105.7 81.3745 105.83 81.3745 105.95 81.3745C106.11 81.3745 106.27 81.3745 106.42 81.3745C122.12 81.3745 134.85 94.1047 134.85 109.805L134.86 109.775Z" fill="#DCDDDD"/>
<path d="M185.86 114.834C185.86 125.974 178.1 135.294 167.69 137.704C167.65 137.704 167.62 137.724 167.58 137.724C166.12 138.034 164.62 138.194 163.1 138.204H128.65C137.09 131.594 142.53 121.305 142.53 109.775C142.53 91.1447 128.34 75.7545 110.2 73.8645C114.04 69.0445 119.44 65.5245 125.65 64.0945C125.66 64.0945 125.67 64.0945 125.69 64.0945C126.79 63.7945 127.91 63.5445 129.05 63.3645C137.63 62.0245 146.37 64.4146 153.06 69.9446C159.54 75.2946 163.49 83.0744 164.01 91.4344C175.6 92.2244 184.88 101.424 185.79 112.994C185.79 113.014 185.79 113.025 185.79 113.045C185.84 113.645 185.86 114.244 185.86 114.854V114.834Z" fill="#DCDDDD"/>
</svg>
