<svg width="480" height="217" viewBox="0 0 480 217" fill="none" xmlns="http://www.w3.org/2000/svg">
<path d="M95.12 126.139C92.99 127.089 90.81 127.809 88.61 128.309C88.27 128.389 87.9301 128.458 87.5801 128.528C87.2401 128.598 86.9 128.659 86.55 128.719C86.03 128.809 85.51 128.879 84.98 128.949C69.95 130.769 54.86 122.729 48.39 108.159L45 100.519C50.91 97.8887 57.17 97.0186 63.17 97.6686C62.51 99.8686 62.0601 102.139 61.8201 104.459L61.6 106.508L63.65 106.729L71.96 107.609C75.88 108.029 79.7801 107.829 83.5801 107.039C84.0801 107.509 84.58 107.999 85.05 108.499C85.34 108.809 85.63 109.119 85.91 109.439C86.21 109.779 86.5 110.129 86.79 110.479C88.74 112.869 90.4 115.549 91.71 118.499L95.1 126.139H95.12Z" fill="#DCDDDD"/>
<path d="M112.39 112.719C113.43 121.289 111.35 130.258 105.87 137.798L100.95 144.559C95.7198 140.749 91.8398 135.779 89.3998 130.249C91.6298 129.719 93.8198 128.978 95.9498 128.028L97.8397 127.188L96.9998 125.309L93.6097 117.668C92.0097 114.068 89.8898 110.789 87.2998 107.889C87.4598 107.219 87.6298 106.548 87.8298 105.878C87.9498 105.468 88.0797 105.068 88.2097 104.668C88.3497 104.238 88.5098 103.809 88.6698 103.389C89.7698 100.509 91.2598 97.7287 93.1598 95.1187L98.0798 88.3584C99.9698 89.7284 101.68 91.2587 103.21 92.9087C103.45 93.1687 103.68 93.4285 103.91 93.6885C104.14 93.9485 104.36 94.2185 104.58 94.4785C108.94 99.7685 111.58 106.129 112.38 112.729L112.39 112.719Z" fill="#DCDDDD"/>
<path d="M111.12 74.0884C110.44 80.5284 108.07 86.3786 104.5 91.2486C102.92 89.5786 101.19 88.0588 99.2997 86.6788L97.6296 85.4688L96.4197 87.1387L91.4996 93.8985C89.1796 97.0885 87.3997 100.559 86.1897 104.249C85.5297 104.449 84.8597 104.629 84.1897 104.789C83.7797 104.889 83.3597 104.979 82.9497 105.059C82.4997 105.149 82.0596 105.228 81.6096 105.298C78.5696 105.788 75.4097 105.888 72.1997 105.548L63.8896 104.669C64.1396 102.349 64.5996 100.099 65.2596 97.9488C65.3596 97.6088 65.4697 97.2788 65.5797 96.9488C65.6897 96.6188 65.8097 96.2888 65.9297 95.9688C67.7197 91.1888 70.4996 86.9285 73.9996 83.4185C81.2996 76.0985 91.7297 72.0288 102.81 73.1988L111.12 74.0787V74.0884Z" fill="#DCDDDD"/>
<path d="M194.82 81.5586H205.71V135.729H194.82V81.5586Z" fill="#DCDDDD"/>
<path d="M247.98 81.5586V92.3486H234.67V135.729H223.75V92.3486H210.41V81.5586H247.98Z" fill="#DCDDDD"/>
<path d="M266.97 80.4487L291.7 135.729H279.91L276.25 127.499H257.7L254.04 135.729H242.28L266.98 80.4487H266.97ZM271.94 117.878L267 106.418L261.99 117.878H271.94Z" fill="#DCDDDD"/>
<path d="M307.29 81.5586V124.909H329.07V135.729H296.41V81.5586H307.3H307.29Z" fill="#DCDDDD"/>
<path d="M333.771 81.5586H344.661V135.729H333.771V81.5586Z" fill="#DCDDDD"/>
<path d="M386.93 81.5586V92.3486H373.62V135.729H362.7V92.3486H349.36V81.5586H386.93Z" fill="#DCDDDD"/>
<path d="M401.92 81.5586L411.8 100.338L421.68 81.5586H434.01L417.21 112.508V135.729H406.39V112.508L389.62 81.5586H401.92Z" fill="#DCDDDD"/>
<path d="M170.58 112.458C166.78 99.2885 174.37 85.5285 187.54 81.7285C191.34 94.8985 183.75 108.658 170.58 112.458Z" fill="#DCDDDD"/>
<path d="M164.61 137.119L140.18 81.7383H151.71L164.58 111.409L170.42 123.999L164.61 137.119Z" fill="#DCDDDD"/>
</svg>
