<svg width="480" height="217" viewBox="0 0 480 217" fill="none" xmlns="http://www.w3.org/2000/svg">
<path d="M110.52 142.54L158.25 82.71C158.92 81.88 159.77 81.4702 160.81 81.4702H168.18C168.8 81.4702 169.11 81.7799 169.11 82.3999V134.82C169.11 135.44 168.8 135.75 168.18 135.75H160.81C159.77 135.75 158.92 135.34 158.25 134.51L144.83 116.98L123.47 142.37C122.8 143.2 121.95 143.61 120.91 143.61H111.06C110.8 143.61 110.6 143.49 110.44 143.26C110.29 143.03 110.31 142.78 110.52 142.52V142.54ZM151.27 108.62L159.26 119.01V98.23L151.27 108.62Z" fill="#DCDDDD"/>
<path d="M208.471 81.48H244.361C244.881 81.48 245.311 81.9102 245.311 82.4302V90.3799C245.311 90.8999 244.881 91.3301 244.361 91.3301H218.401V103.74H237.791C238.301 103.74 238.721 104.16 238.721 104.67V112.58C238.721 113.25 238.411 113.59 237.791 113.59H218.401V134.84C218.401 135.46 218.061 135.77 217.391 135.77H209.401C209.141 135.77 208.921 135.68 208.741 135.5C208.561 135.32 208.471 135.1 208.471 134.84V81.4902V81.48Z" fill="#DCDDDD"/>
<path d="M248.09 81.48H256.08C256.75 81.48 257.09 81.7902 257.09 82.4102V134.83C257.09 135.45 256.75 135.76 256.08 135.76H248.09C247.83 135.76 247.61 135.67 247.43 135.49C247.25 135.31 247.16 135.09 247.16 134.83V82.4102C247.16 82.1502 247.25 81.93 247.43 81.75C247.61 81.57 247.83 81.48 248.09 81.48Z" fill="#DCDDDD"/>
<path d="M263.37 134.83V82.4102C263.37 82.1502 263.46 81.93 263.64 81.75C263.82 81.57 264.04 81.48 264.3 81.48H271.67C272.7 81.48 273.56 81.8902 274.23 82.7202L302.15 119.01V82.4102C302.15 81.7902 302.46 81.48 303.08 81.48H311.07C311.69 81.48 312 81.7902 312 82.4102V134.83C312 135.45 311.69 135.76 311.07 135.76H303.7C302.66 135.76 301.81 135.35 301.14 134.52L273.3 98.23V134.83C273.3 135.45 272.96 135.76 272.29 135.76H264.3C264.04 135.76 263.82 135.67 263.64 135.49C263.46 135.31 263.37 135.09 263.37 134.83Z" fill="#DCDDDD"/>
<path d="M319.201 81.48H327.191C327.861 81.48 328.201 81.7902 328.201 82.4102V134.83C328.201 135.45 327.861 135.76 327.191 135.76H319.201C318.941 135.76 318.721 135.67 318.541 135.49C318.361 135.31 318.271 135.09 318.271 134.83V82.4102C318.271 82.1502 318.361 81.93 318.541 81.75C318.721 81.57 318.941 81.48 319.201 81.48Z" fill="#DCDDDD"/>
<path d="M331.771 82.25C331.771 81.99 331.861 81.7698 332.041 81.5898C332.221 81.4098 332.441 81.3198 332.701 81.3198H366.361C367.391 81.3198 368.251 81.7301 368.921 82.5601L374.661 90.0801C374.871 90.3401 374.901 90.5798 374.781 90.8198C374.651 91.0498 374.431 91.1699 374.121 91.1699H356.831V134.68C356.831 135.3 356.521 135.61 355.901 135.61H347.911C347.291 135.61 346.981 135.3 346.981 134.68V91.1699H332.711C332.451 91.1699 332.231 91.0799 332.051 90.8999C331.871 90.7199 331.781 90.5002 331.781 90.2402V82.25H331.771Z" fill="#DCDDDD"/>
<path d="M368.74 74.0098H378.59C379.62 74.0098 380.48 74.42 381.15 75.25L399.86 103.26L415.76 82.5498C416.43 81.7198 417.28 81.3101 418.32 81.3101H428.17C428.48 81.3101 428.7 81.4402 428.83 81.7002C428.96 81.9602 428.92 82.1899 428.71 82.3999L404.82 113.57V134.66C404.82 134.92 404.73 135.14 404.55 135.32C404.37 135.5 404.15 135.59 403.89 135.59H395.9C395.23 135.59 394.89 135.28 394.89 134.66V113.57L368.2 75.0898C367.99 74.8798 367.97 74.6501 368.12 74.3901C368.28 74.1301 368.48 74 368.74 74V74.0098Z" fill="#DCDDDD"/>
<path d="M174.071 81.48H241.971V91.3301H183.061V103.74H202.451C203.071 103.74 203.381 104.05 203.381 104.67V112.58C203.381 113.25 203.071 113.59 202.451 113.59H183.061V134.84C183.061 135.46 182.721 135.77 182.051 135.77H174.061C173.801 135.77 173.581 135.68 173.401 135.5C173.221 135.32 173.131 135.1 173.131 134.84V82.4199C173.131 82.1599 173.221 81.9398 173.401 81.7598C173.581 81.5798 173.801 81.4902 174.061 81.4902L174.071 81.48Z" fill="#DCDDDD"/>
<path d="M58.2498 97.3299L97.5898 126.27C98.2998 126.85 98.6598 127.58 98.6598 128.47V134.8C98.6598 135.33 98.3898 135.6 97.8598 135.6H52.8098C52.2798 135.6 52.0098 135.33 52.0098 134.8V128.47C52.0098 127.58 52.3598 126.85 53.0798 126.27L68.1398 114.74L58.3898 108.46C57.6798 107.88 57.3198 107.15 57.3198 106.26V97.7996C57.3198 97.5796 57.4198 97.3998 57.6198 97.2698C57.8198 97.1398 58.0298 97.1596 58.2498 97.3396V97.3299ZM75.3298 120.27L66.3998 127.13H84.2598L75.3298 120.27Z" fill="#DCDDDD"/>
<path d="M92.41 119.98L53.07 91.04C52.36 90.46 52 89.7298 52 88.8398V82.5098C52 81.9798 52.27 81.71 52.8 81.71H97.85C98.38 81.71 98.65 81.9798 98.65 82.5098V88.8398C98.65 89.7298 98.3 90.46 97.58 91.04L82.52 102.57L92.27 108.85C92.98 109.43 93.34 110.16 93.34 111.05V119.51C93.34 119.73 93.24 119.91 93.04 120.04C92.84 120.17 92.63 120.15 92.41 119.97V119.98ZM75.33 97.04L84.26 90.1802H66.4L75.33 97.04Z" fill="#DCDDDD"/>
</svg>
