<svg width="480" height="217" viewBox="0 0 480 217" fill="none" xmlns="http://www.w3.org/2000/svg">
<path d="M96.01 74.3804H135.33C153.81 74.3804 165.64 81.7002 165.64 93.2002C165.64 101.2 158.77 107.17 147.27 109.88C162.59 111.8 170.82 118.22 170.82 127.34C170.82 139.06 158.65 146.5 138.14 146.5H96V145.26C96 143.91 96.11 143.12 96.11 143.12L97.24 143.01C101.3 142.56 103.78 135.69 103.78 125.66V95.2402C103.78 85.2102 101.3 78.3401 97.24 77.8901L96.11 77.7803C96.11 77.7803 96 76.9901 96 75.6401V74.4004L96.01 74.3804ZM132.52 108.63C142.1 108.63 148.07 102.66 148.07 93.1904C148.07 84.5104 143.11 78.8804 135.34 78.8804H121.48V108.63H132.52V108.63ZM121.48 141.98H136.35C146.72 141.98 152.35 136.23 152.35 127.33C152.35 118.43 144.91 112.79 131.39 112.79H121.47V141.97L121.48 141.98Z" fill="#DCDDDD"/>
<path d="M204.18 117.54V108.75C204.18 103 202.6 99.2901 200.12 99.2901C195.16 99.2901 192.8 104.7 193.81 112.59C190.77 113.38 188.4 113.83 185.92 113.83C183.44 113.83 181.07 113.38 177.81 112.59C176.35 102 187.27 94.2201 203.73 94.7901C214.21 95.1301 220.97 101.66 220.97 112.48V131.97C220.97 136.82 221.87 139.97 225.36 139.97C227.95 139.97 229.3 139.07 230.09 137.6L231.78 139.74C229.08 144.7 224.57 147.85 214.54 147.85C210.03 147.85 206.54 145.82 205.3 142.33C201.47 144.81 195.72 147.29 189.75 147.29C181.3 147.29 175.78 140.75 175.78 133.77C175.78 120.59 194.26 118 204.17 117.54H204.18ZM199.56 139.29C201.14 139.29 202.83 138.84 204.29 137.83L204.18 120.7C197.98 120.7 191.67 123.63 191.67 131.18C191.67 136.36 195.5 139.29 199.56 139.29V139.29Z" fill="#DCDDDD"/>
<path d="M231.22 146.5V145.26C231.22 143.91 231.33 143.12 231.33 143.12L232.34 143.01C236.4 142.56 238.99 135.69 238.99 125.66V100.87C238.99 86.7901 237.86 84.08 232.34 81.04L231.33 80.48C231.33 80.48 231.22 79.9201 231.22 79.3501L251.73 71.0103H254.88V118.22L257.47 115.97C268.85 106.05 274.82 99.1801 273.36 98.6201C272.8 98.3901 272.91 98.1701 272.91 96.3701V95.1304H291.39V98.5103L290.04 98.6201C286.32 98.9601 278.55 103.47 269.19 110.45L282.26 127.91C289.13 136.7 295.89 142.67 299.95 143.01L301.3 143.12V146.5H268.4V145.26C268.4 143.91 268.51 143.12 268.51 143.12L269.07 143.01C271.44 142.56 268.17 135.57 260.51 125.66C258.59 123.18 256.79 120.7 254.88 118.22V125.66C254.88 135.69 257.47 142.56 261.42 143.01L262.55 143.12C262.55 143.12 262.66 143.91 262.66 145.26V146.5H231.22V146.5Z" fill="#DCDDDD"/>
<path d="M309.53 91.8501C304.57 91.8501 301.08 88.0202 301.08 82.7202C301.08 77.4202 304.46 73.8203 309.76 73.8203C316.52 73.8203 320.01 80.2404 320.01 86.4404C320.01 97.5904 313.93 107.06 304.24 110.78L303.56 108.86C309.31 106.72 313.48 99.7303 312.8 91.2803C311.67 91.6203 310.55 91.8403 309.53 91.8403V91.8501Z" fill="#DCDDDD"/>
<path d="M323.95 124.41C323.95 106.16 334.54 94.5503 351.11 94.5503C354.26 94.5503 357.19 95.68 359.67 97.48C359.44 86.33 358.21 83.6203 353.13 81.0303L352 80.4702C352 80.4702 351.89 80.0203 351.89 79.3403L372.28 71H375.43V116.75C375.43 130.72 376.56 133.43 382.08 136.47L383.09 137.03C383.09 137.03 383.2 137.48 383.2 138.16L362.81 146.5H359.66V138.84C355.27 143.91 349.86 147.07 345.01 147.07C332.05 147.07 323.94 138.28 323.94 124.42L323.95 124.41ZM353.7 137.03C356.18 137.03 358.32 136.47 359.67 135.68V104.24C357.53 101.09 354.26 99.0601 350.32 99.0601C344.35 99.0601 340.52 106.5 340.52 118.22C340.52 129.94 345.7 137.04 353.7 137.04V137.03Z" fill="#DCDDDD"/>
</svg>
