<svg width="480" height="217" viewBox="0 0 480 217" fill="none" xmlns="http://www.w3.org/2000/svg">
<path d="M104.514 106.35C101.628 109.103 98.6557 111.95 95.5888 114.883C91.2638 119.027 86.7264 123.336 82.016 127.92C79.6569 130.217 75.4577 133.991 74.113 135.336L61.5467 128.086C59.9897 127.189 59.0303 125.522 59.0303 123.721V97.3305C59.0303 95.5297 59.9897 93.8705 61.5467 92.974L84.3987 79.7788C85.9558 78.8823 87.8745 78.8823 89.4316 79.7788L112.291 92.974C113.848 93.8705 114.808 95.5376 114.808 97.3305V123.721C114.808 125.522 113.848 127.181 112.291 128.086L93.7487 138.788C96.5247 134.078 99.0883 129.549 101.55 125.286C103.862 121.299 106.071 117.509 108.155 113.876C109.28 111.926 110.341 110.007 111.387 108.143C112.008 107.278 112.504 106.35 112.991 105.43C113.29 104.872 113.164 104.345 112.748 103.826C112.347 103.331 111.843 102.93 111.277 102.607C109.091 101.349 106.787 100.673 104.428 100.35C102.477 100.091 100.653 100.185 98.8523 101.129C92.9624 104.211 86.8916 107.247 80.7107 110.369C79.1851 111.139 77.691 112.044 76.1025 112.618C74.6477 113.137 73.2322 113.255 72.1156 112.405C71.4471 111.902 71.5494 111.084 72.2964 110.353C72.8154 109.834 84.0842 104.581 88.8733 102.599C91.9873 101.31 89.0855 99.5403 86.0658 100.523C81.3948 102.049 76.3935 104.251 71.7302 105.768C69.2846 106.563 66.9019 107.514 64.7472 109.189C62.8442 110.668 61.4602 112.712 60.7761 115.016C60.7682 115.056 60.7604 115.079 60.7604 115.087C60.7604 117.43 61.8849 118.862 63.5992 119.789C65.1798 120.647 66.9727 121.087 68.9543 121.158C73.6254 121.339 78.2886 120.206 82.7159 117.1C89.9663 112.004 96.9021 107.168 103.5 102.505C104.734 101.632 106.079 102.025 107.204 102.623C107.652 102.859 107.746 103.205 107.329 103.598C106.637 104.235 106 104.935 105.332 105.611C105.293 105.651 105.253 105.69 105.214 105.729L104.546 106.342L104.514 106.35Z" fill="#DCDDDD"/>
<path d="M134.656 113.498C133.767 113.113 132.989 112.586 132.328 111.918C131.66 111.249 131.133 110.478 130.747 109.59C130.362 108.701 130.166 107.742 130.166 106.704C130.166 105.666 130.362 104.706 130.747 103.818C131.133 102.929 131.66 102.151 132.328 101.49C132.996 100.822 133.767 100.295 134.656 99.9097C135.544 99.5244 136.504 99.3276 137.542 99.3276H171.206C171.946 99.3276 172.575 99.5873 173.094 100.106C173.613 100.625 173.872 101.254 173.872 101.994C173.872 102.733 173.613 103.362 173.094 103.881C172.575 104.4 171.946 104.659 171.206 104.659H137.432C136.873 104.659 136.386 104.856 135.961 105.241C135.536 105.627 135.324 106.122 135.324 106.712C135.324 107.27 135.536 107.75 135.961 108.151C136.386 108.56 136.873 108.764 137.432 108.764H168.1C169.138 108.764 170.105 108.961 171.01 109.346C171.914 109.732 172.701 110.258 173.369 110.927C174.037 111.595 174.564 112.381 174.95 113.286C175.335 114.19 175.531 115.165 175.531 116.196C175.531 117.226 175.335 118.193 174.95 119.081C174.564 119.97 174.037 120.749 173.369 121.409C172.701 122.078 171.914 122.596 171.01 122.958C170.105 123.328 169.13 123.517 168.1 123.517H134.491C133.751 123.517 133.122 123.257 132.603 122.738C132.084 122.219 131.825 121.59 131.825 120.851C131.825 120.112 132.084 119.483 132.603 118.964C133.122 118.445 133.751 118.185 134.491 118.185H168.32C168.879 118.185 169.358 117.988 169.759 117.603C170.168 117.218 170.373 116.746 170.373 116.187C170.373 115.598 170.168 115.094 169.759 114.693C169.351 114.285 168.871 114.08 168.32 114.08H137.542C136.504 114.08 135.544 113.883 134.656 113.498V113.498Z" fill="#DCDDDD"/>
<path d="M223.783 100.098C224.302 100.617 224.562 101.246 224.562 101.985C224.562 102.725 224.302 103.354 223.783 103.873C223.264 104.392 222.635 104.651 221.896 104.651H205.476V120.843C205.476 121.582 205.217 122.211 204.698 122.73C204.179 123.249 203.55 123.509 202.811 123.509C202.072 123.509 201.442 123.249 200.923 122.73C200.404 122.211 200.145 121.582 200.145 120.843V104.651H183.505C182.837 104.581 182.263 104.29 181.783 103.794C181.303 103.299 181.06 102.693 181.06 101.994C181.06 101.254 181.319 100.625 181.838 100.106C182.357 99.5873 182.986 99.3276 183.725 99.3276H221.88C222.62 99.3276 223.249 99.5873 223.768 100.106L223.783 100.098Z" fill="#DCDDDD"/>
<path d="M227.889 122.51C227.33 123.179 226.646 123.509 225.836 123.509C225.097 123.509 224.468 123.25 223.949 122.731C223.43 122.212 223.17 121.582 223.17 120.843C223.17 120.175 223.351 119.64 223.729 119.231L237.207 101.097C237.836 100.248 238.67 99.5561 239.7 99.0214C240.738 98.4866 241.847 98.2192 243.026 98.2192C244.135 98.2192 245.189 98.4633 246.188 98.943C247.186 99.4227 247.996 100.091 248.625 100.94L262.104 118.964C262.324 119.224 262.513 119.507 262.662 119.821C262.812 120.136 262.882 120.482 262.882 120.843C262.882 121.582 262.623 122.212 262.104 122.731C261.585 123.25 260.956 123.509 260.217 123.509C259.328 123.509 258.628 123.155 258.109 122.456L245.189 105.21C244.929 104.911 244.607 104.589 244.222 104.243C243.836 103.889 243.435 103.716 243.026 103.716C242.617 103.716 242.224 103.889 241.831 104.243C241.446 104.597 241.139 104.919 240.919 105.21L227.889 122.51V122.51Z" fill="#DCDDDD"/>
<path d="M315.239 120.843C315.239 121.582 314.979 122.211 314.46 122.73C313.941 123.249 313.312 123.509 312.573 123.509C311.834 123.509 311.205 123.249 310.686 122.73C310.167 122.211 309.907 121.582 309.907 120.843V108.748C309.907 107.231 309.813 106.476 309.632 106.476C309.482 106.476 308.964 106.971 308.083 107.97L295.878 121.834C295.399 122.392 294.809 122.801 294.101 123.084C293.401 123.359 292.638 123.501 291.828 123.501C291.018 123.501 290.256 123.359 289.556 123.084C288.856 122.809 288.258 122.392 287.779 121.834L275.574 107.97C274.725 106.971 274.206 106.476 274.025 106.476C273.844 106.476 273.75 107.231 273.75 108.748V120.843C273.75 121.582 273.49 122.211 272.971 122.73C272.452 123.249 271.823 123.509 271.084 123.509C270.345 123.509 269.715 123.249 269.196 122.73C268.677 122.211 268.418 121.582 268.418 120.843V104.651C268.418 103.173 268.843 101.915 269.692 100.877C270.541 99.8389 271.705 99.3276 273.183 99.3276C274.072 99.3276 274.866 99.5479 275.566 99.9961C276.266 100.437 276.919 100.979 277.509 101.608L290.263 116.14C290.444 116.329 290.68 116.518 290.956 116.722C291.231 116.927 291.522 117.029 291.813 117.029C292.104 117.029 292.395 116.927 292.67 116.722C292.945 116.518 293.181 116.329 293.362 116.14L306.062 101.608H306.117C306.636 100.908 307.265 100.35 308.004 99.9412C308.743 99.5323 309.553 99.3276 310.442 99.3276C311.92 99.3276 313.084 99.8468 313.933 100.877C314.783 101.915 315.207 103.173 315.207 104.651V120.843H315.239Z" fill="#DCDDDD"/>
<path d="M325.328 122.731C324.809 123.25 324.18 123.509 323.441 123.509C322.702 123.509 322.073 123.25 321.554 122.731C321.034 122.212 320.775 121.582 320.775 120.843V101.986C320.775 101.247 321.034 100.618 321.554 100.099C322.073 99.5796 322.702 99.3203 323.441 99.3203C324.18 99.3203 324.809 99.5796 325.328 100.099C325.847 100.618 326.107 101.247 326.107 101.986V120.843C326.107 121.582 325.847 122.212 325.328 122.731Z" fill="#DCDDDD"/>
<path d="M370.199 100.099C370.718 99.5796 371.347 99.3203 372.086 99.3203C372.825 99.3203 373.454 99.5796 373.973 100.099C374.492 100.618 374.752 101.247 374.752 101.986V118.122C374.752 119.64 374.24 120.914 373.226 121.952C372.212 122.99 370.946 123.501 369.428 123.501C368.909 123.501 368.406 123.43 367.902 123.281C367.407 123.132 366.951 122.927 366.542 122.668L341.142 107.137C340.442 106.728 339.86 106.406 339.396 106.17C338.932 105.926 338.555 105.808 338.256 105.808C337.698 105.808 337.352 106.162 337.202 106.862C337.053 107.561 336.982 108.584 336.982 109.913V120.835C336.982 121.575 336.723 122.204 336.204 122.723C335.685 123.242 335.055 123.501 334.316 123.501C333.577 123.501 332.948 123.242 332.429 122.723C331.91 122.204 331.65 121.575 331.65 120.835V104.699C331.65 103.181 332.161 101.907 333.176 100.869C334.19 99.8312 335.456 99.3203 336.974 99.3203C337.493 99.3203 337.996 99.3909 338.5 99.5403C338.995 99.6897 339.451 99.894 339.86 100.154L365.26 115.684C365.96 116.093 366.542 116.416 367.006 116.652C367.47 116.896 367.847 117.014 368.146 117.014C368.704 117.014 369.05 116.66 369.2 115.96C369.349 115.26 369.42 114.238 369.42 112.909V101.986C369.42 101.247 369.68 100.618 370.199 100.099Z" fill="#DCDDDD"/>
<path d="M385.006 122.51C384.448 123.179 383.764 123.509 382.954 123.509C382.215 123.509 381.586 123.25 381.067 122.731C380.548 122.212 380.288 121.582 380.288 120.843C380.288 120.175 380.469 119.64 380.846 119.231L394.325 101.097C394.954 100.248 395.788 99.5561 396.818 99.0214C397.856 98.4866 398.964 98.2192 400.144 98.2192C401.253 98.2192 402.307 98.4633 403.305 98.943C404.304 99.4227 405.114 100.091 405.743 100.94L419.222 118.964C419.442 119.224 419.63 119.507 419.78 119.821C419.929 120.136 420 120.482 420 120.843C420 121.582 419.741 122.212 419.222 122.731C418.703 123.25 418.073 123.509 417.334 123.509C416.446 123.509 415.746 123.155 415.227 122.456L402.307 105.21C402.047 104.911 401.725 104.589 401.339 104.243C400.954 103.889 400.553 103.716 400.144 103.716C399.735 103.716 399.342 103.889 398.949 104.243C398.563 104.597 398.257 104.919 398.037 105.21L385.006 122.51V122.51Z" fill="#DCDDDD"/>
</svg>
