<svg width="83" height="168" viewBox="0 0 83 168" fill="none" xmlns="http://www.w3.org/2000/svg">
<path d="M57.3325 3.94783V59.8608C57.3325 64.3553 55.4028 68.6544 52.0075 71.6345L26.7257 93.8384C23.3304 96.8185 21.4007 101.093 21.4007 105.612V133.019L14.4391 131.431C7.2088 129.795 1.5662 124.03 0.222727 116.726C0.125019 116.238 0.0761719 115.871 0.0761719 115.627V56.7341C0.0761719 47.5741 4.20421 38.927 11.288 33.1379L50.8838 0.894486C53.4731 -1.20622 57.357 0.625816 57.357 3.97228L57.3325 3.94783Z" fill="#F0F0F0"/>
<path d="M25.3339 163.675V107.762C25.3339 103.267 27.2637 98.968 30.659 95.9879L55.9407 73.784C59.336 70.8039 61.2657 66.5293 61.2657 62.0104V34.6035L68.2273 36.1912C75.4576 37.8278 81.1002 43.5925 82.4437 50.8961C82.5414 51.3847 82.5902 51.7511 82.5902 51.9954V110.888C82.5902 120.048 78.4622 128.695 71.3784 134.485L31.7826 166.728C29.1933 168.829 25.3096 166.997 25.3096 163.65L25.3339 163.675Z" fill="#F0F0F0"/>
</svg>
