<svg width="1563" height="1094" viewBox="0 0 1563 1094" fill="none" xmlns="http://www.w3.org/2000/svg">
<path d="M138.33 336.14C197.79 336.14 254.35 361.76 293.57 406.45L586.53 740.29C625.75 784.98 682.32 810.6 741.78 810.6H1103.55L1082.66 902.39C1060.93 997.9 984.93 1072.2 888.63 1090.08C882.2 1091.27 877.22 1091.96 874.23 1091.96H96.91C64.61 1091.96 32.77 1088.07 2 1080.59V336.14H138.33ZM138.33 334.14H0V1082.16L1.53 1082.53C32.73 1090.11 64.82 1093.96 96.92 1093.96H874.22C877.23 1093.96 882.06 1093.33 888.99 1092.05C936.51 1083.22 980.09 1060.65 1015 1026.78C1049.76 993.05 1073.83 950.19 1084.61 902.83L1105.5 811.04L1106.06 808.6H741.78C682.91 808.6 626.87 783.22 588.03 738.97L295.07 405.13C255.48 360.01 198.35 334.14 138.33 334.14Z" fill="url(#paint0_linear_13_217)"/>
<path d="M812.23 2.71997C933 2.71997 1047.37 57.07 1123.64 150.72L1549.18 673.25C1576.99 707.4 1552.68 758.53 1508.64 758.53H770.81C711.35 758.53 654.78 732.92 615.56 688.22L322.6 354.39C283.38 309.69 226.82 284.07 167.36 284.07H1.99977V8.78003C8.07977 7.16003 14.2498 5.74997 20.5098 4.58997C26.9398 3.39997 31.9298 2.70996 34.9198 2.70996H812.23M812.23 0.709961H34.9198C31.9098 0.709961 27.0698 1.34 20.1498 2.62C13.9598 3.77 7.67977 5.18997 1.48977 6.83997L0.00976562 7.23999V286.07H167.36C226.23 286.07 282.27 311.45 321.1 355.71L614.06 689.54C653.64 734.66 710.78 760.53 770.81 760.53H1508.63C1529.79 760.53 1548.57 748.66 1557.65 729.55C1566.73 710.44 1564.07 688.39 1550.72 671.99L1125.18 149.46C1106.22 126.18 1084.63 105 1061.01 86.51C1037.67 68.24 1012.25 52.52 985.47 39.79C958.69 27.06 930.45 17.28 901.54 10.72C872.29 4.07997 842.23 0.709961 812.21 0.709961H812.23Z" fill="url(#paint1_linear_13_217)"/>
<defs>
<linearGradient id="paint0_linear_13_217" x1="0" y1="714.05" x2="1106.05" y2="714.05" gradientUnits="userSpaceOnUse">
<stop stop-color="#DCDDDD" stop-opacity="0"/>
<stop offset="0.5" stop-color="#4F809F"/>
</linearGradient>
<linearGradient id="paint1_linear_13_217" x1="-4.00023" y1="380.63" x2="1562.99" y2="380.63" gradientUnits="userSpaceOnUse">
<stop stop-color="#DCDDDD" stop-opacity="0"/>
<stop offset="0.5" stop-color="#4F809F"/>
</linearGradient>
</defs>
</svg>
