<svg width="21" height="21" viewBox="0 0 21 21" fill="none" xmlns="http://www.w3.org/2000/svg">
<path d="M7.4502 13.56C7.4502 11.47 7.4502 9.38997 7.4502 7.29997C7.4502 7.07997 7.51021 7.03997 7.72021 7.03997C8.84021 7.04997 9.95019 7.04997 11.0702 7.03997C11.2802 7.03997 11.3302 7.09997 11.3302 7.29997C11.3202 7.74997 11.3302 8.19983 11.3302 8.64983C11.3302 8.69983 11.3002 8.78998 11.3802 8.80998C11.4502 8.82998 11.4602 8.74989 11.4902 8.70989C12.3202 7.41989 13.5303 6.81992 15.0303 6.73992C15.7103 6.69992 16.3903 6.76988 17.0503 6.94988C18.3503 7.30988 19.2103 8.13983 19.6603 9.39983C20.0203 10.3998 20.1202 11.4399 20.1202 12.4899C20.1302 14.9399 20.1202 17.4 20.1302 19.85C20.1302 20.05 20.0702 20.09 19.8802 20.09C18.6902 20.09 17.4903 20.09 16.3003 20.09C16.1003 20.09 16.0603 20.03 16.0603 19.84C16.0603 17.66 16.0703 15.48 16.0603 13.3C16.0603 12.69 16.0202 12.0799 15.8202 11.4999C15.5602 10.7599 14.9902 10.32 14.2102 10.28C13.5402 10.24 12.8902 10.31 12.3602 10.78C11.9902 11.1 11.7903 11.5299 11.6703 11.9999C11.5403 12.4699 11.5002 12.9499 11.5002 13.4299C11.5002 15.4999 11.5002 17.5698 11.5002 19.6498C11.5002 20.0898 11.5003 20.09 11.0503 20.09C9.93029 20.09 8.8202 20.09 7.7002 20.09C7.5102 20.09 7.46021 20.03 7.46021 19.84C7.46021 17.75 7.46021 15.65 7.46021 13.56H7.4502Z" fill="#414042"/>
<path d="M0.850098 13.5601C0.850098 11.4701 0.850098 9.39005 0.850098 7.30005C0.850098 7.09005 0.910117 7.03003 1.12012 7.03003C2.30012 7.04003 3.47015 7.03003 4.65015 7.03003C4.84015 7.03003 4.89014 7.09002 4.89014 7.27002C4.89014 11.47 4.89014 15.6601 4.89014 19.8601C4.89014 20.0301 4.84017 20.0801 4.67017 20.0801C3.49017 20.0801 2.30012 20.0801 1.12012 20.0801C0.910117 20.0801 0.850098 20.0301 0.850098 19.8101C0.850098 17.7201 0.850098 15.64 0.850098 13.55V13.5601Z" fill="#414042"/>
<path d="M2.89009 0.560059C4.19009 0.560059 5.24005 1.61991 5.23005 2.90991C5.23005 4.19991 4.15007 5.27001 2.87007 5.26001C1.56007 5.26001 0.51009 4.18989 0.52009 2.88989C0.52009 1.58989 1.58008 0.560059 2.88008 0.560059H2.89009Z" fill="#414042"/>
</svg>
