<svg width="587" height="168" viewBox="0 0 587 168" fill="none" xmlns="http://www.w3.org/2000/svg">
<path d="M86.4717 60.6911C86.4717 44.1053 94.9967 36.0689 112.56 36.0689H140.943C158.506 36.0689 167.031 44.1053 167.031 60.6911V62.4986L152.106 63.8177V62.8407C152.106 52.6547 147.343 48.2334 136.18 48.2334H117.152C105.989 48.2334 101.396 52.6547 101.396 63.1582V105.172C101.396 115.676 105.989 120.097 117.152 120.097H136.18C147.343 120.097 152.106 115.676 152.106 105.49V104.513L167.031 105.832V107.639C167.031 124.225 158.506 132.262 140.943 132.262H112.56C94.9967 132.262 86.4717 124.225 86.4717 107.639V60.6911Z" fill="#F0F0F0"/>
<path d="M506.073 60.6911C506.073 44.1053 514.598 36.0689 532.161 36.0689H560.545C578.108 36.0689 586.633 44.1053 586.633 60.6911V62.4986L571.708 63.8177V62.8407C571.708 52.6547 566.945 48.2334 555.782 48.2334H536.753C525.59 48.2334 520.998 52.6547 520.998 63.1582V105.172C520.998 115.676 525.59 120.097 536.753 120.097H555.782C566.945 120.097 571.708 115.676 571.708 105.49V104.513L586.633 105.832V107.639C586.633 124.225 578.108 132.262 560.545 132.262H532.161C514.598 132.262 506.073 124.225 506.073 107.639V60.6911Z" fill="#F0F0F0"/>
<path d="M345.933 48.2089C334.77 48.2089 330.006 52.6302 330.006 63.1337V130.576H315.082V60.6666C315.082 44.0808 323.607 36.0444 341.169 36.0444H366.256C383.819 36.0444 392.343 44.0808 392.343 60.6666V130.576H377.419V63.1337C377.419 52.6302 372.655 48.2089 361.492 48.2089H345.933Z" fill="#F0F0F0"/>
<path d="M63.8272 116.8V128.94H33.4403C28.4816 128.94 24.4512 124.91 24.4512 119.951V54.1696C24.4512 50.872 21.7887 48.2095 18.4911 48.2095H0V36.0694H33.4158C36.7134 36.0694 39.376 38.7319 39.376 42.0295V110.84C39.376 114.137 42.0385 116.8 45.3361 116.8H63.8272Z" fill="#F0F0F0"/>
<path d="M20.6173 14.9889V13.3523C20.6173 7.61197 23.2553 5.97541 31.1207 5.97541H31.4383C39.3037 5.97541 41.9419 7.61197 41.9419 13.3523V14.9889C41.9419 20.7292 39.3281 22.3658 31.4383 22.3658H31.1207C23.2553 22.3658 20.6173 20.7292 20.6173 14.9889Z" fill="#F0F0F0"/>
<path d="M419.578 51.2867V39.1466H449.965C454.924 39.1466 458.954 43.177 458.954 48.1356V113.917C458.954 117.215 461.617 119.877 464.914 119.877H483.405V132.017H449.989C446.692 132.017 444.029 129.355 444.029 126.057V57.2468C444.029 53.9492 441.367 51.2867 438.069 51.2867H419.578Z" fill="#F0F0F0"/>
<path d="M461.348 154.734V156.371C461.348 162.111 458.71 163.748 450.845 163.748H450.527C442.662 163.748 440.024 162.111 440.024 156.371V154.734C440.024 148.994 442.637 147.357 450.527 147.357H450.845C458.71 147.357 461.348 148.994 461.348 154.734Z" fill="#F0F0F0"/>
<path d="M255.333 3.94783V59.8608C255.333 64.3553 253.403 68.6544 250.008 71.6345L224.726 93.8384C221.331 96.8185 219.401 101.093 219.401 105.612V133.019L212.439 131.431C205.209 129.795 199.566 124.03 198.223 116.726C198.125 116.238 198.076 115.871 198.076 115.627V56.7341C198.076 47.5741 202.204 38.927 209.288 33.1379L248.884 0.894486C251.473 -1.20622 255.357 0.625816 255.357 3.97228L255.333 3.94783Z" fill="#F0F0F0"/>
<path d="M223.334 163.675V107.762C223.334 103.267 225.264 98.9681 228.659 95.988L253.941 73.7841C257.336 70.804 259.266 66.5294 259.266 62.0105V34.6036L266.227 36.1913C273.458 37.8279 279.1 43.5926 280.444 50.8962C280.541 51.3848 280.59 51.7512 280.59 51.9955V110.888C280.59 120.048 276.462 128.696 269.378 134.485L229.783 166.728C227.193 168.829 223.31 166.997 223.31 163.65L223.334 163.675Z" fill="#F0F0F0"/>
</svg>
