<svg width="24" height="19" viewBox="0 0 24 19" fill="none" xmlns="http://www.w3.org/2000/svg">
<path d="M23.5402 2.40991C22.7002 2.77991 21.7901 3.0399 20.8301 3.1499C21.8001 2.5699 22.5501 1.64004 22.9001 0.540039C21.9901 1.08004 20.9802 1.46993 19.9102 1.67993C19.0502 0.759932 17.8301 0.189941 16.4701 0.189941C13.8701 0.189941 11.7601 2.2999 11.7601 4.8999C11.7601 5.2699 11.8001 5.62997 11.8801 5.96997C7.96013 5.76997 4.49017 3.90005 2.17017 1.05005C1.76017 1.75005 1.53015 2.54992 1.53015 3.41992C1.53015 5.04992 2.36013 6.50009 3.63013 7.34009C2.86013 7.32009 2.13012 7.1 1.50012 6.75C1.50012 6.77 1.50012 6.79006 1.50012 6.81006C1.50012 9.09006 3.12015 10.9999 5.28015 11.4299C4.88015 11.5399 4.47016 11.6001 4.04016 11.6001C3.74016 11.6001 3.44015 11.57 3.15015 11.52C3.75015 13.39 5.49017 14.75 7.55017 14.79C5.94017 16.05 3.91007 16.8101 1.70007 16.8101C1.32007 16.8101 0.940078 16.79 0.580078 16.74C2.66008 18.08 5.14017 18.8601 7.80017 18.8601C16.4602 18.8601 21.2001 11.68 21.2001 5.45996C21.2001 5.25996 21.2001 5.0501 21.1901 4.8501C22.1101 4.1901 22.9102 3.35991 23.5402 2.40991Z" fill="#414042"/>
</svg>
